<svg id="Layer_1" data-name="Layer 1" xmlns="http://www.w3.org/2000/svg" xmlns:xlink="http://www.w3.org/1999/xlink" viewBox="0 0 205.4 115"><defs><style>.cls-1,.cls-4{fill:none;}.cls-2{fill:#fff;}.cls-3{fill:#f06;}.cls-4{stroke:red;stroke-linecap:round;stroke-linejoin:round;stroke-width:5px;}.cls-5{clip-path:url(#clip-path);}.cls-6{isolation:isolate;}</style><clipPath id="clip-path" transform="translate(2.5 2.5)"><rect class="cls-1" x="8.49" y="26.95" width="141.67" height="56.1"/></clipPath></defs><title>admin_btn_up3</title><g id="Layer0_0_FILL" data-name="Layer0 0 FILL"><path class="cls-2" d="M105.15,0V21.9H0V88.1H105.15V110L200.4,55.05,105.15,0m7.3,29.9V13.25L182,55.05,112.45,96.8V80.1H8.5V29.9Z" transform="translate(2.5 2.5)"/><path class="cls-3" d="M112.45,13.25V29.9H8.5V80.1h104V96.8L182,55.05Z" transform="translate(2.5 2.5)"/></g><path id="Layer0_0_1_STROKES" data-name="Layer0 0 1 STROKES" class="cls-4" d="M112.45,13.25,182,55.05,112.45,96.8V80.1H8.5V29.9h104Zm-7.3,8.65V0L200.4,55.05l-95.25,55V88.1H0V21.9Z" transform="translate(2.5 2.5)"/><g class="cls-5"><g class="cls-6"><g class="cls-6"><path class="cls-2" d="M30.2,67.9l-1.28-4H18L16.76,68a15.4,15.4,0,0,1-1.28,3.26,1.87,1.87,0,0,1-1.73.85,2.35,2.35,0,0,1-1.81-.9,3,3,0,0,1-.79-2,5.58,5.58,0,0,1,.19-1.37q.18-.71.6-2l6.85-20.92c.19-.6.43-1.32.7-2.17a12.17,12.17,0,0,1,.88-2.09,4,4,0,0,1,1.22-1.36,3.29,3.29,0,0,1,1.87-.51,3.29,3.29,0,0,1,1.89.51,4,4,0,0,1,1.23,1.33,10.23,10.23,0,0,1,.78,1.75c.22.62.49,1.45.82,2.5l7,20.78A12,12,0,0,1,36,69.11a3.2,3.2,0,0,1-.77,2.06,2.38,2.38,0,0,1-1.88.93,2,2,0,0,1-1.09-.28,2.36,2.36,0,0,1-.77-.74,7.51,7.51,0,0,1-.67-1.45C30.58,69,30.37,68.4,30.2,67.9ZM19.46,59h8l-4-13.29Z" transform="translate(2.5 2.5)"/><path class="cls-2" d="M43.33,39.34H50.4a16,16,0,0,1,4.73.61,8.3,8.3,0,0,1,3.58,2.31q4.18,4.31,4.18,13.1a30.75,30.75,0,0,1-.42,5.29A17.92,17.92,0,0,1,61.18,65a13.63,13.63,0,0,1-2.25,3.44,9.58,9.58,0,0,1-2.35,1.87,9.7,9.7,0,0,1-2.75,1,16.75,16.75,0,0,1-3.32.29H43.44A3.77,3.77,0,0,1,41.22,71a2.48,2.48,0,0,1-1-1.51A11.7,11.7,0,0,1,40,67V43.34a4.74,4.74,0,0,1,.79-3.06A3.11,3.11,0,0,1,43.33,39.34Zm2.1,5.16V66.36h4.11c.9,0,1.61,0,2.12-.08a5.94,5.94,0,0,0,1.59-.44,4.47,4.47,0,0,0,1.43-1q2.72-2.77,2.72-9.54a16.41,16.41,0,0,0-1.2-7.14,5.71,5.71,0,0,0-3-3A12.31,12.31,0,0,0,49,44.5Z" transform="translate(2.5 2.5)"/><path class="cls-2" d="M76.7,66.69,72.41,46.17V68.41a4.62,4.62,0,0,1-.69,2.77,2.23,2.23,0,0,1-3.6,0,4.54,4.54,0,0,1-.7-2.78V42.92a3.53,3.53,0,0,1,.92-2.85,3.8,3.8,0,0,1,2.46-.73h1.68a5.38,5.38,0,0,1,2.2.33,2,2,0,0,1,1,1.18,21.31,21.31,0,0,1,.75,2.79l3.88,17.65,3.89-17.65A21.31,21.31,0,0,1,85,40.85a2,2,0,0,1,1-1.18,5.38,5.38,0,0,1,2.2-.33h1.68a3.81,3.81,0,0,1,2.46.73,3.53,3.53,0,0,1,.92,2.85V68.41a4.62,4.62,0,0,1-.69,2.77,2.17,2.17,0,0,1-1.83.92A2.13,2.13,0,0,1,89,71.18a4.54,4.54,0,0,1-.7-2.77V46.17L84,66.69c-.28,1.34-.51,2.31-.69,2.94a4.11,4.11,0,0,1-1,1.7,2.88,2.88,0,0,1-3.58.27,3.24,3.24,0,0,1-1-1.26,7.72,7.72,0,0,1-.58-1.7C77,68,76.85,67.37,76.7,66.69Z" transform="translate(2.5 2.5)"/><path class="cls-2" d="M99,68.12V42.74a4.85,4.85,0,0,1,.75-3,2.3,2.3,0,0,1,1.93-1,2.36,2.36,0,0,1,2,1,4.78,4.78,0,0,1,.76,3V68.12a4.84,4.84,0,0,1-.76,3,2.36,2.36,0,0,1-2,1,2.32,2.32,0,0,1-1.93-1A4.94,4.94,0,0,1,99,68.12Z" transform="translate(2.5 2.5)"/><path class="cls-2" d="M117.59,42.7l10.43,19V42.52a4.78,4.78,0,0,1,.67-2.8,2.09,2.09,0,0,1,1.8-.93,2.15,2.15,0,0,1,1.84.93,4.78,4.78,0,0,1,.68,2.8V67.86q0,4.24-2.93,4.24a3.44,3.44,0,0,1-1.31-.25,3.29,3.29,0,0,1-1.1-.81,7.74,7.74,0,0,1-1-1.28c-.29-.49-.58-1-.87-1.51L115.67,49.49V68.36a4.56,4.56,0,0,1-.71,2.79,2.24,2.24,0,0,1-3.67,0,4.69,4.69,0,0,1-.69-2.78V43.51a8.53,8.53,0,0,1,.29-2.48A3.36,3.36,0,0,1,112,39.42a2.76,2.76,0,0,1,1.74-.63,2.59,2.59,0,0,1,1.25.28,3.17,3.17,0,0,1,.91.77,7.91,7.91,0,0,1,.8,1.26C117,41.61,117.3,42.14,117.59,42.7Z" transform="translate(2.5 2.5)"/><path class="cls-2" d="M140.24,57.6l-.59-10.53c-.11-2-.16-3.52-.16-4.41a4.54,4.54,0,0,1,.79-2.85,2.53,2.53,0,0,1,2.1-1,2.05,2.05,0,0,1,2.1,1.31,10.5,10.5,0,0,1,.52,3.76c0,1,0,2-.12,3l-.79,10.83a9.81,9.81,0,0,1-.55,3,1.43,1.43,0,0,1-1.38,1,1.37,1.37,0,0,1-1.37-1A11.52,11.52,0,0,1,140.24,57.6Zm2,14.46a2.6,2.6,0,0,1-2-.87,3.39,3.39,0,0,1-.83-2.43,3.51,3.51,0,0,1,.79-2.32,2.43,2.43,0,0,1,1.95-1,2.46,2.46,0,0,1,2,1,3.47,3.47,0,0,1,.81,2.32,3.4,3.4,0,0,1-.82,2.42A2.54,2.54,0,0,1,142.27,72.06Z" transform="translate(2.5 2.5)"/></g></g></g></svg>