<svg id="Layer_1" data-name="Layer 1" xmlns="http://www.w3.org/2000/svg" viewBox="0 0 205.4 115"><defs><style>.cls-1{fill:#fff;}.cls-2{fill:#f06;}.cls-3{fill:none;stroke:red;stroke-linecap:round;stroke-linejoin:round;stroke-width:5px;}</style></defs><title>admin_next_btn_up</title><g id="Symbol_414_0_Layer0_0_FILL" data-name="Symbol 414 0 Layer0 0 FILL"><path class="cls-1" d="M105.15,0V21.9H0V88.1H105.15V110L200.4,55.05,105.15,0m7.3,29.9V13.25L182,55.05,112.45,96.8V80.1H8.5V29.9Z" transform="translate(2.5 2.5)"/><path class="cls-2" d="M112.45,13.25V29.9H8.5V80.1h104V96.8L182,55.05Z" transform="translate(2.5 2.5)"/></g><path id="Symbol_414_0_Layer0_0_1_STROKES" data-name="Symbol 414 0 Layer0 0 1 STROKES" class="cls-3" d="M105.15,0,200.4,55.05l-95.25,55V88.1H0V21.9H105.15Zm7.3,13.25L182,55.05,112.45,96.8V80.1H8.5V29.9h104Z" transform="translate(2.5 2.5)"/><g id="Layer0_0_FILL" data-name="Layer0 0 FILL"><path class="cls-1" d="M126.25,44.75a3.84,3.84,0,0,0,2.5-.7,2.78,2.78,0,0,0,0-3.9,3.56,3.56,0,0,0-2.5-.75H105.5a3.75,3.75,0,0,0-2.45.7,2.53,2.53,0,0,0-.85,2,2.56,2.56,0,0,0,.8,1.95,3.71,3.71,0,0,0,2.5.7h7.1v23.4a4.23,4.23,0,0,0,1,3,3,3,0,0,0,2.35,1,3,3,0,0,0,2.3-1,4.45,4.45,0,0,0,.9-3V44.75h7.15m-27.6.55a8,8,0,0,0,1.7-4,2.19,2.19,0,0,0-.8-1.7,2.71,2.71,0,0,0-2-.75l-1.2.25-.95.65-7.1,10.7L83.45,42.6a21.44,21.44,0,0,0-2.1-3,2.75,2.75,0,0,0-2.1-.8,2.81,2.81,0,0,0-2,.75,2.08,2.08,0,0,0-.85,1.65,4.3,4.3,0,0,0,.45,1.85l1.25,2.35,6.1,9.35L77,65.35a7.51,7.51,0,0,0-1.6,4,2.59,2.59,0,0,0,2.7,2.85,3.22,3.22,0,0,0,1.35-.25l1-.65.75-.85,7-10.75L95.35,70.8a2.9,2.9,0,0,0,1,1,3.61,3.61,0,0,0,3.1,0,2.65,2.65,0,0,0,1-1,2.45,2.45,0,0,0,.4-1.4,3.83,3.83,0,0,0-.45-1.7L92.3,54.8l6.35-9.5m-46.5-5.9a5.49,5.49,0,0,0-2.25.4,2.5,2.5,0,0,0-1.3,1.3,5.15,5.15,0,0,0-.45,2.3V67.6a4.19,4.19,0,0,0,1,3.05,4.19,4.19,0,0,0,3,.95H69.9a3.45,3.45,0,0,0,2.35-.7A2.52,2.52,0,0,0,73,69.05a2.48,2.48,0,0,0-.75-1.9,3.32,3.32,0,0,0-2.35-.75H54.7V57.25H68.25a3,3,0,0,0,2.2-.7,2.36,2.36,0,0,0,.75-1.8A2.2,2.2,0,0,0,70.45,53a3.28,3.28,0,0,0-2.2-.65H54.7v-8H69.4a3.47,3.47,0,0,0,2.3-.65,2.41,2.41,0,0,0,.75-1.85,2.25,2.25,0,0,0-.75-1.8,3.26,3.26,0,0,0-2.3-.7H52.15m-32.7-.3a4.07,4.07,0,0,0-1.5-.25,3.65,3.65,0,0,0-2.1.65,3.24,3.24,0,0,0-1.4,1.6,7,7,0,0,0-.35,2.45V68.4A4.06,4.06,0,0,0,15,71.2a2.73,2.73,0,0,0,2.2,1,2.83,2.83,0,0,0,2.2-1,4.06,4.06,0,0,0,.85-2.8V49.55L33.5,69.8l1.15,1.3a3.79,3.79,0,0,0,1.3.8,4.67,4.67,0,0,0,1.6.25q3.5,0,3.5-4.25V42.55a4.07,4.07,0,0,0-.8-2.75,2.73,2.73,0,0,0-2.2-.95,2.59,2.59,0,0,0-2.15.95,3.87,3.87,0,0,0-.85,2.75v19.2L21.5,41.15l-.95-1.25Z" transform="translate(2.5 2.5)"/></g></svg>