<svg id="Layer_1" data-name="Layer 1" xmlns="http://www.w3.org/2000/svg" viewBox="0 0 205.4 115"><defs><style>.cls-1{fill:#fff;}.cls-2{fill:#f06;}.cls-3{fill:none;stroke:red;stroke-linecap:round;stroke-linejoin:round;stroke-width:5px;}</style></defs><title>admin_prev_btn_up</title><g id="Symbol_983_0_Layer0_0_FILL" data-name="Symbol 983 0 Layer0 0 FILL"><path class="cls-1" d="M200.4,88.1V21.9H95.25V0L0,55.05l95.25,55V88.1H200.4m-8.5-58.2V80.1H88V96.8L18.45,55.05,88,13.25V29.9Z" transform="translate(2.5 2.5)"/><path class="cls-2" d="M191.9,80.1V29.9H88V13.25l-69.5,41.8L88,96.8V80.1Z" transform="translate(2.5 2.5)"/></g><path id="Symbol_983_0_Layer0_0_1_STROKES" data-name="Symbol 983 0 Layer0 0 1 STROKES" class="cls-3" d="M200.4,21.9H95.25V0L0,55.05l95.25,55V88.1H200.4Zm-8.5,8H88V13.25l-69.5,41.8L88,96.8V80.1h104Z" transform="translate(2.5 2.5)"/><g id="Layer0_0_FILL" data-name="Layer0 0 FILL"><path class="cls-1" d="M167.05,43.1a17,17,0,0,0-1.4-3.25,2.8,2.8,0,0,0-2.4-1,3.05,3.05,0,0,0-2.25.9,2.94,2.94,0,0,0-.9,2l.15,1.1,9.25,25.45,1,2A4.83,4.83,0,0,0,172,71.65a4.5,4.5,0,0,0,2.2.5,4.39,4.39,0,0,0,3.7-1.85l1-2L188.2,42.8l.15-1a2.5,2.5,0,0,0-.4-1.35,3.17,3.17,0,0,0-1.15-1.15,3,3,0,0,0-1.55-.4,2.67,2.67,0,0,0-1.8.55,3,3,0,0,0-.95,1.2l-8.15,24.1-7.3-21.6m-30.8-3.7a5.49,5.49,0,0,0-2.25.4,2.5,2.5,0,0,0-1.3,1.3,5.15,5.15,0,0,0-.45,2.3V67.6a3.44,3.44,0,0,0,4,4H154a3.45,3.45,0,0,0,2.35-.7,2.52,2.52,0,0,0,.75-1.85,2.48,2.48,0,0,0-.75-1.9A3.32,3.32,0,0,0,154,66.4H138.8V57.25h13.55a3,3,0,0,0,2.2-.7,2.36,2.36,0,0,0,.75-1.8,2.2,2.2,0,0,0-.75-1.75,3.28,3.28,0,0,0-2.2-.65H138.8v-8h14.7a3.47,3.47,0,0,0,2.3-.65,2.41,2.41,0,0,0,.75-1.85,2.25,2.25,0,0,0-.75-1.8,3.26,3.26,0,0,0-2.3-.7H136.25M126.1,48.25a9,9,0,0,0-.6-3.3,7.78,7.78,0,0,0-4.45-4.6,8.26,8.26,0,0,0-2.8-.75l-14.4-.2a4.19,4.19,0,0,0-3,1,4.19,4.19,0,0,0-1,3V68.15a4.37,4.37,0,0,0,.9,3,3,3,0,0,0,2.4,1,3.1,3.1,0,0,0,2.35-1,4.45,4.45,0,0,0,.9-3V57.8h2.3a7.24,7.24,0,0,1,2.85.5A6,6,0,0,1,113.8,60a26.65,26.65,0,0,1,2.55,3.65l4.05,6.7a6.16,6.16,0,0,0,1.3,1.3,3.3,3.3,0,0,0,1.85.5,3.58,3.58,0,0,0,1.6-.35,3.73,3.73,0,0,0,1.15-1,2.35,2.35,0,0,0,.4-1.25,6.8,6.8,0,0,0-.7-2.25,30.15,30.15,0,0,0-2-3.7,31.23,31.23,0,0,0-2.8-3.8,12.49,12.49,0,0,0-3.35-2.75,11.83,11.83,0,0,0,6.2-3,8.11,8.11,0,0,0,2-5.75m-13.7-4a14.25,14.25,0,0,1,4.5.45,4.22,4.22,0,0,1,1.9,1.55,4,4,0,0,1,.7,2.35,4,4,0,0,1-.85,2.7,4.55,4.55,0,0,1-2.45,1.4,16.4,16.4,0,0,1-4,.4H106.4V44.3h6M94.5,49.05a11,11,0,0,0-.75-4.15,8,8,0,0,0-2.2-3.1A8.48,8.48,0,0,0,88.15,40a22.78,22.78,0,0,0-5.75-.55H74.05a4.63,4.63,0,0,0-3.15.9,4.11,4.11,0,0,0-1,3.1V68.2a4.28,4.28,0,0,0,.9,3,3.06,3.06,0,0,0,2.4,1,3,3,0,0,0,2.3-1,4.23,4.23,0,0,0,1-3v-9.1h6q6,0,9-2.5t3-7.5M86.6,45.7a5,5,0,0,1,1.25,3.5,4.74,4.74,0,0,1-.8,2.85,4.51,4.51,0,0,1-2.35,1.6,12.8,12.8,0,0,1-3.85.5h-4.4V44.3h4.4Q85.2,44.3,86.6,45.7Z" transform="translate(2.5 2.5)"/></g></svg>