<svg id="Layer_1" data-name="Layer 1" xmlns="http://www.w3.org/2000/svg" xmlns:xlink="http://www.w3.org/1999/xlink" viewBox="0 0 40 34.14"><defs><style>.cls-1{fill:#ffb;}.cls-2{filter:url(#Filter_1);}.cls-3{fill:red;}.cls-4{fill:#ccf;}</style><filter id="Filter_1" x="-315.94" y="-319.66" width="140" height="140" name="Filter_1"><feColorMatrix result="result1" values="1 0 0 0 0 0 1 0 0 0 0 0 1 0 0 0 0 0 0 0" in="SourceGraphic"/></filter></defs><title>public_btn_up</title><g id="Tween_9_0_Layer0_0_FILL" data-name="Tween 9 0 Layer0 0 FILL"><path d="M308.45,301.3a24.33,24.33,0,0,0-6.25,3.5q-6.49,5.2-6.25,12.25a13.65,13.65,0,0,0,1.75,6.35,15.31,15.31,0,0,0,2.6,3.05l1.15.8.05.05,1.15.75.15.25-.15.55-1.5,1.6-.4.35-.3.15c-.8.4-1.17.73-1.1,1l.25.25c.1.37.82.77,2.15,1.2l3.55.4,2.25-.3,1.75-.75,1.95-1.15.5-.2.15-.1.2-.05,0-.05h.15l.15-.15,5.45-.3a25,25,0,0,0,10.55-3.95l1-.75q4.95-3.9,6.15-8.75a12.16,12.16,0,0,0-2.1-10.05q-5.81-8.4-18.4-7.5a23.14,23.14,0,0,0-6.65,1.55m-3.8,5.5a20.11,20.11,0,0,1,5.15-2.95,19.71,19.71,0,0,1,5.5-1.25q10.4-.75,15.15,6.2a10,10,0,0,1,1.75,8.35,13,13,0,0,1-5.05,7.2,19.83,19.83,0,0,1-9.55,3.9l-5.65.3a2.71,2.71,0,0,0-1.3.5l-1.85,1.35a9,9,0,0,1-3.4,1.25l-2.6-.15c-.1-.27.22-.67.95-1.2l1.5-1.6c.43-1.2.35-2.08-.25-2.65l-1.95-1.4a13.08,13.08,0,0,1-2.15-2.5,11.23,11.23,0,0,1-1.4-5.25Q299.31,311.09,304.65,306.8Z" transform="translate(-295.94 -299.66)"/><path class="cls-1" d="M309.8,303.85a20.11,20.11,0,0,0-5.15,2.95q-5.36,4.31-5.15,10.1a11.23,11.23,0,0,0,1.4,5.25,13.08,13.08,0,0,0,2.15,2.5l1.95,1.4c.6.57.68,1.45.25,2.65l-1.5,1.6c-.73.53-1.05.93-.95,1.2l2.6.15a9,9,0,0,0,3.4-1.25l1.85-1.35a2.71,2.71,0,0,1,1.3-.5l5.65-.3a19.83,19.83,0,0,0,9.55-3.9,13,13,0,0,0,5.05-7.2,10,10,0,0,0-1.75-8.35q-4.76-6.94-15.15-6.2A19.71,19.71,0,0,0,309.8,303.85Z" transform="translate(-295.94 -299.66)"/></g><g id="glow_mc" data-name="glow mc"><g class="cls-2"><g id="dn_public_chat_glow_mc_0_Layer0_0_FILL" data-name="dn public chat glow mc 0 Layer0 0 FILL"><path class="cls-3" d="M332.2,317.15a10,10,0,0,0-1.75-8.35q-4.76-6.94-15.15-6.2a19.71,19.71,0,0,0-5.5,1.25,20.11,20.11,0,0,0-5.15,2.95q-5.36,4.31-5.15,10.1a11.23,11.23,0,0,0,1.4,5.25,13.08,13.08,0,0,0,2.15,2.5l1.95,1.4c.6.57.68,1.45.25,2.65l-1.5,1.6c-.73.53-1.05.93-.95,1.2l2.6.15a9,9,0,0,0,3.4-1.25l1.85-1.35a2.71,2.71,0,0,1,1.3-.5l5.65-.3a19.83,19.83,0,0,0,9.55-3.9A13,13,0,0,0,332.2,317.15Z" transform="translate(-295.94 -299.66)"/></g></g></g><g id="Layer0_0_FILL" data-name="Layer0 0 FILL"><path class="cls-4" d="M332.15,317.15a10,10,0,0,0-1.75-8.35q-4.75-6.94-15.15-6.2a19.71,19.71,0,0,0-5.5,1.25,20.11,20.11,0,0,0-5.15,2.95q-5.36,4.31-5.15,10.1a11.23,11.23,0,0,0,1.4,5.25,13.08,13.08,0,0,0,2.15,2.5l1.95,1.4c.6.57.68,1.45.25,2.65l-1.5,1.6c-.73.53-1.05.93-.95,1.2l2.6.15a9,9,0,0,0,3.4-1.25l1.85-1.35a2.71,2.71,0,0,1,1.3-.5l5.65-.3a19.83,19.83,0,0,0,9.55-3.9A13,13,0,0,0,332.15,317.15Z" transform="translate(-295.94 -299.66)"/></g></svg>