<svg id="Layer_1" data-name="Layer 1" xmlns="http://www.w3.org/2000/svg" viewBox="0 0 9.9 9.9"><defs><style>.cls-1{fill:#ccc;}.cls-2{fill:#595959;}</style></defs><title>close_btn_up</title><g id="Layer0_0_FILL" data-name="Layer0 0 FILL"><path class="cls-1" d="M8.43,1.44A4.76,4.76,0,0,0,4.94,0,4.78,4.78,0,0,0,1.45,1.44,4.79,4.79,0,0,0,0,4.93a4.8,4.8,0,0,0,1.46,3.5A4.77,4.77,0,0,0,4.94,9.88,4.75,4.75,0,0,0,8.43,8.43a4.76,4.76,0,0,0,1.46-3.5A4.75,4.75,0,0,0,8.43,1.44Z" transform="translate(0.01 0.02)"/></g><g id="Layer0_1_FILL" data-name="Layer0 1 FILL"><path class="cls-2" d="M8,7.08,2.83,1.92,1.77,3,6.93,8.14Z" transform="translate(0.01 0.02)"/></g><g id="Layer0_2_FILL" data-name="Layer0 2 FILL"><path class="cls-2" d="M2.92,8.09,8.08,2.93,7,1.87,1.86,7Z" transform="translate(0.01 0.02)"/></g></svg>