<svg id="Layer_1" data-name="Layer 1" xmlns="http://www.w3.org/2000/svg" xmlns:xlink="http://www.w3.org/1999/xlink" viewBox="0 0 75.6 66.76"><defs><style>.cls-1{fill:#fff;}.cls-2{fill:url(#radial-gradient);}.cls-3{mask:url(#mask);}.cls-4{fill:#323232;}.cls-12,.cls-15,.cls-5,.cls-7,.cls-9{fill:none;}.cls-5{stroke:#323232;}.cls-5,.cls-7{stroke-miterlimit:1;stroke-width:2.29px;}.cls-6{fill:url(#radial-gradient-2);}.cls-7,.cls-9{stroke:#787878;}.cls-8{fill:url(#radial-gradient-3);}.cls-12,.cls-15,.cls-9{stroke-linecap:round;stroke-linejoin:round;}.cls-12,.cls-9{stroke-width:0.7px;}.cls-10{mask:url(#mask-5);}.cls-11{filter:url(#Filter_1);}.cls-12,.cls-15{stroke:#fff;}.cls-13{fill:url(#radial-gradient-4);}.cls-14{filter:url(#Filter_2);}.cls-15{stroke-width:0.85px;}.cls-16{filter:url(#Filter_3);}.cls-17{fill:url(#linear-gradient);}.cls-18{fill:url(#linear-gradient-2);}.cls-19{filter:url(#Filter_4);}</style><radialGradient id="radial-gradient" cx="0" cy="72.75" r="37.81" gradientTransform="matrix(1, 0, 0, -0.8, 37.8, 93.52)" gradientUnits="userSpaceOnUse"><stop offset="0"/><stop offset="1" stop-opacity="0"/></radialGradient><mask id="mask" x="-0.45" y="-5.29" width="125" height="75" maskUnits="userSpaceOnUse"><g transform="translate(0 1.16)"><g id="Mask_Mask_1" data-name="Mask Mask 1"><g id="Mask_Mask_Symbol_1169_0_Layer0_0_FILL" data-name="Mask Mask Symbol 1169 0 Layer0 0 FILL"><path class="cls-1" d="M-.45-6.45v75h125v-75Z"/></g></g></g></mask><radialGradient id="radial-gradient-2" cx="-11.08" cy="50.93" r="75.73" gradientTransform="matrix(0.88, 0.48, 0.55, -0.77, 33.03, 51.26)" gradientUnits="userSpaceOnUse"><stop offset="0" stop-color="#c8c8c8"/><stop offset="1" stop-color="#f0f0e6"/></radialGradient><radialGradient id="radial-gradient-3" cx="-11.07" cy="21.49" r="16.17" gradientTransform="matrix(0.88, 0.48, -0.37, 0.53, 49.22, 25.57)" gradientUnits="userSpaceOnUse"><stop offset="0" stop-color="#fff"/><stop offset="1" stop-color="#c8c8c8"/></radialGradient><mask id="mask-5" x="15.4" y="26.56" width="28.35" height="22.95" maskUnits="userSpaceOnUse"><g transform="translate(0 1.16)"><g id="Mask_Mask_4" data-name="Mask Mask 4"><g id="Mask_Mask_Symbol_1169_0_Layer0_0_FILL-5" data-name="Mask Mask Symbol 1169 0 Layer0 0 FILL"><path class="cls-1" d="M15.4,25.4v23H43.75v-23Z"/></g></g></g></mask><filter id="Filter_1" x="-20" y="-18.84" width="140" height="140" name="Filter_1"><feColorMatrix result="result1" values="1 0 0 0 0 0 1 0 0 0 0 0 1 0 0 0 0 0 0.22 0" in="SourceGraphic"/></filter><radialGradient id="radial-gradient-4" cx="-11.08" cy="27.11" r="8.5" gradientTransform="matrix(0.88, 0.48, -0.55, 0.77, 63.7, 5.28)" xlink:href="#radial-gradient-3"/><filter id="Filter_2" x="-20" y="-18.84" width="140" height="140" name="Filter_2"><feColorMatrix result="result1" values="1 0 0 0 0 0 1 0 0 0 0 0 1 0 0 0 0 0 0.13 0" in="SourceGraphic"/></filter><filter id="Filter_3" x="-20" y="-18.84" width="140" height="140" name="Filter_3"><feColorMatrix result="result1" values="1 0 0 0 0 0 1 0 0 0 0 0 1 0 0 0 0 0 0.23 0" in="SourceGraphic"/></filter><linearGradient id="linear-gradient" x1="2.91" y1="64.85" x2="4.13" y2="63.18" gradientTransform="matrix(1, 0, 0, -1, 15.05, 97)" gradientUnits="userSpaceOnUse"><stop offset="0"/><stop offset="1"/></linearGradient><linearGradient id="linear-gradient-2" x1="1.95" y1="61.28" x2="3.65" y2="61.5" gradientTransform="matrix(1, 0, 0, -1, 36.1, 104.75)" xlink:href="#linear-gradient"/><filter id="Filter_4" x="-20" y="-18.84" width="140" height="140" name="Filter_4"><feColorMatrix result="result1" values="1 0 0 0 0 0 1 0 0 0 0 0 1 0 0 0 0 0 0.3 0" in="SourceGraphic"/></filter></defs><title>coin_btn_up</title><g id="Symbol_1168_0_Layer0_0_FILL" data-name="Symbol 1168 0 Layer0 0 FILL"><path class="cls-2" d="M75.6,35.35q0-12.5-11.1-21.35T37.8,5.15Q22.16,5.15,11.05,14T0,35.35q0,12.56,11.05,21.4T37.8,65.6q15.64,0,26.7-8.85T75.6,35.35Z" transform="translate(0 1.16)"/></g><g class="cls-3"><g id="Symbol_1170_0_Layer1_0_FILL" data-name="Symbol 1170 0 Layer1 0 FILL"><path class="cls-4" d="M64.7,17.75A27.78,27.78,0,0,0,53.15,6.3a33.14,33.14,0,0,0-23.3-3.4Q17.4,5.41,10.6,15A24,24,0,0,0,6,28.1,23.65,23.65,0,0,0,8.7,42.8,28,28,0,0,0,20.3,54.25a33.14,33.14,0,0,0,23.3,3.4q12.45-2.51,19.2-12a24.79,24.79,0,0,0,4.65-13.15A23.89,23.89,0,0,0,64.7,17.75Z" transform="translate(0 1.16)"/></g><path id="Symbol_1170_0_Layer0_0_1_STROKES" data-name="Symbol 1170 0 Layer0 0 1 STROKES" class="cls-5" d="M53.15,6.3a33.14,33.14,0,0,0-23.3-3.4Q17.4,5.41,10.6,15A24,24,0,0,0,6,28.1,23.65,23.65,0,0,0,8.7,42.8,28,28,0,0,0,20.3,54.25a33.14,33.14,0,0,0,23.3,3.4q12.45-2.51,19.2-12a24.79,24.79,0,0,0,4.65-13.15,23.89,23.89,0,0,0-2.75-14.7A27.78,27.78,0,0,0,53.15,6.3Z" transform="translate(0 1.16)"/></g><g id="Symbol_1172_0_Layer0_0_FILL" data-name="Symbol 1172 0 Layer0 0 FILL"><path class="cls-6" d="M67.05,21.05q-2.85-11-13.7-16.9A33.3,33.3,0,0,0,37.05.05a34.07,34.07,0,0,0-14.8,3.3,28.88,28.88,0,0,0-11.45,9.5A23.47,23.47,0,0,0,7,33.3q2.9,11,13.75,16.9A33.14,33.14,0,0,0,44,53.6q12.45-2.55,19.2-12.1A23.43,23.43,0,0,0,67.05,21.05Z" transform="translate(0 1.16)"/></g><g class="cls-3"><path id="Symbol_1174_0_Layer1_0_1_STROKES" data-name="Symbol 1174 0 Layer1 0 1 STROKES" class="cls-7" d="M63.2,41.5Q56.45,51.05,44,53.6a33.14,33.14,0,0,1-23.3-3.4Q9.86,44.24,7,33.3A23.47,23.47,0,0,1,10.8,12.85Q17.55,3.3,30,.75a33.3,33.3,0,0,1,23.35,3.4q10.84,6,13.7,16.9A23.43,23.43,0,0,1,63.2,41.5Z" transform="translate(0 1.16)"/></g><g id="Symbol_1175_0_Layer0_0_FILL" data-name="Symbol 1175 0 Layer0 0 FILL"><path class="cls-8" d="M44.4,42q1-4.65-1.75-10.15l-13.1-7.2q-6.75,0-10.95,2.95a8.79,8.79,0,0,0-4.1,5.95,6.36,6.36,0,0,0,1.1,4.85,12.84,12.84,0,0,0,4,3.15l11.1,6a11.86,11.86,0,0,0,5.1,1.6,7.63,7.63,0,0,0,5.05-1.45A9,9,0,0,0,44.4,42Z" transform="translate(0 1.16)"/></g><g class="cls-3"><path id="Symbol_1189_0_Layer7_0_1_STROKES" data-name="Symbol 1189 0 Layer7 0 1 STROKES" class="cls-9" d="M42.65,31.8l-13.1-7.2q-6.75,0-10.95,2.95a8.79,8.79,0,0,0-4.1,5.95,6.36,6.36,0,0,0,1.1,4.85,12.84,12.84,0,0,0,4,3.15l11.1,6q5.9,3.2,10.15.15A9,9,0,0,0,44.4,42Q45.41,37.3,42.65,31.8Z" transform="translate(0 1.16)"/></g><g class="cls-3"><g class="cls-10"><g class="cls-11"><path id="Symbol_1178_0_Layer0_0_1_STROKES" data-name="Symbol 1178 0 Layer0 0 1 STROKES" class="cls-12" d="M43.15,41.5a14.24,14.24,0,0,0-1.7-9L29.4,25.9a17.49,17.49,0,0,0-9.75,2.55,7.53,7.53,0,0,0-3.7,5.1,5.28,5.28,0,0,0,.95,4.25,10.22,10.22,0,0,0,3.55,2.75l10.75,5.9q5.15,2.85,9,.15A7.75,7.75,0,0,0,43.15,41.5Z" transform="translate(0 1.16)"/></g></g></g><g class="cls-3"><g id="Symbol_1180_0_Layer1_0_FILL" data-name="Symbol 1180 0 Layer1 0 FILL"><path class="cls-13" d="M50.1,21.5a9.19,9.19,0,0,0-4.75-5.85,11.89,11.89,0,0,0-10.7-.25,9.76,9.76,0,0,0-4,3.3,8.14,8.14,0,0,0-1.3,7.05A9.19,9.19,0,0,0,34.1,31.6a11.56,11.56,0,0,0,8,1.2,10.45,10.45,0,0,0,6.65-4.2A8,8,0,0,0,50.1,21.5Z" transform="translate(0 1.16)"/></g><path id="Symbol_1180_0_Layer0_0_1_STROKES" data-name="Symbol 1180 0 Layer0 0 1 STROKES" class="cls-9" d="M48.8,28.6a10.45,10.45,0,0,1-6.65,4.2,11.56,11.56,0,0,1-8-1.2,9.19,9.19,0,0,1-4.75-5.85,8.14,8.14,0,0,1,1.3-7v-.05A10.51,10.51,0,0,1,37.3,14.5a11.76,11.76,0,0,1,8.05,1.15A9.19,9.19,0,0,1,50.1,21.5,8,8,0,0,1,48.8,28.6Z" transform="translate(0 1.16)"/></g><g class="cls-3"><g class="cls-14"><path id="Symbol_1182_0_Layer0_0_1_STROKES" data-name="Symbol 1182 0 Layer0 0 1 STROKES" class="cls-15" d="M48.85,21.75A7.13,7.13,0,0,1,47.7,28h-.05a8.81,8.81,0,0,1-5.8,3.65,10.09,10.09,0,0,1-7.05-1,8.12,8.12,0,0,1-4.2-5.1,7.16,7.16,0,0,1,1.2-6.2,9,9,0,0,1,5.8-3.7,10.09,10.09,0,0,1,7,1A8.12,8.12,0,0,1,48.85,21.75Z" transform="translate(0 1.16)"/></g></g><g class="cls-3"><g class="cls-16"><g id="Symbol_1184_0_Layer0_0_FILL" data-name="Symbol 1184 0 Layer0 0 FILL"><path class="cls-17" d="M15.8,38.05c.5-1,1.95-2.52,4.35-4.45L23.6,31a15.36,15.36,0,0,0-2.9.95,17.62,17.62,0,0,0-5.6,3.4A3.3,3.3,0,0,0,15.8,38.05Z" transform="translate(0 1.16)"/></g></g></g><g class="cls-3"><g class="cls-16"><g id="Symbol_1186_0_Layer0_0_FILL" data-name="Symbol 1186 0 Layer0 0 FILL"><path class="cls-18" d="M39.6,38.75q-1.55,7.2-3.5,9.35a4.72,4.72,0,0,0,3.2-.8,12.52,12.52,0,0,0,.75-5.85Z" transform="translate(0 1.16)"/></g></g></g><g class="cls-3"><g class="cls-19"><g id="Symbol_1188_0_Layer0_0_FILL" data-name="Symbol 1188 0 Layer0 0 FILL"><path class="cls-1" d="M51,49.8a27.9,27.9,0,0,0,10.9-9,22.34,22.34,0,0,0,3.65-19.45q-2.74-10.4-13-16A32.72,32.72,0,0,0,23,4.55a27.23,27.23,0,0,0-10.9,9A22.34,22.34,0,0,0,8.45,33q2.75,10.39,13.05,16A31.94,31.94,0,0,0,37,53,32.2,32.2,0,0,0,51,49.8M50.85,7.6a25.4,25.4,0,0,1,7.5,6.15,21.85,21.85,0,0,1,4.2,8.2,20.43,20.43,0,0,1,.3,9,21.4,21.4,0,0,1-3.6,8.4,24.76,24.76,0,0,1-9.5,8A29.25,29.25,0,0,1,37,50.2a28,28,0,0,1-13.8-3.5q-9.19-5-11.7-14.35A19.87,19.87,0,0,1,14.75,15a24.39,24.39,0,0,1,9.5-7.95,28.87,28.87,0,0,1,12.8-2.9A28.43,28.43,0,0,1,50.85,7.6Z" transform="translate(0 1.16)"/></g></g></g></svg>