<svg id="Layer_1" data-name="Layer 1" xmlns="http://www.w3.org/2000/svg" xmlns:xlink="http://www.w3.org/1999/xlink" viewBox="0 0 384 390"><defs><style>.cls-1{fill-opacity:0.2;}.cls-2{fill-opacity:0.3;}.cls-3{fill-opacity:0.4;}.cls-4{fill:url(#linear-gradient);}.cls-5{fill:url(#linear-gradient-2);}.cls-6{fill:url(#linear-gradient-3);}</style><linearGradient id="linear-gradient" x1="0.01" y1="296.32" x2="187.36" y2="296.32" gradientTransform="matrix(1, 0, 0, -1, 185.85, 479.6)" gradientUnits="userSpaceOnUse"><stop offset="0" stop-color="#a60201"/><stop offset="1" stop-color="#693134"/></linearGradient><linearGradient id="linear-gradient-2" x1="6.25" y1="296.7" x2="181.26" y2="296.7" gradientTransform="matrix(1, 0, 0, -1, 185.85, 479.6)" gradientUnits="userSpaceOnUse"><stop offset="0" stop-color="#fa690e"/><stop offset="0.47" stop-color="#ce0000"/><stop offset="1" stop-color="#fa6a69"/></linearGradient><linearGradient id="linear-gradient-3" x1="93.65" y1="290.9" x2="93.65" y2="376.05" gradientTransform="matrix(1, 0, 0, -1, 185.85, 479.6)" gradientUnits="userSpaceOnUse"><stop offset="0" stop-color="#fc736b"/><stop offset="1" stop-color="#fff2ed"/></linearGradient></defs><title>cross</title><g id="cross_mc" data-name="cross mc"><g id="cross_0_Layer3_0_FILL" data-name="cross 0 Layer3 0 FILL"><path class="cls-1" d="M371.65,119.9,350.4,98.65Q340.16,88.4,329.9,98l-41.7,41.7q-4.95,4.95-9.9,0L236.75,98.1q-10.31-9.7-20.6.6L195,119.9q-10.3,10.3-.65,20.65l41.55,41.55q5,5,0,9.9l-41.6,41.6-.55.65q-8.74,9.94,1.2,19.9l21.25,21.25q6.85,6.86,13.7,4.85a17.65,17.65,0,0,0,6.85-4.2l41.6-41.6.2-.2q4.15-4,8.3-1l1.2,1,.2.2,41.6,41.6q10.35,9.65,20.65-.65l21.2-21.2q10.31-10.3.6-20.6L330.65,192q-4.95-5,0-9.9l41.7-41.7Q381.91,130.15,371.65,119.9Z"/></g><g id="cross_0_Layer2_0_FILL" data-name="cross 0 Layer2 0 FILL"><path class="cls-2" d="M370.9,119.15,349.65,97.9q-10.25-10.25-20.5-.7l-41.7,41.7q-4.95,4.95-9.9,0L236,97.35q-10.31-9.7-20.6.6l-21.2,21.2q-10.3,10.3-.65,20.65l41.55,41.55q5,5,0,9.9l-41.6,41.6-.55.65q-8.74,9.94,1.2,19.9l21.25,21.25q6.85,6.86,13.7,4.85a17.65,17.65,0,0,0,6.85-4.2l41.6-41.6.2-.2q4.15-4,8.3-1l1.2,1,.2.2,41.6,41.6q10.35,9.65,20.65-.65l21.2-21.2q10.31-10.3.6-20.6l-41.6-41.6q-4.95-5,0-9.9l41.7-41.7Q381.16,129.4,370.9,119.15Z"/></g><g id="cross_0_Layer1_0_FILL" data-name="cross 0 Layer1 0 FILL"><path class="cls-3" d="M370.1,138.15q9.56-10.25-.7-20.5L348.15,96.4q-10.25-10.25-20.5-.7L286,137.4q-4.95,4.95-9.9,0L234.5,95.85q-10.31-9.7-20.6.6l-21.2,21.2q-10.3,10.3-.65,20.65l41.55,41.55q5,5,0,9.9L192,231.35l-.55.65q-8.74,9.94,1.2,19.9l21.25,21.25q6.85,6.86,13.7,4.85a17.65,17.65,0,0,0,6.85-4.2l41.6-41.6.2-.2q4.15-4,8.3-1l1.2,1,.2.2,41.6,41.6q10.35,9.65,20.65-.65L369.4,252q10.31-10.3.6-20.6l-41.6-41.6q-4.95-5,0-9.9Z"/></g><g id="cross_0_Layer0_0_FILL" data-name="cross 0 Layer0 0 FILL"><path class="cls-4" d="M368.6,136.65q9.56-10.25-.7-20.5L346.65,94.9q-10.25-10.25-20.5-.7l-41.7,41.7q-4.95,4.95-9.9,0L233,94.35q-10.31-9.7-20.6.6l-21.2,21.2q-10.3,10.3-.65,20.65l41.55,41.55q5,5,0,9.9l-41.6,41.6q-9.6,10.31.65,20.55l21.25,21.25q10.24,10.25,20.55.65l41.6-41.6q4.95-4.95,9.9,0l41.6,41.6q10.35,9.65,20.65-.65l21.2-21.2q10.31-10.3.6-20.6l-41.6-41.6q-4.95-5,0-9.9l41.7-41.7m-5.35-18.25q7.75,7.75-.05,15.55l-48.95,49,48.95,48.95q7.8,7.8.05,15.55l-19.1,19.1q-7.8,7.8-15.6,0L279.6,217.55l-49,48.95q-7.8,7.8-15.55.05L196,247.45q-7.8-7.8,0-15.6L245,182.9,196,134q-7.8-7.8,0-15.6l19.1-19.1q7.76-7.75,15.55,0l49,49L328.55,99.3q7.8-7.8,15.6,0Z"/><path class="cls-5" d="M363.2,134q7.8-7.8.05-15.55l-19.1-19.1q-7.8-7.8-15.6,0l-48.95,49-49-48.95q-7.8-7.8-15.55,0L196,118.35q-7.8,7.8,0,15.6l48.95,49L196,231.85q-7.8,7.8,0,15.6l19.1,19.1q7.76,7.76,15.55-.05l49-48.95,48.95,48.95q7.8,7.8,15.6,0l19.1-19.1q7.75-7.76-.05-15.55L314.25,182.9l48.95-49m-4.35-7.45,0,0-56.6,56.6,2.5,2.5.05,0a116.17,116.17,0,0,1-27.05,3.05,117.71,117.71,0,0,1-24-2.35h.05l-.1-.05,3.3-3.3-57-57,22.55-22.55,56.95,57,56.6-56.6Z"/><path class="cls-6" d="M304.8,185.65l-2.5-2.5-.05-.05,56.6-56.6-22.6-22.6-56.6,56.6L222.7,103.55,200.15,126.1l57,57-3.3,3.3.1.05a119.59,119.59,0,0,0,23.85,2.3A116.17,116.17,0,0,0,304.8,185.65Z"/></g></g></svg>