<svg id="Layer_1" data-name="Layer 1" xmlns="http://www.w3.org/2000/svg" viewBox="0 0 409.69 485.99"><defs><style>.cls-1{fill:#e6e6e6;}.cls-2,.cls-3,.cls-4{fill:none;stroke:#000;}.cls-2,.cls-3{stroke-linejoin:round;}.cls-2{stroke-width:9.44px;}.cls-3{stroke-width:10px;}.cls-4{stroke-miterlimit:1;}.cls-5{fill:#fff;}.cls-6{fill-opacity:0.25;}</style></defs><title>die_btn_up</title><g id="Symbol_1166_0_Layer17_0_FILL" data-name="Symbol 1166 0 Layer17 0 FILL"><path class="cls-1" d="M0,107.3q.55,0,120.3,58.85L240,225,400.25,65.5,184,0Z" transform="translate(4.72 4.72)"/></g><path id="Symbol_1166_0_Layer17_0_1_STROKES" data-name="Symbol 1166 0 Layer17 0 1 STROKES" class="cls-2" d="M120.3,166.15,240,225,400.25,65.5,184,0,0,107.3Q.55,107.3,120.3,166.15Z" transform="translate(4.72 4.72)"/><g id="Symbol_1166_0_Layer16_0_FILL" data-name="Symbol 1166 0 Layer16 0 FILL"><path class="cls-1" d="M238.25,224.05.85,108.25Q2.55,338.91,1.7,338l240,137.65Z" transform="translate(4.72 4.72)"/></g><path id="Symbol_1166_0_Layer16_0_1_STROKES" data-name="Symbol 1166 0 Layer16 0 1 STROKES" class="cls-3" d="M.85,108.25Q2.55,338.91,1.7,338l240,137.65-3.4-251.55Z" transform="translate(4.72 4.72)"/><g id="Symbol_1166_0_Layer15_0_FILL" data-name="Symbol 1166 0 Layer15 0 FILL"><path class="cls-1" d="M397.7,308.55l2.55-243L239.1,225l2.55,251.55Z" transform="translate(4.72 4.72)"/></g><path id="Symbol_1166_0_Layer15_0_1_STROKES" data-name="Symbol 1166 0 Layer15 0 1 STROKES" class="cls-2" d="M397.7,308.55l-156,168L239.1,225,400.25,65.5Z" transform="translate(4.72 4.72)"/><g id="Symbol_1166_0_Layer14_0_FILL" data-name="Symbol 1166 0 Layer14 0 FILL"><path d="M222.2,36.45q-.34-5-7.85-7.8-4.31-2.29-11.85-.6a33.82,33.82,0,0,0-12.7,5.65q-6,4.39-6.15,9.1-.26,5.45,7.75,9.6,6.19,2,13.95-.25a30.47,30.47,0,0,0,12.05-6.6Q222.55,40.94,222.2,36.45Z" transform="translate(4.72 4.72)"/></g><path id="Symbol_1166_0_Layer14_0_1_STROKES" data-name="Symbol 1166 0 Layer14 0 1 STROKES" class="cls-4" d="M214.35,28.65q-4.31-2.29-11.85-.6a33.82,33.82,0,0,0-12.7,5.65q-6,4.39-6.15,9.1-.26,5.45,7.75,9.6,6.19,2,13.95-.25a30.47,30.47,0,0,0,12.05-6.6q5.15-4.61,4.8-9.1Q221.86,31.45,214.35,28.65Z" transform="translate(4.72 4.72)"/><g id="Symbol_1166_0_Layer13_0_FILL" data-name="Symbol 1166 0 Layer13 0 FILL"><path d="M170.75,67.3q-.34-5-7.85-7.8-4.31-2.3-11.8-.6a33.4,33.4,0,0,0-12.7,5.65q-6,4.4-6.2,9.1-.25,5.44,7.75,9.6,6.2,2,14-.25a30.47,30.47,0,0,0,12-6.6Q171.1,71.79,170.75,67.3Z" transform="translate(4.72 4.72)"/></g><path id="Symbol_1166_0_Layer13_0_1_STROKES" data-name="Symbol 1166 0 Layer13 0 1 STROKES" class="cls-4" d="M162.9,59.5q-4.31-2.3-11.8-.6a33.4,33.4,0,0,0-12.7,5.65q-6,4.4-6.2,9.1-.25,5.44,7.75,9.6,6.2,2,14-.25a30.47,30.47,0,0,0,12-6.6q5.15-4.61,4.8-9.1Q170.41,62.31,162.9,59.5Z" transform="translate(4.72 4.72)"/><g id="Symbol_1166_0_Layer12_0_FILL" data-name="Symbol 1166 0 Layer12 0 FILL"><path d="M103.55,97.5q-4.3-2.3-11.8-.65a33.44,33.44,0,0,0-12.7,5.7q-6,4.35-6.15,9-.25,5.45,7.75,9.6A23.53,23.53,0,0,0,94.6,121a30,30,0,0,0,12.05-6.55q5.1-4.65,4.8-9.1Q111.1,100.31,103.55,97.5Z" transform="translate(4.72 4.72)"/></g><path id="Symbol_1166_0_Layer12_0_1_STROKES" data-name="Symbol 1166 0 Layer12 0 1 STROKES" class="cls-4" d="M103.55,97.5q-4.3-2.3-11.8-.65a33.44,33.44,0,0,0-12.7,5.7q-6,4.35-6.15,9-.25,5.45,7.75,9.6A23.53,23.53,0,0,0,94.6,121a30,30,0,0,0,12.05-6.55q5.1-4.65,4.8-9.1Q111.1,100.31,103.55,97.5Z" transform="translate(4.72 4.72)"/><g id="Symbol_1166_0_Layer11_0_FILL" data-name="Symbol 1166 0 Layer11 0 FILL"><path d="M333.75,77.6q-.35-5-7.85-7.8-4.31-2.3-11.85-.65a33.44,33.44,0,0,0-12.7,5.7q-6,4.4-6.15,9.1-.26,5.44,7.75,9.6a23.81,23.81,0,0,0,13.95-.3A30,30,0,0,0,329,86.7Q334.1,82,333.75,77.6Z" transform="translate(4.72 4.72)"/></g><path id="Symbol_1166_0_Layer11_0_1_STROKES" data-name="Symbol 1166 0 Layer11 0 1 STROKES" class="cls-4" d="M325.9,69.8q-4.31-2.3-11.85-.65a33.44,33.44,0,0,0-12.7,5.7q-6,4.4-6.15,9.1-.26,5.44,7.75,9.6a23.81,23.81,0,0,0,13.95-.3A30,30,0,0,0,329,86.7q5.15-4.65,4.8-9.1Q333.41,72.6,325.9,69.8Z" transform="translate(4.72 4.72)"/><g id="Symbol_1166_0_Layer10_0_FILL" data-name="Symbol 1166 0 Layer10 0 FILL"><path d="M270.2,125.7a30,30,0,0,0,12.05-6.55q5.14-4.65,4.8-9.1-.35-5-7.85-7.8-4.31-2.3-11.8-.65a33,33,0,0,0-12.7,5.7q-6,4.35-6.2,9-.25,5.45,7.75,9.6A23.53,23.53,0,0,0,270.2,125.7Z" transform="translate(4.72 4.72)"/></g><path id="Symbol_1166_0_Layer10_0_1_STROKES" data-name="Symbol 1166 0 Layer10 0 1 STROKES" class="cls-4" d="M279.2,102.25q-4.31-2.3-11.8-.65a33,33,0,0,0-12.7,5.7q-6,4.35-6.2,9-.25,5.45,7.75,9.6a23.53,23.53,0,0,0,13.95-.25,30,30,0,0,0,12.05-6.55q5.14-4.65,4.8-9.1Q286.71,105.06,279.2,102.25Z" transform="translate(4.72 4.72)"/><g id="Symbol_1166_0_Layer9_0_FILL" data-name="Symbol 1166 0 Layer9 0 FILL"><path d="M221.45,142.6q-4.3-2.29-11.8-.65a33,33,0,0,0-12.7,5.7q-6,4.35-6.2,9-.25,5.45,7.75,9.6a23.53,23.53,0,0,0,13.95-.25,30,30,0,0,0,12.05-6.55q5.15-4.65,4.8-9.1Q229,145.4,221.45,142.6Z" transform="translate(4.72 4.72)"/></g><path id="Symbol_1166_0_Layer9_0_1_STROKES" data-name="Symbol 1166 0 Layer9 0 1 STROKES" class="cls-4" d="M209.65,142a33,33,0,0,0-12.7,5.7q-6,4.35-6.2,9-.25,5.45,7.75,9.6a23.53,23.53,0,0,0,13.95-.25,30,30,0,0,0,12.05-6.55q5.15-4.65,4.8-9.1-.35-5-7.85-7.8Q217.15,140.31,209.65,142Z" transform="translate(4.72 4.72)"/><g id="Symbol_1166_0_Layer8_0_FILL" data-name="Symbol 1166 0 Layer8 0 FILL"><path d="M62.3,185.8A21.67,21.67,0,0,0,50.55,175q-4.3-2.3-8,2.35-3.49,4.46-4.25,12.2a30.86,30.86,0,0,0,2.25,15.6,24.66,24.66,0,0,0,11.6,12.6q6.2,2,10.1-3.2,3.56-4.8,3.65-13.1A32.42,32.42,0,0,0,62.3,185.8Z" transform="translate(4.72 4.72)"/></g><path id="Symbol_1166_0_Layer8_0_1_STROKES" data-name="Symbol 1166 0 Layer8 0 1 STROKES" class="cls-4" d="M50.55,175q-4.3-2.3-8,2.35-3.49,4.46-4.25,12.2a30.86,30.86,0,0,0,2.25,15.6,24.66,24.66,0,0,0,11.6,12.6q6.2,2,10.1-3.2,3.56-4.8,3.65-13.1a32.42,32.42,0,0,0-3.6-15.65A21.67,21.67,0,0,0,50.55,175Z" transform="translate(4.72 4.72)"/><g id="Symbol_1166_0_Layer7_0_FILL" data-name="Symbol 1166 0 Layer7 0 FILL"><path d="M36.25,277.85q-3.49,4.39-4.25,12.2a31.39,31.39,0,0,0,2.2,15.6A24.67,24.67,0,0,0,45.8,318.2q6.26,2,10.1-3.2,3.6-4.8,3.7-13.1A32.79,32.79,0,0,0,56,286.3a21.48,21.48,0,0,0-11.7-10.8Q39.95,273.21,36.25,277.85Z" transform="translate(4.72 4.72)"/></g><path id="Symbol_1166_0_Layer7_0_1_STROKES" data-name="Symbol 1166 0 Layer7 0 1 STROKES" class="cls-4" d="M44.25,275.5q-4.3-2.29-8,2.35-3.49,4.39-4.25,12.2a31.39,31.39,0,0,0,2.2,15.6A24.67,24.67,0,0,0,45.8,318.2q6.26,2,10.1-3.2,3.6-4.8,3.7-13.1A32.79,32.79,0,0,0,56,286.3,21.48,21.48,0,0,0,44.25,275.5Z" transform="translate(4.72 4.72)"/><g id="Symbol_1166_0_Layer6_0_FILL" data-name="Symbol 1166 0 Layer6 0 FILL"><path d="M181.1,240.7q-4.31-2.3-8,2.35-3.49,4.39-4.25,12.2a31,31,0,0,0,2.25,15.6,24.67,24.67,0,0,0,11.6,12.55q6.2,2,10.1-3.2,3.55-4.8,3.65-13.1a32.79,32.79,0,0,0-3.65-15.6A21.48,21.48,0,0,0,181.1,240.7Z" transform="translate(4.72 4.72)"/></g><path id="Symbol_1166_0_Layer6_0_1_STROKES" data-name="Symbol 1166 0 Layer6 0 1 STROKES" class="cls-4" d="M192.8,251.5a21.48,21.48,0,0,0-11.7-10.8q-4.31-2.3-8,2.35-3.49,4.39-4.25,12.2a31,31,0,0,0,2.25,15.6,24.67,24.67,0,0,0,11.6,12.55q6.2,2,10.1-3.2,3.55-4.8,3.65-13.1A32.79,32.79,0,0,0,192.8,251.5Z" transform="translate(4.72 4.72)"/><g id="Symbol_1166_0_Layer5_0_FILL" data-name="Symbol 1166 0 Layer5 0 FILL"><path d="M174.8,341.15q-4.35-2.29-8,2.35-3.5,4.46-4.3,12.2a30.86,30.86,0,0,0,2.25,15.6,24.66,24.66,0,0,0,11.6,12.6,8.43,8.43,0,0,0,10.1-3.25q3.56-4.8,3.65-13.1a32.3,32.3,0,0,0-3.6-15.6A21.48,21.48,0,0,0,174.8,341.15Z" transform="translate(4.72 4.72)"/></g><path id="Symbol_1166_0_Layer5_0_1_STROKES" data-name="Symbol 1166 0 Layer5 0 1 STROKES" class="cls-4" d="M186.5,352a21.48,21.48,0,0,0-11.7-10.8q-4.35-2.29-8,2.35-3.5,4.46-4.3,12.2a30.86,30.86,0,0,0,2.25,15.6,24.66,24.66,0,0,0,11.6,12.6,8.43,8.43,0,0,0,10.1-3.25q3.56-4.8,3.65-13.1A32.3,32.3,0,0,0,186.5,352Z" transform="translate(4.72 4.72)"/><g id="Symbol_1166_0_Layer4_0_FILL" data-name="Symbol 1166 0 Layer4 0 FILL"><path d="M299.3,239.2q-1.85-8.55-6.45-11.6-5.06-3.34-11.25,2-4.8,3.94-6.55,13.25a49.38,49.38,0,0,0-.1,17.45q1.55,9,5.4,12.9,4.35,4.4,9.95-.1a31.45,31.45,0,0,0,8.75-16.25A40,40,0,0,0,299.3,239.2Z" transform="translate(4.72 4.72)"/></g><path id="Symbol_1166_0_Layer4_0_1_STROKES" data-name="Symbol 1166 0 Layer4 0 1 STROKES" class="cls-4" d="M281.6,229.6q-4.8,3.94-6.55,13.25a49.38,49.38,0,0,0-.1,17.45q1.55,9,5.4,12.9,4.35,4.4,9.95-.1a31.45,31.45,0,0,0,8.75-16.25,40,40,0,0,0,.25-17.65q-1.85-8.55-6.45-11.6Q287.8,224.26,281.6,229.6Z" transform="translate(4.72 4.72)"/><g id="Symbol_1166_0_Layer3_0_FILL" data-name="Symbol 1166 0 Layer3 0 FILL"><path d="M353.35,275.3a48.42,48.42,0,0,0-.05,17.4q1.5,9,5.4,12.95,4.35,4.35,9.9-.1a31.45,31.45,0,0,0,8.75-16.25,40,40,0,0,0,.25-17.65q-1.85-8.55-6.45-11.6-5.06-3.35-11.25,2Q355.1,266,353.35,275.3Z" transform="translate(4.72 4.72)"/></g><path id="Symbol_1166_0_Layer3_0_1_STROKES" data-name="Symbol 1166 0 Layer3 0 1 STROKES" class="cls-4" d="M359.9,262.05q-4.8,3.94-6.55,13.25a48.42,48.42,0,0,0-.05,17.4q1.5,9,5.4,12.95,4.35,4.35,9.9-.1a31.45,31.45,0,0,0,8.75-16.25,40,40,0,0,0,.25-17.65q-1.85-8.55-6.45-11.6Q366.1,256.71,359.9,262.05Z" transform="translate(4.72 4.72)"/><g id="Symbol_1166_0_Layer2_0_FILL" data-name="Symbol 1166 0 Layer2 0 FILL"><path class="cls-5" d="M15.75,107.75q5.9,7.35,63.6,33.35,25.16,11.29,49,21.5-6.25-2.9-13.35-6.95Q92.85,143,81.55,128.8,65.7,109,73.7,89.1q10-24.94,56.75-48.6Q95.1,57.35,70.15,70.6,22.75,95.8,15.75,107.75Z" transform="translate(4.72 4.72)"/></g><g id="Symbol_1166_0_Layer1_0_FILL" data-name="Symbol 1166 0 Layer1 0 FILL"><path class="cls-6" d="M367.15,92.65q22.61-21.11,23.6-25.25-1.39-3.34-26.9-10.35-27.3-7-31.65-8.6Q366.36,62,358.9,87q-2.44,8.35-9.75,18.2l-9.8,12Q347.85,110.6,367.15,92.65Z" transform="translate(4.72 4.72)"/></g><g id="Symbol_1166_0_Layer0_0_FILL" data-name="Symbol 1166 0 Layer0 0 FILL"><path class="cls-6" d="M395.5,76.1q-2.06,0-23.5,21.65-19.31,19.45-24.75,25.85,35.89-37.9,44.3-17.5,2.44,6,2.85,19,.41,12,1.1,12.8.86-7.6,1.2-32Q397.11,78.76,395.5,76.1Z" transform="translate(4.72 4.72)"/></g></svg>