<?xml version="1.0" encoding="UTF-8"?><svg id="Layer_1" xmlns="http://www.w3.org/2000/svg" viewBox="0 0 17 16"><defs><style>.cls-1{fill:#9baad5;}.cls-1,.cls-2,.cls-3,.cls-4,.cls-5,.cls-6,.cls-7,.cls-8,.cls-9{stroke-width:0px;}.cls-2{fill:#c6cee7;}.cls-3{fill:#a6b4d9;}.cls-4{fill:#3052ab;}.cls-5{fill:#97a8d4;}.cls-6{fill:#ffa7ab;}.cls-7{fill:red;}.cls-8{fill:#fefefe;}.cls-9{fill:#fcfcfd;}</style></defs><g id="dislike_btn"><g id="unlike_btn_0_Layer1_0_FILL"><path class="cls-4" d="M14.59,9.49h-1.24c.39-.05.81-.06,1.28-.04v.04h-.04M6.25,7.79h-1.03c.3-.05.64-.06,1.01-.02.01,0,.02,0,.02.02M14.12.56h-7.37c2.41-.05,4.87-.06,7.37-.02v.02Z"/><path class="cls-5" d="M14.71,9.49h.06v.02c-.83.01-1.65.02-2.48.02.3-.05.64-.07,1.01-.06.03.01.04.02.06.02h1.35Z"/><path class="cls-3" d="M6.25,7.82h-1.07v-.04h1.07v.04Z"/><path class="cls-7" d="M.62,8.33v-.02c-.3-.11-.5-.32-.6-.62C0,5.25.04,2.84.15.47c0-.06.03-.13.09-.21.1-.1.21-.19.34-.26h4.03c.26.12.48.29.66.51,0,.01.01.02.04.02.38-.01.68-.11.9-.28.18-.15.43-.22.75-.22,2.56-.02,5.09,0,7.58.09.23.01.42.07.58.17.51.32.71.9.58,1.72.48.44.62,1.05.43,1.85-.01.05-.02.11-.02.19.44.32.63.9.56,1.74v.04c-.08.17-.16.34-.24.49-.01,0-.02.01-.02.04.43.64.46,1.34.09,2.12-.06.15-.16.29-.28.41-.34.35-.83.56-1.46.62h-.13v-.04c-.46-.02-.89-.01-1.28.04-.01,0-.03,0-.06-.02-.38-.01-.71,0-1.01.06-.14,0-.16.09-.08.26.18.39.38.76.62,1.1.3.44.51.95.62,1.53.23,1.09.09,1.97-.41,2.64-.18.24-.43.37-.75.41-.75.07-1.19-.23-1.31-.92-.25-1.36-.84-2.37-1.76-3.03-.19-.14-.35-.29-.49-.47-.83-1.09-1.65-2.17-2.48-3.24v-.04s0-.02-.02-.02c-.38-.04-.71-.03-1.01.02h-.04v.04s0,.02-.02.04c-.06.1-.13.2-.21.3-.01,0-.03,0-.04.02-.1.04-.2.09-.3.15H.62M.62,7.62v.04c.59.1,1.24.14,1.95.13.7-.01,1.37-.04,2.01-.09.08-2.33.08-4.67,0-7v-.06c-1.29-.06-2.58-.06-3.88,0-.01,0-.03,0-.04,0-.05,2.3-.06,4.62-.04,6.98M5.26,1.1h-.02c-.01,2.05-.02,4.09-.02,6.12h1.2c.86.89,1.63,1.87,2.29,2.96.3.49.69.89,1.16,1.22.14.1.27.22.39.36.66.7,1.11,1.63,1.33,2.81.05.24.21.39.49.45.65-.29.96-.9.92-1.83-.01-.64-.16-1.17-.43-1.61-.34-.54-.68-1.07-1.01-1.61,0-.17,0-.35,0-.52,0-.01,0-.02,0-.04.06-.1.13-.19.21-.26.01-.01.02-.02.02-.04.1-.06.21-.11.32-.15.01,0,.02,0,.02-.02,1.09.04,2.11-.01,3.06-.15.2-.04.38-.11.54-.22.49-.35.62-.86.39-1.53-.11-.32-.35-.52-.71-.6.34-.12.57-.36.69-.71,0-.01,0-.02.02-.02.08-.86-.22-1.35-.88-1.48h-.06c.48-.31.6-.78.38-1.4-.13-.31-.38-.49-.75-.54.16-.11.28-.27.36-.47h.02v-.56c-.1-.31-.31-.52-.62-.62-.01,0-.02,0-.02-.02h-.34v-.02s-.05-.02-.08-.02v-.02c-2.5-.04-4.96-.03-7.37.02h-.04v.04h-.06c-.33.11-.59.28-.81.51h-.6Z"/><path class="cls-1" d="M6.72.6v-.04h7.41s.05,0,.08.02v.02h-7.48Z"/><path class="cls-8" d="M5.26,1.16v-.06h.6c.21-.22.48-.39.81-.51h7.88s0,.02.02.02c.31.1.52.31.62.62v.56h-.02c-.08.2-.19.36-.36.47.38.05.63.23.75.54.23.62.1,1.09-.38,1.4h.06c.66.12.96.62.88,1.48-.01,0-.02,0-.02.02-.13.35-.36.59-.69.71.36.07.6.27.71.6.23.67.09,1.19-.39,1.53-.16.11-.34.19-.54.22-.95.14-1.97.19-3.06.15,0,.01,0,.02-.02.02-.11.04-.22.09-.32.15,0,.01,0,.02-.02.04-.08.07-.14.16-.21.26,0,.01,0,.02,0,.04,0,.17,0,.35,0,.52.34.54.68,1.07,1.01,1.61.28.44.42.97.43,1.61.04.94-.27,1.55-.92,1.83-.28-.06-.44-.21-.49-.45-.23-1.17-.67-2.11-1.33-2.81-.13-.14-.26-.26-.39-.36-.48-.32-.86-.73-1.16-1.22-.66-1.09-1.43-2.07-2.29-2.96h-1.16V1.16Z"/><path class="cls-2" d="M5.24,1.1h.02v6.12h-.04c0-2.03,0-4.07.02-6.12Z"/><path class="cls-6" d="M.62,7.66v-.04c-.03-2.36-.01-4.69.04-6.98.01,0,.03,0,.04,0,1.3-.06,2.59-.06,3.88,0v.06c.08,2.33.08,4.67,0,7-.64.05-1.31.08-2.01.09-.71.01-1.36-.03-1.95-.13M3.31,1.57v.06c.19.32.46.38.81.17h.04c.14-.32.09-.58-.13-.77h-.04c-.25-.1-.44-.06-.56.11,0,.01-.01.02-.04.02-.06.09-.09.22-.08.41Z"/><path class="cls-9" d="M3.31,1.63v-.06c-.01-.19.01-.32.08-.41.03,0,.04,0,.04-.02.13-.17.31-.21.56-.11h.04c.23.19.27.44.13.77h-.04c-.35.21-.62.16-.81-.17Z"/></g></g></svg>