<svg id="Layer_1" data-name="Layer 1" xmlns="http://www.w3.org/2000/svg" xmlns:xlink="http://www.w3.org/1999/xlink" viewBox="0 0 30 30"><defs><style>.cls-1{fill:url(#linear-gradient);}.cls-2{fill:url(#linear-gradient-2);}.cls-3{fill:url(#linear-gradient-3);}.cls-4{fill:url(#linear-gradient-4);}.cls-5{fill:#3068a5;}.cls-6{fill:url(#linear-gradient-5);}.cls-7{fill:url(#linear-gradient-6);}.cls-8{fill:#3168a1;fill-opacity:0.2;}</style><linearGradient id="linear-gradient" x1="15" y1="30" x2="15" gradientTransform="matrix(1, 0, 0, -1, 0, 30)" gradientUnits="userSpaceOnUse"><stop offset="0" stop-color="#6280c0"/><stop offset="1" stop-color="#623fd6"/></linearGradient><linearGradient id="linear-gradient-2" x1="227.04" y1="-246.87" x2="227.07" y2="-81.87" gradientTransform="matrix(-0.01, 0.04, 0.06, 0.02, 29.32, 15.45)" gradientUnits="userSpaceOnUse"><stop offset="0.38" stop-color="#3d75c0"/><stop offset="0.87" stop-color="#fff"/></linearGradient><linearGradient id="linear-gradient-3" x1="305.6" y1="-243.59" x2="281.9" y2="-82.82" gradientTransform="matrix(-0.01, 0.04, 0.06, 0.02, 29.32, 15.45)" gradientUnits="userSpaceOnUse"><stop offset="0.12" stop-color="#3f6fad"/><stop offset="0.87" stop-color="#fff" stop-opacity="0"/></linearGradient><linearGradient id="linear-gradient-4" x1="208.8" y1="-243.88" x2="208.7" y2="-97.88" gradientTransform="matrix(-0.01, 0.04, 0.06, 0.02, 29.32, 15.45)" gradientUnits="userSpaceOnUse"><stop offset="0.37" stop-color="#3d75c0"/><stop offset="0.91" stop-color="#fff"/></linearGradient><linearGradient id="linear-gradient-5" x1="-185.36" y1="-218.14" x2="379.09" y2="-218.14" gradientTransform="matrix(-0.01, 0.04, 0.06, 0.02, 29.32, 15.45)" gradientUnits="userSpaceOnUse"><stop offset="0" stop-color="#c2cfe2"/><stop offset="0.83" stop-color="#c7dbf3"/></linearGradient><linearGradient id="linear-gradient-6" x1="-186.65" y1="-146.45" x2="316.6" y2="-335.35" gradientTransform="matrix(-0.01, 0.04, 0.06, 0.02, 29.32, 15.45)" gradientUnits="userSpaceOnUse"><stop offset="0" stop-color="#8fb5da"/><stop offset="0.83" stop-color="#c7dbf3"/></linearGradient></defs><title>export_btn</title><g id="Layer0_0_FILL" data-name="Layer0 0 FILL"><path class="cls-1" d="M30,24.55V5.45A5.24,5.24,0,0,0,28.4,1.6,5.24,5.24,0,0,0,24.55,0H5.45A5.24,5.24,0,0,0,1.6,1.6,5.24,5.24,0,0,0,0,5.45v19.1A5.24,5.24,0,0,0,1.6,28.4,5.24,5.24,0,0,0,5.45,30h19.1A5.46,5.46,0,0,0,30,24.55Z"/></g><g id="refresh_btn_arrow_1_0_Layer4_0_FILL" data-name="refresh btn arrow 1 0 Layer4 0 FILL"><path class="cls-2" d="M20.43,23.34q0-.29-.06-.3h0l-.88-.16c-.57-.1-1-.2-1.43-.3a12.63,12.63,0,0,1-1.49-.46,18.45,18.45,0,0,1-1.92-.86A4.94,4.94,0,0,1,13,19.87a5.41,5.41,0,0,1-.41-.61l-.2-.37a2.56,2.56,0,0,1-.23-.73l-.06-.26,0-.28-.32,1v.13l.29.53a5.53,5.53,0,0,0,.8,1.05,8.08,8.08,0,0,0,1.31,1,9.33,9.33,0,0,0,1.58.83c.44.17,1,.36,1.72.56.53.15,1,.27,1.4.36l.74.15.77.12Z"/><path class="cls-3" d="M19.72,27.53h.51l1-4.08-.77-.12h-.08l-.77-.12-.74-.15c-.41-.09-.87-.21-1.4-.36-.71-.2-1.28-.39-1.72-.56a9.33,9.33,0,0,1-1.58-.83,8.08,8.08,0,0,1-1.31-1,5.53,5.53,0,0,1-.8-1.05l-.29-.53v0l-.33,1.12.27,1.74.8,1.53.35.56,1.66,1.37,1.3.9,1.57.76Z"/><path class="cls-4" d="M20.37,23c-.1-.22-.19-.32-.24-.32s-.39-.07-.95-.19-1.05-.24-1.41-.33Q17,22,16.48,21.8a8.16,8.16,0,0,1-1.42-.67,8.9,8.9,0,0,1-1.14-.79,5,5,0,0,1-1-1.3,2.64,2.64,0,0,1-.3-1.84l.12-.53-.3.32-.31.91.06.26a2.56,2.56,0,0,0,.23.73l.2.37a5.41,5.41,0,0,0,.41.61,4.94,4.94,0,0,0,1.64,1.38,18.45,18.45,0,0,0,1.92.86,12.63,12.63,0,0,0,1.49.46c.38.1.86.2,1.43.3l.88.16h0Z"/></g><g id="refresh_btn_arrow_1_0_Layer3_0_FILL" data-name="refresh btn arrow 1 0 Layer3 0 FILL"><path class="cls-5" d="M19.79,27.36,19,27.12c-.88-.29-1.58-.56-2.12-.8a10.38,10.38,0,0,1-3-2,7.69,7.69,0,0,1-1.74-2.43,5,5,0,0,1-.34-2.45,5.18,5.18,0,0,1,.76-2.36,13.75,13.75,0,0,1,2.15-2.46A12.6,12.6,0,0,1,18,12.49c.42-.21.85-.39,1.28-.56l.51-.19,5,4.69,2.74-9.5-19-5.58,5.16,4.8-.59.25q-.83.34-1.92.9A18.55,18.55,0,0,0,8.42,9a15.13,15.13,0,0,0-2.75,2.61,7.35,7.35,0,0,0-1.62,3.94,6.71,6.71,0,0,0,.88,4.29,13.08,13.08,0,0,0,2.45,3,18.17,18.17,0,0,0,3,2.06,23.68,23.68,0,0,0,3.54,1.6c.84.31,1.68.57,2.5.8.39.11,1.13.27,2.22.5l1.51.31,0-.63Z"/></g><g id="refresh_btn_arrow_1_0_Layer2_0_FILL" data-name="refresh btn arrow 1 0 Layer2 0 FILL"><path class="cls-6" d="M14,25.32a11.8,11.8,0,0,1-1.08-.93,10.2,10.2,0,0,1-1.24-1.32A6,6,0,0,1,11,21.74a4.88,4.88,0,0,1-.31-1.84,5.58,5.58,0,0,1,.52-2.32,11.21,11.21,0,0,1,2.15-2.94,15.08,15.08,0,0,1,4.06-2.77c.56-.28,1.13-.54,1.7-.78l.7-.28,4.44,4.07,2.08-7.62L11,2.68l4.07,3.79-.88.35c-.69.3-1.32.58-1.88.85-.87.42-1.59.81-2.16,1.16A13.9,13.9,0,0,0,8,10.49,11.24,11.24,0,0,0,6.2,12.57a7.29,7.29,0,0,0-1,2.1A6.93,6.93,0,0,0,5,16.61a6.57,6.57,0,0,0,.2,1.52A7.39,7.39,0,0,0,6,20.05a10.13,10.13,0,0,0,2.2,2.59,17.39,17.39,0,0,0,3.17,2.07c.76.4,1.5.74,2.23,1l1.42.51.86.28Z"/></g><g id="refresh_btn_arrow_1_0_Layer1_0_FILL" data-name="refresh btn arrow 1 0 Layer1 0 FILL"><path class="cls-7" d="M10.72,22.86a4.72,4.72,0,0,1-.49-.81c-.14-.29-.29-.65-.45-1.09a4.28,4.28,0,0,1-.24-1.33,6.26,6.26,0,0,1,.16-1.36A10,10,0,0,1,11,15.49a8.5,8.5,0,0,1,1.68-1.65c.73-.61,1.47-1.17,2.23-1.7a16.7,16.7,0,0,1,3-1.4L20,10l3.6,3.21,1.57-5.63-5.73-1.7L13.64,4.13l2.86,2.7-1.64.62A17.9,17.9,0,0,0,12.45,8.6a22.3,22.3,0,0,0-2.71,1.73,10.77,10.77,0,0,0-2.19,2.08A6.66,6.66,0,0,0,6.3,15.28a6.29,6.29,0,0,0,0,2.56,4.47,4.47,0,0,0,.31.86c.08.18.23.44.43.81a12.78,12.78,0,0,0,1,1.43l.48.6,1.45,1.4,1.85,1.22C11.3,23.63,11,23.2,10.72,22.86Z"/></g><g id="refresh_btn_arrow_1_0_Layer0_0_FILL" data-name="refresh btn arrow 1 0 Layer0 0 FILL"><path class="cls-8" d="M15,11.45a2.81,2.81,0,0,1,0,1.25l-.17.74,5-2.57,4.34,4L26.3,7.22,18.65,5,11,2.7l4,3.7-1.58.41,0,.54a3.79,3.79,0,0,0,.21,1.26,13.82,13.82,0,0,0,.68,1.4A15.2,15.2,0,0,1,15,11.45Z"/></g></svg>