
<svg xmlns="http://www.w3.org/2000/svg" version="1.1" xmlns:xlink="http://www.w3.org/1999/xlink" preserveAspectRatio="none" x="0px" y="0px" width="1024px" height="640px" viewBox="0 0 1024 640">
<defs>
<path id="Symbol_551_0_Layer83_0_1_STROKES" stroke="#009900" stroke-opacity="0.4980392156862745" stroke-width="1" stroke-linejoin="round" stroke-linecap="round" fill="none" d="
M 0 20
L 1024.05 20"/>

<path id="Symbol_551_0_Layer82_0_1_STROKES" stroke="#009900" stroke-opacity="0.4980392156862745" stroke-width="1" stroke-linejoin="round" stroke-linecap="round" fill="none" d="
M 0 40
L 1024.05 40"/>

<path id="Symbol_551_0_Layer81_0_1_STROKES" stroke="#009900" stroke-opacity="0.4980392156862745" stroke-width="1" stroke-linejoin="round" stroke-linecap="round" fill="none" d="
M 0 60
L 1024.05 60"/>

<path id="Symbol_551_0_Layer80_0_1_STROKES" stroke="#009900" stroke-opacity="0.4980392156862745" stroke-width="1" stroke-linejoin="round" stroke-linecap="round" fill="none" d="
M 0 80
L 1024.05 80"/>

<path id="Symbol_551_0_Layer79_0_1_STROKES" stroke="#009900" stroke-opacity="0.4980392156862745" stroke-width="1" stroke-linejoin="round" stroke-linecap="round" fill="none" d="
M 0 100
L 1024.05 100"/>

<path id="Symbol_551_0_Layer78_0_1_STROKES" stroke="#009900" stroke-opacity="0.4980392156862745" stroke-width="1" stroke-linejoin="round" stroke-linecap="round" fill="none" d="
M 0 120
L 1024.05 120"/>

<path id="Symbol_551_0_Layer77_0_1_STROKES" stroke="#009900" stroke-opacity="0.4980392156862745" stroke-width="1" stroke-linejoin="round" stroke-linecap="round" fill="none" d="
M 0 140
L 1024.05 140"/>

<path id="Symbol_551_0_Layer76_0_1_STROKES" stroke="#009900" stroke-opacity="0.4980392156862745" stroke-width="1" stroke-linejoin="round" stroke-linecap="round" fill="none" d="
M 0 160
L 1024.05 160"/>

<path id="Symbol_551_0_Layer75_0_1_STROKES" stroke="#009900" stroke-opacity="0.4980392156862745" stroke-width="1" stroke-linejoin="round" stroke-linecap="round" fill="none" d="
M 0 180
L 1024.05 180"/>

<path id="Symbol_551_0_Layer74_0_1_STROKES" stroke="#009900" stroke-opacity="0.4980392156862745" stroke-width="1" stroke-linejoin="round" stroke-linecap="round" fill="none" d="
M 0 200
L 1024.05 200"/>

<path id="Symbol_551_0_Layer73_0_1_STROKES" stroke="#009900" stroke-opacity="0.4980392156862745" stroke-width="1" stroke-linejoin="round" stroke-linecap="round" fill="none" d="
M 0 220
L 1024.05 220"/>

<path id="Symbol_551_0_Layer72_0_1_STROKES" stroke="#009900" stroke-opacity="0.4980392156862745" stroke-width="1" stroke-linejoin="round" stroke-linecap="round" fill="none" d="
M 0 240
L 1024.05 240"/>

<path id="Symbol_551_0_Layer71_0_1_STROKES" stroke="#009900" stroke-opacity="0.4980392156862745" stroke-width="1" stroke-linejoin="round" stroke-linecap="round" fill="none" d="
M 0 260
L 1024.05 260"/>

<path id="Symbol_551_0_Layer70_0_1_STROKES" stroke="#009900" stroke-opacity="0.4980392156862745" stroke-width="1" stroke-linejoin="round" stroke-linecap="round" fill="none" d="
M 0 280
L 1024.05 280"/>

<path id="Symbol_551_0_Layer69_0_1_STROKES" stroke="#009900" stroke-opacity="0.4980392156862745" stroke-width="1" stroke-linejoin="round" stroke-linecap="round" fill="none" d="
M 0 300
L 1024.05 300"/>

<path id="Symbol_551_0_Layer68_0_1_STROKES" stroke="#009900" stroke-opacity="0.4980392156862745" stroke-width="1" stroke-linejoin="round" stroke-linecap="round" fill="none" d="
M 0 320
L 1024.05 320"/>

<path id="Symbol_551_0_Layer67_0_1_STROKES" stroke="#009900" stroke-opacity="0.4980392156862745" stroke-width="1" stroke-linejoin="round" stroke-linecap="round" fill="none" d="
M 0 340
L 1024.05 340"/>

<path id="Symbol_551_0_Layer66_0_1_STROKES" stroke="#009900" stroke-opacity="0.4980392156862745" stroke-width="1" stroke-linejoin="round" stroke-linecap="round" fill="none" d="
M 0 360
L 1024.05 360"/>

<path id="Symbol_551_0_Layer65_0_1_STROKES" stroke="#009900" stroke-opacity="0.4980392156862745" stroke-width="1" stroke-linejoin="round" stroke-linecap="round" fill="none" d="
M 0 380
L 1024.05 380"/>

<path id="Symbol_551_0_Layer64_0_1_STROKES" stroke="#009900" stroke-opacity="0.4980392156862745" stroke-width="1" stroke-linejoin="round" stroke-linecap="round" fill="none" d="
M 0 400
L 1024.05 400"/>

<path id="Symbol_551_0_Layer63_0_1_STROKES" stroke="#009900" stroke-opacity="0.4980392156862745" stroke-width="1" stroke-linejoin="round" stroke-linecap="round" fill="none" d="
M 0 420
L 1024.05 420"/>

<path id="Symbol_551_0_Layer62_0_1_STROKES" stroke="#009900" stroke-opacity="0.4980392156862745" stroke-width="1" stroke-linejoin="round" stroke-linecap="round" fill="none" d="
M 0 440
L 1024.05 440"/>

<path id="Symbol_551_0_Layer61_0_1_STROKES" stroke="#009900" stroke-opacity="0.4980392156862745" stroke-width="1" stroke-linejoin="round" stroke-linecap="round" fill="none" d="
M 0 460
L 1024.05 460"/>

<path id="Symbol_551_0_Layer60_0_1_STROKES" stroke="#009900" stroke-opacity="0.4980392156862745" stroke-width="1" stroke-linejoin="round" stroke-linecap="round" fill="none" d="
M 0 480
L 1024.05 480"/>

<path id="Symbol_551_0_Layer59_0_1_STROKES" stroke="#009900" stroke-opacity="0.4980392156862745" stroke-width="1" stroke-linejoin="round" stroke-linecap="round" fill="none" d="
M 0 500
L 1024.05 500"/>

<path id="Symbol_551_0_Layer58_0_1_STROKES" stroke="#009900" stroke-opacity="0.4980392156862745" stroke-width="1" stroke-linejoin="round" stroke-linecap="round" fill="none" d="
M 0 520
L 1024.05 520"/>

<path id="Symbol_551_0_Layer57_0_1_STROKES" stroke="#009900" stroke-opacity="0.4980392156862745" stroke-width="1" stroke-linejoin="round" stroke-linecap="round" fill="none" d="
M 0 540
L 1024.05 540"/>

<path id="Symbol_551_0_Layer56_0_1_STROKES" stroke="#009900" stroke-opacity="0.4980392156862745" stroke-width="1" stroke-linejoin="round" stroke-linecap="round" fill="none" d="
M 0 560
L 1024.05 560"/>

<path id="Symbol_551_0_Layer55_0_1_STROKES" stroke="#009900" stroke-opacity="0.4980392156862745" stroke-width="1" stroke-linejoin="round" stroke-linecap="round" fill="none" d="
M 0 580
L 1024.05 580"/>

<path id="Symbol_551_0_Layer54_0_1_STROKES" stroke="#009900" stroke-opacity="0.4980392156862745" stroke-width="1" stroke-linejoin="round" stroke-linecap="round" fill="none" d="
M 0 600
L 1024.05 600"/>

<path id="Symbol_551_0_Layer53_0_1_STROKES" stroke="#009900" stroke-opacity="0.4980392156862745" stroke-width="1" stroke-linejoin="round" stroke-linecap="round" fill="none" d="
M 0 620
L 1024.05 620"/>

<path id="Symbol_551_0_Layer52_0_1_STROKES" stroke="#009900" stroke-opacity="0.4980392156862745" stroke-width="1" stroke-linejoin="round" stroke-linecap="round" fill="none" d="
M 22 0.05
L 22 638.05"/>

<path id="Symbol_551_0_Layer51_0_1_STROKES" stroke="#009900" stroke-opacity="0.4980392156862745" stroke-width="1" stroke-linejoin="round" stroke-linecap="round" fill="none" d="
M 62 0.05
L 62 638"/>

<path id="Symbol_551_0_Layer50_0_1_STROKES" stroke="#009900" stroke-opacity="0.4980392156862745" stroke-width="1" stroke-linejoin="round" stroke-linecap="round" fill="none" d="
M 82 0.05
L 82 638"/>

<path id="Symbol_551_0_Layer49_0_1_STROKES" stroke="#009900" stroke-opacity="0.4980392156862745" stroke-width="1" stroke-linejoin="round" stroke-linecap="round" fill="none" d="
M 102 0.05
L 102 638"/>

<path id="Symbol_551_0_Layer48_0_1_STROKES" stroke="#009900" stroke-opacity="0.4980392156862745" stroke-width="1" stroke-linejoin="round" stroke-linecap="round" fill="none" d="
M 122 0.05
L 122 638"/>

<path id="Symbol_551_0_Layer47_0_1_STROKES" stroke="#009900" stroke-opacity="0.4980392156862745" stroke-width="1" stroke-linejoin="round" stroke-linecap="round" fill="none" d="
M 142 0.05
L 142 638"/>

<path id="Symbol_551_0_Layer46_0_1_STROKES" stroke="#009900" stroke-opacity="0.4980392156862745" stroke-width="1" stroke-linejoin="round" stroke-linecap="round" fill="none" d="
M 162 0.05
L 162 638"/>

<path id="Symbol_551_0_Layer45_0_1_STROKES" stroke="#009900" stroke-opacity="0.4980392156862745" stroke-width="1" stroke-linejoin="round" stroke-linecap="round" fill="none" d="
M 182 0.05
L 182 638"/>

<path id="Symbol_551_0_Layer44_0_1_STROKES" stroke="#009900" stroke-opacity="0.4980392156862745" stroke-width="1" stroke-linejoin="round" stroke-linecap="round" fill="none" d="
M 202 0.05
L 202 638"/>

<path id="Symbol_551_0_Layer43_0_1_STROKES" stroke="#009900" stroke-opacity="0.4980392156862745" stroke-width="1" stroke-linejoin="round" stroke-linecap="round" fill="none" d="
M 222 0.05
L 222 638"/>

<path id="Symbol_551_0_Layer42_0_1_STROKES" stroke="#009900" stroke-opacity="0.4980392156862745" stroke-width="1" stroke-linejoin="round" stroke-linecap="round" fill="none" d="
M 242 0.05
L 242 638"/>

<path id="Symbol_551_0_Layer41_0_1_STROKES" stroke="#009900" stroke-opacity="0.4980392156862745" stroke-width="1" stroke-linejoin="round" stroke-linecap="round" fill="none" d="
M 262 0.05
L 262 638"/>

<path id="Symbol_551_0_Layer40_0_1_STROKES" stroke="#009900" stroke-opacity="0.4980392156862745" stroke-width="1" stroke-linejoin="round" stroke-linecap="round" fill="none" d="
M 282 0.05
L 282 638"/>

<path id="Symbol_551_0_Layer39_0_1_STROKES" stroke="#009900" stroke-opacity="0.4980392156862745" stroke-width="1" stroke-linejoin="round" stroke-linecap="round" fill="none" d="
M 302 0.05
L 302 638"/>

<path id="Symbol_551_0_Layer38_0_1_STROKES" stroke="#009900" stroke-opacity="0.4980392156862745" stroke-width="1" stroke-linejoin="round" stroke-linecap="round" fill="none" d="
M 322 0.05
L 322 638"/>

<path id="Symbol_551_0_Layer37_0_1_STROKES" stroke="#009900" stroke-opacity="0.4980392156862745" stroke-width="1" stroke-linejoin="round" stroke-linecap="round" fill="none" d="
M 342 0.05
L 342 638"/>

<path id="Symbol_551_0_Layer36_0_1_STROKES" stroke="#009900" stroke-opacity="0.4980392156862745" stroke-width="1" stroke-linejoin="round" stroke-linecap="round" fill="none" d="
M 362 0.05
L 362 638"/>

<path id="Symbol_551_0_Layer35_0_1_STROKES" stroke="#009900" stroke-opacity="0.4980392156862745" stroke-width="1" stroke-linejoin="round" stroke-linecap="round" fill="none" d="
M 382 0.05
L 382 638"/>

<path id="Symbol_551_0_Layer34_0_1_STROKES" stroke="#009900" stroke-opacity="0.4980392156862745" stroke-width="1" stroke-linejoin="round" stroke-linecap="round" fill="none" d="
M 402 0.05
L 402 638"/>

<path id="Symbol_551_0_Layer33_0_1_STROKES" stroke="#009900" stroke-opacity="0.4980392156862745" stroke-width="1" stroke-linejoin="round" stroke-linecap="round" fill="none" d="
M 422 0.05
L 422 638"/>

<path id="Symbol_551_0_Layer32_0_1_STROKES" stroke="#009900" stroke-opacity="0.4980392156862745" stroke-width="1" stroke-linejoin="round" stroke-linecap="round" fill="none" d="
M 442 0.05
L 442 638"/>

<path id="Symbol_551_0_Layer31_0_1_STROKES" stroke="#009900" stroke-opacity="0.4980392156862745" stroke-width="1" stroke-linejoin="round" stroke-linecap="round" fill="none" d="
M 462 0.05
L 462 638"/>

<path id="Symbol_551_0_Layer30_0_1_STROKES" stroke="#009900" stroke-opacity="0.4980392156862745" stroke-width="1" stroke-linejoin="round" stroke-linecap="round" fill="none" d="
M 482 0.05
L 482 638"/>

<path id="Symbol_551_0_Layer29_0_1_STROKES" stroke="#009900" stroke-opacity="0.4980392156862745" stroke-width="1" stroke-linejoin="round" stroke-linecap="round" fill="none" d="
M 502 0.05
L 502 638"/>

<path id="Symbol_551_0_Layer28_0_1_STROKES" stroke="#009900" stroke-opacity="0.4980392156862745" stroke-width="1" stroke-linejoin="round" stroke-linecap="round" fill="none" d="
M 522 0.05
L 522 638"/>

<path id="Symbol_551_0_Layer27_0_1_STROKES" stroke="#009900" stroke-opacity="0.4980392156862745" stroke-width="1" stroke-linejoin="round" stroke-linecap="round" fill="none" d="
M 542 0.05
L 542 638"/>

<path id="Symbol_551_0_Layer26_0_1_STROKES" stroke="#009900" stroke-opacity="0.4980392156862745" stroke-width="1" stroke-linejoin="round" stroke-linecap="round" fill="none" d="
M 562 0.05
L 562 638"/>

<path id="Symbol_551_0_Layer25_0_1_STROKES" stroke="#009900" stroke-opacity="0.4980392156862745" stroke-width="1" stroke-linejoin="round" stroke-linecap="round" fill="none" d="
M 582 0.05
L 582 638"/>

<path id="Symbol_551_0_Layer24_0_1_STROKES" stroke="#009900" stroke-opacity="0.4980392156862745" stroke-width="1" stroke-linejoin="round" stroke-linecap="round" fill="none" d="
M 602 0.05
L 602 638"/>

<path id="Symbol_551_0_Layer23_0_1_STROKES" stroke="#009900" stroke-opacity="0.4980392156862745" stroke-width="1" stroke-linejoin="round" stroke-linecap="round" fill="none" d="
M 622 0
L 622 640"/>

<path id="Symbol_551_0_Layer22_0_1_STROKES" stroke="#009900" stroke-opacity="0.4980392156862745" stroke-width="1" stroke-linejoin="round" stroke-linecap="round" fill="none" d="
M 642 0
L 642 640"/>

<path id="Symbol_551_0_Layer21_0_1_STROKES" stroke="#009900" stroke-opacity="0.4980392156862745" stroke-width="1" stroke-linejoin="round" stroke-linecap="round" fill="none" d="
M 662 0
L 662 640"/>

<path id="Symbol_551_0_Layer20_0_1_STROKES" stroke="#009900" stroke-opacity="0.4980392156862745" stroke-width="1" stroke-linejoin="round" stroke-linecap="round" fill="none" d="
M 682 0
L 682 640"/>

<path id="Symbol_551_0_Layer19_0_1_STROKES" stroke="#009900" stroke-opacity="0.4980392156862745" stroke-width="1" stroke-linejoin="round" stroke-linecap="round" fill="none" d="
M 702 0
L 702 640"/>

<path id="Symbol_551_0_Layer18_0_1_STROKES" stroke="#009900" stroke-opacity="0.4980392156862745" stroke-width="1" stroke-linejoin="round" stroke-linecap="round" fill="none" d="
M 722 0
L 722 640"/>

<path id="Symbol_551_0_Layer17_0_1_STROKES" stroke="#009900" stroke-opacity="0.4980392156862745" stroke-width="1" stroke-linejoin="round" stroke-linecap="round" fill="none" d="
M 742 0
L 742 640"/>

<path id="Symbol_551_0_Layer16_0_1_STROKES" stroke="#009900" stroke-opacity="0.4980392156862745" stroke-width="1" stroke-linejoin="round" stroke-linecap="round" fill="none" d="
M 762 0
L 762 640"/>

<path id="Symbol_551_0_Layer15_0_1_STROKES" stroke="#009900" stroke-opacity="0.4980392156862745" stroke-width="1" stroke-linejoin="round" stroke-linecap="round" fill="none" d="
M 782 0
L 782 640"/>

<path id="Symbol_551_0_Layer14_0_1_STROKES" stroke="#009900" stroke-opacity="0.4980392156862745" stroke-width="1" stroke-linejoin="round" stroke-linecap="round" fill="none" d="
M 802 0
L 802 640"/>

<path id="Symbol_551_0_Layer13_0_1_STROKES" stroke="#009900" stroke-opacity="0.4980392156862745" stroke-width="1" stroke-linejoin="round" stroke-linecap="round" fill="none" d="
M 822 0
L 822 640"/>

<path id="Symbol_551_0_Layer12_0_1_STROKES" stroke="#009900" stroke-opacity="0.4980392156862745" stroke-width="1" stroke-linejoin="round" stroke-linecap="round" fill="none" d="
M 842 0
L 842 640"/>

<path id="Symbol_551_0_Layer11_0_1_STROKES" stroke="#009900" stroke-opacity="0.4980392156862745" stroke-width="1" stroke-linejoin="round" stroke-linecap="round" fill="none" d="
M 862 0
L 862 640"/>

<path id="Symbol_551_0_Layer10_0_1_STROKES" stroke="#009900" stroke-opacity="0.4980392156862745" stroke-width="1" stroke-linejoin="round" stroke-linecap="round" fill="none" d="
M 882 0
L 882 640"/>

<path id="Symbol_551_0_Layer9_0_1_STROKES" stroke="#009900" stroke-opacity="0.4980392156862745" stroke-width="1" stroke-linejoin="round" stroke-linecap="round" fill="none" d="
M 902 0
L 902 640"/>

<path id="Symbol_551_0_Layer8_0_1_STROKES" stroke="#009900" stroke-opacity="0.4980392156862745" stroke-width="1" stroke-linejoin="round" stroke-linecap="round" fill="none" d="
M 922 0
L 922 640"/>

<path id="Symbol_551_0_Layer7_0_1_STROKES" stroke="#009900" stroke-opacity="0.4980392156862745" stroke-width="1" stroke-linejoin="round" stroke-linecap="round" fill="none" d="
M 942 0
L 942 640"/>

<path id="Symbol_551_0_Layer6_0_1_STROKES" stroke="#009900" stroke-opacity="0.4980392156862745" stroke-width="1" stroke-linejoin="round" stroke-linecap="round" fill="none" d="
M 962 0
L 962 640"/>

<path id="Symbol_551_0_Layer5_0_1_STROKES" stroke="#009900" stroke-opacity="0.4980392156862745" stroke-width="1" stroke-linejoin="round" stroke-linecap="round" fill="none" d="
M 982 0
L 982 640"/>

<path id="Symbol_551_0_Layer4_0_1_STROKES" stroke="#009900" stroke-opacity="0.4980392156862745" stroke-width="1" stroke-linejoin="round" stroke-linecap="round" fill="none" d="
M 1002 0
L 1002 640"/>

<path id="Symbol_551_0_Layer3_0_1_STROKES" stroke="#009900" stroke-opacity="0.4980392156862745" stroke-width="1" stroke-linejoin="round" stroke-linecap="round" fill="none" d="
M 1022 0
L 1022 640"/>

<path id="Symbol_551_0_Layer2_0_1_STROKES" stroke="#009900" stroke-opacity="0.4980392156862745" stroke-width="1" stroke-linejoin="round" stroke-linecap="round" fill="none" d="
M 2 0.05
L 2 638"/>

<path id="Symbol_551_0_Layer1_0_1_STROKES" stroke="#009900" stroke-opacity="0.4980392156862745" stroke-width="1" stroke-linejoin="round" stroke-linecap="round" fill="none" d="
M 42 2.1
L 42 640.1"/>

<path id="Symbol_551_0_Layer0_0_1_STROKES" stroke="#009900" stroke-opacity="0.4980392156862745" stroke-width="1" stroke-linejoin="round" stroke-linecap="round" fill="none" d="
M 0 0
L 1024.05 0"/>
</defs>

<g id="greenlines_mc" transform="matrix( 1, 0, 0, 1, 0,0) ">
<g transform="matrix( 1, 0, 0, 1, 0,0) ">
<g transform="matrix( 1, 0, 0, 1, 0,0) ">
<use xlink:href="#Symbol_551_0_Layer83_0_1_STROKES"/>
</g>

<g transform="matrix( 1, 0, 0, 1, 0,0) ">
<use xlink:href="#Symbol_551_0_Layer82_0_1_STROKES"/>
</g>

<g transform="matrix( 1, 0, 0, 1, 0,0) ">
<use xlink:href="#Symbol_551_0_Layer81_0_1_STROKES"/>
</g>

<g transform="matrix( 1, 0, 0, 1, 0,0) ">
<use xlink:href="#Symbol_551_0_Layer80_0_1_STROKES"/>
</g>

<g transform="matrix( 1, 0, 0, 1, 0,0) ">
<use xlink:href="#Symbol_551_0_Layer79_0_1_STROKES"/>
</g>

<g transform="matrix( 1, 0, 0, 1, 0,0) ">
<use xlink:href="#Symbol_551_0_Layer78_0_1_STROKES"/>
</g>

<g transform="matrix( 1, 0, 0, 1, 0,0) ">
<use xlink:href="#Symbol_551_0_Layer77_0_1_STROKES"/>
</g>

<g transform="matrix( 1, 0, 0, 1, 0,0) ">
<use xlink:href="#Symbol_551_0_Layer76_0_1_STROKES"/>
</g>

<g transform="matrix( 1, 0, 0, 1, 0,0) ">
<use xlink:href="#Symbol_551_0_Layer75_0_1_STROKES"/>
</g>

<g transform="matrix( 1, 0, 0, 1, 0,0) ">
<use xlink:href="#Symbol_551_0_Layer74_0_1_STROKES"/>
</g>

<g transform="matrix( 1, 0, 0, 1, 0,0) ">
<use xlink:href="#Symbol_551_0_Layer73_0_1_STROKES"/>
</g>

<g transform="matrix( 1, 0, 0, 1, 0,0) ">
<use xlink:href="#Symbol_551_0_Layer72_0_1_STROKES"/>
</g>

<g transform="matrix( 1, 0, 0, 1, 0,0) ">
<use xlink:href="#Symbol_551_0_Layer71_0_1_STROKES"/>
</g>

<g transform="matrix( 1, 0, 0, 1, 0,0) ">
<use xlink:href="#Symbol_551_0_Layer70_0_1_STROKES"/>
</g>

<g transform="matrix( 1, 0, 0, 1, 0,0) ">
<use xlink:href="#Symbol_551_0_Layer69_0_1_STROKES"/>
</g>

<g transform="matrix( 1, 0, 0, 1, 0,0) ">
<use xlink:href="#Symbol_551_0_Layer68_0_1_STROKES"/>
</g>

<g transform="matrix( 1, 0, 0, 1, 0,0) ">
<use xlink:href="#Symbol_551_0_Layer67_0_1_STROKES"/>
</g>

<g transform="matrix( 1, 0, 0, 1, 0,0) ">
<use xlink:href="#Symbol_551_0_Layer66_0_1_STROKES"/>
</g>

<g transform="matrix( 1, 0, 0, 1, 0,0) ">
<use xlink:href="#Symbol_551_0_Layer65_0_1_STROKES"/>
</g>

<g transform="matrix( 1, 0, 0, 1, 0,0) ">
<use xlink:href="#Symbol_551_0_Layer64_0_1_STROKES"/>
</g>

<g transform="matrix( 1, 0, 0, 1, 0,0) ">
<use xlink:href="#Symbol_551_0_Layer63_0_1_STROKES"/>
</g>

<g transform="matrix( 1, 0, 0, 1, 0,0) ">
<use xlink:href="#Symbol_551_0_Layer62_0_1_STROKES"/>
</g>

<g transform="matrix( 1, 0, 0, 1, 0,0) ">
<use xlink:href="#Symbol_551_0_Layer61_0_1_STROKES"/>
</g>

<g transform="matrix( 1, 0, 0, 1, 0,0) ">
<use xlink:href="#Symbol_551_0_Layer60_0_1_STROKES"/>
</g>

<g transform="matrix( 1, 0, 0, 1, 0,0) ">
<use xlink:href="#Symbol_551_0_Layer59_0_1_STROKES"/>
</g>

<g transform="matrix( 1, 0, 0, 1, 0,0) ">
<use xlink:href="#Symbol_551_0_Layer58_0_1_STROKES"/>
</g>

<g transform="matrix( 1, 0, 0, 1, 0,0) ">
<use xlink:href="#Symbol_551_0_Layer57_0_1_STROKES"/>
</g>

<g transform="matrix( 1, 0, 0, 1, 0,0) ">
<use xlink:href="#Symbol_551_0_Layer56_0_1_STROKES"/>
</g>

<g transform="matrix( 1, 0, 0, 1, 0,0) ">
<use xlink:href="#Symbol_551_0_Layer55_0_1_STROKES"/>
</g>

<g transform="matrix( 1, 0, 0, 1, 0,0) ">
<use xlink:href="#Symbol_551_0_Layer54_0_1_STROKES"/>
</g>

<g transform="matrix( 1, 0, 0, 1, 0,0) ">
<use xlink:href="#Symbol_551_0_Layer53_0_1_STROKES"/>
</g>

<g transform="matrix( 1, 0, 0, 1, 0,0) ">
<use xlink:href="#Symbol_551_0_Layer52_0_1_STROKES"/>
</g>

<g transform="matrix( 1, 0, 0, 1, 0,0) ">
<use xlink:href="#Symbol_551_0_Layer51_0_1_STROKES"/>
</g>

<g transform="matrix( 1, 0, 0, 1, 0,0) ">
<use xlink:href="#Symbol_551_0_Layer50_0_1_STROKES"/>
</g>

<g transform="matrix( 1, 0, 0, 1, 0,0) ">
<use xlink:href="#Symbol_551_0_Layer49_0_1_STROKES"/>
</g>

<g transform="matrix( 1, 0, 0, 1, 0,0) ">
<use xlink:href="#Symbol_551_0_Layer48_0_1_STROKES"/>
</g>

<g transform="matrix( 1, 0, 0, 1, 0,0) ">
<use xlink:href="#Symbol_551_0_Layer47_0_1_STROKES"/>
</g>

<g transform="matrix( 1, 0, 0, 1, 0,0) ">
<use xlink:href="#Symbol_551_0_Layer46_0_1_STROKES"/>
</g>

<g transform="matrix( 1, 0, 0, 1, 0,0) ">
<use xlink:href="#Symbol_551_0_Layer45_0_1_STROKES"/>
</g>

<g transform="matrix( 1, 0, 0, 1, 0,0) ">
<use xlink:href="#Symbol_551_0_Layer44_0_1_STROKES"/>
</g>

<g transform="matrix( 1, 0, 0, 1, 0,0) ">
<use xlink:href="#Symbol_551_0_Layer43_0_1_STROKES"/>
</g>

<g transform="matrix( 1, 0, 0, 1, 0,0) ">
<use xlink:href="#Symbol_551_0_Layer42_0_1_STROKES"/>
</g>

<g transform="matrix( 1, 0, 0, 1, 0,0) ">
<use xlink:href="#Symbol_551_0_Layer41_0_1_STROKES"/>
</g>

<g transform="matrix( 1, 0, 0, 1, 0,0) ">
<use xlink:href="#Symbol_551_0_Layer40_0_1_STROKES"/>
</g>

<g transform="matrix( 1, 0, 0, 1, 0,0) ">
<use xlink:href="#Symbol_551_0_Layer39_0_1_STROKES"/>
</g>

<g transform="matrix( 1, 0, 0, 1, 0,0) ">
<use xlink:href="#Symbol_551_0_Layer38_0_1_STROKES"/>
</g>

<g transform="matrix( 1, 0, 0, 1, 0,0) ">
<use xlink:href="#Symbol_551_0_Layer37_0_1_STROKES"/>
</g>

<g transform="matrix( 1, 0, 0, 1, 0,0) ">
<use xlink:href="#Symbol_551_0_Layer36_0_1_STROKES"/>
</g>

<g transform="matrix( 1, 0, 0, 1, 0,0) ">
<use xlink:href="#Symbol_551_0_Layer35_0_1_STROKES"/>
</g>

<g transform="matrix( 1, 0, 0, 1, 0,0) ">
<use xlink:href="#Symbol_551_0_Layer34_0_1_STROKES"/>
</g>

<g transform="matrix( 1, 0, 0, 1, 0,0) ">
<use xlink:href="#Symbol_551_0_Layer33_0_1_STROKES"/>
</g>

<g transform="matrix( 1, 0, 0, 1, 0,0) ">
<use xlink:href="#Symbol_551_0_Layer32_0_1_STROKES"/>
</g>

<g transform="matrix( 1, 0, 0, 1, 0,0) ">
<use xlink:href="#Symbol_551_0_Layer31_0_1_STROKES"/>
</g>

<g transform="matrix( 1, 0, 0, 1, 0,0) ">
<use xlink:href="#Symbol_551_0_Layer30_0_1_STROKES"/>
</g>

<g transform="matrix( 1, 0, 0, 1, 0,0) ">
<use xlink:href="#Symbol_551_0_Layer29_0_1_STROKES"/>
</g>

<g transform="matrix( 1, 0, 0, 1, 0,0) ">
<use xlink:href="#Symbol_551_0_Layer28_0_1_STROKES"/>
</g>

<g transform="matrix( 1, 0, 0, 1, 0,0) ">
<use xlink:href="#Symbol_551_0_Layer27_0_1_STROKES"/>
</g>

<g transform="matrix( 1, 0, 0, 1, 0,0) ">
<use xlink:href="#Symbol_551_0_Layer26_0_1_STROKES"/>
</g>

<g transform="matrix( 1, 0, 0, 1, 0,0) ">
<use xlink:href="#Symbol_551_0_Layer25_0_1_STROKES"/>
</g>

<g transform="matrix( 1, 0, 0, 1, 0,0) ">
<use xlink:href="#Symbol_551_0_Layer24_0_1_STROKES"/>
</g>

<g transform="matrix( 1, 0, 0, 1, 0,0) ">
<use xlink:href="#Symbol_551_0_Layer23_0_1_STROKES"/>
</g>

<g transform="matrix( 1, 0, 0, 1, 0,0) ">
<use xlink:href="#Symbol_551_0_Layer22_0_1_STROKES"/>
</g>

<g transform="matrix( 1, 0, 0, 1, 0,0) ">
<use xlink:href="#Symbol_551_0_Layer21_0_1_STROKES"/>
</g>

<g transform="matrix( 1, 0, 0, 1, 0,0) ">
<use xlink:href="#Symbol_551_0_Layer20_0_1_STROKES"/>
</g>

<g transform="matrix( 1, 0, 0, 1, 0,0) ">
<use xlink:href="#Symbol_551_0_Layer19_0_1_STROKES"/>
</g>

<g transform="matrix( 1, 0, 0, 1, 0,0) ">
<use xlink:href="#Symbol_551_0_Layer18_0_1_STROKES"/>
</g>

<g transform="matrix( 1, 0, 0, 1, 0,0) ">
<use xlink:href="#Symbol_551_0_Layer17_0_1_STROKES"/>
</g>

<g transform="matrix( 1, 0, 0, 1, 0,0) ">
<use xlink:href="#Symbol_551_0_Layer16_0_1_STROKES"/>
</g>

<g transform="matrix( 1, 0, 0, 1, 0,0) ">
<use xlink:href="#Symbol_551_0_Layer15_0_1_STROKES"/>
</g>

<g transform="matrix( 1, 0, 0, 1, 0,0) ">
<use xlink:href="#Symbol_551_0_Layer14_0_1_STROKES"/>
</g>

<g transform="matrix( 1, 0, 0, 1, 0,0) ">
<use xlink:href="#Symbol_551_0_Layer13_0_1_STROKES"/>
</g>

<g transform="matrix( 1, 0, 0, 1, 0,0) ">
<use xlink:href="#Symbol_551_0_Layer12_0_1_STROKES"/>
</g>

<g transform="matrix( 1, 0, 0, 1, 0,0) ">
<use xlink:href="#Symbol_551_0_Layer11_0_1_STROKES"/>
</g>

<g transform="matrix( 1, 0, 0, 1, 0,0) ">
<use xlink:href="#Symbol_551_0_Layer10_0_1_STROKES"/>
</g>

<g transform="matrix( 1, 0, 0, 1, 0,0) ">
<use xlink:href="#Symbol_551_0_Layer9_0_1_STROKES"/>
</g>

<g transform="matrix( 1, 0, 0, 1, 0,0) ">
<use xlink:href="#Symbol_551_0_Layer8_0_1_STROKES"/>
</g>

<g transform="matrix( 1, 0, 0, 1, 0,0) ">
<use xlink:href="#Symbol_551_0_Layer7_0_1_STROKES"/>
</g>

<g transform="matrix( 1, 0, 0, 1, 0,0) ">
<use xlink:href="#Symbol_551_0_Layer6_0_1_STROKES"/>
</g>

<g transform="matrix( 1, 0, 0, 1, 0,0) ">
<use xlink:href="#Symbol_551_0_Layer5_0_1_STROKES"/>
</g>

<g transform="matrix( 1, 0, 0, 1, 0,0) ">
<use xlink:href="#Symbol_551_0_Layer4_0_1_STROKES"/>
</g>

<g transform="matrix( 1, 0, 0, 1, 0,0) ">
<use xlink:href="#Symbol_551_0_Layer3_0_1_STROKES"/>
</g>

<g transform="matrix( 1, 0, 0, 1, 0,0) ">
<use xlink:href="#Symbol_551_0_Layer2_0_1_STROKES"/>
</g>

<g transform="matrix( 1, 0, 0, 1, 0,0) ">
<use xlink:href="#Symbol_551_0_Layer1_0_1_STROKES"/>
</g>

<g transform="matrix( 1, 0, 0, 1, 0,0) ">
<use xlink:href="#Symbol_551_0_Layer0_0_1_STROKES"/>
</g>
</g>
</g>
</svg>
