
<svg xmlns="http://www.w3.org/2000/svg" version="1.1" xmlns:xlink="http://www.w3.org/1999/xlink" preserveAspectRatio="none" x="0px" y="0px" width="350px" height="445px" viewBox="0 0 350 445">
<defs>
<radialGradient id="Gradient_1" gradientUnits="userSpaceOnUse" cx="0" cy="0" r="174.9157158640984" fx="0" fy="0" gradientTransform="matrix( 0.867203379928733, 0.497954112183223, -0.6325189217757903, 1.101387597153822, 140,124) " spreadMethod="pad">
<stop  offset="69.80392156862744%" stop-color="#E8C3A9"/>

<stop  offset="100%" stop-color="#A7755E"/>
</radialGradient>

<g id="Symbol_1210_0_Layer3_0_FILL">
<path fill="url(#Gradient_1)" stroke="none" d="
M 66.25 -57.2
Q 54.75 -56.6 46.5 -52.1 36.9 -47 36.9 -38.75
L 35.65 -4.95
Q 26.1 -14.5 20.35 -17.05 10.8 -21.5 3.75 -13.25 -16 9.7 -16 134.65 -16 276.8 31.8 321.45 50.95 339.3 81.55 345 99.4 348.2 138.9 348.2 177.8 348.2 214.15 316.35 238.35 295.3 251.1 271.1 278.5 221.35 303.4 164.6 344.8 69.65 330.15 53.7 312.3 44.75 293.8 60.7 281.7 72.2 265.15 100.25 245.35 133.4 240.25 139.75 228.15 155.05 219.25 144.85
L 220.5 -25.35
Q 219.85 -56.6 193.1 -57.85 182.9 -58.5 174.6 -52.75 166.3 -47 165.7 -38.75
L 164.4 -80.15
Q 164.4 -87.8 153.55 -92.9 144 -96.75 130.65 -96.75 115.95 -96.1 107.05 -91 96.2 -84 96.2 -73.15
L 96.2 -42.75
Q 96.05 -49 87.3 -53.4 78.35 -57.2 66.25 -57.2 Z"/>
</g>

<g id="Symbol_1210_0_Layer2_0_FILL">
<path fill="#000000" stroke="none" d="
M 35 -14
L 25 -14 25 186 35 186 35 -14 Z"/>
</g>

<g id="Symbol_1210_0_Layer1_0_FILL">
<path fill="#000000" stroke="none" d="
M 97 -56
L 87 -56 87 144 97 144 97 -56 Z"/>
</g>

<g id="Symbol_1210_0_Layer0_0_FILL">
<path fill="#000000" stroke="none" d="
M 175 -54
L 165 -54 165 146 175 146 175 -54 Z"/>
</g>
</defs>

<g transform="matrix( 1, 0, 0, 1, 16,97) ">
<g transform="matrix( 1, 0, 0, 1, 0,0) ">
<use xlink:href="#Symbol_1210_0_Layer3_0_FILL"/>
</g>

<g transform="matrix( 1, 0, 0, 1, 0,0) ">
<use xlink:href="#Symbol_1210_0_Layer2_0_FILL"/>
</g>

<g transform="matrix( 1, 0, 0, 1, 0,0) ">
<use xlink:href="#Symbol_1210_0_Layer1_0_FILL"/>
</g>

<g transform="matrix( 1, 0, 0, 1, 0,0) ">
<use xlink:href="#Symbol_1210_0_Layer0_0_FILL"/>
</g>
</g>
</svg>
