<?xml version="1.0" encoding="UTF-8"?><svg id="Layer_1" xmlns="http://www.w3.org/2000/svg" viewBox="0 0 240 240"><defs><style>.cls-1{fill:#777;}.cls-2{opacity:.5;}</style></defs><g id="banned_circle3_0_Layer2_0_FILL" class="cls-2"><path class="cls-1" d="M204.83,35.18C182.61,12.25,151.9-.47,119.98.02c-31.9-.47-62.57,12.25-84.77,35.16C12.26,57.38-.49,88.08,0,120.01c-.48,31.91,12.27,62.61,35.22,84.79,22.19,22.93,52.87,35.67,84.77,35.2,31.91.49,62.61-12.24,84.81-35.18,22.94-22.2,35.67-52.89,35.18-84.81.5-31.92-12.21-62.62-35.14-84.83Z"/></g><path d="M169.93,138.98c2.14-5.71,3.22-11.76,3.2-17.86,0-28.19-22.85-51.04-51.04-51.04h0c-6.02,0-11.99,1.09-17.63,3.2l11.98,12.35c1.82-.29,3.66-.44,5.51-.45,19.93-.04,36.15,16.01,36.31,35.94,0,1.84-.16,3.68-.45,5.51l12.13,12.35Z"/><path d="M237.64,117.62c-25.07-46.35-69.05-74.41-117.71-74.41-13.25.03-26.41,2.17-38.99,6.32l11.98,12.05c8.82-2.28,17.9-3.46,27.01-3.5,41.89,0,79.99,23.36,102.68,62.72-8.32,14.6-19.36,27.48-32.52,37.95l10.57,10.57c15.22-12.28,27.87-27.45,37.2-44.64l1.93-3.57-2.16-3.5Z"/><path d="M18.73,30.19l33.19,33.19C30.94,76.88,13.8,95.57,2.14,117.62l-1.93,3.5,1.93,3.57c25.07,46.35,69.05,74.41,117.71,74.41,18.99,0,37.74-4.3,54.84-12.57l37.2,37.2,13.02-11.16L31.46,19.11l-12.72,11.09ZM91.28,102.74l49.48,49.48c-5.59,3.46-12.03,5.31-18.6,5.36-20.01,0-36.24-16.22-36.24-36.23,0-.07,0-.15,0-.22.08-6.5,1.94-12.85,5.36-18.38ZM80.49,91.95c-16.28,22.96-10.87,54.78,12.1,71.06,17.66,12.52,41.3,12.52,58.96,0l11.9,11.9c-13.78,5.89-28.61,8.93-43.6,8.93-41.89,0-79.99-23.36-102.68-62.72,10.89-19.28,26.58-35.43,45.54-46.88l17.78,17.71Z"/></svg>