<svg id="Layer_1" data-name="Layer 1" xmlns="http://www.w3.org/2000/svg" xmlns:xlink="http://www.w3.org/1999/xlink" viewBox="0 0 25.01 25.01"><defs><style>.cls-1{fill:url(#linear-gradient);}.cls-2{fill:url(#linear-gradient-2);}.cls-3{fill:#fff;}</style><linearGradient id="linear-gradient" x1="447.28" y1="-404.57" x2="447.28" y2="-366.07" gradientTransform="matrix(1.22, -1.22, -1.22, -1.22, -1003.17, 88.12)" gradientUnits="userSpaceOnUse"><stop offset="0"/><stop offset="0.31" stop-color="#666"/><stop offset="1" stop-color="#fff"/></linearGradient><linearGradient id="linear-gradient-2" x1="774.26" y1="-240.99" x2="774.26" y2="-256.04" gradientTransform="matrix(1.44, 0, 0, -1.44, -1103.44, -345.82)" gradientUnits="userSpaceOnUse"><stop offset="0" stop-color="#666"/><stop offset="1"/></linearGradient></defs><title>info_btn_up</title><g id="Layer2_0_FILL" data-name="Layer2 0 FILL"><path class="cls-1" d="M21.43,3.69A12.13,12.13,0,0,0,12.52,0,12,12,0,0,0,3.74,3.69a12.38,12.38,0,0,0,0,17.69A12,12,0,0,0,12.52,25a12.13,12.13,0,0,0,8.91-3.66A11.78,11.78,0,0,0,25,12.54,11.8,11.8,0,0,0,21.43,3.69Z" transform="translate(-0.02 -0.03)"/></g><g id="Layer1_0_FILL" data-name="Layer1 0 FILL"><path class="cls-2" d="M23.19,12.47a10.14,10.14,0,0,0-3.1-7.42,10,10,0,0,0-7.35-3A10.35,10.35,0,0,0,2.28,12.47a10,10,0,0,0,3,7.35,10.12,10.12,0,0,0,7.42,3.1,9.89,9.89,0,0,0,7.36-3.1A9.89,9.89,0,0,0,23.19,12.47Z" transform="translate(-0.02 -0.03)"/></g><g id="Layer0_0_FILL" data-name="Layer0 0 FILL"><path class="cls-3" d="M12.35,18a1.55,1.55,0,0,0-1.15.45,1.37,1.37,0,0,0-.55,1.1,1.52,1.52,0,0,0,.55,1.25,1.55,1.55,0,0,0,1.15.45,1.87,1.87,0,0,0,1.2-.45A1.69,1.69,0,0,0,14,19.5a1.5,1.5,0,0,0-.45-1.1,1.87,1.87,0,0,0-1.2-.45M10.9,7.55a2.19,2.19,0,0,1,1.75-.65,2.24,2.24,0,0,1,1.65.65A1.83,1.83,0,0,1,15,9a1.8,1.8,0,0,1-.25.9l-.55.65-2.3,2.1a4.25,4.25,0,0,0-.7,1.25,3.66,3.66,0,0,0-.3,1.55,1.3,1.3,0,0,0,.45,1.1,1,1,0,0,0,.85.4,1.3,1.3,0,0,0,1.35-1.2l.35-1.1.85-1.1,1.9-1.65a7.31,7.31,0,0,0,1-1.25A4.4,4.4,0,0,0,18,9a4,4,0,0,0-.65-2.2,4.24,4.24,0,0,0-1.85-1.55,6,6,0,0,0-2.8-.65,5.71,5.71,0,0,0-3,.75A4.38,4.38,0,0,0,7.7,7.15,3.6,3.6,0,0,0,7,9.25a1.26,1.26,0,0,0,.45.85,1.38,1.38,0,0,0,1,.45A1.54,1.54,0,0,0,9.9,9.35,3.87,3.87,0,0,1,10.9,7.55Z" transform="translate(-0.02 -0.03)"/></g></svg>