<svg id="Layer_1" data-name="Layer 1" xmlns="http://www.w3.org/2000/svg" xmlns:xlink="http://www.w3.org/1999/xlink" viewBox="0 0 32.95 18.05"><defs><style>.cls-1{fill:url(#linear-gradient);}.cls-2{fill:none;stroke:#960;stroke-linecap:round;stroke-linejoin:round;stroke-width:0.05px;}</style><linearGradient id="linear-gradient" x1="16.45" y1="2.64" x2="16.45" y2="18.36" gradientTransform="matrix(1, 0, 0, -1, 0, 20)" gradientUnits="userSpaceOnUse"><stop offset="0.02" stop-color="#7e5801"/><stop offset="0.6" stop-color="#c90"/><stop offset="1" stop-color="#edf3ad"/></linearGradient></defs><title>key</title><g id="key_mc" data-name="key mc"><g id="Key_0_Layer0_0_FILL" data-name="Key 0 Layer0 0 FILL"><path class="cls-1" d="M32.9,8.35V6.65A7.69,7.69,0,0,0,30.8,2.3,6.87,6.87,0,0,0,26.85.1l-.6-.1H25.7a6.56,6.56,0,0,0-5,2.3,5.86,5.86,0,0,0-1.55,2.2l-1.7,1.1H0V18H3.4V11.6H6.05v.15h1v5.7h3.1V11.6h9.45L20.7,13a6.67,6.67,0,0,0,5,2.2A6.78,6.78,0,0,0,30.8,13a7.78,7.78,0,0,0,2.1-4.65M25.8,3.6a3.58,3.58,0,0,1,2.7,1.25,4,4,0,0,1,1.15,2.9A4,4,0,0,1,28.5,10.6a3.69,3.69,0,0,1-2.7,1.15,3.74,3.74,0,0,1-2.75-1.15A4.09,4.09,0,0,1,22,7.75a4.16,4.16,0,0,1,1.1-2.9A3.62,3.62,0,0,1,25.8,3.6Z" transform="translate(0.03 0.03)"/></g><path id="Key_0_Layer0_0_1_STROKES" data-name="Key 0 Layer0 0 1 STROKES" class="cls-2" d="M32.9,6.65v1.7A7.78,7.78,0,0,1,30.8,13a6.78,6.78,0,0,1-5.1,2.2,6.67,6.67,0,0,1-5-2.2l-1.05-1.4H10.2v5.85H7.1v-5.7h-1V11.6H3.4V18H0V5.6H17.45l1.7-1.1A5.86,5.86,0,0,1,20.7,2.3a6.56,6.56,0,0,1,5-2.3h.55l.6.1A6.87,6.87,0,0,1,30.8,2.3,7.69,7.69,0,0,1,32.9,6.65Zm-4.4-1.8a4,4,0,0,1,1.15,2.9A4,4,0,0,1,28.5,10.6a3.69,3.69,0,0,1-2.7,1.15,3.74,3.74,0,0,1-2.75-1.15A4.09,4.09,0,0,1,22,7.75a4.16,4.16,0,0,1,1.1-2.9A3.62,3.62,0,0,1,25.8,3.6,3.58,3.58,0,0,1,28.5,4.85Z" transform="translate(0.03 0.03)"/></g></svg>