<svg id="Layer_1" data-name="Layer 1" xmlns="http://www.w3.org/2000/svg" viewBox="0 0 44.64 41.38"><defs><style>.cls-1{fill:#3052ab;}.cls-2{fill:#a6b4d9;}.cls-3{fill:#97a8d4;}.cls-4{fill:#20a200;}.cls-5{fill:#9ddf95;}.cls-6{fill:#fcfcfd;}.cls-7{fill:#9baad5;}.cls-8{fill:#c6cee7;}.cls-9{fill:#fefefe;}</style></defs><title>like_btn_up</title><g id="Layer0_0_FILL" data-name="Layer0 0 FILL"><path class="cls-1" d="M16.55,20.65a0,0,0,0,0,.05,0H13.85a10.42,10.42,0,0,0,2.7,0m22.3-4.6h-3.3a18.74,18.74,0,0,0,3.4.1v-.1h-.1M37.6,40V39.9H18Q27.6,40.1,37.6,40Z" transform="translate(0.02 -0.02)"/><path class="cls-2" d="M13.75,20.6H16.6v-.1H13.75Z" transform="translate(0.02 -0.02)"/><path class="cls-3" d="M39.15,16.05h.15V16Q36,16,32.7,16a14.26,14.26,0,0,0,2.7.15l.15-.05h3.6Z" transform="translate(0.02 -0.02)"/><path class="cls-4" d="M44,18.8a3.47,3.47,0,0,0-.75-1.1,6.06,6.06,0,0,0-3.9-1.65H39v.1a18.74,18.74,0,0,1-3.4-.1l-.15.05A14.26,14.26,0,0,1,32.7,16c-.37,0-.43-.23-.2-.7a20.24,20.24,0,0,1,1.65-2.95A10.72,10.72,0,0,0,35.8,8.2q.9-4.35-1.1-7a2.76,2.76,0,0,0-2-1.1q-3-.3-3.5,2.45a12.17,12.17,0,0,1-4.7,8.1,6.71,6.71,0,0,0-1.3,1.25q-3.3,4.35-6.6,8.65v.1a0,0,0,0,1-.05,0,10.42,10.42,0,0,1-2.7,0h-.1v-.1a.16.16,0,0,0-.05-.1c-.17-.27-.35-.53-.55-.8a.16.16,0,0,1-.1-.05,4.27,4.27,0,0,1-.8-.4H1.6v.05A2.55,2.55,0,0,0,0,20.85q-.11,9.79.35,19.3a.87.87,0,0,0,.25.55,4.72,4.72,0,0,0,.9.7H12.25A5,5,0,0,0,14,40.05s0,0,.1,0a4,4,0,0,1,2.4.75,3,3,0,0,0,2,.6q10.24.1,20.2-.25a3.17,3.17,0,0,0,1.55-.45c1.37-.87,1.88-2.4,1.55-4.6Q43.71,34.3,43,31.1a2.27,2.27,0,0,1-.05-.5q1.76-1.3,1.5-4.65v-.1a12.12,12.12,0,0,0-.65-1.3s0,0,0-.1A5.43,5.43,0,0,0,44,18.8m-2.1-.25q1.95,1.39,1,4.1a2.35,2.35,0,0,1-1.9,1.6,3,3,0,0,1,1.85,1.9,0,0,0,0,0,0,.05q.3,3.45-2.35,3.95H40.4q1.91,1.25,1,3.75a2.3,2.3,0,0,1-2,1.45,2.61,2.61,0,0,1,1,1.25h0v1.5a2.44,2.44,0,0,1-1.65,1.65,0,0,0,0,0,0,0h-.9v.05a.49.49,0,0,1-.2,0V40Q27.6,40.1,18,39.9h-.1v-.1H17.7a5.27,5.27,0,0,1-2.15-1.35H13.9q0-8.21-.05-16.35h3.2a44.8,44.8,0,0,0,6.1-7.9A10.68,10.68,0,0,1,26.25,11,6.63,6.63,0,0,0,27.3,10a14.63,14.63,0,0,0,3.55-7.5,1.54,1.54,0,0,1,1.3-1.2q2.6,1.16,2.45,4.9a8.25,8.25,0,0,1-1.15,4.3l-2.7,4.3v1.5a4,4,0,0,0,.55.7.16.16,0,0,1,.05.1,3.88,3.88,0,0,0,.85.4,0,0,0,0,1,0,.05,45.57,45.57,0,0,1,8.15.4,3.72,3.72,0,0,1,1.45.6M1.6,21a28.17,28.17,0,0,1,5.2-.35c1.87,0,3.65.12,5.35.25q.3,9.34,0,18.7v.15Q7,40,1.8,39.7H1.7q-.19-9.2-.1-18.65Z" transform="translate(0.02 -0.02)"/><path class="cls-5" d="M6.8,20.6A28.17,28.17,0,0,0,1.6,21v.1q-.1,9.45.1,18.65h.1Q7,40,12.15,39.7v-.15q.3-9.34,0-18.7c-1.7-.13-3.48-.22-5.35-.25m4.1,16H11a1.6,1.6,0,0,1-.35,2h-.1a1.13,1.13,0,0,1-1.5-.3s0-.05-.1-.05a1.71,1.71,0,0,1-.2-1.1v-.15A1.35,1.35,0,0,1,10.9,36.6Z" transform="translate(0.02 -0.02)"/><path class="cls-6" d="M11,36.6h-.1a1.35,1.35,0,0,0-2.15.45v.15A1.71,1.71,0,0,0,9,38.3c.07,0,.1,0,.1.05a1.13,1.13,0,0,0,1.5.3h.1A1.6,1.6,0,0,0,11,36.6Z" transform="translate(0.02 -0.02)"/><path class="cls-7" d="M17.85,39.9H37.6a.49.49,0,0,0,.2,0V39.8H17.85Z" transform="translate(0.02 -0.02)"/><path class="cls-8" d="M14,22.1h-.1q0,8.15.05,16.35h0V22.1Z" transform="translate(0.02 -0.02)"/><path class="cls-9" d="M42.9,22.65q.9-2.7-1-4.1A3.72,3.72,0,0,0,40.4,18a45.57,45.57,0,0,0-8.15-.4,0,0,0,0,0,0-.05,3.88,3.88,0,0,1-.85-.4.16.16,0,0,0-.05-.1,4,4,0,0,1-.55-.7V14.8l2.7-4.3A8.25,8.25,0,0,0,34.6,6.2q.15-3.75-2.45-4.9a1.54,1.54,0,0,0-1.3,1.2A14.63,14.63,0,0,1,27.3,10a6.63,6.63,0,0,1-1.05.95,10.68,10.68,0,0,0-3.1,3.25,44.8,44.8,0,0,1-6.1,7.9H14V38.45h1.6A5.27,5.27,0,0,0,17.7,39.8h21a0,0,0,0,1,0,0A2.44,2.44,0,0,0,40.4,38.1V36.6h0a2.61,2.61,0,0,0-1-1.25,2.3,2.3,0,0,0,2-1.45q.9-2.51-1-3.75h.15q2.66-.49,2.35-3.95a0,0,0,0,1,0-.05A3,3,0,0,0,41,24.25,2.35,2.35,0,0,0,42.9,22.65Z" transform="translate(0.02 -0.02)"/></g></svg>