<svg id="Layer_1" data-name="Layer 1" xmlns="http://www.w3.org/2000/svg" xmlns:xlink="http://www.w3.org/1999/xlink" viewBox="0 0 30 30"><defs><style>.cls-1{fill-opacity:0.4;}.cls-2{fill-opacity:0.3;}.cls-3{fill:#c60000;}.cls-4{fill:url(#linear-gradient);}.cls-5{fill:url(#linear-gradient-2);}</style><linearGradient id="linear-gradient" x1="43.18" y1="-10.48" x2="195.01" y2="141.38" gradientTransform="matrix(0.1, 0, 0, -0.1, 2.69, 21.59)" gradientUnits="userSpaceOnUse"><stop offset="0" stop-color="#fa690e"/><stop offset="0.47" stop-color="#ce0000"/><stop offset="1" stop-color="#fa6a69"/></linearGradient><linearGradient id="linear-gradient-2" x1="100.58" y1="36.83" x2="26.67" y2="110.76" gradientTransform="matrix(0.1, 0, 0, -0.1, 2.69, 21.59)" gradientUnits="userSpaceOnUse"><stop offset="0" stop-color="#fc736b"/><stop offset="1" stop-color="#fff2ed"/></linearGradient></defs><title>minus_btn</title><g id="minus_mc" data-name="minus mc"><g id="Symbol_1201_0_Layer1_0_FILL" data-name="Symbol 1201 0 Layer1 0 FILL"><path class="cls-1" d="M28,19.36l-.5.06H1.89l-.3,0-.26-.05.26.08.52.07H27.68l.28,0c1.08-.15,1.61-.89,1.61-2.24V12.77c0-1.21-.43-1.93-1.3-2.16.73.29,1.08,1,1.08,2.08v4.48C29.35,18.41,28.89,19.14,28,19.36Z"/><path class="cls-2" d="M28,10.53l.24.08c.87.23,1.3,1,1.3,2.16v4.47c0,1.35-.53,2.09-1.61,2.24l-.28,0H28c1.26-.05,1.89-.81,1.89-2.26V12.77c0-1.44-.61-2.18-1.82-2.24,1.21.06,1.82.8,1.82,2.24v4.47c0,1.45-.63,2.21-1.89,2.26h.14c1.26-.05,1.89-.81,1.88-2.26V12.77c0-1.46-.62-2.21-1.88-2.24Z"/><path class="cls-3" d="M28,10.51l-.49-.06H1.88l-.29,0C.53,10.62,0,11.36,0,12.69v4.48c0,1.22.44,1.94,1.33,2.17l.26.05.3,0H27.46l.5-.06c.93-.22,1.39-.95,1.39-2.19V12.69c0-1.1-.35-1.79-1.08-2.08L28,10.53Z"/></g><g id="Symbol_1201_0_Layer0_0_FILL" data-name="Symbol 1201 0 Layer0 0 FILL"><path class="cls-4" d="M28,13.22a1.22,1.22,0,0,0-1.38-1.37H3.11a1.22,1.22,0,0,0-1.38,1.37v3.39A1.23,1.23,0,0,0,3.11,18H26.58A1.21,1.21,0,0,0,28,16.61V13.22M15.2,15.6a16.91,16.91,0,0,1-1.51,1.33H2.78v-4H17.32A14.87,14.87,0,0,1,15.2,15.6Z"/><path class="cls-5" d="M13.69,16.93A16.91,16.91,0,0,0,15.2,15.6a14.87,14.87,0,0,0,2.12-2.67H2.78v4H13.69Z"/></g></g></svg>