<svg id="Layer_1" data-name="Layer 1" xmlns="http://www.w3.org/2000/svg" xmlns:xlink="http://www.w3.org/1999/xlink" viewBox="0 0 384 390"><defs><style>.cls-1{fill:url(#linear-gradient);}.cls-2{fill:url(#linear-gradient-2);}.cls-3{fill:url(#linear-gradient-3);}.cls-4{fill:url(#linear-gradient-4);}.cls-5{fill:url(#linear-gradient-5);}.cls-6{fill:url(#linear-gradient-6);}.cls-7{fill:url(#linear-gradient-7);}.cls-8{fill:url(#linear-gradient-8);}.cls-9{fill:url(#linear-gradient-9);}.cls-10{fill:url(#linear-gradient-10);}.cls-11{fill:url(#radial-gradient);}.cls-12{fill:#fff;}.cls-13{fill-opacity:0.2;}</style><linearGradient id="linear-gradient" x1="5.93" y1="137.44" x2="366.4" y2="234.04" gradientTransform="matrix(1, 0, 0, -1, 0, 390)" gradientUnits="userSpaceOnUse"><stop offset="0" stop-color="#676767"/><stop offset="1" stop-color="#909090"/></linearGradient><linearGradient id="linear-gradient-2" x1="43.87" y1="57.99" x2="134.43" y2="82.26" gradientTransform="matrix(1, 0, 0, -1, 0, 390)" gradientUnits="userSpaceOnUse"><stop offset="0" stop-color="#9e9e9e"/><stop offset="1" stop-color="#999"/></linearGradient><linearGradient id="linear-gradient-3" x1="93.59" y1="49.51" x2="40.56" y2="247.44" gradientTransform="matrix(1, 0, 0, -1, 0, 390)" gradientUnits="userSpaceOnUse"><stop offset="0" stop-color="#b2b2b2"/><stop offset="0.29" stop-color="#b2b2b2"/><stop offset="1" stop-color="#f8f8f8"/></linearGradient><linearGradient id="linear-gradient-4" x1="87.98" y1="49.98" x2="33.43" y2="253.63" gradientTransform="matrix(1, 0, 0, -1, 0, 390)" gradientUnits="userSpaceOnUse"><stop offset="0" stop-color="silver"/><stop offset="1" stop-color="#dadada"/></linearGradient><linearGradient id="linear-gradient-5" x1="136.67" y1="38.76" x2="285.03" y2="78.49" gradientTransform="matrix(1, 0, 0, -1, 0, 390)" gradientUnits="userSpaceOnUse"><stop offset="0" stop-color="#868686"/><stop offset="1" stop-color="#afafaf"/></linearGradient><linearGradient id="linear-gradient-6" x1="215.55" y1="12.46" x2="123.15" y2="357.29" gradientTransform="matrix(1, 0, 0, -1, 0, 390)" gradientUnits="userSpaceOnUse"><stop offset="0" stop-color="#cdcdcd"/><stop offset="1" stop-color="#eaeaea"/></linearGradient><linearGradient id="linear-gradient-7" x1="149.3" y1="171.04" x2="357.66" y2="226.86" gradientTransform="matrix(1, 0, 0, -1, 0, 390)" gradientUnits="userSpaceOnUse"><stop offset="0" stop-color="#fff"/><stop offset="1" stop-color="#959595"/></linearGradient><linearGradient id="linear-gradient-8" x1="152.7" y1="176.44" x2="344.1" y2="227.74" gradientTransform="matrix(1, 0, 0, -1, 0, 390)" gradientUnits="userSpaceOnUse"><stop offset="0" stop-color="#c8c8c8"/><stop offset="1" stop-color="#626262"/></linearGradient><linearGradient id="linear-gradient-9" x1="199.4" y1="189.55" x2="301.35" y2="216.88" gradientTransform="matrix(1, 0, 0, -1, 0, 390)" gradientUnits="userSpaceOnUse"><stop offset="0" stop-color="#878787"/><stop offset="1" stop-color="silver"/></linearGradient><linearGradient id="linear-gradient-10" x1="206.45" y1="190.76" x2="300.82" y2="216.03" gradientTransform="matrix(1, 0, 0, -1, 0, 390)" gradientUnits="userSpaceOnUse"><stop offset="0" stop-color="#ddd"/><stop offset="1" stop-color="#f5f5f5"/></linearGradient><radialGradient id="radial-gradient" cx="55.04" cy="355.35" r="146.18" gradientTransform="matrix(0.97, -0.26, -0.38, -1.43, 351.91, 681.79)" gradientUnits="userSpaceOnUse"><stop offset="0" stop-color="#fff"/><stop offset="1" stop-color="#333"/></radialGradient></defs><title>mute_btn_up</title><g id="speaker_mc" data-name="speaker mc"><g id="speaker_icon_0_Layer0_0_FILL" data-name="speaker icon 0 Layer0 0 FILL"><path class="cls-1" d="M371.65,175.7l-5-18.85-.2-.9q-11.2-41.7-31-73.95a215.89,215.89,0,0,0-39.1-47.45q-49.5-44.74-99.1-31.5L180.7,7.5q-60.9,16.31-89.5,82a207.48,207.48,0,0,0-9,25.4L40.7,126q-26.6,7.16-36.45,45.55t2.9,85.55q12.35,46,39,74.15l1.25,1.35Q75.11,361,101.7,353.8L149,341.15q5.9,5.21,12.3,9.9Q218.9,393.7,279.8,377.4l13.35-3.6,3.15-.8q49.6-13.25,71.6-71.1t3.75-126.2m-16.5-26.95,6,22.35q16.8,62.75-.1,116.25l-1.45,5.2a143.17,143.17,0,0,1-12.9,31.2L331.05,344.6l-14.65,11a69.85,69.85,0,0,1-17.6,7.4l.1.25L272,370.45l-.05-.2q-55,14.75-107.8-26.35a194.26,194.26,0,0,1-41.35-44.45l-.1-.05q-20.25-30.19-30.8-69.7Q72.36,156.8,97.4,94.85t80.1-76.7l24.05-6.45-.9.3,1.15-.3,2.65-.75Q246.9-.45,289.65,40q47,39.45,65.3,108l.2.75M43.4,133.7,79.8,124l-.35,1.5-.6,2.5-.9,4.6q-8.74,47.1,5.25,99.3,15.64,58.54,53,97.2l5.45,5.45-41.45,11.1q-23.29,6.25-48.1-20.35a134.43,134.43,0,0,1-15.35-20q-13.46-21.45-21.25-50.5-11.74-43.84-3.55-79.3T43.4,133.7Z"/><path class="cls-2" d="M73.1,334.7A93,93,0,0,1,60.4,328q-4.69-3-19-17.75l-4.7-4.95a134.43,134.43,0,0,0,15.35,20q24.8,26.6,48.1,20.35l41.45-11.1-5.45-5.45-27.5,7.4-10.15,2.1-8,.8-4.1-.15Q81.75,338.55,73.1,334.7Z"/><path class="cls-3" d="M78,132.55l-25.6,6.85q-22.65,6-30.65,39.5t3,74.75Q35.8,294.9,59.45,319.9,75.2,336.51,90.5,339.35l8-.8,10.15-2.1,27.5-7.4Q98.85,290.4,83.2,231.85,69.21,179.65,78,132.55Z"/><path class="cls-4" d="M52.35,139.4,78,132.55l.9-4.6.6-2.5.35-1.5L43.4,133.7Q20.11,140,11.9,175.45t3.55,79.3q7.8,29.06,21.25,50.5l4.7,4.95q14.3,14.7,19,17.75a93,93,0,0,0,12.7,6.75q8.66,3.85,13.3,4.5l4.1.15q-15.3-2.85-31-19.45-23.65-25-34.75-66.25t-3-74.75Q29.7,145.45,52.35,139.4Z"/><path class="cls-5" d="M126.25,302.8a18.47,18.47,0,0,0-3.45-3.35,194.26,194.26,0,0,0,41.35,44.45Q217,385,272,370.25l.05.2,26.9-7.15-.1-.25a75.46,75.46,0,0,1-33.65,1.2,112.49,112.49,0,0,1-14.25,1.9q-21.79,1.85-37-3.45l-.6-.2-.7-.25L186.1,351.8l0-.05-24.75-15.6-.55-.4q-15.3-11.29-21.7-17.45A101.79,101.79,0,0,1,126.25,302.8Z"/><path class="cls-6" d="M200.65,12l.9-.3L177.5,18.15q-55,14.75-80.1,76.7T91.9,229.7q10.55,39.49,30.8,69.7l.1.05a18.47,18.47,0,0,1,3.45,3.35,101.79,101.79,0,0,0,12.8,15.5q6.4,6.15,21.7,17.45l.55.4,24.75,15.6,0,.05,26.55,10.45.7.25.55.15q15.15,5.3,36.95,3.45L265,364.25h0l-14.15,1.85q-21.79,1.84-36.95-3.45l-.55-.15.6.2q15.15,5.3,37,3.45a112.49,112.49,0,0,0,14.25-1.9l-2.3-.45L229.2,349.85,210.1,336.2l-.65-.55q-42.55-40-60.7-107.7l-2.85-11.6q-1.76-5.59-3.35-11.5-18.35-68.55-1.65-125Q161,24.91,200.65,12Z"/><path class="cls-7" d="M359.6,292.55l1.45-5.2q14.74-56.4-3.4-124.25-19-70.95-63-113t-87.1-30.55Q164.4,31.1,147.3,89.6t2,129.35q19,71,62.95,113.1t87.2,30.5a73.36,73.36,0,0,0,16.95-6.9l14.65-11,15.65-20.85a143.17,143.17,0,0,0,12.9-31.2m-15.5-130.3q18.19,67.8,3,123.3t-54.8,66.1q-39.71,10.65-80.55-29.8T152.7,213.55q-18.15-67.8-3-123.3t54.85-66.1q39.6-10.6,80.5,29.8T344.1,162.25Z"/><path class="cls-8" d="M347.1,285.55q15.19-55.5-3-123.3T285.05,54q-40.91-40.4-80.5-29.8T149.7,90.25q-15.15,55.5,3,123.3t59.05,108.3q40.84,40.45,80.55,29.8t54.8-66.1m-148.8-149q8.3-28.91,29.5-34.55t42.75,15.15q17.74,17.06,27.3,43.6l.4,1.25.5,1.1.2.6.45,1.2,2.65,8.85.15.5.15.5.1.5L304.9,187l.2,1.7.1.5v.5l.15,1.3.15.9q3.19,24.19-2.85,45.1-8.29,28.8-29.45,34.5t-42.8-15.1q-21.6-20.85-31-55.95T198.3,136.55Z"/><path class="cls-9" d="M205.5,140q7.84-26.75,27.5-32t39.85,14a100.05,100.05,0,0,1,22.35,32.7l1.5,3.45.85,2,.3.65q-9.56-26.55-27.3-43.6Q248.95,96.3,227.8,102t-29.5,34.55q-8.3,28.8,1.1,63.9t31,55.95q21.6,20.75,42.8,15.1T302.65,237q6-20.9,2.85-45.1l.25,2.7a98.84,98.84,0,0,1-3.15,38.3q-7.8,26.81-27.55,32.1T235.25,251q-20.1-19.2-28.8-51.7T205.5,140Z"/><path class="cls-10" d="M219.3,145.1a49,49,0,0,1,1.95-5.45q7-18,21.7-22h.1q14.7-3.9,29.8,8.1l4.35,3.8a80.35,80.35,0,0,1,16.3,21.8l1.7,3.25A100.05,100.05,0,0,0,272.85,122q-20.1-19.24-39.85-14t-27.5,32q-7.75,26.75.95,59.25t28.8,51.7q20.15,19.31,39.8,14.05t27.55-32.1a98.84,98.84,0,0,0,3.15-38.3,83.63,83.63,0,0,1-3.15,29.8l-1.9,5.45q-7.05,18-21.7,22h-.1q-14.75,3.9-29.8-8.1l-4.4-3.8q-17.4-16.35-24.85-44.15T219.3,145.1Z"/><path class="cls-11" d="M221.25,139.65c-.67,1.7-1.28,3.5-1.85,5.4q-6.85,22.9.55,50.65t24.85,44.15l4.3,3.85q15,12,29.8,8.1h.1q14.65-4,21.7-22l1.9-5.45a83.63,83.63,0,0,0,3.15-29.8l-.25-2.7-.15-.9-.15-1.3v-.5l-.1-.5-.2-1.7-2.45-11.75-.1-.5-.15-.5-.15-.5-2.65-8.85-.45-1.2-.2-.6-.5-1.1-.4-1.25-.3-.65-.85-2-1.5-3.45-1.7-3.25a80.35,80.35,0,0,0-16.3-21.8l-4.35-3.8q-15.11-12-29.8-8.1H243Q228.25,121.71,221.25,139.65Z"/><path class="cls-12" d="M361.15,171.1l-6-22.35L355,148q-18.34-68.55-65.3-108Q246.9-.45,204.45,11l-2.65.75Q161.3,24.15,141,79.85q-16.69,56.51,1.65,125.05l3.4,11.5q1.25,5.74,2.8,11.6Q167,295.7,209.5,335.65l.6.55,19.1,13.65,33.65,13.95,2.3.45a75.46,75.46,0,0,0,33.65-1.2,69.85,69.85,0,0,0,17.6-7.4,73.36,73.36,0,0,1-16.95,6.9q-43.15,11.55-87.2-30.5T149.3,219q-19-70.95-2-129.35t60.25-70Q250.71,8,294.65,50.1t63,113q18.15,67.85,3.4,124.25Q378,233.85,361.15,171.1Z"/><path class="cls-13" d="M366.6,156.85l5,18.85Q390,244.15,367.9,301.9T296.3,373l-3.15.8-13.35,3.6q-60.9,16.31-118.55-26.35-6.41-4.69-12.3-9.9L101.7,353.8Q75.1,361,47.4,332.6l-1.25-1.35.5.6q11.81,14.06,17.4,17.6A151.35,151.35,0,0,0,78.9,357.9q8.8,4.31,14.25,4.6l9.25-.4,14.25-3.75,36.9-9.9,4.8,4.05q3.19,3.6,17.45,12.6,15.25,9.75,24.8,13.45a165.78,165.78,0,0,0,25.65,7.9q16.8,3.71,29.45,2.5a237.51,237.51,0,0,0,30.3-5.2,215.56,215.56,0,0,0,25.75-7.3q45.4-12.19,63.35-73.5t-2-135.85Q360,117.9,335.4,82q19.8,32.25,31,73.95Z"/></g></g></svg>