<svg id="Layer_1" data-name="Layer 1" xmlns="http://www.w3.org/2000/svg" xmlns:xlink="http://www.w3.org/1999/xlink" viewBox="0 0 153.4 78.47"><defs><style>.cls-1{fill:none;}.cls-2{fill:red;}.cls-3{fill:url(#linear-gradient);}.cls-4{clip-path:url(#clip-path);}.cls-5{isolation:isolate;}.cls-6{fill:#fff;}</style><linearGradient id="linear-gradient" x1="512.34" y1="-375.14" x2="512.34" y2="-301.32" gradientTransform="matrix(1.01, 0, 0, -0.98, -440.75, -292.84)" gradientUnits="userSpaceOnUse"><stop offset="0" stop-color="#910000"/><stop offset="1" stop-color="#fb0000"/></linearGradient><clipPath id="clip-path" transform="translate(-0.02 -0.02)"><rect class="cls-1" x="39.1" y="6.15" width="76.4" height="65.35"/></clipPath></defs><title>no_btn_up</title><g id="Layer1_0_FILL" data-name="Layer1 0 FILL"><path class="cls-2" d="M3,0C1,0,0,1,0,3V75.47q0,3,3,3h147.4q3,0,3-3V3c0-2-1-3-3-3Z" transform="translate(-0.02 -0.02)"/></g><g id="Layer1_1_FILL" data-name="Layer1 1 FILL"><path class="cls-3" d="M150,2.84H3.5v72H150Z" transform="translate(-0.02 -0.02)"/></g><g class="cls-4"><g class="cls-5"><g class="cls-5"><path class="cls-6" d="M55.31,24.32,70.08,46.68V24.11a5,5,0,0,1,1-3.3,3.2,3.2,0,0,1,2.55-1.1,3.3,3.3,0,0,1,2.61,1.1,4.92,4.92,0,0,1,1,3.3V54q0,5-4.14,5a5.52,5.52,0,0,1-1.87-.3,4.61,4.61,0,0,1-1.55-.95,9,9,0,0,1-1.34-1.51c-.42-.58-.83-1.17-1.25-1.77L52.59,32.32V54.55a4.73,4.73,0,0,1-1,3.28A3.32,3.32,0,0,1,49,59a3.28,3.28,0,0,1-2.61-1.13,4.81,4.81,0,0,1-1-3.27V25.28a8.23,8.23,0,0,1,.42-2.93,4.2,4.2,0,0,1,1.63-1.9,4.46,4.46,0,0,1,2.46-.74,4.3,4.3,0,0,1,1.77.34A4.37,4.37,0,0,1,53,21a9.66,9.66,0,0,1,1.14,1.47Z" transform="translate(-0.02 -0.02)"/><path class="cls-6" d="M111.52,44.58a16.63,16.63,0,0,1-1,5.83A12.88,12.88,0,0,1,107.69,55a12.69,12.69,0,0,1-4.46,2.93,15.52,15.52,0,0,1-5.82,1,15.29,15.29,0,0,1-5.77-1,12.86,12.86,0,0,1-4.44-3,12.7,12.7,0,0,1-2.84-4.56,16.55,16.55,0,0,1-1-5.81,16.78,16.78,0,0,1,1-5.87,12.29,12.29,0,0,1,7.27-7.47,16.82,16.82,0,0,1,11.59,0,12.51,12.51,0,0,1,7.31,7.5A16.68,16.68,0,0,1,111.52,44.58Zm-7.1,0a10.56,10.56,0,0,0-1.9-6.72,6.16,6.16,0,0,0-5.11-2.41,6.37,6.37,0,0,0-3.65,1.07,6.88,6.88,0,0,0-2.43,3.17,12.91,12.91,0,0,0-.85,4.89,12.8,12.8,0,0,0,.84,4.84,6.93,6.93,0,0,0,2.4,3.17,6.23,6.23,0,0,0,3.69,1.1,6.15,6.15,0,0,0,5.11-2.42A10.54,10.54,0,0,0,104.42,44.58Z" transform="translate(-0.02 -0.02)"/></g></g></g></svg>