<svg id="Layer_1" data-name="Layer 1" xmlns="http://www.w3.org/2000/svg" viewBox="0 0 250 120"><defs><style>.cls-1{fill:#f66;}.cls-2{fill:#fff;}</style></defs><title>ocg2</title><g id="ocg_circle_0_Layer1_0_FILL" data-name="ocg circle 0 Layer1 0 FILL"><path d="M250,60q0-24.86-36.6-42.45T125,0Q73.21,0,36.6,17.55T0,60q0,24.85,36.6,42.4T125,120q51.8,0,88.4-17.6T250,60Z"/></g><g id="ocg_circle_0_Layer0_0_FILL" data-name="ocg circle 0 Layer0 0 FILL"><path class="cls-1" d="M245,60q0-22.8-35.15-38.95T125,5Q75.31,5,40.15,21.05T5,60Q5,82.76,40.15,98.85T125,115q49.76,0,84.85-16.15T245,60M189.2,30.55Q215.8,42.75,215.8,60T189.2,89.4Q162.61,101.6,125,101.6T60.8,89.4Q34.21,77.2,34.2,60T60.8,30.55Q87.4,18.36,125,18.35T189.2,30.55Z"/></g><g id="Layer0_0_FILL" data-name="Layer0 0 FILL"><path class="cls-2" d="M90.35,49.15A28.8,28.8,0,0,0,82.1,39,28,28,0,0,0,64.55,33.2a33.55,33.55,0,0,0-11.8,2,27.44,27.44,0,0,0-12.6,9.3A26.84,26.84,0,0,0,34.9,60.9,27.23,27.23,0,0,0,39,75.55a25.92,25.92,0,0,0,11.65,10.3,31.06,31.06,0,0,0,13,2.8A33.14,33.14,0,0,0,73.85,87a28.61,28.61,0,0,0,13.5-8.85,24.89,24.89,0,0,0,6.1-16.5,27.87,27.87,0,0,0-3.1-12.5M60.85,44.4a7.61,7.61,0,0,1,3.95,1.45,12.56,12.56,0,0,1,3.45,3.75,36.09,36.09,0,0,1,4,9.35A38.39,38.39,0,0,1,73.7,69.1,9.17,9.17,0,0,1,71.9,75a6,6,0,0,1-4.8,2.2,6.73,6.73,0,0,1-3.6-1.1,9.71,9.71,0,0,1-3-3A45.67,45.67,0,0,1,56,62.75a35.15,35.15,0,0,1-1.8-10.25,8.77,8.77,0,0,1,1.5-5.15,5.89,5.89,0,0,1,5.2-3m89.35-8-3.4.45a10.36,10.36,0,0,1-3.45-1.15,25.44,25.44,0,0,0-11-2.5,29.35,29.35,0,0,0-11.85,2.5,29.69,29.69,0,0,0-12.25,9.5A25.75,25.75,0,0,0,102.9,61a27.69,27.69,0,0,0,16.2,24.75,31.49,31.49,0,0,0,13,2.9,27.86,27.86,0,0,0,12.05-2.75,15.71,15.71,0,0,1,3.9-1.45,7.85,7.85,0,0,0,3.4-1.2,12.72,12.72,0,0,0,3.3-4.4,11.92,11.92,0,0,0,1.35-5.1,4.82,4.82,0,0,0-.95-3,2.91,2.91,0,0,0-2.35-1.3,4,4,0,0,0-2.4,1.4,13.59,13.59,0,0,1-4.85,2.75,19.38,19.38,0,0,1-6.25,1.05,14.63,14.63,0,0,1-13.2-7.5,23.06,23.06,0,0,1-3.4-12.3,11.92,11.92,0,0,1,2.35-7.75,7.74,7.74,0,0,1,6.4-3,13.6,13.6,0,0,1,7.9,2.65,11.69,11.69,0,0,1,2.6,2.5l2.7,4.4a8.66,8.66,0,0,0,2.45,3,5.65,5.65,0,0,0,3.25.85,7.17,7.17,0,0,0,4-1.15c2.13-1.47,3.2-3.78,3.2-7a17.09,17.09,0,0,0-3.75-11.25,4.46,4.46,0,0,0-3.55-1.85m63.1-2.3-5,1.2-2.75-.65a33.65,33.65,0,0,0-24.2,1.8A27.56,27.56,0,0,0,170,47a26,26,0,0,0-3.8,13.45,27.23,27.23,0,0,0,3.2,13A26.7,26.7,0,0,0,180.55,84.7a32,32,0,0,0,15.7,4,31,31,0,0,0,10-1.6,24.32,24.32,0,0,0,8.1-4.45,20.72,20.72,0,0,0,6.55-10.4l.85-2a3.29,3.29,0,0,1,1.75-.6,4,4,0,0,0,2.55-1.2,3.48,3.48,0,0,0,1-2.5q0-3.45-4.25-4.8a39.14,39.14,0,0,0-11.1-1.35,35.9,35.9,0,0,0-10.9,1.5q-4.31,1.35-4.3,4.6a3.74,3.74,0,0,0,1.1,2.75,3.89,3.89,0,0,0,2.8,1.05l2.25,0,.8.35a3.06,3.06,0,0,1,1.1,2.65,4.83,4.83,0,0,1-1.3,3.5,4.63,4.63,0,0,1-3.35,1.3,10.13,10.13,0,0,1-5-1.4,14.57,14.57,0,0,1-4.3-3.8,26.17,26.17,0,0,1-4.8-15.9q0-6.3,3-10a9.82,9.82,0,0,1,8.05-3.7q5.59,0,9.9,5.25l3.25,3.65a7.38,7.38,0,0,0,4.45,1.65,5.65,5.65,0,0,0,4.5-2,8.57,8.57,0,0,0,1.65-5.45,14.53,14.53,0,0,0-3.2-9C216.12,35,214.73,34.1,213.3,34.1Z"/></g></svg>