<svg id="Layer_1" data-name="Layer 1" xmlns="http://www.w3.org/2000/svg" xmlns:xlink="http://www.w3.org/1999/xlink" viewBox="0 0 153.4 78.47"><defs><style>.cls-1{fill:none;}.cls-2{fill:#ccc;}.cls-3{fill:url(#linear-gradient);}.cls-4{clip-path:url(#clip-path);}.cls-5{isolation:isolate;}</style><linearGradient id="linear-gradient" x1="512.34" y1="-375.14" x2="512.34" y2="-301.32" gradientTransform="matrix(1.01, 0, 0, -0.98, -440.75, -292.84)" gradientUnits="userSpaceOnUse"><stop offset="0" stop-color="#696969"/><stop offset="1" stop-color="#ccc"/></linearGradient><clipPath id="clip-path" transform="translate(-0.02 -0.02)"><rect class="cls-1" x="34.05" y="6.15" width="85.3" height="65.35"/></clipPath></defs><title>ok_btn_up</title><g id="Layer1_0_FILL" data-name="Layer1 0 FILL"><path class="cls-2" d="M3,0C1,0,0,1,0,3V75.47q0,3,3,3h147.4q3,0,3-3V3c0-2-1-3-3-3Z" transform="translate(-0.02 -0.02)"/></g><g id="Layer1_1_FILL" data-name="Layer1 1 FILL"><path class="cls-3" d="M150,2.84H3.5v72H150Z" transform="translate(-0.02 -0.02)"/></g><g class="cls-4"><g class="cls-5"><g class="cls-5"><path d="M56.93,19.71a20.19,20.19,0,0,1,10.13,2.4,15.44,15.44,0,0,1,6.41,6.8,23.23,23.23,0,0,1,2.17,10.37,25.21,25.21,0,0,1-1.19,8,17.25,17.25,0,0,1-3.57,6.23,15.63,15.63,0,0,1-5.85,4A21.14,21.14,0,0,1,57.09,59a20.85,20.85,0,0,1-8-1.44,15.86,15.86,0,0,1-5.88-4,17.4,17.4,0,0,1-3.56-6.29,25.45,25.45,0,0,1-1.2-7.94,24.5,24.5,0,0,1,1.26-8A17.1,17.1,0,0,1,43.37,25a15.89,15.89,0,0,1,5.8-3.92A21,21,0,0,1,56.93,19.71ZM67.85,39.23A17.89,17.89,0,0,0,66.51,32a10,10,0,0,0-3.85-4.62,10.49,10.49,0,0,0-5.73-1.57,10.32,10.32,0,0,0-4.25.87,9.37,9.37,0,0,0-3.37,2.52,12.1,12.1,0,0,0-2.22,4.23,19,19,0,0,0-.82,5.79,19.46,19.46,0,0,0,.82,5.85,12,12,0,0,0,2.3,4.33A9.62,9.62,0,0,0,52.81,52a10.79,10.79,0,0,0,9.65-.63,10.19,10.19,0,0,0,3.93-4.55A17.52,17.52,0,0,0,67.85,39.23Z" transform="translate(-0.02 -0.02)"/><path d="M90,24.37v13.3L105,21.94a13.84,13.84,0,0,1,1.85-1.68,3.46,3.46,0,0,1,2-.55,3.75,3.75,0,0,1,2.68,1,3.16,3.16,0,0,1,1,2.37,4.73,4.73,0,0,1-1.73,3.34l-9.34,8.85,10.76,15.43a19.39,19.39,0,0,1,1.71,2.8,5.51,5.51,0,0,1,.57,2.35,2.89,2.89,0,0,1-1,2.19,3.75,3.75,0,0,1-2.7.94,4.52,4.52,0,0,1-2.61-.69,5.75,5.75,0,0,1-1.71-1.82c-.47-.76-.88-1.45-1.24-2.07l-9.09-14-6.29,6v7.84a5,5,0,0,1-1.08,3.53A3.69,3.69,0,0,1,86.07,59a3.85,3.85,0,0,1-1.89-.52A3.6,3.6,0,0,1,82.79,57a4.52,4.52,0,0,1-.45-1.68c0-.64-.07-1.56-.07-2.77V24.37a5.17,5.17,0,0,1,1-3.49,3.5,3.5,0,0,1,2.78-1.17,3.66,3.66,0,0,1,2.81,1.16A4.94,4.94,0,0,1,90,24.37Z" transform="translate(-0.02 -0.02)"/></g></g></g></svg>