<svg id="Layer_1" data-name="Layer 1" xmlns="http://www.w3.org/2000/svg" xmlns:xlink="http://www.w3.org/1999/xlink" viewBox="0 0 40 39"><defs><style>.cls-1,.cls-5{fill:#fff;}.cls-2{fill:#404703;}.cls-3{mask:url(#mask);}.cls-4{fill:url(#radial-gradient);}.cls-5{fill-opacity:0.2;}.cls-6{fill:#9db029;}.cls-7{fill:url(#radial-gradient-2);}.cls-8{mask:url(#mask-2);}.cls-9{fill:url(#radial-gradient-3);}.cls-10{fill:#724a16;}.cls-11{mask:url(#mask-3);}.cls-12{fill:#956415;}.cls-13{fill:url(#radial-gradient-4);}.cls-14{fill:#204989;}.cls-15{mask:url(#mask-4);}.cls-16{fill:url(#radial-gradient-5);}.cls-17{fill:#729fcf;}.cls-18{fill:url(#radial-gradient-6);}.cls-19{mask:url(#mask-5);}.cls-20{fill:url(#radial-gradient-7);}.cls-21{mask:url(#mask-6);}.cls-22{fill:url(#radial-gradient-8);}.cls-23{fill:#c17d10;}.cls-24{mask:url(#mask-7);}.cls-25{fill:#df9927;}.cls-26{fill:url(#radial-gradient-9);}</style><mask id="mask" x="-5.11" y="10.92" width="37.62" height="20.7" maskUnits="userSpaceOnUse"><g id="Mask_Mask_1" data-name="Mask Mask 1"><g id="Mask_Mask_dn_online_users_mc1_0_Layer0_0_FILL" data-name="Mask Mask dn online users mc1 0 Layer0 0 FILL"><path class="cls-1" d="M22.4,16.91a12.67,12.67,0,0,0-1-1l-.28-.23-.67-.51-.52-.28h-13l-.1.08-.13.09-.12.09-.06,0-.11.08,0,0-.72.53-.13.08-.18.12a6,6,0,0,0-.74.71l-.75.82c-.11.13-.36.48-.75,1l-.74,1.09a7,7,0,0,0-.48,1.19c-.2.53-.34.93-.42,1.22a5.27,5.27,0,0,0-.14,1,8.78,8.78,0,0,0,0,.95c0,.1.05.46.13,1.09l.05.43.31.88.29.9c.56.76.84,1.16.85,1.2.69.63,1.08,1,1.19,1.13,1.2.62,1.62.83,1.26.62l1.32.37,1.08.13.44.06,11.77,0,.35-.1a1.75,1.75,0,0,1,.54-.13,3.1,3.1,0,0,0,1.05-.26l.51-.2a3.5,3.5,0,0,0,.6-.28l.54-.36a3.54,3.54,0,0,0,.53-.43l.42-.43a1.72,1.72,0,0,0,.33-.38A10.36,10.36,0,0,0,25.55,27l.17-.52a5.4,5.4,0,0,0,.15-.91l.07-.68a3.92,3.92,0,0,0-.05-.69c0-.23-.06-.48-.08-.76a3.51,3.51,0,0,0-.09-.65l-.11-.51-.25-.7-.31-.79-.42-.84a7,7,0,0,0-.49-.85l-.55-.77a7.53,7.53,0,0,0-.46-.62Z"/></g></g></mask><radialGradient id="radial-gradient" cx="-70.23" cy="254.55" r="186.81" gradientTransform="matrix(0.1, 0, 0, -0.06, 20.88, 36.86)" gradientUnits="userSpaceOnUse"><stop offset="0.45" stop-color="#6d790d"/><stop offset="0.88" stop-color="#5b6504"/></radialGradient><radialGradient id="radial-gradient-2" cx="-70.23" cy="278.71" r="134.55" gradientTransform="matrix(0.1, 0, 0, -0.06, 20.73, 32.73)" gradientUnits="userSpaceOnUse"><stop offset="0" stop-opacity="0.5"/><stop offset="0.55" stop-opacity="0"/></radialGradient><mask id="mask-2" x="-22.46" y="-4.83" width="47.76" height="62.62" maskUnits="userSpaceOnUse"><g id="Mask_Mask_2" data-name="Mask Mask 2"><g id="Mask_Mask_dn_online_users_mc3_0_Layer0_0_FILL" data-name="Mask Mask dn online users mc3 0 Layer0 0 FILL"><path class="cls-1" d="M3.47,26.05l-.22.54a8.41,8.41,0,0,0-.36,1.25l.36-.36.26-.35c.14-.19.25-.34.36-.47a4.71,4.71,0,0,0,.4-.6l.39-.65.41-.71.15-.26L5.48,24a2.34,2.34,0,0,0,.29-.63c.13-.37.21-.58.24-.65l.1-.23.25-.72.22-.66-.39.17L6,21.65l-.66.87,0,.08,0,0a9.06,9.06,0,0,0-.66,1.09l-.36.65a9.11,9.11,0,0,0-.41.86Z"/></g></g></mask><radialGradient id="radial-gradient-3" cx="189.75" cy="-6.54" r="68.94" gradientTransform="matrix(-0.1, 0.02, -0.32, 0.52, 20.04, 26.6)" gradientUnits="userSpaceOnUse"><stop offset="0.1" stop-color="#330" stop-opacity="0.2"/><stop offset="0.25" stop-color="#fff" stop-opacity="0"/></radialGradient><mask id="mask-3" x="1.97" y="-1.53" width="20.46" height="20.45" maskUnits="userSpaceOnUse"><g id="Mask_Mask_3" data-name="Mask Mask 3"><g id="Mask_Mask_dn_online_users_mc0_0_Layer0_0_FILL" data-name="Mask Mask dn online users mc0 0 Layer0 0 FILL"><path class="cls-1" d="M19.57,3.27A7.73,7.73,0,0,0,13.89.92,7.71,7.71,0,0,0,8.22,3.27,7.73,7.73,0,0,0,5.87,9a7.72,7.72,0,0,0,2.35,5.67A7.71,7.71,0,0,0,13.89,17a7.73,7.73,0,0,0,5.68-2.35A7.72,7.72,0,0,0,21.92,9,7.73,7.73,0,0,0,19.57,3.27Z"/></g></g></mask><radialGradient id="radial-gradient-4" cx="-70.21" cy="162.94" r="63.37" gradientTransform="matrix(0.1, 0, 0, -0.1, 19.3, 23.77)" gradientUnits="userSpaceOnUse"><stop offset="0" stop-color="#e9b15e"/><stop offset="1" stop-color="#93641c"/></radialGradient><mask id="mask-4" x="7.8" y="17.74" width="37.62" height="20.7" maskUnits="userSpaceOnUse"><g id="Mask_Mask_4" data-name="Mask Mask 4"><g id="Mask_Mask_dn_online_users_mc1_0_Layer0_0_FILL-2" data-name="Mask Mask dn online users mc1 0 Layer0 0 FILL"><path class="cls-1" d="M35.32,23.74a12.79,12.79,0,0,0-1-1L34,22.54,33.33,22l-.52-.28h-13l-.1.07-.13.09-.13.09-.06.05-.1.07,0,0-.72.53-.13.09-.18.12a4.75,4.75,0,0,0-.74.71l-.75.81c-.11.14-.36.48-.76,1l-.74,1.1a9,9,0,0,0-.48,1.18q-.28.8-.42,1.23a6,6,0,0,0-.14.95,6.44,6.44,0,0,0,0,.95c0,.1,0,.47.13,1.1l.05.43.31.88.29.89a13.8,13.8,0,0,1,.85,1.21c.68.62,1.08,1,1.18,1.13,1.2.62,1.62.82,1.26.62l1.32.36,1.08.13.45.07H32.89l.35-.1a2.1,2.1,0,0,1,.54-.13,3,3,0,0,0,1-.25l.51-.2a3.21,3.21,0,0,0,.61-.29l.53-.36a3.12,3.12,0,0,0,.53-.42l.43-.44a2.13,2.13,0,0,0,.33-.38,13.35,13.35,0,0,0,.71-1.34l.16-.52a4.65,4.65,0,0,0,.15-.92l.08-.68A3.38,3.38,0,0,0,38.8,31c0-.22-.06-.48-.07-.75a3.5,3.5,0,0,0-.09-.66l-.12-.51-.24-.7L38,27.56l-.42-.83a6.39,6.39,0,0,0-.5-.86l-.55-.76a4.8,4.8,0,0,0-.46-.62Z"/></g></g></mask><radialGradient id="radial-gradient-5" cx="-70.23" cy="254.55" r="186.81" gradientTransform="matrix(0.1, 0, 0, -0.06, 33.79, 43.69)" gradientUnits="userSpaceOnUse"><stop offset="0.45" stop-color="#3770b7"/><stop offset="0.88" stop-color="#2c5992"/></radialGradient><radialGradient id="radial-gradient-6" cx="-70.23" cy="278.71" r="134.55" gradientTransform="matrix(0.1, 0, 0, -0.06, 33.64, 39.55)" xlink:href="#radial-gradient-2"/><mask id="mask-5" x="29.54" y="20.33" width="15.12" height="25.59" maskUnits="userSpaceOnUse"><g id="Mask_Mask_5" data-name="Mask Mask 5"><g id="Mask_dn_online_users_mc8_0_7_MASK_0_FILL" data-name="Mask dn online users mc8 0 7 MASK 0 FILL"><path class="cls-1" d="M34.68,28.92l.34.94c.15.46.33,1.1.53,1.91l.1.48c.05.24.09.42.13.55l.2.73a4.57,4.57,0,0,1,.11.75l0,.74v.72h0a2.62,2.62,0,0,0,.45-.33l.36-.35.43-.52.39-.54.15-.22-.1-.28h0v0l0-.06-.1-.25-.19-.49-.33-.76a5.64,5.64,0,0,0-.39-.78l-.4-.65a3.52,3.52,0,0,0-.51-.6l-.56-.57-.46-.5-.23-.24-.08,0Z"/></g></g></mask><radialGradient id="radial-gradient-7" cx="-24.11" cy="83.9" r="52.43" gradientTransform="matrix(0.1, -0.03, -0.08, -0.26, 45.39, 54.48)" gradientUnits="userSpaceOnUse"><stop offset="0.1" stop-opacity="0.3"/><stop offset="0.62" stop-color="#fff" stop-opacity="0"/></radialGradient><mask id="mask-6" x="-9.55" y="2" width="47.76" height="62.62" maskUnits="userSpaceOnUse"><g id="Mask_Mask_6" data-name="Mask Mask 6"><g id="Mask_Mask_dn_online_users_mc3_0_Layer0_0_FILL-2" data-name="Mask Mask dn online users mc3 0 Layer0 0 FILL"><path class="cls-1" d="M16.39,32.88l-.22.53a6.68,6.68,0,0,0-.36,1.25l.36-.36.26-.35c.13-.19.25-.34.35-.46a6.55,6.55,0,0,0,.41-.6l.38-.66.41-.71.16-.26.25-.41a2.76,2.76,0,0,0,.3-.62c.13-.37.21-.59.24-.65l.1-.23.25-.72.21-.66-.38.16-.24.34-.65.88-.06.07,0,0a7.49,7.49,0,0,0-.67,1.09l-.35.65a9.53,9.53,0,0,0-.42.86Z"/></g></g></mask><radialGradient id="radial-gradient-8" cx="189.75" cy="-6.54" r="68.94" gradientTransform="matrix(-0.1, 0.02, -0.32, 0.52, 32.95, 33.43)" xlink:href="#radial-gradient-3"/><mask id="mask-7" x="14.86" y="5.35" width="20.46" height="20.45" maskUnits="userSpaceOnUse"><g id="Mask_Mask_7" data-name="Mask Mask 7"><g id="Mask_Mask_dn_online_users_mc0_0_Layer0_0_FILL-2" data-name="Mask Mask dn online users mc0 0 Layer0 0 FILL"><path class="cls-1" d="M32.45,10.15a8,8,0,0,0-11.35,0,7.71,7.71,0,0,0-2.35,5.67,8,8,0,0,0,8,8,7.72,7.72,0,0,0,5.67-2.36,7.7,7.7,0,0,0,2.36-5.67A7.72,7.72,0,0,0,32.45,10.15Z"/></g></g></mask><radialGradient id="radial-gradient-9" cx="-70.21" cy="162.94" r="63.37" gradientTransform="matrix(0.1, 0, 0, -0.1, 32.19, 30.64)" gradientUnits="userSpaceOnUse"><stop offset="0" stop-color="#f3d6ac"/><stop offset="1" stop-color="#df9927"/></radialGradient></defs><title>online_btn_up</title><g id="dn_online_users_mc8_0_Layer20_0_FILL" data-name="dn online users mc8 0 Layer20 0 FILL"><path class="cls-2" d="M21.7,15,21,14.39l-.57-.3h-14l-.1.08-.15.1-.13.1L6,14.42l-.1.08-.06,0L5,15.12l-.13.09-.2.13a6.31,6.31,0,0,0-.8.79L3.1,17c-.12.14-.39.53-.81,1.14s-.68,1-.8,1.21A8.77,8.77,0,0,0,1,20.69Q.66,21.56.52,22a5.78,5.78,0,0,0-.15,1.05,6.61,6.61,0,0,0,0,1c0,.11,0,.52.14,1.22l.05.47.34,1,.31,1,.92,1.33c.74.69,1.16,1.1,1.28,1.24,1.29.68,1.74.91,1.36.68l1.42.41,1.16.14.49.07,12.7,0,.37-.12a2.05,2.05,0,0,1,.58-.13,3.59,3.59,0,0,0,1.13-.28l.55-.22a4.87,4.87,0,0,0,.65-.32l.58-.39a4.1,4.1,0,0,0,.57-.48l.46-.48a2.07,2.07,0,0,0,.36-.41c.45-.82.71-1.32.77-1.49l.17-.57a5.6,5.6,0,0,0,.16-1l.08-.75a4,4,0,0,0-.06-.76c0-.25-.06-.53-.08-.84a3.57,3.57,0,0,0-.1-.72l-.12-.56-.26-.77L26,20.5l-.45-.92a9.94,9.94,0,0,0-.53-.95l-.6-.84-.49-.68-.79-.82A13,13,0,0,0,22,15.21Z"/></g><g class="cls-3"><g id="dn_online_users_mc8_0_Layer19_0_FILL" data-name="dn online users mc8 0 Layer19 0 FILL"><path class="cls-4" d="M13.7,10.92a27.45,27.45,0,0,0-13.32,3q-5.49,3-5.49,7.33T.38,28.59a27.34,27.34,0,0,0,13.32,3,27.15,27.15,0,0,0,13.28-3q5.52-3,5.52-7.32T27,13.94A27.26,27.26,0,0,0,13.7,10.92Z"/></g></g><g id="dn_online_users_mc2_0_Layer3_0_FILL" data-name="dn online users mc2 0 Layer3 0 FILL"><path class="cls-5" d="M20.34,14.52a.55.55,0,0,0-.54,0,.48.48,0,0,0-.41.42c0,.17,0,.28.05.31l.26.12,1,.77a11.63,11.63,0,0,1,.94.89l.51.6.52.6a9.14,9.14,0,0,1,.71,1,6.65,6.65,0,0,1,.52.95l.51,1.18.19.6.14.55a9.26,9.26,0,0,1,.13,1.32l-.06.75-.07.69-.2.55-.31.65c-.11.17-.25.37-.44.61a3.67,3.67,0,0,1-.46.51,3.49,3.49,0,0,1-.55.39,3.61,3.61,0,0,1-.65.33l-.66.26-.57.2-1.07.15c-.14,0-2.11,0-5.9.05h-6l-.8,0a4.29,4.29,0,0,1-.78-.12c-.14-.05-.36-.1-.64-.17l-.57-.14a1.78,1.78,0,0,1-.49-.3l-.43-.34a2.6,2.6,0,0,1-.4-.41,3.48,3.48,0,0,1-.39-.51l-.32-.54a5.17,5.17,0,0,1-.27-.56l-.2-.51a5.16,5.16,0,0,1-.21-.84c0-.33-.07-.63-.08-.89a6.84,6.84,0,0,1,0-.77,9,9,0,0,1,.25-1.54c0-.17.12-.4.22-.7a4.75,4.75,0,0,1,.27-.68c.07-.15.2-.37.38-.67l.44-.68.46-.68a4,4,0,0,1,.48-.6L6,16.08l.65-.55.63-.45a.46.46,0,0,0,.27-.39.32.32,0,0,0-.24-.37.8.8,0,0,0-.53,0l-.24.08c-.7.56-1.18,1-1.46,1.23l-.76.77-.64.71a8.77,8.77,0,0,0-.54.71l-.46.67-.33.61L2,19.76l-.32.88c-.14.39-.22.64-.25.76s-.05.31-.09.63l-.09.75c0,.16,0,.51,0,1a9.7,9.7,0,0,0,.09,1A10.4,10.4,0,0,0,1.8,26L2,26.5l.29.52.33.54a4,4,0,0,0,.36.51,7.32,7.32,0,0,0,.84.79,3.61,3.61,0,0,0,.64.36,4.59,4.59,0,0,0,.59.25,7.29,7.29,0,0,0,1.28.34l1.35.07c7.54,0,11.37,0,11.51,0l.64,0,.74-.07a6.09,6.09,0,0,0,1.79-.54,2.24,2.24,0,0,1,.48-.22,1.58,1.58,0,0,0,.42-.21l.67-.56a4.47,4.47,0,0,0,.71-.72A6,6,0,0,0,25.45,26a7.66,7.66,0,0,0,.38-1.61,9.26,9.26,0,0,0,0-1.25l-.16-.86-.19-.88-.29-.86c-.14-.39-.24-.65-.3-.77L24.37,19l-.56-.87-.57-.69-.63-.72a12.85,12.85,0,0,0-1.1-1.12Z"/></g><g id="dn_online_users_mc2_0_Layer2_0_FILL" data-name="dn online users mc2 0 Layer2 0 FILL"><path class="cls-6" d="M12.84,17.84l-2.66-.67a4.15,4.15,0,0,0,1.72,3.08A2.5,2.5,0,0,1,12.84,17.84Z"/></g><g id="dn_online_users_mc2_0_Layer1_0_FILL" data-name="dn online users mc2 0 Layer1 0 FILL"><path class="cls-6" d="M16.63,20.13A4.09,4.09,0,0,0,18.25,17l-2.63.74A2.68,2.68,0,0,1,16.63,20.13Z"/></g><g id="dn_online_users_mc2_0_Layer0_0_FILL" data-name="dn online users mc2 0 Layer0 0 FILL"><path class="cls-7" d="M27.08,17.29q0-2-4-3.48a28.48,28.48,0,0,0-9.58-1.43A28.37,28.37,0,0,0,4,13.81q-4,1.44-4,3.48c0,1.35,1.32,2.51,4,3.46a28.11,28.11,0,0,0,9.57,1.44,28.21,28.21,0,0,0,9.58-1.44C25.76,19.8,27.08,18.64,27.08,17.29Z"/></g><g class="cls-8"><g id="dn_online_users_mc8_0_Layer16_0_FILL" data-name="dn online users mc8 0 Layer16 0 FILL"><path class="cls-9" d="M25.3-4.83,14.9-3.18l-37.36,61,10.39-1.64Z"/></g></g><g id="dn_online_users_mc8_0_Layer14_0_FILL" data-name="dn online users mc8 0 Layer14 0 FILL"><path class="cls-10" d="M22.69,9a8.67,8.67,0,0,0-2.62-6.34A8.65,8.65,0,0,0,13.74,0,8.65,8.65,0,0,0,7.41,2.61,8.63,8.63,0,0,0,4.79,9a8.56,8.56,0,0,0,2.62,6.31,8.59,8.59,0,0,0,6.33,2.63,8.59,8.59,0,0,0,6.33-2.63A8.6,8.6,0,0,0,22.69,9Z"/></g><g class="cls-11"><g id="dn_online_users_mc4_0_Layer1_0_FILL" data-name="dn online users mc4 0 Layer1 0 FILL"><path class="cls-12" d="M22.43-1.53H2V18.92H22.43Z"/></g><g id="dn_online_users_mc4_0_Layer0_0_FILL" data-name="dn online users mc4 0 Layer0 0 FILL"><path class="cls-13" d="M18.52,7.11a6.17,6.17,0,0,0-1.88-4.52A6.16,6.16,0,0,0,12.12.72,6.16,6.16,0,0,0,7.6,2.59,6.16,6.16,0,0,0,5.73,7.11,6.12,6.12,0,0,0,7.6,11.62a6.17,6.17,0,0,0,4.52,1.88,6.17,6.17,0,0,0,4.52-1.88A6.13,6.13,0,0,0,18.52,7.11Z"/></g></g><g id="dn_online_users_mc5_0_Layer1_0_FILL" data-name="dn online users mc5 0 Layer1 0 FILL"><path class="cls-5" d="M21.82,8.25A7.64,7.64,0,0,0,19.5,2.64,7.66,7.66,0,0,0,13.9.32,7.68,7.68,0,0,0,8.29,2.64,7.64,7.64,0,0,0,6,8.25a7.63,7.63,0,0,0,2.32,5.6,7.68,7.68,0,0,0,5.61,2.32,7.66,7.66,0,0,0,5.6-2.32,7.63,7.63,0,0,0,2.32-5.6M18.71,3.43a6.58,6.58,0,0,1,2,4.82,6.57,6.57,0,0,1-2,4.81,6.53,6.53,0,0,1-4.81,2,6.55,6.55,0,0,1-4.82-2,6.57,6.57,0,0,1-2-4.81,6.58,6.58,0,0,1,2-4.82,6.55,6.55,0,0,1,4.82-2A6.53,6.53,0,0,1,18.71,3.43Z"/></g><g id="dn_online_users_mc5_0_Layer0_0_FILL" data-name="dn online users mc5 0 Layer0 0 FILL"><path class="cls-14" d="M33.89,21.22l-.56-.31h-14l-.11.08-.14.11-.13.09-.07,0-.11.09-.05,0-.78.58-.14.1-.19.12a6.09,6.09,0,0,0-.81.79l-.81.9c-.12.15-.39.53-.81,1.15s-.67,1-.8,1.2a10.81,10.81,0,0,0-.52,1.31q-.32.87-.45,1.35a6.08,6.08,0,0,0-.15,1.06c0,.46,0,.81,0,1s.06.51.14,1.21l.06.47.33,1,.32,1c.6.84.9,1.28.91,1.33.74.69,1.17,1.11,1.28,1.24,1.3.69,1.75.92,1.36.69l1.43.4,1.16.14.48.08,12.7,0,.37-.12a2.16,2.16,0,0,1,.59-.14A3.29,3.29,0,0,0,35.5,38l.55-.22a3.51,3.51,0,0,0,.65-.32l.59-.39a2.94,2.94,0,0,0,.56-.48l.47-.47a2.65,2.65,0,0,0,.35-.42,15,15,0,0,0,.77-1.48l.17-.58a4.73,4.73,0,0,0,.16-1l.08-.75a3.21,3.21,0,0,0-.05-.76,6.32,6.32,0,0,1-.08-.83,4.16,4.16,0,0,0-.1-.72L39.5,29l-.26-.77c-.15-.41-.26-.7-.34-.88l-.46-.91a6.74,6.74,0,0,0-.53-.95l-.59-.84-.5-.69L36,23.11A11.8,11.8,0,0,0,34.91,22l-.3-.26Z"/></g><g class="cls-15"><g id="dn_online_users_mc8_0_Layer10_0_FILL" data-name="dn online users mc8 0 Layer10 0 FILL"><path class="cls-16" d="M45.42,28.09q0-4.29-5.53-7.32a27.12,27.12,0,0,0-13.28-3,27.3,27.3,0,0,0-13.31,3q-5.5,3-5.5,7.32t5.5,7.33a27.3,27.3,0,0,0,13.31,3,27.12,27.12,0,0,0,13.28-3Q45.43,32.39,45.42,28.09Z"/></g></g><g id="dn_online_users_mc6_0_Layer4_0_FILL" data-name="dn online users mc6 0 Layer4 0 FILL"><path class="cls-5" d="M35.53,23.52a12.94,12.94,0,0,0-1.1-1.13l-1.18-1a.55.55,0,0,0-.53,0,.53.53,0,0,0-.42.42c0,.18,0,.28.05.31l.26.12,1,.77c.48.43.8.73,1,.9l.5.6.52.6a6.88,6.88,0,0,1,.72,1,7.69,7.69,0,0,1,.51.94c.2.45.38.84.51,1.18l.2.6.13.55a7,7,0,0,1,.13,1.33l0,.74-.08.69-.2.55-.31.65a5.82,5.82,0,0,1-.44.61,4.92,4.92,0,0,1-.45.52c-.13.1-.31.23-.55.38a4,4,0,0,1-.65.33l-.66.26-.57.2-1.08.15c-.14,0-2.11,0-5.9,0h-6l-.81,0a3,3,0,0,1-.78-.12l-.64-.16L18,35.28a2.2,2.2,0,0,1-.5-.31l-.42-.33a3.31,3.31,0,0,1-.41-.42,5.12,5.12,0,0,1-.38-.5L16,33.17a4.75,4.75,0,0,1-.26-.55l-.21-.52a4.3,4.3,0,0,1-.2-.84,8.12,8.12,0,0,1-.09-.89c0-.2,0-.46,0-.77a9.27,9.27,0,0,1,.26-1.53c0-.17.11-.41.21-.7s.2-.53.27-.68l.38-.67.44-.69.47-.67a3.16,3.16,0,0,1,.48-.6l1.2-1.15a8.36,8.36,0,0,1,.65-.55,4.4,4.4,0,0,1,.63-.45.53.53,0,0,0,.27-.39.34.34,0,0,0-.25-.38l-.52,0-.24.08c-.7.57-1.19,1-1.46,1.23l-.76.77c-.3.31-.51.55-.65.71s-.3.39-.53.71l-.46.67a6.93,6.93,0,0,0-.34.62l-.33.69c-.07.16-.18.45-.32.87s-.22.65-.24.76a5.08,5.08,0,0,0-.1.64l-.08.74c0,.17,0,.51,0,1s.07.83.1,1a9.44,9.44,0,0,0,.38,1.18l.23.52.28.52.34.55a4.16,4.16,0,0,0,.35.5,6.06,6.06,0,0,0,.85.79,2.66,2.66,0,0,0,.63.37l.59.25a7.31,7.31,0,0,0,1.28.33l1.36.08H32.13l.63,0,.75-.08a6.71,6.71,0,0,0,1.79-.53,1.85,1.85,0,0,1,.47-.23,1.58,1.58,0,0,0,.42-.21l.67-.56a4.11,4.11,0,0,0,.71-.71,6.07,6.07,0,0,0,.8-1.51,8.42,8.42,0,0,0,.38-1.61,11.09,11.09,0,0,0,0-1.25l-.16-.86-.2-.88-.29-.87a5.58,5.58,0,0,0-.3-.77l-.47-.81-.55-.88-.57-.69Z"/></g><g id="dn_online_users_mc6_0_Layer3_0_FILL" data-name="dn online users mc6 0 Layer3 0 FILL"><path class="cls-1" d="M28.47,27.2c.2-.68.37-1.18.48-1.51l.52-1.38-5.76,0,.31.55.1.19a4,4,0,0,1,.33.79c.05.18.19.56.4,1.13s.33.92.37,1.09l.3,1.12.29,1.11L26,31l.14.55.28,1.36.1.53.13.67.09.56a3.07,3.07,0,0,1,.06.51l.2-.91.08-.44.09-.54.12-.71.12-.69c.05-.31.11-.56.16-.77l.12-.67a2.48,2.48,0,0,1,.11-.48,5.18,5.18,0,0,0,.13-.61,5.65,5.65,0,0,1,.15-.67l.2-.72Z"/></g><g id="dn_online_users_mc6_0_Layer2_0_FILL" data-name="dn online users mc6 0 Layer2 0 FILL"><path class="cls-17" d="M20.53,22.31a5.76,5.76,0,0,0,2,4.67c-.12-1.19.51-2.28,1.89-3.26Z"/></g><g id="dn_online_users_mc6_0_Layer1_0_FILL" data-name="dn online users mc6 0 Layer1 0 FILL"><path class="cls-17" d="M30.91,27.09a5.7,5.7,0,0,0,1.82-4.77L28.9,23.93C30.34,24.83,31,25.89,30.91,27.09Z"/></g><g id="dn_online_users_mc6_0_Layer0_0_FILL" data-name="dn online users mc6 0 Layer0 0 FILL"><path class="cls-18" d="M36,27.58q4-1.44,4-3.47t-4-3.47a28.11,28.11,0,0,0-9.57-1.44,28.21,28.21,0,0,0-9.58,1.44c-2.64,1-4,2.12-4,3.47s1.33,2.51,4,3.47A28.23,28.23,0,0,0,26.46,29,28.13,28.13,0,0,0,36,27.58Z"/></g><g class="cls-19"><g id="dn_online_users_mc8_0_Layer7_0_FILL" data-name="dn online users mc8 0 Layer7 0 FILL"><path class="cls-20" d="M37.05,45.92l7.62-2.47L37.16,20.33,29.54,22.8Z"/></g></g><g class="cls-21"><g id="dn_online_users_mc8_0_Layer5_0_FILL" data-name="dn online users mc8 0 Layer5 0 FILL"><path class="cls-22" d="M.85,63,38.21,2,27.81,3.64l-37.36,61Z"/></g></g><g id="dn_online_users_mc8_0_Layer3_0_FILL" data-name="dn online users mc8 0 Layer3 0 FILL"><path class="cls-23" d="M33,9.49a8.65,8.65,0,0,0-6.33-2.61,8.93,8.93,0,0,0-8.95,8.94,8.58,8.58,0,0,0,2.62,6.32,8.93,8.93,0,0,0,12.66,0,8.58,8.58,0,0,0,2.62-6.32A8.62,8.62,0,0,0,33,9.49Z"/></g><g class="cls-24"><g id="dn_online_users_mc7_0_Layer1_0_FILL" data-name="dn online users mc7 0 Layer1 0 FILL"><path class="cls-25" d="M35.32,25.79V5.35H14.86V25.79Z"/></g><g id="dn_online_users_mc7_0_Layer0_0_FILL" data-name="dn online users mc7 0 Layer0 0 FILL"><path class="cls-26" d="M29.52,9.47a6.4,6.4,0,0,0-9,0A6.18,6.18,0,0,0,18.61,14,6.4,6.4,0,0,0,25,20.38a6.15,6.15,0,0,0,4.51-1.88A6.15,6.15,0,0,0,31.4,14,6.15,6.15,0,0,0,29.52,9.47Z"/></g></g><g id="dn_online_users_mc8_0_Layer0_0_FILL" data-name="dn online users mc8 0 Layer0 0 FILL"><path class="cls-5" d="M32.38,9.52a7.93,7.93,0,0,0-11.21,0,7.66,7.66,0,0,0-2.32,5.6,7.64,7.64,0,0,0,2.32,5.6,7.93,7.93,0,0,0,11.21,0,7.61,7.61,0,0,0,2.33-5.6,7.63,7.63,0,0,0-2.33-5.6M20,15.12a6.83,6.83,0,0,1,6.82-6.81,6.81,6.81,0,0,1,6.81,6.81,6.79,6.79,0,0,1-6.81,6.81A6.81,6.81,0,0,1,20,15.12Z"/></g></svg>