<svg id="Layer_1" data-name="Layer 1" xmlns="http://www.w3.org/2000/svg" xmlns:xlink="http://www.w3.org/1999/xlink" viewBox="0 0 634 574"><defs><style>.cls-1{fill:url(#linear-gradient);}.cls-2{fill-opacity:0.8;}.cls-3{fill:url(#linear-gradient-2);}</style><linearGradient id="linear-gradient" x1="59.4" y1="287" x2="0" y2="287" gradientTransform="matrix(1, 0, 0, -1, 0, 574)" gradientUnits="userSpaceOnUse"><stop offset="0" stop-color="#3d3d3d"/><stop offset="1" stop-color="#c5c5c5"/></linearGradient><linearGradient id="linear-gradient-2" x1="574.65" y1="287" x2="634" y2="287" xlink:href="#linear-gradient"/></defs><title>over</title><g id="Layer0_0_FILL" data-name="Layer0 0 FILL"><path class="cls-1" d="M50,10Q50,.29,59.4,0H10Q0,0,0,10V564q0,10,10,10H59.4q-9.4-.3-9.4-10Z"/><path class="cls-2" d="M584,10q0-9.71-9.35-10H59.4Q50,.3,50,10V564q0,9.71,9.4,10H574.65q9.35-.3,9.35-10Z"/><path class="cls-3" d="M634,10q0-10-10-10H574.65Q584,.3,584,10V564q0,9.71-9.35,10H624q10,0,10-10Z"/></g></svg>