<svg id="Layer_1" data-name="Layer 1" xmlns="http://www.w3.org/2000/svg" xmlns:xlink="http://www.w3.org/1999/xlink" viewBox="0 0 88.29 88.27"><defs><style>.cls-1{fill:#fff;}.cls-2{mask:url(#mask);}.cls-3{filter:url(#Filter_1);}.cls-4{fill:url(#linear-gradient);}.cls-5{fill:url(#linear-gradient-2);}.cls-6{fill:url(#linear-gradient-3);}.cls-7{fill:url(#linear-gradient-4);}.cls-8{filter:url(#Filter_2);}.cls-9{filter:url(#Filter_3);}.cls-10{mask:url(#mask-3);}.cls-11{fill:url(#linear-gradient-9);}.cls-12{fill:url(#linear-gradient-10);}.cls-13{fill:url(#linear-gradient-11);}.cls-14{fill:url(#linear-gradient-12);}</style><mask id="mask" x="-3.1" y="-3.09" width="94.43" height="94.42" maskUnits="userSpaceOnUse"><g transform="translate(5.76 0.02)"><g id="Mask_Mask_1" data-name="Mask Mask 1"><g id="Mask_black_mc" data-name="Mask black mc"><g id="Mask_Mask_Symbol_1258_0_Layer0_0_FILL" data-name="Mask Mask Symbol 1258 0 Layer0 0 FILL"><path class="cls-1" d="M19.53,1A45.7,45.7,0,0,0-5,25.88a45.23,45.23,0,0,0-.66,34.9A45.58,45.58,0,0,0,18,86.52a45.3,45.3,0,0,0,34.84,2.4A45.64,45.64,0,0,0,79.7,66.57a45.21,45.21,0,0,0,4.16-34.65L38.32,44.1,54.46-.12A45.19,45.19,0,0,0,19.53,1Z"/></g></g></g></g></mask><filter id="Filter_1" x="-14.24" y="-19.98" width="140" height="140" name="Filter_1"><feFlood result="result1" in="SourceGraphic"/><feComposite result="result2" operator="in" in="result1" in2="SourceGraphic"/><feGaussianBlur result="result3" stdDeviation="1.67" in="result2"/><feOffset result="result4" dx="1.41" dy="-1.41" in="result3"/><feComposite result="result5" in="SourceGraphic" in2="result4"/><feColorMatrix result="result6" values="0.4 0 0 0 0.6 0 0.4 0 0 0.48 0 0 0.4 0 0 0 0 0 1 0" in="result5"/></filter><linearGradient id="linear-gradient" x1="-17.67" y1="166.2" x2="-17.67" y2="44.2" gradientTransform="matrix(0.63, 0, 0, -0.63, 49.5, 110.32)" gradientUnits="userSpaceOnUse"><stop offset="0" stop-color="#263f5e"/><stop offset="0.65" stop-color="#4bc6d5"/><stop offset="0.75" stop-color="#4bc6d5"/><stop offset="1" stop-color="#263f5e"/></linearGradient><linearGradient id="linear-gradient-2" x1="-17.67" y1="152.7" x2="-17.67" y2="57.7" gradientTransform="matrix(0.63, 0, 0, -0.63, 49.5, 110.32)" gradientUnits="userSpaceOnUse"><stop offset="0" stop-color="#263f5e"/><stop offset="0.67" stop-color="#4bc6d5"/><stop offset="0.85" stop-color="#4bc6d5"/><stop offset="1" stop-color="#263f5e"/></linearGradient><linearGradient id="linear-gradient-3" x1="-17.67" y1="137.2" x2="-17.67" y2="73.2" gradientTransform="matrix(0.63, 0, 0, -0.63, 49.5, 110.32)" gradientUnits="userSpaceOnUse"><stop offset="0" stop-color="#263f5e"/><stop offset="0.65" stop-color="#4bc6d5"/><stop offset="0.89" stop-color="#4bc6d5"/><stop offset="1" stop-color="#263f5e"/></linearGradient><linearGradient id="linear-gradient-4" x1="-17.67" y1="121.2" x2="-17.67" y2="89.2" gradientTransform="matrix(0.63, 0, 0, -0.63, 49.5, 110.32)" gradientUnits="userSpaceOnUse"><stop offset="0" stop-color="#263f5e"/><stop offset="0.85" stop-color="#4bc6d5"/></linearGradient><filter id="Filter_2" x="-14.24" y="-19.98" width="140" height="140" name="Filter_2"><feFlood result="result1" in="SourceGraphic"/><feComposite result="result2" operator="in" in="result1" in2="SourceGraphic"/><feGaussianBlur result="result3" stdDeviation="1.67" in="result2"/><feOffset result="result4" dx="1.41" dy="-1.41" in="result3"/><feComposite result="result5" in="SourceGraphic" in2="result4"/></filter><filter id="Filter_3" x="-18.83" y="-24.58" width="149.18" height="149.2" name="Filter_3"><feFlood result="result1" in="SourceGraphic"/><feComposite result="result2" operator="in" in="result1" in2="SourceGraphic"/><feGaussianBlur result="result3" stdDeviation="1.67" in="result2"/><feOffset result="result4" dx="0.71" dy="-0.71" in="result3"/><feComposite result="result5" in="SourceGraphic" in2="result4"/></filter><mask id="mask-3" x="0" y="-5.13" width="94.7" height="93.39" maskUnits="userSpaceOnUse"><g transform="translate(5.76 0.02)"><g id="Mask_Mask_2" data-name="Mask Mask 2"><g id="Mask_Symbol_1263_0_1_MASK_0_FILL" data-name="Mask Symbol 1263 0 1 MASK 0 FILL"><path class="cls-1" d="M88.94,26.89A46.54,46.54,0,0,0,78.18,7.29,47,47,0,0,0,59.55-5.15L43.4,39.07Z"/></g></g></g></mask><linearGradient id="linear-gradient-9" x1="42.91" y1="70.2" x2="-78.24" y2="140.15" gradientTransform="matrix(0.63, 0, 0, -0.63, 49.48, 110.32)" gradientUnits="userSpaceOnUse"><stop offset="0" stop-color="#ed2211"/><stop offset="0.75" stop-color="#efc2bc"/><stop offset="1" stop-color="#ed2211"/></linearGradient><linearGradient id="linear-gradient-10" x1="29.58" y1="77.94" x2="-64.82" y2="132.43" gradientTransform="matrix(0.63, 0, 0, -0.63, 49.48, 110.32)" gradientUnits="userSpaceOnUse"><stop offset="0" stop-color="#ed2211"/><stop offset="0.85" stop-color="#efc2bc"/><stop offset="1" stop-color="#ed2211"/></linearGradient><linearGradient id="linear-gradient-11" x1="14.17" y1="86.81" x2="-49.48" y2="123.51" gradientTransform="matrix(0.63, 0, 0, -0.63, 49.48, 110.32)" gradientUnits="userSpaceOnUse"><stop offset="0" stop-color="#ed2211"/><stop offset="0.89" stop-color="#efc2bc"/><stop offset="1" stop-color="#ed2211"/></linearGradient><linearGradient id="linear-gradient-12" x1="3.93" y1="92.73" x2="-39.27" y2="117.69" gradientTransform="matrix(0.63, 0, 0, -0.63, 49.48, 110.32)" gradientUnits="userSpaceOnUse"><stop offset="0" stop-color="#ed2211"/><stop offset="0.85" stop-color="#efc2bc"/></linearGradient></defs><title>overlay</title><g id="target_mc" data-name="target mc"><g class="cls-2"><g class="cls-3"><g id="glow_mc" data-name="glow mc"><g id="Symbol_1259_0_Layer3_0_FILL" data-name="Symbol 1259 0 Layer3 0 FILL"><path class="cls-4" d="M65.51,16.91A37.1,37.1,0,0,0,38.36,5.71,37,37,0,0,0,11.21,16.92,37.14,37.14,0,0,0,0,44.11,37,37,0,0,0,11.23,71.24,36.9,36.9,0,0,0,38.38,82.5,37,37,0,0,0,65.52,71.23,37,37,0,0,0,76.74,44.1,37.13,37.13,0,0,0,65.51,16.91M5.78,44.08A31.5,31.5,0,0,1,15.33,21a31.37,31.37,0,0,1,23-9.54A31.48,31.48,0,0,1,61.42,21,31.56,31.56,0,0,1,71,44.07a31.37,31.37,0,0,1-9.52,23,31.4,31.4,0,0,1-23,9.57,31.33,31.33,0,0,1-23-9.56A31.34,31.34,0,0,1,5.78,44.08Z" transform="translate(5.76 0.02)"/></g><g id="Symbol_1259_0_Layer2_0_FILL" data-name="Symbol 1259 0 Layer2 0 FILL"><path class="cls-5" d="M59.5,22.92a28.92,28.92,0,0,0-21.14-8.71,28.86,28.86,0,0,0-21.14,8.72A28.92,28.92,0,0,0,8.48,44.11a28.82,28.82,0,0,0,8.75,21.12A28.78,28.78,0,0,0,38.37,74a28.82,28.82,0,0,0,21.14-8.79A28.77,28.77,0,0,0,68.25,44.1,29,29,0,0,0,59.5,22.92M13,44.08a24.49,24.49,0,0,1,7.45-18,24.44,24.44,0,0,1,17.93-7.43,24.53,24.53,0,0,1,18,7.42,24.55,24.55,0,0,1,7.43,18A24.44,24.44,0,0,1,56.33,62a24.44,24.44,0,0,1-18,7.46A24.34,24.34,0,0,1,20.44,62,24.4,24.4,0,0,1,13,44.08Z" transform="translate(5.76 0.02)"/></g><g id="Symbol_1259_0_Layer1_0_FILL" data-name="Symbol 1259 0 Layer1 0 FILL"><path class="cls-6" d="M52.61,29.85A19.38,19.38,0,0,0,38.36,24a19.44,19.44,0,0,0-14.22,5.89,19.41,19.41,0,0,0-5.9,14.26,19.46,19.46,0,0,0,5.91,14.26,19.39,19.39,0,0,0,14.22,5.88,19.38,19.38,0,0,0,14.25-5.89A19.49,19.49,0,0,0,58.5,44.1a19.48,19.48,0,0,0-5.89-14.25M38.36,27A17.09,17.09,0,0,1,55.48,44.1,17.09,17.09,0,0,1,38.37,61.2,17.09,17.09,0,0,1,21.29,44.11,17.05,17.05,0,0,1,38.36,27Z" transform="translate(5.76 0.02)"/></g><g id="Symbol_1259_0_Layer0_0_FILL" data-name="Symbol 1259 0 Layer0 0 FILL"><path class="cls-7" d="M45.51,37a9.76,9.76,0,0,0-7.15-3A10.11,10.11,0,0,0,28.3,44.11,10.11,10.11,0,0,0,38.37,54.18,10,10,0,0,0,48.43,44.11,9.7,9.7,0,0,0,45.51,37Z" transform="translate(5.76 0.02)"/></g></g></g></g><g class="cls-2"><g class="cls-8"><g id="blue_mc" data-name="blue mc"><g id="Symbol_1259_0_Layer3_0_FILL-2" data-name="Symbol 1259 0 Layer3 0 FILL"><path class="cls-4" d="M65.51,16.91A37.1,37.1,0,0,0,38.36,5.71,37,37,0,0,0,11.21,16.92,37.14,37.14,0,0,0,0,44.11,37,37,0,0,0,11.23,71.24,36.9,36.9,0,0,0,38.38,82.5,37,37,0,0,0,65.52,71.23,37,37,0,0,0,76.74,44.1,37.13,37.13,0,0,0,65.51,16.91M5.78,44.08A31.5,31.5,0,0,1,15.33,21a31.37,31.37,0,0,1,23-9.54A31.48,31.48,0,0,1,61.42,21,31.56,31.56,0,0,1,71,44.07a31.37,31.37,0,0,1-9.52,23,31.4,31.4,0,0,1-23,9.57,31.33,31.33,0,0,1-23-9.56A31.34,31.34,0,0,1,5.78,44.08Z" transform="translate(5.76 0.02)"/></g><g id="Symbol_1259_0_Layer2_0_FILL-2" data-name="Symbol 1259 0 Layer2 0 FILL"><path class="cls-5" d="M59.5,22.92a28.92,28.92,0,0,0-21.14-8.71,28.86,28.86,0,0,0-21.14,8.72A28.92,28.92,0,0,0,8.48,44.11a28.82,28.82,0,0,0,8.75,21.12A28.78,28.78,0,0,0,38.37,74a28.82,28.82,0,0,0,21.14-8.79A28.77,28.77,0,0,0,68.25,44.1,29,29,0,0,0,59.5,22.92M13,44.08a24.49,24.49,0,0,1,7.45-18,24.44,24.44,0,0,1,17.93-7.43,24.53,24.53,0,0,1,18,7.42,24.55,24.55,0,0,1,7.43,18A24.44,24.44,0,0,1,56.33,62a24.44,24.44,0,0,1-18,7.46A24.34,24.34,0,0,1,20.44,62,24.4,24.4,0,0,1,13,44.08Z" transform="translate(5.76 0.02)"/></g><g id="Symbol_1259_0_Layer1_0_FILL-2" data-name="Symbol 1259 0 Layer1 0 FILL"><path class="cls-6" d="M52.61,29.85A19.38,19.38,0,0,0,38.36,24a19.44,19.44,0,0,0-14.22,5.89,19.41,19.41,0,0,0-5.9,14.26,19.46,19.46,0,0,0,5.91,14.26,19.39,19.39,0,0,0,14.22,5.88,19.38,19.38,0,0,0,14.25-5.89A19.49,19.49,0,0,0,58.5,44.1a19.48,19.48,0,0,0-5.89-14.25M38.36,27A17.09,17.09,0,0,1,55.48,44.1,17.09,17.09,0,0,1,38.37,61.2,17.09,17.09,0,0,1,21.29,44.11,17.05,17.05,0,0,1,38.36,27Z" transform="translate(5.76 0.02)"/></g><g id="Symbol_1259_0_Layer0_0_FILL-2" data-name="Symbol 1259 0 Layer0 0 FILL"><path class="cls-7" d="M45.51,37a9.76,9.76,0,0,0-7.15-3A10.11,10.11,0,0,0,28.3,44.11,10.11,10.11,0,0,0,38.37,54.18,10,10,0,0,0,48.43,44.11,9.7,9.7,0,0,0,45.51,37Z" transform="translate(5.76 0.02)"/></g></g></g></g><g class="cls-9"><g id="red_mc" data-name="red mc"><g class="cls-10"><g id="Symbol_1262_0_Layer3_0_FILL" data-name="Symbol 1262 0 Layer3 0 FILL"><path class="cls-11" d="M80.92,32.75A42.57,42.57,0,0,0,60.37,6,42.36,42.36,0,0,0,27,1.59,42.36,42.36,0,0,0,.25,22.08,42.43,42.43,0,0,0-4.15,55.5,42.27,42.27,0,0,0,16.34,82.22a42.63,42.63,0,0,0,33.45,4.44A42.56,42.56,0,0,0,76.51,66.11a42.32,42.32,0,0,0,4.41-33.36m-23.83-21A36.13,36.13,0,0,1,74.53,34.48,36,36,0,0,1,70.78,62.8,36.21,36.21,0,0,1,48.09,80.27,36.22,36.22,0,0,1,19.7,76.49,36,36,0,0,1,2.3,53.83,36,36,0,0,1,6,25.41,35.91,35.91,0,0,1,28.74,8,35.82,35.82,0,0,1,57.09,11.72Z" transform="translate(5.76 0.02)"/></g><g id="Symbol_1262_0_Layer2_0_FILL" data-name="Symbol 1262 0 Layer2 0 FILL"><path class="cls-12" d="M71.54,35.26a33.12,33.12,0,0,0-16-20.86,32.91,32.91,0,0,0-26-3.4A32.83,32.83,0,0,0,8.69,27,33,33,0,0,0,5.26,53a33,33,0,0,0,16,20.81,33.2,33.2,0,0,0,26.06,3.46,33.24,33.24,0,0,0,20.84-16,33.15,33.15,0,0,0,3.43-26M53,18.9A28,28,0,0,1,66.57,36.62a28.17,28.17,0,0,1-2.93,22.06A28.19,28.19,0,0,1,46,72.27a28.24,28.24,0,0,1-22.12-2.92A28,28,0,0,1,10.26,51.69a28.12,28.12,0,0,1,2.93-22.12A27.86,27.86,0,0,1,30.88,16,28,28,0,0,1,53,18.9Z" transform="translate(5.76 0.02)"/></g><g id="Symbol_1262_0_Layer1_0_FILL" data-name="Symbol 1262 0 Layer1 0 FILL"><path class="cls-13" d="M60.71,38.13a22.28,22.28,0,0,0-10.79-14,22.25,22.25,0,0,0-17.53-2.3,22.32,22.32,0,0,0-14,10.77,22.34,22.34,0,0,0-2.3,17.56,22.27,22.27,0,0,0,10.77,14,22.29,22.29,0,0,0,17.56,2.3,22.24,22.24,0,0,0,14-10.79,22.21,22.21,0,0,0,2.3-17.53m-12.49-11a18.8,18.8,0,0,1,9.12,12,18.7,18.7,0,0,1-1.92,14.86,19,19,0,0,1-12,9.19,19,19,0,0,1-14.89-2,18.9,18.9,0,0,1-9.16-11.89,19.08,19.08,0,0,1,1.95-15,18.83,18.83,0,0,1,11.93-9.1A18.93,18.93,0,0,1,48.22,27.11Z" transform="translate(5.76 0.02)"/></g><g id="Symbol_1262_0_Layer0_0_FILL" data-name="Symbol 1262 0 Layer0 0 FILL"><path class="cls-14" d="M53.5,40.05a15.11,15.11,0,0,0-7.3-9.54,15.16,15.16,0,0,0-11.89-1.57,15,15,0,0,0-9.54,7.3A15,15,0,0,0,23.2,48.17a15,15,0,0,0,7.3,9.5,15.11,15.11,0,0,0,11.9,1.61A15.28,15.28,0,0,0,52,51.94,15,15,0,0,0,53.5,40.05Z" transform="translate(5.76 0.02)"/></g></g></g></g></g></svg>