<svg id="Layer_1" data-name="Layer 1" xmlns="http://www.w3.org/2000/svg" xmlns:xlink="http://www.w3.org/1999/xlink" viewBox="0 0 30 30"><defs><style>.cls-1{fill-opacity:0.4;}.cls-2{fill-opacity:0.3;}.cls-3{fill-opacity:0.2;}.cls-4{fill:#006702;}.cls-5{fill:url(#linear-gradient);}.cls-6{fill:url(#linear-gradient-2);}</style><linearGradient id="linear-gradient" x1="43.16" y1="-112.6" x2="195.04" y2="39.3" gradientTransform="matrix(0.1, 0, 0, -0.1, 2.69, 11.14)" gradientUnits="userSpaceOnUse"><stop offset="0" stop-color="#92ce92"/><stop offset="0.47" stop-color="#038501"/><stop offset="1" stop-color="#77bd74"/></linearGradient><linearGradient id="linear-gradient-2" x1="124.04" y1="-41.82" x2="50.14" y2="32.11" gradientTransform="matrix(0.1, 0, 0, -0.1, 2.69, 11.14)" gradientUnits="userSpaceOnUse"><stop offset="0" stop-color="#40a640"/><stop offset="1" stop-color="#fff2ed"/></linearGradient></defs><title>plus_btn</title><g id="Symbol_1197_0_Layer1_0_FILL" data-name="Symbol 1197 0 Layer1 0 FILL"><path class="cls-1" d="M1.89,19.38l-.56-.08a2.35,2.35,0,0,0,.78.15h7l.25,0a1.68,1.68,0,0,0-.58-.09H1.89m20.66,0v.08h5.13q1.89-.08,1.89-2.25V12.73c0-1.21-.43-1.93-1.3-2.16.73.29,1.08,1,1.08,2.08v4.48q0,2.18-1.89,2.25H22.55m-1.52,0h-.21c-.78,0-1.16.35-1.16,1v7c0,1.4-.87,2.1-2.47,2.1H12.42l-.87-.09a3.57,3.57,0,0,0,1.15.17h4.87a2.23,2.23,0,0,0,2.05-.95,2.4,2.4,0,0,0,.31-1.16v-7a.92.92,0,0,1,.86-1H21v-.08M18.33.16A1.91,1.91,0,0,1,19.65,2.1v4h0V9.37a.91.91,0,0,0,.82,1,.93.93,0,0,1-.55-1V2.17A1.91,1.91,0,0,0,18.33.16Z"/><path class="cls-2" d="M28,10.49l.24.08c.87.23,1.3.95,1.3,2.16v4.48q0,2.17-1.89,2.25H28q1.89-.08,1.89-2.25V12.73c0-1.43-.61-2.18-1.82-2.24,1.21.06,1.82.81,1.82,2.24v4.48q0,2.17-1.89,2.25h.14c1.26-.05,1.89-.8,1.88-2.25V12.73c0-1.46-.62-2.2-1.88-2.24H28m-6.46,9h1v-.08H21v.08h-.24a.92.92,0,0,0-.86,1v7a2.4,2.4,0,0,1-.31,1.16,2.23,2.23,0,0,1-2.05.95h.37a2,2,0,0,0,2.34-2.11v-7a.92.92,0,0,1,.85-1h.44M18.33.16a1.91,1.91,0,0,1,1.6,2V9.44a.93.93,0,0,0,.55,1l.34,0h.08a.91.91,0,0,1-.62-1V2.17C20.23.84,19.48.15,18,.08Z"/><path class="cls-3" d="M21.32,19.47h-.19a.92.92,0,0,0-.85,1v7a2,2,0,0,1-2.34,2.11h0a2.32,2.32,0,0,0,2.17-.95,2.4,2.4,0,0,0,.31-1.16v-7a.9.9,0,0,1,.86-1M18,.08h0c1.45.07,2.2.76,2.25,2.09V9.44a.91.91,0,0,0,.62,1h.18a.9.9,0,0,1-.62-1V2.17C20.41.78,19.59.08,18,.08Z"/><path class="cls-4" d="M19.65,2.1A1.91,1.91,0,0,0,18.33.16L18,.08h0L17.18,0H12.42Q10,0,10,2.1V9.37c0,.7-.38,1.05-1.16,1H1.88C.62,10.45,0,11.2,0,12.65v4.48c0,1.22.44,1.94,1.33,2.17l.56.08H8.8a1.68,1.68,0,0,1,.58.09.91.91,0,0,1,.58,1v7a1.91,1.91,0,0,0,1.59,2l.87.09h4.76c1.6,0,2.42-.7,2.47-2.1v-7c0-.69.38-1,1.16-1h6.64q1.89-.07,1.89-2.25V12.65c0-1.09-.35-1.79-1.08-2.08L28,10.49l-.56-.08H20.82l-.34,0a.91.91,0,0,1-.82-1V6.05h0Z"/></g><g id="Symbol_1197_0_Layer0_0_FILL" data-name="Symbol 1197 0 Layer0 0 FILL"><path class="cls-5" d="M17.92,3.15a1.23,1.23,0,0,0-1.38-1.38H13.16a1.23,1.23,0,0,0-1.39,1.38v8.67H3.11a1.22,1.22,0,0,0-1.38,1.37v3.39A1.22,1.22,0,0,0,3.11,18h8.67v8.66A1.24,1.24,0,0,0,13.16,28h3.39a1.21,1.21,0,0,0,1.36-1.38V18h8.67A1.22,1.22,0,0,0,28,16.57V13.19a1.21,1.21,0,0,0-1.38-1.37H17.91V3.15m-1.05-.28h0v10h.45a14.48,14.48,0,0,1-2.12,2.66,15.13,15.13,0,0,1-2.33,1.91h0v-.59H2.78v-4H12.87v-10Z"/><path class="cls-6" d="M16.88,12.9h0v-10h-4v10H2.78v4H12.87v.59h0a15.06,15.06,0,0,0,2.32-1.91,14.21,14.21,0,0,0,2.12-2.67Z"/></g></svg>