<?xml version="1.0" encoding="UTF-8"?><svg id="Layer_1" xmlns="http://www.w3.org/2000/svg" viewBox="0 0 240 240"><defs><style>.cls-1{fill:#6c6;}</style></defs><g id="banned_circle3_0_Layer2_0_FILL"><path d="M204.83,35.18C182.61,12.25,151.9-.47,119.98.02c-31.9-.47-62.57,12.25-84.77,35.16C12.26,57.38-.49,88.08,0,120.01c-.48,31.91,12.27,62.61,35.22,84.79,22.19,22.93,52.87,35.67,84.77,35.2,31.91.49,62.61-12.24,84.81-35.18,22.94-22.2,35.67-52.89,35.18-84.81.5-31.92-12.21-62.62-35.14-84.83Z"/></g><g id="banned_circle3_0_Layer1_0_FILL"><path class="cls-1" d="M196.95,43.06c-20.18-20.86-48.09-32.44-77.11-32-29.01-.44-56.92,11.14-77.09,32C21.9,63.24,10.32,91.14,10.75,120.15c-.44,29.01,11.14,56.91,32,77.09,20.18,20.85,48.08,32.43,77.09,32,29.02.44,56.93-11.14,77.11-32,20.85-20.18,32.43-48.08,32-77.09.44-29.01-11.14-56.91-32-77.09Z"/></g><g id="banned_circle3_0_Layer0_0_FILL"><path d="M187.16,53.84c-17.57-18.21-41.89-28.33-67.18-27.97-25.3-.36-49.62,9.76-67.18,27.97-18.17,17.59-28.25,41.9-27.86,67.18-.35,25.23,9.73,49.48,27.86,67.03,17.59,18.17,41.9,28.25,67.18,27.86,25.28.39,49.6-9.69,67.18-27.86,18.17-17.59,28.25-41.9,27.86-67.18.35-25.23-9.73-49.48-27.86-67.03Z"/></g></svg>