<svg id="Layer_1" data-name="Layer 1" xmlns="http://www.w3.org/2000/svg" viewBox="0 0 99.99 100"><defs><style>.cls-1{fill:#ccc;}</style></defs><title>prev_btn_up</title><g id="show_uu_btn_up_0_Layer1_0_FILL" data-name="show uu btn up 0 Layer1 0 FILL"><path class="cls-1" d="M14.71,85.35A48.09,48.09,0,0,1,0,50a48.09,48.09,0,0,1,14.7-35.35A48,48,0,0,1,50,0,48.15,48.15,0,0,1,85.35,14.65,48.16,48.16,0,0,1,100,50,48.16,48.16,0,0,1,85.35,85.35,48.15,48.15,0,0,1,50,100,48,48,0,0,1,14.71,85.35Z" transform="translate(-0.01)"/></g><g id="show_uu_btn_up_0_Layer0_0_FILL" data-name="show uu btn up 0 Layer0 0 FILL"><path d="M70,16.3V83.75L11.61,50.05Z" transform="translate(-0.01)"/></g></svg>