<svg id="Layer_1" data-name="Layer 1" xmlns="http://www.w3.org/2000/svg" xmlns:xlink="http://www.w3.org/1999/xlink" viewBox="0 0 40.03 35.73"><defs><style>.cls-1{filter:url(#Filter_1);}.cls-2{fill:#bfb;}</style><filter id="Filter_1" x="-19.99" y="-20.1" width="140" height="140" name="Filter_1"><feColorMatrix result="result1" values="0.4 0 0 0 0.6 0 0.4 0 0 0 0 0 0.4 0 0 0 0 0 1 0" in="SourceGraphic"/></filter></defs><title>private_ban_anim</title><g class="cls-1"><g id="dn_private_chat_mc0_0_Layer0_0_FILL" data-name="dn private chat mc0 0 Layer0 0 FILL"><path d="M39.85,10.29C39.25,6.7,37,3.91,33.2,2A17.91,17.91,0,0,0,28,.3L22.6.1Q12.85,1.35,9.75,8.65A11.06,11.06,0,0,0,9.05,11a17.54,17.54,0,0,0-4.2,2.4q-5.05,4-4.85,9.5a10.48,10.48,0,0,0,1.35,4.9A12.84,12.84,0,0,0,3.4,30.13l.9.65v0l.9.55.15.2L5.2,32l-1.45,1.5-.25.1c-.63.34-.92.6-.85.8l.2.2q.1.4,1.65.9l2.8.3,1.75-.2L10.4,35l1.5-.9.4-.15.1,0,.15,0,0-.05h.1l.15-.1,4.25-.25a19.85,19.85,0,0,0,8.2-3l.75-.6a13.06,13.06,0,0,0,4.6-6l2.9.8,1.8-.15A7.24,7.24,0,0,0,38,23.59c.93-.53,1.42-.95,1.45-1.25l.15-.25c0-.2-.33-.38-1-.55l-.25-.05-1.75-1.2-.2-.4.05-.2L38,18.09a11.75,11.75,0,0,0,1.55-2.75,10.4,10.4,0,0,0,.3-5.05M31.7,3.85q4.69,2.4,5.45,6.89a8.1,8.1,0,0,1-.25,4.15l-1.25,2.25-1.3,1.4c-.33.5-.25,1.18.25,2.05a4.68,4.68,0,0,0,1.35.95c.67.3,1,.55.95.75s-.78.52-1.95.55l-2.8-.4-1.6-.8-1.1-.15-4.35.65a15.63,15.63,0,0,1-7.85-1.5,10.19,10.19,0,0,1-5-4.7,6.56,6.56,0,0,1-.7-3.55,8.17,8.17,0,0,1,.5-2.45l.25-.64q2.55-6,10.6-7l4.35.1A17.33,17.33,0,0,1,31.7,3.85M25.3,24.09l2.7-.35a11.2,11.2,0,0,1-3.7,4.8,15.47,15.47,0,0,1-7.45,3l-4.4.25a2,2,0,0,0-1,.4l-1.45,1a6.7,6.7,0,0,1-2.65,1l-2-.1c-.1-.2.13-.51.7-.95l1.2-1.25c.33-.93.27-1.61-.2-2.05l-1.5-1-1.7-1.95a9.33,9.33,0,0,1-1.1-4.1q-.15-4.5,4-7.8a13.45,13.45,0,0,1,2.15-1.4,8.42,8.42,0,0,0,.8,3.05,12.55,12.55,0,0,0,6,5.7l.95.4A18.94,18.94,0,0,0,25.3,24.09Z" transform="translate(0.01 -0.1)"/><path class="cls-2" d="M28,23.74l-2.7.35a18.94,18.94,0,0,1-8.65-1.4l-.95-.4a12.55,12.55,0,0,1-6-5.7,8.42,8.42,0,0,1-.8-3.05,13.45,13.45,0,0,0-2.15,1.4q-4.15,3.3-4,7.8a9.33,9.33,0,0,0,1.1,4.1l1.7,1.95,1.5,1c.47.44.53,1.12.2,2.05l-1.2,1.25c-.57.44-.8.75-.7.95l2,.1a6.7,6.7,0,0,0,2.65-1l1.45-1a2,2,0,0,1,1-.4l4.4-.25a15.47,15.47,0,0,0,7.45-3,11.2,11.2,0,0,0,3.7-4.8m9.15-13Q36.4,6.26,31.7,3.85A17.33,17.33,0,0,0,27.25,2.4L22.9,2.3q-8.05,1.05-10.6,7l-.25.64a8.17,8.17,0,0,0-.5,2.45,6.56,6.56,0,0,0,.7,3.55,10.19,10.19,0,0,0,5,4.7,15.63,15.63,0,0,0,7.85,1.5l4.35-.65,1.1.15,1.6.8,2.8.4c1.17,0,1.82-.22,1.95-.55s-.28-.45-.95-.75a4.68,4.68,0,0,1-1.35-.95c-.5-.87-.58-1.55-.25-2.05l1.3-1.4,1.25-2.25A8.1,8.1,0,0,0,37.15,10.74Z" transform="translate(0.01 -0.1)"/></g></g></svg>