<svg id="Layer_1" data-name="Layer 1" xmlns="http://www.w3.org/2000/svg" viewBox="0 0 40.03 35.75"><defs><style>.cls-1{fill:#bfb;}</style></defs><title>private_btn_up</title><g id="dn_private_chat_mc0_0_Layer0_0_FILL" data-name="dn private chat mc0 0 Layer0 0 FILL"><path d="M415.9,309.85q-.9-5.4-6.65-8.35a17.91,17.91,0,0,0-5.25-1.65l-5.35-.2q-9.75,1.25-12.85,8.55a11,11,0,0,0-.7,2.35,16.89,16.89,0,0,0-4.2,2.4q-5.06,4-4.85,9.5a10.44,10.44,0,0,0,1.35,4.9,12.82,12.82,0,0,0,2.05,2.35l.9.65v0l.9.55.15.2-.15.45-1.45,1.5-.25.1c-.63.33-.92.6-.85.8l.2.2q.11.41,1.65.9l2.8.3,1.75-.2,1.35-.6,1.5-.9.4-.15.1-.05.15-.05,0-.05h.1l.15-.1,4.25-.25a20,20,0,0,0,8.2-3.05l.75-.6a13.08,13.08,0,0,0,4.6-6l2.9.8,1.8-.15a7.24,7.24,0,0,0,2.65-.85c.93-.53,1.42-.95,1.45-1.25l.15-.25c0-.2-.33-.38-1-.55l-.25-.05-1.75-1.2-.2-.4.05-.2,1.55-1.6a12,12,0,0,0,1.55-2.75,10.41,10.41,0,0,0,.3-5m-8.15-6.45q4.69,2.4,5.45,6.9a8.1,8.1,0,0,1-.25,4.15l-1.25,2.25-1.3,1.4c-.33.5-.25,1.18.25,2a4.68,4.68,0,0,0,1.35,1c.67.3,1,.55.95.75s-.78.52-1.95.55l-2.8-.4-1.6-.8-1.1-.15-4.35.65a15.63,15.63,0,0,1-7.85-1.5,10.19,10.19,0,0,1-5-4.7,6.58,6.58,0,0,1-.7-3.55,8.1,8.1,0,0,1,.5-2.45l.25-.65q2.55-6,10.6-7l4.35.1a17.33,17.33,0,0,1,4.45,1.45m-6.4,20.25,2.7-.35a11.2,11.2,0,0,1-3.7,4.8,15.38,15.38,0,0,1-7.45,3l-4.4.25a1.9,1.9,0,0,0-1,.4l-1.45,1.05a6.86,6.86,0,0,1-2.65.95l-2-.1c-.1-.2.13-.52.7-.95l1.2-1.25c.33-.93.27-1.62-.2-2.05l-1.5-1-1.7-2a9.33,9.33,0,0,1-1.1-4.1q-.15-4.5,4-7.8a13.45,13.45,0,0,1,2.15-1.4,8.47,8.47,0,0,0,.8,3,12.55,12.55,0,0,0,6,5.7l.95.4A18.81,18.81,0,0,0,401.35,323.65Z" transform="translate(-376.04 -299.65)"/><path class="cls-1" d="M404.05,323.3l-2.7.35a18.81,18.81,0,0,1-8.65-1.4l-.95-.4a12.55,12.55,0,0,1-6-5.7,8.47,8.47,0,0,1-.8-3,13.45,13.45,0,0,0-2.15,1.4q-4.16,3.3-4,7.8a9.33,9.33,0,0,0,1.1,4.1l1.7,2,1.5,1c.47.43.53,1.12.2,2.05l-1.2,1.25c-.57.43-.8.75-.7.95l2,.1a6.86,6.86,0,0,0,2.65-.95l1.45-1.05a1.9,1.9,0,0,1,1-.4l4.4-.25a15.38,15.38,0,0,0,7.45-3,11.2,11.2,0,0,0,3.7-4.8m9.15-13q-.75-4.5-5.45-6.9A17.33,17.33,0,0,0,403.3,302l-4.35-.1q-8.06,1-10.6,7l-.25.65a8.1,8.1,0,0,0-.5,2.45,6.58,6.58,0,0,0,.7,3.55,10.19,10.19,0,0,0,5,4.7,15.63,15.63,0,0,0,7.85,1.5l4.35-.65,1.1.15,1.6.8,2.8.4c1.17,0,1.82-.22,1.95-.55s-.28-.45-.95-.75a4.68,4.68,0,0,1-1.35-1c-.5-.87-.58-1.55-.25-2l1.3-1.4,1.25-2.25A8.1,8.1,0,0,0,413.2,310.3Z" transform="translate(-376.04 -299.65)"/></g></svg>