<svg id="Layer_1" data-name="Layer 1" xmlns="http://www.w3.org/2000/svg" xmlns:xlink="http://www.w3.org/1999/xlink" viewBox="0 0 455 635"><defs><style>.cls-1{fill:url(#radial-gradient);}.cls-2{fill:none;stroke:red;stroke-linecap:round;stroke-linejoin:round;stroke-width:5px;}.cls-3{fill:url(#radial-gradient-2);}.cls-4{fill:url(#radial-gradient-3);}.cls-5{fill:url(#radial-gradient-4);}</style><radialGradient id="radial-gradient" cx="0" cy="630" r="39.05" gradientTransform="matrix(1, 0, 0, -1, 425, 660)" gradientUnits="userSpaceOnUse"><stop offset="0" stop-color="#fcf"/><stop offset="1" stop-color="#f36"/></radialGradient><radialGradient id="radial-gradient-2" cx="426" cy="630" r="39.05" gradientTransform="translate(451 660) rotate(180)" gradientUnits="userSpaceOnUse"><stop offset="0" stop-color="#fcf"/><stop offset="1" stop-color="#f03"/></radialGradient><radialGradient id="radial-gradient-3" r="39.05" gradientTransform="matrix(1, 0, 0, -1, 425, 1230)" xlink:href="#radial-gradient"/><radialGradient id="radial-gradient-4" r="39.05" gradientTransform="matrix(1, 0, 0, -1, 25, 1230)" xlink:href="#radial-gradient"/></defs><title>red_target</title><g id="red_target_mc" data-name="red target mc"><g id="Symbol_1255_0_Layer3_0_FILL" data-name="Symbol 1255 0 Layer3 0 FILL"><path class="cls-1" d="M450,0H400V20h30V60h20Z" transform="translate(2.5 2.5)"/></g><path id="Symbol_1255_0_Layer3_0_1_STROKES" data-name="Symbol 1255 0 Layer3 0 1 STROKES" class="cls-2" d="M450,0V60H430V20H400V0Z" transform="translate(2.5 2.5)"/><g id="Symbol_1255_0_Layer2_0_FILL" data-name="Symbol 1255 0 Layer2 0 FILL"><path class="cls-3" d="M50,0H0V60H20V20H50Z" transform="translate(2.5 2.5)"/></g><path id="Symbol_1255_0_Layer2_0_1_STROKES" data-name="Symbol 1255 0 Layer2 0 1 STROKES" class="cls-2" d="M0,0V60H20V20H50V0Z" transform="translate(2.5 2.5)"/><g id="Symbol_1255_0_Layer1_0_FILL" data-name="Symbol 1255 0 Layer1 0 FILL"><path class="cls-4" d="M430,570v40H400v20h50V570Z" transform="translate(2.5 2.5)"/></g><path id="Symbol_1255_0_Layer1_0_1_STROKES" data-name="Symbol 1255 0 Layer1 0 1 STROKES" class="cls-2" d="M430,610H400v20h50V570H430Z" transform="translate(2.5 2.5)"/><g id="Symbol_1255_0_Layer0_0_FILL" data-name="Symbol 1255 0 Layer0 0 FILL"><path class="cls-5" d="M20,610V570H0v60H50V610Z" transform="translate(2.5 2.5)"/></g><path id="Symbol_1255_0_Layer0_0_1_STROKES" data-name="Symbol 1255 0 Layer0 0 1 STROKES" class="cls-2" d="M20,610H50v20H0V570H20Z" transform="translate(2.5 2.5)"/></g></svg>