<svg id="Layer_1" data-name="Layer 1" xmlns="http://www.w3.org/2000/svg" xmlns:xlink="http://www.w3.org/1999/xlink" viewBox="0 0 49.99 51.67"><defs><style>.cls-1{fill:url(#linear-gradient);}.cls-2{fill:url(#linear-gradient-2);}.cls-3{fill:url(#linear-gradient-3);}.cls-4{fill:#3068a5;}.cls-5{fill:url(#linear-gradient-4);}.cls-6{fill:url(#linear-gradient-5);}.cls-7{fill:#3168a1;fill-opacity:0.2;}.cls-8{fill:url(#linear-gradient-6);}.cls-9{fill:url(#linear-gradient-7);}.cls-10{fill:url(#linear-gradient-8);}.cls-11{fill:#3565a7;}.cls-12{fill:url(#linear-gradient-9);}.cls-13{fill:#6194c9;}.cls-14{fill:#fff;fill-opacity:0.3;}</style><linearGradient id="linear-gradient" x1="579.28" y1="-389.87" x2="579.18" y2="-243.87" gradientTransform="matrix(-0.08, 0, 0, 0.08, 63.68, 43.29)" gradientUnits="userSpaceOnUse"><stop offset="0.37" stop-color="#3d75c0"/><stop offset="0.91" stop-color="#fff"/></linearGradient><linearGradient id="linear-gradient-2" x1="597.52" y1="-392.86" x2="597.55" y2="-227.86" gradientTransform="matrix(-0.08, 0, 0, 0.08, 63.68, 43.29)" gradientUnits="userSpaceOnUse"><stop offset="0.38" stop-color="#3d75c0"/><stop offset="0.87" stop-color="#fff"/></linearGradient><linearGradient id="linear-gradient-3" x1="676.08" y1="-389.58" x2="652.38" y2="-228.81" gradientTransform="matrix(-0.08, 0, 0, 0.08, 63.68, 43.29)" gradientUnits="userSpaceOnUse"><stop offset="0.12" stop-color="#3f6fad"/><stop offset="0.87" stop-color="#fff" stop-opacity="0"/></linearGradient><linearGradient id="linear-gradient-4" x1="185.12" y1="-364.13" x2="749.57" y2="-364.13" gradientTransform="matrix(-0.08, 0, 0, 0.08, 63.68, 43.29)" gradientUnits="userSpaceOnUse"><stop offset="0" stop-color="#c2cfe2"/><stop offset="0.83" stop-color="#c7dbf3"/></linearGradient><linearGradient id="linear-gradient-5" x1="183.83" y1="-292.45" x2="687.08" y2="-481.35" gradientTransform="matrix(-0.08, 0, 0, 0.08, 63.68, 43.29)" gradientUnits="userSpaceOnUse"><stop offset="0" stop-color="#8fb5da"/><stop offset="0.83" stop-color="#c7dbf3"/></linearGradient><linearGradient id="linear-gradient-6" x1="267.03" y1="90.87" x2="266.93" y2="236.87" gradientTransform="matrix(0.08, 0, 0, -0.08, 12.32, 48.41)" gradientUnits="userSpaceOnUse"><stop offset="0.37" stop-color="#3d75c0"/><stop offset="0.91" stop-color="#fff" stop-opacity="0"/></linearGradient><linearGradient id="linear-gradient-7" x1="285.27" y1="87.87" x2="285.3" y2="252.87" gradientTransform="matrix(0.08, 0, 0, -0.08, 12.32, 48.41)" gradientUnits="userSpaceOnUse"><stop offset="0.38" stop-color="#3d75c0"/><stop offset="0.87" stop-color="#fff" stop-opacity="0"/></linearGradient><linearGradient id="linear-gradient-8" x1="363.84" y1="91.15" x2="340.14" y2="251.92" gradientTransform="matrix(0.08, 0, 0, -0.08, 12.32, 48.41)" gradientUnits="userSpaceOnUse"><stop offset="0.12" stop-color="#c8d3f1"/><stop offset="0.87" stop-color="#fff" stop-opacity="0"/></linearGradient><linearGradient id="linear-gradient-9" x1="-127.12" y1="116.6" x2="437.33" y2="116.6" gradientTransform="matrix(0.08, 0, 0, -0.08, 12.32, 48.41)" gradientUnits="userSpaceOnUse"><stop offset="0" stop-color="#b8cfe9"/><stop offset="0.83" stop-color="#6194c9"/></linearGradient></defs><title>refresh_btn</title><g id="refresh_btn_arrow_1_0_Layer4_0_FILL" data-name="refresh btn arrow 1 0 Layer4 0 FILL"><path class="cls-1" d="M11.38,22.91h0c.39-.21.57-.34.54-.41a6.5,6.5,0,0,1-.21-1.23c-.09-.76-.15-1.37-.17-1.85a13.47,13.47,0,0,1,0-1.73,6,6,0,0,1,.52-2A9.45,9.45,0,0,1,13,14a8.7,8.7,0,0,1,2.1-1.73,8,8,0,0,1,3.68-1l1.19,0L19.12,11l-2.07,0-.52.16a7.81,7.81,0,0,0-1.4.55l-.65.38a10.92,10.92,0,0,0-1,.73,5.48,5.48,0,0,0-1.86,2.51A15.2,15.2,0,0,0,11,17.92a10.9,10.9,0,0,0,0,2,15.22,15.22,0,0,0,.25,1.85C11.32,22.47,11.38,22.85,11.38,22.91Z" transform="translate(-0.01 -0.02)"/><path class="cls-2" d="M11.38,22.92h0c0-.06-.06-.44-.2-1.14a15.22,15.22,0,0,1-.25-1.85,10.9,10.9,0,0,1,0-2,15.2,15.2,0,0,1,.63-2.66,5.48,5.48,0,0,1,1.86-2.51,10.92,10.92,0,0,1,1-.73l.65-.38a7.81,7.81,0,0,1,1.4-.55l.52-.16.53-.17-2.2,0-.33,0h0l-.93.55a9.16,9.16,0,0,0-1.71,1.37,8.89,8.89,0,0,0-1.32,2,7.61,7.61,0,0,0-.75,2.23,13.09,13.09,0,0,0-.11,2.31c0,.71.05,1.32.11,1.85a9.12,9.12,0,0,0,.14,1c.05.26.12.59.23,1l0,.1C11.17,23,11.37,23,11.38,22.92Z" transform="translate(-0.01 -0.02)"/><path class="cls-3" d="M1.56,23.75l.29.62L11,24.08l0-.25-.18-.73,0-.1c-.11-.41-.18-.74-.23-1a9.12,9.12,0,0,1-.14-1c-.06-.53-.1-1.14-.11-1.85a13.09,13.09,0,0,1,.11-2.31,7.61,7.61,0,0,1,.75-2.23,8.89,8.89,0,0,1,1.32-2,9.16,9.16,0,0,1,1.71-1.37l.93-.55H12.5L9,11.72l-2.7,1.54-1,.63L3.52,16.42,2.43,18.34l-.62,2.2Z" transform="translate(-0.01 -0.02)"/></g><g id="refresh_btn_arrow_1_0_Layer3_0_FILL" data-name="refresh btn arrow 1 0 Layer3 0 FILL"><path class="cls-4" d="M.35,22.53l.29,2L2,24.29l0-.52c0-.41,0-.75,0-1a18.22,18.22,0,0,1,.37-2.89A9.75,9.75,0,0,1,4.6,15.42a13.16,13.16,0,0,1,4-3,16.21,16.21,0,0,1,5-1.3,18.88,18.88,0,0,1,5.42.09,41.81,41.81,0,0,1,6.48,1.74A28.92,28.92,0,0,1,32,16.16c.7.45,1.35.9,2,1.37l.72.56L28,26l21.61-.08L49.52.53,42.65,8.6,41.76,8c-.83-.59-1.86-1.26-3.07-2a41.31,41.31,0,0,0-5.18-2.77A43.56,43.56,0,0,0,26.33.74,26.79,26.79,0,0,0,17.06.19,19.24,19.24,0,0,0,8.6,2.82,19.71,19.71,0,0,0,3.77,6.91a17,17,0,0,0-2.46,4.44A18.33,18.33,0,0,0,.15,16.26,24,24,0,0,0,0,19.63C0,20.14.14,21.11.35,22.53Z" transform="translate(-0.01 -0.02)"/></g><g id="refresh_btn_arrow_1_0_Layer2_0_FILL" data-name="refresh btn arrow 1 0 Layer2 0 FILL"><path class="cls-5" d="M2.64,15.92a13,13,0,0,1,1.27-1.66,13.66,13.66,0,0,1,2-2A12.38,12.38,0,0,1,8.26,10.9a14.52,14.52,0,0,1,3.67-1.05,21,21,0,0,1,5.19-.2,36.12,36.12,0,0,1,7.5,1.57,35.59,35.59,0,0,1,8.31,4c.94.58,1.84,1.19,2.7,1.81l1,.75-5.79,6.91,17.28-.21.13-20.38-5.41,6.36-1.3-.95c-1.05-.75-2-1.41-3-2-1.42-.91-2.67-1.65-3.76-2.23A34.28,34.28,0,0,0,30,3.15a36.25,36.25,0,0,0-5.44-1.4,27.21,27.21,0,0,0-5-.43,25.15,25.15,0,0,0-4.22.42,20.29,20.29,0,0,0-3.06.79A17.25,17.25,0,0,0,8.75,4.26,14.79,14.79,0,0,0,4.68,7.89,17,17,0,0,0,2.3,12.53a19,19,0,0,0-.78,3.1c-.07.44-.13,1.08-.19,1.93l-.06,1.15Z" transform="translate(-0.01 -0.02)"/></g><g id="refresh_btn_arrow_1_0_Layer1_0_FILL" data-name="refresh btn arrow 1 0 Layer1 0 FILL"><path class="cls-6" d="M5.76,11a11.93,11.93,0,0,1,1.4-.88c.52-.28,1.19-.6,2-1a13.27,13.27,0,0,1,2.63-.77,21.94,21.94,0,0,1,2.95-.31,37.87,37.87,0,0,1,6.62.54,25.29,25.29,0,0,1,4.5,1.46q2.58,1,4.94,2.12a31.78,31.78,0,0,1,4.79,3.16l2.92,2.29L34,23.25l12.78-.13s0-2.53,0-7.64l0-7.67L43,12.3l-.51-.37-1.82-1.41A34.06,34.06,0,0,0,36.75,8a52.08,52.08,0,0,0-5.3-2.7,31.93,31.93,0,0,0-5.74-1.92,24,24,0,0,0-6.79-.49,22.21,22.21,0,0,0-5.37.89,11.48,11.48,0,0,0-1.62.7c-.32.16-.79.44-1.42.82A24.68,24.68,0,0,0,8.1,7l-1,.81-2,2.29-1.42,2.7C4.51,12,5.21,11.43,5.76,11Z" transform="translate(-0.01 -0.02)"/></g><g id="refresh_btn_arrow_1_0_Layer0_0_FILL" data-name="refresh btn arrow 1 0 Layer0 0 FILL"><path class="cls-7" d="M32.33,12.1a9.32,9.32,0,0,1-2.61.47l-1.64.07,8.49,5.2-5.75,6.78,17.41-.17s0-3.4,0-10.19V4.07l-5.29,6.24L41.11,8.52,40,8.67a12.25,12.25,0,0,0-2.5.72,28.36,28.36,0,0,0-2.53,1.34C33.71,11.42,32.85,11.88,32.33,12.1Z" transform="translate(-0.01 -0.02)"/></g><g id="refresh_btn_arrow_2_0_Layer4_0_FILL" data-name="refresh btn arrow 2 0 Layer4 0 FILL"><path class="cls-8" d="M38.62,28.79h0c-.39.21-.57.34-.54.41a6.5,6.5,0,0,1,.21,1.23c.09.76.15,1.37.17,1.85a13.47,13.47,0,0,1,0,1.73,6,6,0,0,1-.52,2A9.45,9.45,0,0,1,37,37.67a8.7,8.7,0,0,1-2.1,1.73,8,8,0,0,1-3.68,1l-1.19,0,.88.26,2.07,0,.52-.16a7.81,7.81,0,0,0,1.4-.55l.65-.38a10.92,10.92,0,0,0,1-.73,5.48,5.48,0,0,0,1.86-2.51A15.2,15.2,0,0,0,39,33.78a10.9,10.9,0,0,0,0-2,15.22,15.22,0,0,0-.25-1.85C38.68,29.23,38.62,28.85,38.62,28.79Z" transform="translate(-0.01 -0.02)"/><path class="cls-9" d="M39.47,29.7c0-.26-.12-.59-.23-1l0-.1c-.39.07-.59.14-.6.18h0c0,.06.06.44.2,1.14a15.22,15.22,0,0,1,.25,1.85,10.9,10.9,0,0,1,0,2,15.2,15.2,0,0,1-.63,2.66A5.48,5.48,0,0,1,36.55,39a10.92,10.92,0,0,1-1,.73l-.65.38a7.81,7.81,0,0,1-1.4.55l-.52.16-.53.17,2.2,0,.33,0H34.9l.93-.55A9.16,9.16,0,0,0,37.54,39a8.89,8.89,0,0,0,1.32-2,7.61,7.61,0,0,0,.75-2.23,13.09,13.09,0,0,0,.11-2.31c0-.71,0-1.32-.11-1.85A9.12,9.12,0,0,0,39.47,29.7Z" transform="translate(-0.01 -0.02)"/><path class="cls-10" d="M48.44,28l-.29-.62L39,27.62l.23,1,0,.1c.11.41.18.74.23,1a9.12,9.12,0,0,1,.14,1c.06.53.1,1.14.11,1.85a13.09,13.09,0,0,1-.11,2.31,7.61,7.61,0,0,1-.75,2.23,8.89,8.89,0,0,1-1.32,2,9.16,9.16,0,0,1-1.71,1.37l-.93.55h2.6L41,40l2.7-1.54,1-.63,1.83-2.53,1.09-1.92.62-2.2Z" transform="translate(-0.01 -0.02)"/></g><g id="refresh_btn_arrow_2_0_Layer3_0_FILL" data-name="refresh btn arrow 2 0 Layer3 0 FILL"><path class="cls-11" d="M49.36,27.21l-1.34.2,0,.52c0,.41,0,.75,0,1a18.22,18.22,0,0,1-.37,2.89,9.75,9.75,0,0,1-2.25,4.44,13.16,13.16,0,0,1-4,3,16.21,16.21,0,0,1-4.95,1.3A18.88,18.88,0,0,1,31,40.51a41.81,41.81,0,0,1-6.48-1.74A28.92,28.92,0,0,1,18,35.54c-.7-.45-1.35-.9-2-1.37l-.72-.56L22,25.75.4,25.83.48,51.17,7.35,43.1l.89.64c.83.59,1.86,1.26,3.07,2a41.31,41.31,0,0,0,5.18,2.77A43.56,43.56,0,0,0,23.67,51a26.79,26.79,0,0,0,9.27.55,19.24,19.24,0,0,0,8.46-2.63,19.71,19.71,0,0,0,4.83-4.09,17,17,0,0,0,2.46-4.44,18.33,18.33,0,0,0,1.16-4.91A24,24,0,0,0,50,32.07c0-.51-.12-1.48-.33-2.9Z" transform="translate(-0.01 -0.02)"/></g><g id="refresh_btn_arrow_2_0_Layer2_0_FILL" data-name="refresh btn arrow 2 0 Layer2 0 FILL"><path class="cls-12" d="M47.36,35.78a13,13,0,0,1-1.27,1.66,13.66,13.66,0,0,1-2,2,12.38,12.38,0,0,1-2.33,1.36,14.52,14.52,0,0,1-3.67,1.05,21,21,0,0,1-5.19.2,36.12,36.12,0,0,1-7.5-1.57,35.59,35.59,0,0,1-8.31-4c-.94-.58-1.84-1.19-2.7-1.81l-1-.75L19.14,27l-17.28.21L1.73,47.63l5.41-6.36,1.3.95c1.05.75,2,1.41,3,2,1.42.91,2.67,1.65,3.76,2.23A34.28,34.28,0,0,0,20,48.55,36.25,36.25,0,0,0,25.45,50a27.21,27.21,0,0,0,5,.43A25.15,25.15,0,0,0,34.68,50a20.29,20.29,0,0,0,3.06-.79,17.25,17.25,0,0,0,3.51-1.73,14.79,14.79,0,0,0,4.07-3.63,17,17,0,0,0,2.38-4.64,19,19,0,0,0,.78-3.1c.07-.44.13-1.08.19-1.93L48.73,33Z" transform="translate(-0.01 -0.02)"/></g><g id="refresh_btn_arrow_2_0_Layer1_0_FILL" data-name="refresh btn arrow 2 0 Layer1 0 FILL"><path class="cls-13" d="M44.24,40.69a11.93,11.93,0,0,1-1.4.88c-.52.28-1.19.6-2,1a13.27,13.27,0,0,1-2.63.77,21.94,21.94,0,0,1-2.95.31,37.87,37.87,0,0,1-6.62-.54,25.29,25.29,0,0,1-4.5-1.46q-2.58-1-4.94-2.12a31.78,31.78,0,0,1-4.79-3.16L11.47,34,16,28.45l-12.78.13s0,2.53,0,7.64l0,7.67L7,39.4l2.33,1.78a34.06,34.06,0,0,0,3.9,2.55,52.08,52.08,0,0,0,5.3,2.7,31.93,31.93,0,0,0,5.74,1.92,24,24,0,0,0,6.79.49A22.21,22.21,0,0,0,36.45,48a11.48,11.48,0,0,0,1.62-.7c.32-.16.79-.44,1.42-.82a24.68,24.68,0,0,0,2.41-1.69l1-.81,2-2.29,1.42-2.7C45.49,39.69,44.79,40.27,44.24,40.69Z" transform="translate(-0.01 -0.02)"/></g><g id="refresh_btn_arrow_2_0_Layer0_0_FILL" data-name="refresh btn arrow 2 0 Layer0 0 FILL"><path class="cls-14" d="M15.72,38.85c.45-.27,1.33-.87,2.67-1.78l-5-3.21,5.75-6.78-17.41.17s0,3.4,0,10.19V47.63l5.5-6.53,3.66,2.62,1-1.62a7.32,7.32,0,0,1,2-2C14.34,39.75,15,39.33,15.72,38.85Z" transform="translate(-0.01 -0.02)"/></g></svg>