<svg id="Layer_1" data-name="Layer 1" xmlns="http://www.w3.org/2000/svg" xmlns:xlink="http://www.w3.org/1999/xlink" viewBox="0 0 243.11 180.72"><defs><style>.cls-1,.cls-13,.cls-23,.cls-31,.cls-49,.cls-55,.cls-57,.cls-58,.cls-61,.cls-63,.cls-64,.cls-68{fill:none;}.cls-1{stroke:#737373;stroke-linejoin:round;stroke-width:5px;}.cls-1,.cls-61,.cls-63{stroke-linecap:round;}.cls-2{fill:#b2b2b2;}.cls-3{fill:#999;}.cls-4{fill:url(#linear-gradient);}.cls-5{fill:url(#linear-gradient-2);}.cls-6{fill:#ccc;}.cls-7{fill:url(#linear-gradient-3);}.cls-8{fill:url(#linear-gradient-4);}.cls-9{fill:url(#radial-gradient);}.cls-10{fill:url(#linear-gradient-5);}.cls-11{fill:url(#linear-gradient-6);}.cls-12{fill:url(#linear-gradient-7);}.cls-13,.cls-31,.cls-49,.cls-57,.cls-58,.cls-61,.cls-68{stroke:#000;}.cls-13,.cls-23,.cls-31,.cls-49,.cls-55,.cls-57,.cls-58,.cls-61,.cls-63,.cls-64,.cls-68{stroke-miterlimit:1;}.cls-13,.cls-23{stroke-width:0.25px;}.cls-14{fill:url(#radial-gradient-2);}.cls-15{fill:#fff;}.cls-16{fill:url(#linear-gradient-8);}.cls-17{fill:url(#linear-gradient-9);}.cls-18{fill:url(#linear-gradient-10);}.cls-19{fill:url(#radial-gradient-3);}.cls-20{fill:url(#linear-gradient-11);}.cls-21{fill:url(#radial-gradient-4);}.cls-22{fill:url(#radial-gradient-5);}.cls-23,.cls-55{stroke:#fff;}.cls-24{fill:url(#linear-gradient-12);}.cls-25{fill:url(#radial-gradient-6);}.cls-26{fill:url(#radial-gradient-7);}.cls-27{fill:url(#radial-gradient-8);}.cls-28{fill:url(#linear-gradient-13);}.cls-29{fill:#666;}.cls-30{fill:url(#linear-gradient-14);}.cls-31{stroke-width:0.15px;}.cls-32{fill:url(#radial-gradient-9);}.cls-33{fill:#333;}.cls-34{fill:url(#radial-gradient-10);}.cls-35{fill:url(#radial-gradient-11);}.cls-36{fill:url(#radial-gradient-12);}.cls-37{fill:url(#radial-gradient-13);}.cls-38{fill:url(#radial-gradient-14);}.cls-39{fill:url(#radial-gradient-15);}.cls-40{fill:url(#linear-gradient-15);}.cls-41{fill:url(#linear-gradient-16);}.cls-42{fill:url(#linear-gradient-17);}.cls-43{fill:url(#linear-gradient-18);}.cls-44{fill:url(#linear-gradient-19);}.cls-45{fill:url(#linear-gradient-20);}.cls-46{fill:url(#linear-gradient-21);}.cls-47{fill:url(#linear-gradient-22);}.cls-48{fill:url(#linear-gradient-23);}.cls-49{stroke-width:0.5px;}.cls-50{fill:url(#linear-gradient-24);}.cls-51{fill:#e5e5e5;}.cls-52{fill:url(#linear-gradient-25);}.cls-53{fill:url(#linear-gradient-26);}.cls-54{fill:url(#radial-gradient-16);}.cls-55{stroke-width:6px;}.cls-56{fill:#191919;}.cls-58{stroke-width:0.1px;}.cls-59{fill:url(#linear-gradient-27);}.cls-60{fill:url(#linear-gradient-28);}.cls-62{fill:url(#linear-gradient-29);}.cls-63,.cls-64{stroke:#191919;}.cls-65{fill:url(#radial-gradient-17);}.cls-66{fill:url(#radial-gradient-19);}.cls-67{fill:url(#linear-gradient-30);}.cls-68{stroke-width:0.05px;}</style><linearGradient id="linear-gradient" x1="55.71" y1="386.32" x2="95.39" y2="383.52" gradientTransform="matrix(1, 0, 0, -1, 107.05, 470.95)" gradientUnits="userSpaceOnUse"><stop offset="0.04" stop-color="#fff"/><stop offset="0.26" stop-color="#4c4c4c"/><stop offset="0.45" stop-color="#4c4c4c"/><stop offset="0.87" stop-color="#f2f2f2"/></linearGradient><linearGradient id="linear-gradient-2" x1="5.1" y1="270.71" x2="207.1" y2="347.21" gradientTransform="matrix(1, 0, 0, -1, 107.05, 470.95)" gradientUnits="userSpaceOnUse"><stop offset="0.45" stop-color="#969696"/><stop offset="0.62" stop-color="#f2f2f2"/><stop offset="1" stop-color="#b1b1b1"/></linearGradient><linearGradient id="linear-gradient-3" x1="81.65" y1="393.1" x2="119.95" y2="393.1" gradientTransform="matrix(1, 0, 0, -1, 107.05, 470.95)" gradientUnits="userSpaceOnUse"><stop offset="0" stop-color="#fff"/><stop offset="1" stop-color="#ccc"/></linearGradient><linearGradient id="linear-gradient-4" x1="56.05" y1="396.13" x2="79.55" y2="396.13" gradientTransform="matrix(1, 0, 0, -1, 107.05, 470.95)" gradientUnits="userSpaceOnUse"><stop offset="0" stop-color="#b1b1b1"/><stop offset="0.49" stop-color="#fff"/><stop offset="0.53" stop-color="#fff"/><stop offset="0.71" stop-color="#666"/><stop offset="0.8" stop-color="#666"/><stop offset="0.99" stop-color="#b2b2b2"/></linearGradient><radialGradient id="radial-gradient" cx="0" cy="792" r="11.5" gradientTransform="translate(175.8 -716.75)" gradientUnits="userSpaceOnUse"><stop offset="0.35" stop-color="#fff"/><stop offset="0.76" stop-color="#ccc"/><stop offset="0.98" stop-color="#999"/></radialGradient><linearGradient id="linear-gradient-5" x1="60.5" y1="400.85" x2="78.5" y2="400.85" gradientTransform="matrix(1, 0, 0, -1, 107.05, 470.95)" gradientUnits="userSpaceOnUse"><stop offset="0.02" stop-color="#999"/><stop offset="0.98" stop-color="#333"/></linearGradient><linearGradient id="linear-gradient-6" x1="81" y1="389.9" x2="120.46" y2="389.9" xlink:href="#linear-gradient-4"/><linearGradient id="linear-gradient-7" x1="16.25" y1="378.18" x2="53.2" y2="378.18" xlink:href="#linear-gradient-4"/><radialGradient id="radial-gradient-2" cx="0.03" cy="792" r="17.45" gradientTransform="translate(141.65 -692.75)" gradientUnits="userSpaceOnUse"><stop offset="0.51" stop-color="#fff"/><stop offset="1" stop-color="#ccc"/></radialGradient><linearGradient id="linear-gradient-8" x1="23.09" y1="373.55" x2="38.51" y2="373.55" xlink:href="#linear-gradient"/><linearGradient id="linear-gradient-9" x1="12.85" y1="380.29" x2="47.85" y2="374.29" xlink:href="#linear-gradient-5"/><linearGradient id="linear-gradient-10" x1="27.5" y1="380.61" x2="43.5" y2="386.61" gradientTransform="matrix(1, 0, 0, -1, 107.05, 470.95)" gradientUnits="userSpaceOnUse"><stop offset="0"/><stop offset="0.51" stop-color="#fff"/><stop offset="1"/></linearGradient><radialGradient id="radial-gradient-3" cx="0" cy="792" r="27.42" gradientTransform="translate(148.65 -686.55)" gradientUnits="userSpaceOnUse"><stop offset="0" stop-color="#4c4c4c"/><stop offset="1" stop-color="#f2f2f2"/></radialGradient><linearGradient id="linear-gradient-11" x1="119.05" y1="379.97" x2="177.05" y2="367.47" xlink:href="#linear-gradient-4"/><radialGradient id="radial-gradient-4" cx="0.03" cy="791.98" r="32.99" gradientTransform="translate(264 -709.2)" xlink:href="#radial-gradient-2"/><radialGradient id="radial-gradient-5" r="76.03" gradientTransform="translate(241.8 -681.25)" xlink:href="#radial-gradient"/><linearGradient id="linear-gradient-12" x1="-5.62" y1="317.48" x2="109.03" y2="308.81" gradientTransform="matrix(1, 0, 0, -1, 107.05, 470.95)" gradientUnits="userSpaceOnUse"><stop offset="0.16" stop-color="#a4a6a9"/><stop offset="0.22" stop-color="#9d9fa1"/><stop offset="0.29" stop-color="#898a8c"/><stop offset="0.38" stop-color="#68696a"/><stop offset="0.45" stop-color="#4c4c4c"/><stop offset="0.49" stop-color="#4c4c4c"/><stop offset="1" stop-color="#b2b2b2"/></linearGradient><radialGradient id="radial-gradient-6" cx="0" cy="792" r="12.65" gradientTransform="translate(141.65 -700.8)" gradientUnits="userSpaceOnUse"><stop offset="0" stop-color="#fff"/><stop offset="0.24" stop-color="#fdfdfd"/><stop offset="0.38" stop-color="#f4f4f4"/><stop offset="0.49" stop-color="#e6e6e6"/><stop offset="0.58" stop-color="#d3d3d3"/><stop offset="0.67" stop-color="#b9b9b9"/><stop offset="0.75" stop-color="#999"/><stop offset="0.83" stop-color="#747474"/><stop offset="0.9" stop-color="#484848"/><stop offset="0.97" stop-color="#181818"/><stop offset="1"/></radialGradient><radialGradient id="radial-gradient-7" cx="0" cy="792" r="43.78" gradientTransform="translate(321.3 -667.75)" gradientUnits="userSpaceOnUse"><stop offset="0"/><stop offset="1" stop-color="#fff"/></radialGradient><radialGradient id="radial-gradient-8" cx="0" cy="792" r="21.39" gradientTransform="translate(322.4 -666.05)" gradientUnits="userSpaceOnUse"><stop offset="0" stop-color="#4f4f4f"/><stop offset="1" stop-color="#fff"/></radialGradient><linearGradient id="linear-gradient-13" x1="178.13" y1="380.78" x2="196.63" y2="312.81" gradientTransform="matrix(1, 0, 0, -1, 107.05, 470.95)" gradientUnits="userSpaceOnUse"><stop offset="0.16" stop-color="#fff"/><stop offset="0.58" stop-color="#919191"/><stop offset="1" stop-color="#fff"/></linearGradient><linearGradient id="linear-gradient-14" x1="182.62" y1="357.16" x2="188.62" y2="339.51" gradientTransform="matrix(1, 0, 0, -1, 107.05, 470.95)" gradientUnits="userSpaceOnUse"><stop offset="0"/><stop offset="0.55" stop-color="#696969"/><stop offset="0.59" stop-color="#696969"/><stop offset="0.93"/></linearGradient><radialGradient id="radial-gradient-9" cx="0" cy="792" r="15.95" gradientTransform="translate(296.65 -663.4)" gradientUnits="userSpaceOnUse"><stop offset="0" stop-color="#fff"/><stop offset="0.79"/></radialGradient><radialGradient id="radial-gradient-10" cx="0" cy="792" r="33.4" gradientTransform="translate(269.65 -663.4)" gradientUnits="userSpaceOnUse"><stop offset="0" stop-color="#fff"/><stop offset="0.11" stop-color="#fafafa"/><stop offset="0.23" stop-color="#ececec"/><stop offset="0.36" stop-color="#d5d5d5"/><stop offset="0.5" stop-color="#b4b4b4"/><stop offset="0.64" stop-color="#8a8a8a"/><stop offset="0.79" stop-color="#565656"/><stop offset="0.94" stop-color="#1b1b1b"/><stop offset="1"/></radialGradient><radialGradient id="radial-gradient-11" cx="0" r="16.06" gradientTransform="translate(288.65 -664.9)" xlink:href="#radial-gradient-10"/><radialGradient id="radial-gradient-12" cx="0" cy="792" r="12.61" gradientTransform="translate(288 -680.9)" gradientUnits="userSpaceOnUse"><stop offset="0" stop-color="#fff"/><stop offset="0.12" stop-color="#e7e7e7"/><stop offset="0.38" stop-color="#a9a9a9"/><stop offset="0.75" stop-color="#474747"/><stop offset="1"/></radialGradient><radialGradient id="radial-gradient-13" cx="0" r="7" gradientTransform="translate(294.8 -670.4)" xlink:href="#radial-gradient-10"/><radialGradient id="radial-gradient-14" cx="-104.97" cy="779.5" r="1.07" gradientTransform="matrix(0.86, -0.52, 0.52, 0.86, -23.19, -596.59)" gradientUnits="userSpaceOnUse"><stop offset="0" stop-color="#fff"/><stop offset="0.54" stop-color="#777"/><stop offset="1"/></radialGradient><radialGradient id="radial-gradient-15" cx="-105.83" cy="831.12" r="1.63" gradientTransform="matrix(0.86, -0.51, 0.41, 0.67, 52.25, -488.12)" xlink:href="#radial-gradient-14"/><linearGradient id="linear-gradient-15" x1="102.51" y1="344.76" x2="117.76" y2="231.73" gradientTransform="matrix(1, 0, 0, -1, 107.05, 470.95)" gradientUnits="userSpaceOnUse"><stop offset="0.01" stop-color="#ccc"/><stop offset="0.16" stop-color="#f7f8f8"/><stop offset="0.16" stop-color="#9c9ea1"/><stop offset="0.31" stop-color="#4c4c4c"/><stop offset="0.52" stop-color="#4c4c4c"/><stop offset="0.53" stop-color="#eef0f1"/><stop offset="1" stop-color="#fff"/></linearGradient><linearGradient id="linear-gradient-16" x1="136.91" y1="365.97" x2="167.56" y2="229.32" xlink:href="#linear-gradient"/><linearGradient id="linear-gradient-17" x1="124.95" y1="361.39" x2="173.95" y2="298.71" gradientTransform="matrix(1, 0, 0, -1, 107.05, 470.95)" gradientUnits="userSpaceOnUse"><stop offset="0.03" stop-color="#4c4c4c"/><stop offset="0.54" stop-color="#b1b1b1"/><stop offset="0.6" stop-color="#b1b1b1"/><stop offset="1" stop-color="#4c4c4c"/></linearGradient><linearGradient id="linear-gradient-18" x1="109.46" y1="350.07" x2="148.11" y2="210.42" gradientTransform="matrix(1, 0, 0, -1, 107.05, 470.95)" gradientUnits="userSpaceOnUse"><stop offset="0" stop-color="#faf7e8"/><stop offset="0.26" stop-color="#ccc"/><stop offset="0.5" stop-color="#faffff"/><stop offset="0.55" stop-color="#faffff"/><stop offset="0.76" stop-color="#e5e5e5"/><stop offset="1" stop-color="#faf7e8"/></linearGradient><linearGradient id="linear-gradient-19" x1="107.05" y1="349.82" x2="127.05" y2="222.17" gradientTransform="matrix(1, 0, 0, -1, 107.05, 470.95)" gradientUnits="userSpaceOnUse"><stop offset="0.08" stop-color="#ccc"/><stop offset="0.48" stop-color="#eff3f4"/><stop offset="0.62" stop-color="#eef0f1"/><stop offset="1" stop-color="#e5e5e5"/></linearGradient><linearGradient id="linear-gradient-20" x1="107.05" y1="349.82" x2="127.05" y2="222.17" gradientTransform="matrix(1, 0, 0, -1, 107.05, 470.95)" gradientUnits="userSpaceOnUse"><stop offset="0.08" stop-color="#ccc"/><stop offset="0.48" stop-color="#fafaeb"/><stop offset="0.62" stop-color="#eef0f1"/><stop offset="1" stop-color="#e5e5e5"/></linearGradient><linearGradient id="linear-gradient-21" x1="166.59" y1="265.5" x2="182.91" y2="236.5" gradientTransform="matrix(1, 0, 0, -1, 107.05, 470.95)" gradientUnits="userSpaceOnUse"><stop offset="0.04" stop-color="#b1b1b1"/><stop offset="0.12" stop-color="#b1b1b1"/><stop offset="0.26" stop-color="#4c4c4c"/><stop offset="0.56" stop-color="#4c4c4c"/><stop offset="0.87" stop-color="#f2f2f2"/></linearGradient><linearGradient id="linear-gradient-22" x1="165.44" y1="282.17" x2="179.76" y2="229.52" gradientTransform="matrix(1, 0, 0, -1, 107.05, 470.95)" gradientUnits="userSpaceOnUse"><stop offset="0" stop-color="#4c4c4c"/><stop offset="0.89" stop-color="#faffff"/></linearGradient><linearGradient id="linear-gradient-23" x1="149.18" y1="332.12" x2="169.86" y2="224.79" xlink:href="#linear-gradient-21"/><linearGradient id="linear-gradient-24" x1="103" y1="347.13" x2="118.75" y2="230.38" xlink:href="#linear-gradient-15"/><linearGradient id="linear-gradient-25" x1="84.47" y1="338.63" x2="122.12" y2="236.3" gradientTransform="matrix(1, 0, 0, -1, 107.05, 470.95)" gradientUnits="userSpaceOnUse"><stop offset="0" stop-color="#faf7e8"/><stop offset="0.26" stop-color="#ccc"/><stop offset="0.53" stop-color="#eff3f4"/><stop offset="0.72" stop-color="#eef0f1"/><stop offset="1" stop-color="#e5e5e5"/></linearGradient><linearGradient id="linear-gradient-26" x1="122.49" y1="358.56" x2="168.82" y2="313.56" xlink:href="#linear-gradient-17"/><radialGradient id="radial-gradient-16" r="52.03" gradientTransform="translate(261.5 -630.9)" xlink:href="#radial-gradient-7"/><linearGradient id="linear-gradient-27" x1="48.7" y1="339.68" x2="136.02" y2="161.93" gradientTransform="matrix(1, 0, 0, -1, 107.05, 470.95)" gradientUnits="userSpaceOnUse"><stop offset="0" stop-color="#b1b1b1"/><stop offset="0.38" stop-color="#eaeaea"/><stop offset="0.62" stop-color="#e8e8e8"/><stop offset="0.99" stop-color="#b1b1b1"/></linearGradient><linearGradient id="linear-gradient-28" x1="56.84" y1="327.38" x2="100.17" y2="230.73" gradientTransform="matrix(1, 0, 0, -1, 107.05, 470.95)" gradientUnits="userSpaceOnUse"><stop offset="0" stop-color="#b1b1b1"/><stop offset="0.49" stop-color="#fff"/><stop offset="0.53" stop-color="#fff"/><stop offset="0.99" stop-color="#b1b1b1"/></linearGradient><linearGradient id="linear-gradient-29" x1="40.89" y1="277.55" x2="117.51" y2="277.55" gradientTransform="matrix(1, 0, 0, -1, 107.05, 470.95)" gradientUnits="userSpaceOnUse"><stop offset="0" stop-color="#979797"/><stop offset="1" stop-color="#191919"/></linearGradient><radialGradient id="radial-gradient-17" cx="0" cy="792" r="7.88" gradientTransform="translate(204.9 -605.4)" gradientUnits="userSpaceOnUse"><stop offset="0" stop-color="#fff"/><stop offset="1"/></radialGradient><radialGradient id="radial-gradient-19" cx="0" cy="792" r="1.77" gradientTransform="translate(194.9 -600.4)" xlink:href="#radial-gradient-17"/><linearGradient id="linear-gradient-30" x1="54.61" y1="278.87" x2="111.8" y2="278.87" gradientTransform="matrix(1, 0, 0, -1, 107.05, 470.95)" gradientUnits="userSpaceOnUse"><stop offset="0" stop-color="#33c"/><stop offset="1" stop-color="#6cf"/><stop offset="1" stop-color="#39c"/></linearGradient></defs><title>screenshot_btn_up</title><path id="Symbol_540_0_Layer94_0_1_STROKES" data-name="Symbol 540 0 Layer94 0 1 STROKES" class="cls-1" d="M325.9,100.5q-9.7-7.4-16.8-12l-.2-.8-.95-1.3-1.3-1.7-.85-1.45-.9-1h0l-.05,0-2.35-1.45-.25-.1-3.8-2L297,78,285.7,74.15l-1.35-.35-.4,0-5.1-1.15h-.15l-5.3-.9h-.1l-1.7-.2-.1,0-1.45-.15h-.35l-3.5-.3h-.05l-1.65-.1-1.85-.05h-3l-2.4.05-4.55.35A88.3,88.3,0,0,0,227,78.5q-.34-.65-5.85-1.35l-13.2-1q-14.06-.56-18.3.45l0-3.3a12.15,12.15,0,0,0-4-3.1l-1.65-.7-.65-.2-12.6-.4-.9.15-2.2.75a10.15,10.15,0,0,0-3.4,2.45l-1.05,1.35L163,78.6,150.4,79l0,.1a44.53,44.53,0,0,0-6.55.15,37.27,37.27,0,0,0-9.1,2.8,43.1,43.1,0,0,0-17.15,12.7,34.63,34.63,0,0,0-4.25,8.3,36.3,36.3,0,0,0-2,6.2l.2,1.15.05.1-1,.75q-1.5,12.25-2.55,30.55a514,514,0,0,0,.05,66.95l.25,1.35c.2.93.42,1.47.65,1.6l-.15.3a2.89,2.89,0,0,0-.15,1l.4,3.9c.3,2.13.68,3.43,1.15,3.9l2.6,2.8a15.3,15.3,0,0,0,7,2.9l7.6.9a46,46,0,0,0,9.4.2l14.95-4.4a53.72,53.72,0,0,0,16.25,15,44.68,44.68,0,0,0,20.5,6.4,38.32,38.32,0,0,0,13.6-1.6l.6.3,9-3.85,8.8,1.35a44.13,44.13,0,0,0,21.4-4.1,32.78,32.78,0,0,0,4.25-1.7l.95.15,48.1,2.95,3.25-.25,6.3-1,7.3-.8a47.35,47.35,0,0,0,9.45-3.5q5.55-2.7,7.55-4.75a50.12,50.12,0,0,0,8.2-11.25,37,37,0,0,0,2.55-5.5l5.25-76.5-1.35-9q-1.8-9.65-4.15-13T325.9,100.5Z" transform="translate(-104.54 -66.45)"/><g id="Symbol_540_0_Layer93_0_FILL" data-name="Symbol 540 0 Layer93 0 FILL"><path class="cls-2" d="M339.65,112.5q-2.5-3.56-14.85-12.85-10.69-8.1-16.9-11.9a15,15,0,0,0-5.45-1.85,17.26,17.26,0,0,0-12.55,2.6l-3,2.2L300.7,101q12.65,9.64,15.95,13a19.31,19.31,0,0,1,4.9,9.3,115.35,115.35,0,0,1,1.35,13.2,416.75,416.75,0,0,1-1.1,57.9q-2.25,26.15-4.7,31.85a17.63,17.63,0,0,1-10.6,10.05l-1.65.5,7.3-.8a47.35,47.35,0,0,0,9.45-3.5q5.55-2.7,7.55-4.75a50.12,50.12,0,0,0,8.2-11.25,37,37,0,0,0,2.55-5.5l5.25-76.5-1.35-9Q342,115.81,339.65,112.5Z" transform="translate(-104.54 -66.45)"/></g><g id="Symbol_540_0_Layer92_0_FILL" data-name="Symbol 540 0 Layer92 0 FILL"><path class="cls-3" d="M279.9,103a32.16,32.16,0,0,0-7-2.45,1.2,1.2,0,0,0-1.25.4l-.5,1.1a1.52,1.52,0,0,1-1,1,41.21,41.21,0,0,0-5.85-1.15l-36.65-4.1a39.81,39.81,0,0,0-7.6-.15l-2.15.4-.75-1-.5-1a3.57,3.57,0,0,0-.7.4,1,1,0,0,0-.55,1.1,4.4,4.4,0,0,0,1,1.6l1.2,1.4q.65.94,13.15,3a350.62,350.62,0,0,0,36.35,3.75l7.4.2a7,7,0,0,0,5.1-2.2l.25-2Z" transform="translate(-104.54 -66.45)"/></g><g id="Symbol_540_0_Layer91_0_FILL" data-name="Symbol 540 0 Layer91 0 FILL"><path class="cls-4" d="M224.4,79.7v-.2l-26.25-1q-20.4-.45-26.25-.25L150.4,79l0,.1,14.8,1.3L176.4,82a11.71,11.71,0,0,1,5.3,2.3,6.47,6.47,0,0,1,1.45,1.7l-2.25,1a7.7,7.7,0,0,0-2.2,3.15,10.61,10.61,0,0,0-1,4.1v.4l9.5.35,20,2.25L217.4,93.7l.9-5.4.6-2.55h.25a8.67,8.67,0,0,1,1.75-4A18.74,18.74,0,0,1,224.4,79.7Z" transform="translate(-104.54 -66.45)"/></g><g id="Symbol_540_0_Layer90_0_FILL" data-name="Symbol 540 0 Layer90 0 FILL"><path class="cls-5" d="M286.85,90.7c-.47-.1-1.3.45-2.5,1.65a12.65,12.65,0,0,0-2.05,2.45l-.7-.2.65.2L281.6,96,280,103l-.05,0v.3l-.25,2a7,7,0,0,1-5.1,2.2l-7.4-.2a350.62,350.62,0,0,1-36.35-3.75q-12.5-2.06-13.15-3l-1.2-1.4a4.4,4.4,0,0,1-1-1.6,1,1,0,0,1,.55-1.1,3.57,3.57,0,0,1,.7-.4l.5,1a39.31,39.31,0,0,1,.9-7.2l.85-4h.25a9.32,9.32,0,0,1,1.45-3.6l-.95.35-7,7c.1-.53-.1-.82-.6-.85l-1.4.1L183.15,86a4.41,4.41,0,0,0-1.3-1.6A11.21,11.21,0,0,0,176.4,82l-15.2-2.1-17.3-.65a37.27,37.27,0,0,0-9.1,2.8,43.1,43.1,0,0,0-17.15,12.7,34.63,34.63,0,0,0-4.25,8.3,36.3,36.3,0,0,0-2,6.2l.25,1.25-1,.75q-1.5,12.25-2.55,30.55a514,514,0,0,0,.05,66.95l.25,1.35c.2.93.42,1.47.65,1.6l-.15.3a2.89,2.89,0,0,0-.15,1l.4,3.9c.3,2.13.68,3.43,1.15,3.9l2.6,2.8a15.3,15.3,0,0,0,7,2.9l7.6.9a46,46,0,0,0,9.4.2l14.95-4.4L155,223,201.6,229l45.6,6.15,48.1,2.95,4.05-.35a30.89,30.89,0,0,0,7.15-1.45,17.63,17.63,0,0,0,10.6-10.05q2.44-5.7,4.7-31.85a416.75,416.75,0,0,0,1.1-57.9,115.35,115.35,0,0,0-1.35-13.2,19.31,19.31,0,0,0-4.9-9.3Q312.71,110,297.3,98.4l-5-3.85A47,47,0,0,0,286.85,90.7Z" transform="translate(-104.54 -66.45)"/></g><g id="Symbol_540_0_Layer89_0_FILL" data-name="Symbol 540 0 Layer89 0 FILL"><path class="cls-6" d="M178.7,90.15A7.7,7.7,0,0,1,180.9,87l2.25-1a6.47,6.47,0,0,0-1.45-1.7,11.71,11.71,0,0,0-5.3-2.3l-15.2-2.1-17.3-.65a37.27,37.27,0,0,0-9.1,2.8,43.1,43.1,0,0,0-17.15,12.7,34.63,34.63,0,0,0-4.25,8.3,36.3,36.3,0,0,0-2,6.2l.25,1.25-1,.75q-1.5,12.25-2.55,30.55a514,514,0,0,0,.05,66.95l.25,1.35c.2.93.42,1.47.65,1.6l-.15.3a2.89,2.89,0,0,0-.15,1l.4,3.9c.3,2.13.68,3.43,1.15,3.9l2.6,2.8a15.3,15.3,0,0,0,7,2.9l7.6.9a46,46,0,0,0,9.4.2l14.95-4.4L155,223l4,.45a32.35,32.35,0,0,1-.3-6.25l.25-2.65,14-70.75a16.31,16.31,0,0,0-4.25-13.25,10.31,10.31,0,0,1-2.3-4.45,9.56,9.56,0,0,1-.2-4.3q.34-1.6,3.15-5.85a54.92,54.92,0,0,1,4.85-6.4,18.12,18.12,0,0,0,3-4.5,8.43,8.43,0,0,0,1-3q-.5-5.5-.5-7.75A10.61,10.61,0,0,1,178.7,90.15Z" transform="translate(-104.54 -66.45)"/></g><g id="Symbol_540_0_Layer88_0_FILL" data-name="Symbol 540 0 Layer88 0 FILL"><path class="cls-7" d="M221.45,77.2l-13.55-1q-7.91-.3-13.55,0c-3.73.2-5.62.52-5.65.95s1.82.88,5.55,1.35l13.55,1q7.9.3,13.55,0c3.73-.17,5.62-.48,5.65-1S225.15,77.67,221.45,77.2Z" transform="translate(-104.54 -66.45)"/></g><g id="Symbol_540_0_Layer87_0_FILL" data-name="Symbol 540 0 Layer87 0 FILL"><path d="M221.25,82.45l-14-1.1q-8.15-.34-14.05,0c-3.87.23-5.8.62-5.8,1.15s1.88,1.12,5.75,1.65l13.95,1.1q8.21.34,14,0t5.85-1.2C227,83.52,225.08,83,221.25,82.45Z" transform="translate(-104.54 -66.45)"/></g><g id="Symbol_540_0_Layer86_0_FILL" data-name="Symbol 540 0 Layer86 0 FILL"><path class="cls-8" d="M189.7,79.8l-.15-6.45a11.3,11.3,0,0,0-4-3.1l-2.3-.9-12.6-.4a11.43,11.43,0,0,0-5.85,2.65l-1.7,2.05-.15,5.6A67.56,67.56,0,0,0,181,80.6Z" transform="translate(-104.54 -66.45)"/></g><g id="Symbol_540_0_Layer85_0_FILL" data-name="Symbol 540 0 Layer85 0 FILL"><path class="cls-9" d="M189.55,74.55v-1.2a11.3,11.3,0,0,0-4-3.1l-2.3-.9-12.6-.4a11.43,11.43,0,0,0-5.85,2.65l-1.7,2.05v.4a72,72,0,0,0,16.25,1.3Z" transform="translate(-104.54 -66.45)"/></g><g id="Symbol_540_0_Layer84_0_FILL" data-name="Symbol 540 0 Layer84 0 FILL"><path class="cls-10" d="M170.65,69a11.36,11.36,0,0,0-3.1.9,26.57,26.57,0,0,0,9.65,1.4,30.51,30.51,0,0,0,8.35-1l-1.65-.7-.65-.2Z" transform="translate(-104.54 -66.45)"/></g><g id="Symbol_540_0_Layer83_0_FILL" data-name="Symbol 540 0 Layer83 0 FILL"><path class="cls-11" d="M227.2,84q.7-5.15-.2-5.4c0,.47-1.92.78-5.65,1s-8.28.15-13.55,0l-13.55-1q-5.59-.7-5.55-1.35l.2-.2a.56.56,0,0,0-.5.6l-.35,5.4a30.12,30.12,0,0,0,6.9,1.3l12.15.85q8.29.3,14.05,0T227,84Z" transform="translate(-104.54 -66.45)"/></g><g id="Symbol_540_0_Layer82_0_FILL" data-name="Symbol 540 0 Layer82 0 FILL"><path d="M162.05,88.15c0-2.57-1.88-4.38-5.65-5.45s-8.32-1.08-13.65,0a36.36,36.36,0,0,0-13.65,5.5q-5.66,3.9-5.65,7.75c0,2.57,1.88,4.38,5.65,5.45s8.32,1.12,13.65.05a36.36,36.36,0,0,0,13.65-5.5Q162.05,92,162.05,88.15Z" transform="translate(-104.54 -66.45)"/></g><g id="Symbol_540_0_Layer81_0_FILL" data-name="Symbol 540 0 Layer81 0 FILL"><path class="cls-12" d="M159.1,84.25l-.65-.5-31.8,8.7L124,93.6l-.4.45-.3.4.75,3.65c1.1,1.83,3.37,3.07,6.8,3.7l11.9-.4a41.27,41.27,0,0,0,10.4-3.55,22.79,22.79,0,0,0,7-5.25,29.18,29.18,0,0,0-.1-6.3A4.71,4.71,0,0,0,159.1,84.25Z" transform="translate(-104.54 -66.45)"/></g><path id="Symbol_540_0_Layer80_0_1_STROKES" data-name="Symbol 540 0 Layer80 0 1 STROKES" class="cls-13" d="M151,85.35q0,1.75-2.8,3.55a19.33,19.33,0,0,1-6.85,2.45,16.7,16.7,0,0,1-6.85,0c-1.87-.5-2.8-1.33-2.8-2.5s.93-2.33,2.8-3.5a18.8,18.8,0,0,1,6.85-2.5,15.72,15.72,0,0,1,6.85,0C150,83.35,151,84.18,151,85.35Z" transform="translate(-104.54 -66.45)"/><g id="Symbol_540_0_Layer79_0_FILL" data-name="Symbol 540 0 Layer79 0 FILL"><path class="cls-14" d="M160.05,86.3c0-2.53-1.8-4.32-5.4-5.35s-7.93-1-13,0a35.29,35.29,0,0,0-13,5.35q-5.36,3.8-5.35,7.6c0,2.53,1.78,4.32,5.35,5.35s7.93,1.07,13,0a34.15,34.15,0,0,0,13-5.35Q160.05,90.11,160.05,86.3Z" transform="translate(-104.54 -66.45)"/></g><g id="Symbol_540_0_Layer78_0_FILL" data-name="Symbol 540 0 Layer78 0 FILL"><path class="cls-15" d="M160,86q-.25,3.75-5.55,7.4a35.17,35.17,0,0,1-12.8,5.2q-7.4,1.55-12.75.05c-3.57-1-5.43-2.67-5.6-5.1v.35c0,2.53,1.78,4.32,5.35,5.35s7.93,1.07,13,0a34.15,34.15,0,0,0,13-5.35q5.4-3.8,5.4-7.6Z" transform="translate(-104.54 -66.45)"/></g><g id="Symbol_540_0_Layer77_0_FILL" data-name="Symbol 540 0 Layer77 0 FILL"><path class="cls-16" d="M145.55,93.45l-.3-.2-4.45,1.4-3.3.15-4.3-.25a11.74,11.74,0,0,1-2.85-1l-.25,2.65a9.15,9.15,0,0,0,1,4.6l1.7.5a22.32,22.32,0,0,0,6.05.1,22.76,22.76,0,0,0,5.55-2.75,5.87,5.87,0,0,1,.75-4Q145.75,93.79,145.55,93.45Z" transform="translate(-104.54 -66.45)"/></g><g id="Symbol_540_0_Layer76_0_FILL" data-name="Symbol 540 0 Layer76 0 FILL"><path class="cls-17" d="M145.25,93.25a43.87,43.87,0,0,1-8.2,0L131,92.9a1.05,1.05,0,0,0-.75.65l-.1.45.1.2.1-.65a11.74,11.74,0,0,0,2.85,1l4.3.25,3.3-.15Z" transform="translate(-104.54 -66.45)"/></g><g id="Symbol_540_0_Layer75_0_FILL" data-name="Symbol 540 0 Layer75 0 FILL"><path d="M151.4,85.3c-.2-1.2-1.25-2-3.15-2.5a15.58,15.58,0,0,0-6.9,0,20.1,20.1,0,0,0-7.1,2.8c-2,1.33-2.95,2.67-2.95,4l0,.3c0-1.33,1-2.67,3-4a20.6,20.6,0,0,1,7.15-2.8,16.11,16.11,0,0,1,6.65-.1Q150.85,83.65,151.4,85.3Z" transform="translate(-104.54 -66.45)"/></g><g id="Symbol_540_0_Layer74_0_FILL" data-name="Symbol 540 0 Layer74 0 FILL"><path class="cls-15" d="M151.85,84.85q0-2-3.2-2.85a18.71,18.71,0,0,0-7.7,0,22.36,22.36,0,0,0-7.65,2.8c-2.13,1.33-3.2,2.67-3.2,4a2.45,2.45,0,0,0,1.15,2,2.31,2.31,0,0,1-.55-1.45c0-1.33,1-2.67,3.1-4a21.82,21.82,0,0,1,7.5-2.8,17.18,17.18,0,0,1,7.25,0c2,.5,3.12,1.37,3.25,2.6Z" transform="translate(-104.54 -66.45)"/></g><g id="Symbol_540_0_Layer73_0_FILL" data-name="Symbol 540 0 Layer73 0 FILL"><path d="M151.5,86q-.15,2-3.05,3.85a18.83,18.83,0,0,1-7,2.75,16,16,0,0,1-7,0c-1.93-.53-2.95-1.43-3-2.7l-.05.2c0,1.33,1,2.27,3,2.8a15.07,15.07,0,0,0,7.15,0,19.32,19.32,0,0,0,7.15-2.8c2-1.33,3-2.67,3-4Z" transform="translate(-104.54 -66.45)"/></g><g id="Symbol_540_0_Layer72_0_FILL" data-name="Symbol 540 0 Layer72 0 FILL"><path class="cls-18" d="M147.65,90.3a9.83,9.83,0,0,0,3.45-2.85,3.88,3.88,0,0,0,.05-3.4q-1.16-1-4.35-1.2a25.52,25.52,0,0,0-7.35.6,12.36,12.36,0,0,0-6.1,3.35,10.07,10.07,0,0,0-2,2.4q0,3.26,4.55,3.85l4.55-.1A23,23,0,0,0,147.65,90.3Z" transform="translate(-104.54 -66.45)"/></g><g id="Symbol_540_0_Layer71_0_FILL" data-name="Symbol 540 0 Layer71 0 FILL"><path class="cls-19" d="M151.55,85.2c0-1.33-1-2.27-3-2.8a16.17,16.17,0,0,0-7.15,0,20.6,20.6,0,0,0-7.15,2.8c-2,1.33-3,2.67-3,4s1,2.28,3,2.85a15.07,15.07,0,0,0,7.15,0,20.14,20.14,0,0,0,7.15-2.8Q151.56,87.2,151.55,85.2Z" transform="translate(-104.54 -66.45)"/></g><g id="Symbol_540_0_Layer70_0_FILL" data-name="Symbol 540 0 Layer70 0 FILL"><path class="cls-15" d="M151.55,85.2a1.91,1.91,0,0,0-.4-1.15l.15.75c0,1.33-1,2.67-3,4a18.87,18.87,0,0,1-7.1,2.8l-6.2.2c-1.8-.3-3-.92-3.55-1.85.4,1.07,1.53,1.8,3.4,2.2a16.7,16.7,0,0,0,6.55-.1,20.14,20.14,0,0,0,7.15-2.8Q151.56,87.2,151.55,85.2Z" transform="translate(-104.54 -66.45)"/></g><g id="Symbol_540_0_Layer69_0_FILL" data-name="Symbol 540 0 Layer69 0 FILL"><path class="cls-20" d="M282.25,94.8l-.1,0a163.49,163.49,0,0,0-21-4.75l-23.7-2.85L221.4,86l-1.6.2c-.47.07-.75.2-.85.4l.2-.85h-.25l-.85,4a39.31,39.31,0,0,0-.9,7.2l.75,1,2.15-.4a39.81,39.81,0,0,1,7.6.15l36.65,4.1a41.21,41.21,0,0,1,5.85,1.15,1.52,1.52,0,0,0,1-1l.5-1.1a1.2,1.2,0,0,1,1.25-.4A33,33,0,0,1,280,103l1.65-7Z" transform="translate(-104.54 -66.45)"/></g><g id="Symbol_540_0_Layer68_0_FILL" data-name="Symbol 540 0 Layer68 0 FILL"><path class="cls-21" d="M308.9,87.75l-.95-1.3-1.3-1.7-.85-1.45-.9-1q-9.15-6.15-24.45-9.35a86.65,86.65,0,0,0-27.8-1.65A89.2,89.2,0,0,0,231,76.8q-8.35,3.26-10,5l-.35.45-.4.65-.05.15-.15.3-.2.5-.05.1-.15.45-.05.1-.25.85v0L219,86.6c.1-.2.38-.33.85-.4l1.6-.2,16,1.15L261.15,90a156.58,156.58,0,0,1,19,4.15l1.95.55.25.1a12.65,12.65,0,0,1,2.05-2.45c1.2-1.2,2-1.75,2.5-1.65l3-2.2a17.26,17.26,0,0,1,12.55-2.6,15,15,0,0,1,5.45,1.85l1.2.8Z" transform="translate(-104.54 -66.45)"/></g><g id="Symbol_540_0_Layer67_0_FILL" data-name="Symbol 540 0 Layer67 0 FILL"><path class="cls-22" d="M304.85,82.25q-9.11-6.15-24.4-9.3a87.63,87.63,0,0,0-27.8-1.7A89.2,89.2,0,0,0,231,76.8q-8.35,3.26-10,5l-.35.45-.4.65-.05.15-.15.3-.2.5v0a461.19,461.19,0,0,1,48.55,4.4,25,25,0,0,0,8.2,0,128.87,128.87,0,0,0,12.3-4A38.7,38.7,0,0,1,304.85,82.25Z" transform="translate(-104.54 -66.45)"/></g><path id="Symbol_540_0_Layer66_0_1_STROKES" data-name="Symbol 540 0 Layer66 0 1 STROKES" class="cls-13" d="M129.75,112.65l-11.1-.9a26.48,26.48,0,0,1-7.1-1.4" transform="translate(-104.54 -66.45)"/><path id="Symbol_540_0_Layer65_0_1_STROKES" data-name="Symbol 540 0 Layer65 0 1 STROKES" class="cls-23" d="M129.75,112.35l-11.1-.9a25.74,25.74,0,0,1-7.1-1.35" transform="translate(-104.54 -66.45)"/><g id="Symbol_540_0_Layer64_0_FILL" data-name="Symbol 540 0 Layer64 0 FILL"><path class="cls-24" d="M178.15,102q-.35-4.05-.35-6.3l-8.25,2.15-10.15,2.9-13.3,4.3q-9.85,3.35-12.7,4.7-3.6,1.69-8.15,7.45-5,6.35-5.35,11-3.6,34.09-2.65,60.15.7,19.35,3.15,25.85c.93,2.53,2.92,4.08,5.95,4.65l6.55.35a50.42,50.42,0,0,0,10.95-1.4l6.8-1.6,8.25-1.75,14-70.75a16.31,16.31,0,0,0-4.25-13.25,10.31,10.31,0,0,1-2.3-4.45,9.56,9.56,0,0,1-.2-4.3q.34-1.6,3.15-5.85a54.92,54.92,0,0,1,4.85-6.4,18.12,18.12,0,0,0,3-4.5A8.43,8.43,0,0,0,178.15,102Z" transform="translate(-104.54 -66.45)"/></g><g id="Symbol_540_0_Layer63_0_FILL" data-name="Symbol 540 0 Layer63 0 FILL"><path class="cls-25" d="M151.55,85.2l-.2-.9c-.07,1.33-1.08,2.65-3,4A19.36,19.36,0,0,1,141.25,91l-6.45.2q-2.75-.56-3.45-2.1v.1c0,1.33,1,2.28,3,2.85a15.07,15.07,0,0,0,7.15,0,20.14,20.14,0,0,0,7.15-2.8Q151.56,87.2,151.55,85.2Z" transform="translate(-104.54 -66.45)"/></g><g id="Symbol_540_0_Layer62_0_FILL" data-name="Symbol 540 0 Layer62 0 FILL"><path class="cls-26" d="M287.3,91.1l-.3.4q24.35,17.75,29.5,23.1a18.57,18.57,0,0,1,4.65,8.85,125.09,125.09,0,0,1,1.3,13q.56,9,.55,19.7A429.13,429.13,0,0,1,320.6,202q-.94,9-2.05,15.8a42,42,0,0,1-1.8,8L316,227.3a18.15,18.15,0,0,1-3.1,4.65,17.09,17.09,0,0,0,4.25-6.1,42,42,0,0,0,1.8-8q1.16-6.79,2.1-15.8a445,445,0,0,0,2.35-45.75q0-10.35-.5-19.7a125.09,125.09,0,0,0-1.3-13,18.31,18.31,0,0,0-4.7-8.85q-3.19-3.35-15.8-13L287.25,91.5l.2-.25Z" transform="translate(-104.54 -66.45)"/></g><g id="Symbol_540_0_Layer61_0_FILL" data-name="Symbol 540 0 Layer61 0 FILL"><path class="cls-27" d="M287.35,91.45l14,10.4q12.34,9.41,15.5,12.7a18.54,18.54,0,0,1,4.65,8.8,125.69,125.69,0,0,1,1.35,13.05q.5,9.34.5,19.75A445.86,445.86,0,0,1,321,201.9q-.94,9-2.1,15.8a42,42,0,0,1-1.8,8l-.75,1.55a18.15,18.15,0,0,1-3.1,4.65,18.25,18.25,0,0,0,4.3-6.1,43.3,43.3,0,0,0,1.8-8q1.15-6.9,2-15.85a444.45,444.45,0,0,0,2.35-45.7q0-10.4-.5-19.75a125.09,125.09,0,0,0-1.3-13,18.54,18.54,0,0,0-4.65-8.8q-3.19-3.34-15.85-13-7.35-5.6-13.85-10.3h0l.15-.25-.15-.1Z" transform="translate(-104.54 -66.45)"/></g><g id="Symbol_540_0_Layer60_0_FILL" data-name="Symbol 540 0 Layer60 0 FILL"><path class="cls-28" d="M286.85,90.7c-.47-.1-1.3.45-2.5,1.65a12.65,12.65,0,0,0-2.05,2.45l-.5-.15.45.15-.2.35.1.1,20,14.5,3.75,4.75a26.23,26.23,0,0,1,3.75,13.75q0,11.15-1.45,47.05-1.54,38.7-2.55,44.45a18.06,18.06,0,0,1-3.55,8.45l-2.45,2.05L298,237.9a38.29,38.29,0,0,0,8.5-1.6,17.63,17.63,0,0,0,10.6-10.05q2.44-5.7,4.7-31.85a416.75,416.75,0,0,0,1.1-57.9,115.35,115.35,0,0,0-1.35-13.2,19.31,19.31,0,0,0-4.9-9.3Q312.71,110,297.3,98.4l-5-3.85A47,47,0,0,0,286.85,90.7Z" transform="translate(-104.54 -66.45)"/></g><g id="Symbol_540_0_Layer59_0_FILL" data-name="Symbol 540 0 Layer59 0 FILL"><path class="cls-29" d="M192.25,99l-.25-.7a1.13,1.13,0,0,0-.85-.45,4,4,0,0,0-2.25.5,7.64,7.64,0,0,0-2.3,1.6,10.3,10.3,0,0,0-1.75,2.5,6.66,6.66,0,0,0-.65,2.9,3.58,3.58,0,0,0,.65,2.3,2.82,2.82,0,0,0,2,1.05l2.05-.15,1.25-.6.15-.15-.15-.25h-.05l-.15,0-.15.1-1.75.65h-1l-1-.35-.75-.7-.4-.85-.15-.9a6.72,6.72,0,0,1,.6-2.75,10.85,10.85,0,0,1,1.5-2.45,9.29,9.29,0,0,1,2-1.65,3.49,3.49,0,0,1,2.05-.5l.65.25.2.4c0,.33-.3.7-.9,1.1l-1.65.75-.25.25-.15.6h0l.2,0,1.35-.5,1.25-1A1.59,1.59,0,0,0,192.25,99Z" transform="translate(-104.54 -66.45)"/></g><g id="Symbol_540_0_Layer58_0_FILL" data-name="Symbol 540 0 Layer58 0 FILL"><path class="cls-29" d="M193.8,105.6l-.3-.1a1.81,1.81,0,0,0-1.3.4l-.8,1.1a2.42,2.42,0,0,0-.3,1l.2.6.5.3a1,1,0,0,0,.7-.3l.95-1.1-.1.45,0,.55.15.4.35.2.45-.15.7-.7.1-.15-.05-.1-.1,0-.85.6-.15-.25.8-2.45v-.15l0-.1-.3,0-.15,0-.1.1-1,1.85c-.37.57-.7.82-1,.75l-.2,0-.1-.35.2-1a3.14,3.14,0,0,1,.55-.95.84.84,0,0,1,.75-.35l.3.1a.19.19,0,0,1,.2.15l.15-.35Z" transform="translate(-104.54 -66.45)"/></g><g id="Symbol_540_0_Layer57_0_FILL" data-name="Symbol 540 0 Layer57 0 FILL"><path class="cls-29" d="M197.05,105.9h-.15l-.4,0-.2.3-.7,3,.05.1.3.05.2-.15c1-2,1.63-3,1.9-3a.24.24,0,0,1,.2.25l-.2.9-.45,1.3-.25.65.05.1.1,0,.35,0,.25-.15,1.65-2.8.15-.05c.07-.07.12-.08.15,0l.15.15-.55,2-.1.65.15.35.35.15.7-.35.65-.6,0-.15,0,0-.1-.05v.05h-.05l-.9.7-.1-.15.5-2.1-.15-.55-.45-.35-.7.5-1.15,1.8.35-1,0-.8-.1-.4-.35-.25-.75.45-1,1.5.5-1.85.05-.1Z" transform="translate(-104.54 -66.45)"/></g><g id="Symbol_540_0_Layer56_0_FILL" data-name="Symbol 540 0 Layer56 0 FILL"><path class="cls-29" d="M204.45,106.85l-.5-.25-.75.15-.75.6-.55.8-.2.9a.87.87,0,0,0,.9,1l1-.1,1-.85-.05-.1-.05,0-.15,0-.75.55-.4.2h-.3a.48.48,0,0,1-.4-.2l-.1-.35,1.55-.75.6-.45.15-.6a.76.76,0,0,0-.2-.55m-.75.05.2.1.1.25a1.55,1.55,0,0,1-.7,1l-1,.75a7,7,0,0,1,.65-1.35Q203.4,106.86,203.7,106.9Z" transform="translate(-104.54 -66.45)"/></g><g id="Symbol_540_0_Layer55_0_FILL" data-name="Symbol 540 0 Layer55 0 FILL"><path class="cls-29" d="M207.6,107a.29.29,0,0,0-.4.15l-.55.85-.5.85.5-1.8,0,0,0,0v0l-.4.1-.35.15v.15l-.65,2.75.05.2.45,0,.1-.1.85-1.75.4-.6a.3.3,0,0,1,.25-.15l.05.1,0,0-.25.8.05,0v0l.6-.3.1-.65C208,107.27,207.83,107,207.6,107Z" transform="translate(-104.54 -66.45)"/></g><g id="Symbol_540_0_Layer54_0_FILL" data-name="Symbol 540 0 Layer54 0 FILL"><path class="cls-29" d="M211.9,107.8v-.15l-.05-.1-.25,0-.15,0-.1.1-1,1.8c-.33.6-.67.87-1,.8l-.2-.1-.1-.3.2-.95a3.14,3.14,0,0,1,.55-1,.84.84,0,0,1,.75-.35l.3.05.2.2.15-.35-.15-.1-.3-.1a1.81,1.81,0,0,0-1.3.4,2.93,2.93,0,0,0-.8,1,3,3,0,0,0-.3,1.1l.2.6.5.3.65-.3,1-1.1-.1.45,0,.55.15.4.3.2.45-.15.75-.7.1-.15-.05-.1-.1.05c-.4.43-.68.62-.85.55s-.15-.07-.15-.2Z" transform="translate(-104.54 -66.45)"/></g><path id="Symbol_540_0_Layer53_0_1_STROKES" data-name="Symbol 540 0 Layer53 0 1 STROKES" class="cls-13" d="M298.75,115.9a8.86,8.86,0,0,1,3.25,6.65,10.56,10.56,0,0,1-9.25,11,8.92,8.92,0,0,1-7.1-2,8.71,8.71,0,0,1-3.25-6.6,10.16,10.16,0,0,1,2.45-7.35,10.27,10.27,0,0,1,6.8-3.75A8.92,8.92,0,0,1,298.75,115.9Z" transform="translate(-104.54 -66.45)"/><g id="Symbol_540_0_Layer52_0_FILL" data-name="Symbol 540 0 Layer52 0 FILL"><path class="cls-30" d="M286.75,115.85l-.55.6a9.9,9.9,0,0,0-2.5,7.3A8.86,8.86,0,0,0,287,130.4a9.07,9.07,0,0,0,5.95,2.1,10,10,0,0,0,6.1-2.05l.55-.55a10.16,10.16,0,0,0,2.45-7.35,9.05,9.05,0,0,0-9.15-8.75A10,10,0,0,0,286.75,115.85Z" transform="translate(-104.54 -66.45)"/></g><path id="Symbol_540_0_Layer51_0_1_STROKES" data-name="Symbol 540 0 Layer51 0 1 STROKES" class="cls-13" d="M298.75,115.9a8.86,8.86,0,0,1,3.25,6.65,10.56,10.56,0,0,1-9.25,11,8.92,8.92,0,0,1-7.1-2,8.71,8.71,0,0,1-3.25-6.6,10.16,10.16,0,0,1,2.45-7.35,10.27,10.27,0,0,1,6.8-3.75A8.92,8.92,0,0,1,298.75,115.9Z" transform="translate(-104.54 -66.45)"/><path id="Symbol_540_0_Layer50_0_1_STROKES" data-name="Symbol 540 0 Layer50 0 1 STROKES" class="cls-31" d="M299.1,116.85a7.42,7.42,0,0,1,2.65,5.25,7.83,7.83,0,0,1-1.9,5.7,7.61,7.61,0,0,1-5.25,2.85,7.46,7.46,0,0,1-8.25-7,8,8,0,0,1,7.15-8.5A7.28,7.28,0,0,1,299.1,116.85Z" transform="translate(-104.54 -66.45)"/><g id="Symbol_540_0_Layer49_0_FILL" data-name="Symbol 540 0 Layer49 0 FILL"><path class="cls-32" d="M289.7,116.6l-.5.6a7.63,7.63,0,0,0-1.85,5.7,7,7,0,0,0,2.65,5.2,7.09,7.09,0,0,0,4.6,1.7,7.73,7.73,0,0,0,4.75-1.45l.5-.55a7.83,7.83,0,0,0,1.9-5.7,7.42,7.42,0,0,0-2.65-5.25,7.28,7.28,0,0,0-4.65-1.7A7.87,7.87,0,0,0,289.7,116.6Z" transform="translate(-104.54 -66.45)"/></g><g id="Symbol_540_0_Layer48_0_FILL" data-name="Symbol 540 0 Layer48 0 FILL"><path class="cls-33" d="M289.7,116.6l-1.5,1.4a7.63,7.63,0,0,0-1.85,5.7A7,7,0,0,0,289,129a7.28,7.28,0,0,0,5.25,1.75,7.74,7.74,0,0,0,5.1-2.35,7.73,7.73,0,0,1-4.75,1.45,7.09,7.09,0,0,1-4.6-1.7,7,7,0,0,1-2.65-5.2,7.63,7.63,0,0,1,1.85-5.7Z" transform="translate(-104.54 -66.45)"/></g><g id="Symbol_540_0_Layer47_0_FILL" data-name="Symbol 540 0 Layer47 0 FILL"><path d="M286.75,115.85l-1.9,1.75A10.16,10.16,0,0,0,282.4,125a8.71,8.71,0,0,0,3.25,6.6,8.84,8.84,0,0,0,6.75,2.1,10.17,10.17,0,0,0,6.6-3.2,10,10,0,0,1-6.1,2.05,9.07,9.07,0,0,1-5.95-2.1,8.86,8.86,0,0,1-3.25-6.65,9.9,9.9,0,0,1,2.5-7.3Z" transform="translate(-104.54 -66.45)"/></g><path id="Symbol_540_0_Layer46_0_1_STROKES" data-name="Symbol 540 0 Layer46 0 1 STROKES" class="cls-13" d="M298.75,115.9a8.86,8.86,0,0,1,3.25,6.65,10.56,10.56,0,0,1-9.25,11,8.92,8.92,0,0,1-7.1-2,8.71,8.71,0,0,1-3.25-6.6,10.16,10.16,0,0,1,2.45-7.35,10.27,10.27,0,0,1,6.8-3.75A8.92,8.92,0,0,1,298.75,115.9Z" transform="translate(-104.54 -66.45)"/><g id="Symbol_540_0_Layer45_0_FILL" data-name="Symbol 540 0 Layer45 0 FILL"><path class="cls-15" d="M298.9,115.65l-.15-.15a9.36,9.36,0,0,0-7.55-2.2,10.93,10.93,0,0,0-7.25,4,11.08,11.08,0,0,0-2.65,8,9.69,9.69,0,0,0,3.5,7.15,9.46,9.46,0,0,0,7.55,2.25,10.93,10.93,0,0,0,7.25-4,11.61,11.61,0,0,0,2.45-5.2,10.81,10.81,0,0,1-2.35,4.8,10.33,10.33,0,0,1-6.95,3.9,9.11,9.11,0,0,1-7.3-2.15,9.38,9.38,0,0,1-3.4-6.9,10.88,10.88,0,0,1,2.6-7.65,10.18,10.18,0,0,1,7-3.9A8.94,8.94,0,0,1,298.9,115.65Z" transform="translate(-104.54 -66.45)"/></g><g id="Symbol_540_0_Layer44_0_FILL" data-name="Symbol 540 0 Layer44 0 FILL"><path class="cls-34" d="M289.7,116.6l-.5.6a7.87,7.87,0,0,0-1.9,5.25l8.1.8,6.35-.5a7.06,7.06,0,0,0-2.65-5.9,7.28,7.28,0,0,0-4.65-1.7A7.87,7.87,0,0,0,289.7,116.6Z" transform="translate(-104.54 -66.45)"/></g><g id="Symbol_540_0_Layer43_0_FILL" data-name="Symbol 540 0 Layer43 0 FILL"><path class="cls-35" d="M289.7,116.6l-.5.6a7.63,7.63,0,0,0-1.85,5.7,7,7,0,0,0,2.65,5.2,7.09,7.09,0,0,0,4.6,1.7,7.73,7.73,0,0,0,4.75-1.45l.5-.55a7.83,7.83,0,0,0,1.9-5.7,7.42,7.42,0,0,0-2.65-5.25,7.28,7.28,0,0,0-4.65-1.7A7.87,7.87,0,0,0,289.7,116.6Z" transform="translate(-104.54 -66.45)"/></g><path id="Symbol_540_0_Layer43_0_1_STROKES" data-name="Symbol 540 0 Layer43 0 1 STROKES" class="cls-31" d="M289.2,117.2a7.63,7.63,0,0,0-1.85,5.7,7,7,0,0,0,2.65,5.2,7.09,7.09,0,0,0,4.6,1.7,7.73,7.73,0,0,0,4.75-1.45l.5-.55a7.83,7.83,0,0,0,1.9-5.7,7.42,7.42,0,0,0-2.65-5.25,7.28,7.28,0,0,0-4.65-1.7,7.87,7.87,0,0,0-4.75,1.45Z" transform="translate(-104.54 -66.45)"/><g id="Symbol_540_0_Layer42_0_FILL" data-name="Symbol 540 0 Layer42 0 FILL"><path class="cls-36" d="M292.05,117.35l-.4.4a5.63,5.63,0,0,0-1.35,4.1,5.17,5.17,0,0,0,1.9,3.7,5.31,5.31,0,0,0,3.35,1.25,5.71,5.71,0,0,0,3.35-1l.35-.4a5.63,5.63,0,0,0,1.35-4.1,5.05,5.05,0,0,0-1.9-3.7,4.9,4.9,0,0,0-3.3-1.2A5.47,5.47,0,0,0,292.05,117.35Z" transform="translate(-104.54 -66.45)"/></g><g id="Symbol_540_0_Layer41_0_FILL" data-name="Symbol 540 0 Layer41 0 FILL"><path class="cls-37" d="M289.7,116.6l-.5.6a7.63,7.63,0,0,0-1.85,5.7,7,7,0,0,0,2.65,5.2,7.09,7.09,0,0,0,4.6,1.7,7.73,7.73,0,0,0,4.75-1.45l.5-.55a7.83,7.83,0,0,0,1.9-5.7,7.42,7.42,0,0,0-2.65-5.25,7.28,7.28,0,0,0-4.65-1.7A7.87,7.87,0,0,0,289.7,116.6Z" transform="translate(-104.54 -66.45)"/></g><path id="Symbol_540_0_Layer41_0_1_STROKES" data-name="Symbol 540 0 Layer41 0 1 STROKES" class="cls-31" d="M289.2,117.2a7.63,7.63,0,0,0-1.85,5.7,7,7,0,0,0,2.65,5.2,7.09,7.09,0,0,0,4.6,1.7,7.73,7.73,0,0,0,4.75-1.45l.5-.55a7.83,7.83,0,0,0,1.9-5.7,7.42,7.42,0,0,0-2.65-5.25,7.28,7.28,0,0,0-4.65-1.7,7.87,7.87,0,0,0-4.75,1.45Z" transform="translate(-104.54 -66.45)"/><g id="Symbol_540_0_Layer40_0_FILL" data-name="Symbol 540 0 Layer40 0 FILL"><path class="cls-38" d="M290,124.8l-.85-.9c-.3-.23-.53-.3-.7-.2s-.23.33-.2.7l.45,1.2.85,1,.7.15.2-.7Z" transform="translate(-104.54 -66.45)"/></g><g id="Symbol_540_0_Layer39_0_FILL" data-name="Symbol 540 0 Layer39 0 FILL"><path class="cls-39" d="M300,119.65,299,118.6l-1.05-.15a1,1,0,0,0-.35,1,2.81,2.81,0,0,0,.45,1.45,3,3,0,0,0,1.05,1.1l1.05.1a1,1,0,0,0,.35-1A2.81,2.81,0,0,0,300,119.65Z" transform="translate(-104.54 -66.45)"/></g><g id="Symbol_540_0_Layer38_0_FILL" data-name="Symbol 540 0 Layer38 0 FILL"><path class="cls-40" d="M251.2,144.9q-15.6-17.35-36.6-18.5t-35,14.55q-14.1,15.7-13,39.1A63.91,63.91,0,0,0,183.2,220.8q15.6,17.35,36.6,18.5t35-14.55q14.1-15.75,13-39.1A63.78,63.78,0,0,0,251.2,144.9Z" transform="translate(-104.54 -66.45)"/></g><g id="Symbol_540_0_Layer37_0_FILL" data-name="Symbol 540 0 Layer37 0 FILL"><path class="cls-41" d="M276.4,148.05l-.6-.85A61.55,61.55,0,0,0,257,127.05a48.73,48.73,0,0,0-24.85-8.65,43.06,43.06,0,0,0-17.1,2.45l.45.35a41.17,41.17,0,0,1,14.15-1.55q21,1.2,36.6,19a66.33,66.33,0,0,1,16.65,41.8,59.37,59.37,0,0,1-5.75,29.15,46.6,46.6,0,0,1-17.65,19.8v.2l4,.7c2.17.1,3.73-.25,4.7-1.05q22.8-18,23.45-46.9a76.13,76.13,0,0,0-1.9-18.45,63.91,63.91,0,0,0-2.4-8.2,7.48,7.48,0,0,0-3.65-3.95l-5.75-2.5A4,4,0,0,1,276.4,148.05Z" transform="translate(-104.54 -66.45)"/></g><g id="Symbol_540_0_Layer36_0_FILL" data-name="Symbol 540 0 Layer36 0 FILL"><path class="cls-42" d="M289.75,146.5q-2.81-6.6-9.75-13.95a62.52,62.52,0,0,0-34.85-18.75q-6.5-1.35-16.8.6-10.8,2.05-14.5,5.85l-2.2,2.2q1.95-.75,4-1.35l-.7-.25a45.09,45.09,0,0,1,23-4.7,52.21,52.21,0,0,1,26.05,8.75,63.39,63.39,0,0,1,19.6,20.5l1,1.2,1.1.2Z" transform="translate(-104.54 -66.45)"/></g><g id="Symbol_540_0_Layer35_0_FILL" data-name="Symbol 540 0 Layer35 0 FILL"><path class="cls-43" d="M269.85,220.6q14.1-16.15,13-40.15a66.33,66.33,0,0,0-16.65-41.8q-15.6-17.81-36.6-19t-35,14.95q-14.1,16.1-13,40.1a66.53,66.53,0,0,0,16.65,41.85q15.6,17.8,36.6,19T269.85,220.6Z" transform="translate(-104.54 -66.45)"/></g><g id="Symbol_540_0_Layer34_0_FILL" data-name="Symbol 540 0 Layer34 0 FILL"><path class="cls-44" d="M257.45,141.9q-15.6-17.81-36.6-19t-35,14.95q-14.1,16.1-13,40.1a66.53,66.53,0,0,0,16.65,41.85q15.6,17.8,36.6,19t35.05-15q14.1-16.15,13-40.15A66.33,66.33,0,0,0,257.45,141.9Z" transform="translate(-104.54 -66.45)"/></g><g id="Symbol_540_0_Layer33_0_FILL" data-name="Symbol 540 0 Layer33 0 FILL"><path class="cls-45" d="M257.45,141.9q-15.6-17.81-36.6-19t-35,14.95q-14.1,16.1-13,40.1a66.53,66.53,0,0,0,16.65,41.85q15.6,17.8,36.6,19t35.05-15q14.1-16.15,13-40.15A66.33,66.33,0,0,0,257.45,141.9Z" transform="translate(-104.54 -66.45)"/></g><g id="Symbol_540_0_Layer32_0_FILL" data-name="Symbol 540 0 Layer32 0 FILL"><path class="cls-6" d="M200.8,126.6a42,42,0,0,1,19.55-3.4q21,1.2,36.6,19a66.33,66.33,0,0,1,16.65,41.8,59.25,59.25,0,0,1-5.4,28.4,48.83,48.83,0,0,1-11.5,15.8,48,48,0,0,0,11.9-15.85,59.65,59.65,0,0,0,5.5-28.7,66.33,66.33,0,0,0-16.65-41.8q-15.6-17.81-36.6-19A41.64,41.64,0,0,0,200.8,126.6Z" transform="translate(-104.54 -66.45)"/></g><g id="Symbol_540_0_Layer31_0_FILL" data-name="Symbol 540 0 Layer31 0 FILL"><path class="cls-46" d="M288.65,211.15a11.54,11.54,0,0,0-2.25,2.5,68.36,68.36,0,0,1-4.4,5.8,40.59,40.59,0,0,1-11.45,9l3.7,3a26.06,26.06,0,0,0,4.75,3.1,17.22,17.22,0,0,0,5.25,1.35,14,14,0,0,0,7.9-1.95,12.41,12.41,0,0,0,5.7-6.35,9,9,0,0,0,.4-6.15q-.86-2.75-6.35-11.45l-.15.2-1.4.35A4.51,4.51,0,0,0,288.65,211.15Z" transform="translate(-104.54 -66.45)"/></g><g id="Symbol_540_0_Layer30_0_FILL" data-name="Symbol 540 0 Layer30 0 FILL"><path class="cls-47" d="M288.4,211.4a10.56,10.56,0,0,0-2,2.25,68.36,68.36,0,0,1-4.4,5.8,40.59,40.59,0,0,1-11.45,9l3.7,3a26.06,26.06,0,0,0,4.75,3.1,16.45,16.45,0,0,0,6.15,1.4l3-1.35a12.42,12.42,0,0,0,5.7-6.3,9.17,9.17,0,0,0,.4-6.2Q293.46,219.55,288.4,211.4Z" transform="translate(-104.54 -66.45)"/></g><g id="Symbol_540_0_Layer29_0_FILL" data-name="Symbol 540 0 Layer29 0 FILL"><path class="cls-48" d="M285.75,146.8l-1.1-.2-1-1.2a63.39,63.39,0,0,0-19.6-20.5A52.21,52.21,0,0,0,238,116.15a45.09,45.09,0,0,0-23,4.7h.05a42.74,42.74,0,0,1,17-2.45A48.73,48.73,0,0,1,257,127.05,61.55,61.55,0,0,1,275.8,147.2l.6.85a4,4,0,0,0,1.5,1.2l5.75,2.5a7.48,7.48,0,0,1,3.65,3.95,63.91,63.91,0,0,1,2.4,8.2,76.13,76.13,0,0,1,1.9,18.45q-.64,28.85-23.45,46.9l-1.35.7.2.05a38.78,38.78,0,0,0,14.1-9.6,48.08,48.08,0,0,0,5.3-6.75,11.54,11.54,0,0,1,2.25-2.5,4.51,4.51,0,0,1,1.7-.65l1.4-.35a41.09,41.09,0,0,0,4.9-10,60.18,60.18,0,0,0,2.75-9.75,68.42,68.42,0,0,0-.2-24.4q-1.69-10-3.85-13.95a15.78,15.78,0,0,0-3.4-3.9l-2.2-1.65Z" transform="translate(-104.54 -66.45)"/></g><path id="Symbol_540_0_Layer28_0_1_STROKES" data-name="Symbol 540 0 Layer28 0 1 STROKES" class="cls-49" d="M214.6,126.4q-21-1.16-35,14.55t-13,39.1A63.91,63.91,0,0,0,183.2,220.8q15.6,17.35,36.6,18.5t35-14.55q14.1-15.75,13-39.1A63.78,63.78,0,0,0,251.2,144.9Q235.6,127.55,214.6,126.4Z" transform="translate(-104.54 -66.45)"/><g id="Symbol_540_0_Layer27_0_FILL" data-name="Symbol 540 0 Layer27 0 FILL"><path class="cls-50" d="M252.85,143.3q-16-18-37.55-19.15t-36,15Q164.85,155.4,166,179.55a66.08,66.08,0,0,0,17.15,42.1q15.94,18,37.5,19.15t36-15.05Q271,209.51,270,185.35a65.75,65.75,0,0,0-17.1-42M214.6,126.4q21,1.16,36.6,18.5a63.78,63.78,0,0,1,16.65,40.75q1.09,23.35-13,39.1t-35,14.55q-21-1.16-36.6-18.5a63.91,63.91,0,0,1-16.65-40.75q-1.1-23.4,13-39.1T214.6,126.4Z" transform="translate(-104.54 -66.45)"/></g><g id="Symbol_540_0_Layer26_0_FILL" data-name="Symbol 540 0 Layer26 0 FILL"><path class="cls-3" d="M212.75,126.35l1.1.05q21,1.16,36.6,18.5a63.78,63.78,0,0,1,16.65,40.75q1,22.46-12.1,38-9.78,11.58-23.45,14.65,13.95-2.7,24-14.4,13.35-15.6,12.3-38.3A63.78,63.78,0,0,0,251.2,144.9q-15.6-17.35-36.6-18.5Z" transform="translate(-104.54 -66.45)"/></g><g id="Symbol_540_0_Layer25_0_FILL" data-name="Symbol 540 0 Layer25 0 FILL"><path class="cls-51" d="M248.55,147.85q-14.4-16-33.75-17.1T182.45,144.2q-12.94,14.51-11.95,36.05a58.92,58.92,0,0,0,15.35,37.6q14.4,16,33.75,17.05T252,221.5q13-14.5,12-36.1a58.61,58.61,0,0,0-15.4-37.55M214.9,132.5q18.71,1,32.6,16.6a57,57,0,0,1,14.85,36.45q1,21-11.6,35t-31.25,13q-18.65-1-32.55-16.55a57.32,57.32,0,0,1-14.9-36.5q-.95-21,11.6-35T214.9,132.5Z" transform="translate(-104.54 -66.45)"/></g><g id="Symbol_540_0_Layer24_0_FILL" data-name="Symbol 540 0 Layer24 0 FILL"><path class="cls-2" d="M214.8,130.75h-.5q19.35,1.09,33.75,17.1a58.61,58.61,0,0,1,15.4,37.55q.94,20.81-11.2,35.15-9,10.75-21.65,13.55,12.79-2.55,22-13.35,12.3-14.4,11.35-35.35a58.61,58.61,0,0,0-15.4-37.55Q234.15,131.85,214.8,130.75Z" transform="translate(-104.54 -66.45)"/></g><g id="Symbol_540_0_Layer23_0_FILL" data-name="Symbol 540 0 Layer23 0 FILL"><path class="cls-52" d="M214.9,132.5l-9.25.55L172,143.55l-17,32.9,17.6,52,30.2,14.85,43.9-18.75a43.29,43.29,0,0,0,11.95-16.65,52,52,0,0,0,3.7-22.35A57,57,0,0,0,247.5,149.1Q233.59,133.54,214.9,132.5Z" transform="translate(-104.54 -66.45)"/></g><g id="Symbol_540_0_Layer22_0_FILL" data-name="Symbol 540 0 Layer22 0 FILL"><path class="cls-2" d="M211.4,132.45l1,.05q18.71,1,32.6,16.6a57,57,0,0,1,14.85,36.45,52,52,0,0,1-3.7,22.35,43.29,43.29,0,0,1-11.95,16.65l-42.6,18.2,45.1-18.2a43.29,43.29,0,0,0,11.95-16.65,52,52,0,0,0,3.7-22.35A57,57,0,0,0,247.5,149.1q-13.91-15.56-32.6-16.6Z" transform="translate(-104.54 -66.45)"/></g><g id="Symbol_540_0_Layer21_0_FILL" data-name="Symbol 540 0 Layer21 0 FILL"><path class="cls-53" d="M277.9,149.25l6.75-2.65-1-1.2a63.39,63.39,0,0,0-19.6-20.5A52.21,52.21,0,0,0,238,116.15a45.09,45.09,0,0,0-23,4.7h.05a42.74,42.74,0,0,1,17-2.45A48.73,48.73,0,0,1,257,127.05,61.55,61.55,0,0,1,275.8,147.2l.6.85A4,4,0,0,0,277.9,149.25Z" transform="translate(-104.54 -66.45)"/></g><g id="Symbol_540_0_Layer20_0_FILL" data-name="Symbol 540 0 Layer20 0 FILL"><path class="cls-15" d="M287.05,212.75l-1,1q5,7.8,5.9,10.65a8.84,8.84,0,0,1,.05,4.5,11.42,11.42,0,0,1-2.7,5.2,11.44,11.44,0,0,0,3.55-5.65,8.73,8.73,0,0,0,.1-5Q292.1,220.75,287.05,212.75Z" transform="translate(-104.54 -66.45)"/></g><g id="Symbol_540_0_Layer19_0_FILL" data-name="Symbol 540 0 Layer19 0 FILL"><path class="cls-54" d="M211.4,132.45l1,.05q18.71,1,32.6,16.6a57,57,0,0,1,14.85,36.45,52,52,0,0,1-3.7,22.35,43.29,43.29,0,0,1-11.95,16.65h2.5a43.29,43.29,0,0,0,11.95-16.65,52,52,0,0,0,3.7-22.35A57,57,0,0,0,247.5,149.1q-13.91-15.56-32.6-16.6Z" transform="translate(-104.54 -66.45)"/></g><path id="Symbol_540_0_Layer18_0_1_STROKES" data-name="Symbol 540 0 Layer18 0 1 STROKES" class="cls-55" d="M282.15,95.25l20,14.5,3.75,4.75a26.23,26.23,0,0,1,3.75,13.75q0,11.15-1.45,47.05-1.54,38.7-2.55,44.45a18.06,18.06,0,0,1-3.55,8.45l-2.45,2.05" transform="translate(-104.54 -66.45)"/><g id="Symbol_540_0_Layer17_0_FILL" data-name="Symbol 540 0 Layer17 0 FILL"><path class="cls-56" d="M161.7,190.45a37.84,37.84,0,0,0,9.4,23.8q8.81,10.2,20.65,10.85t19.75-8.5q8-9.19,7.3-22.9a37.91,37.91,0,0,0-9.4-23.85q-8.81-10.09-20.6-10.8a23.28,23.28,0,0,0-19.75,8.5Q161.1,176.75,161.7,190.45Z" transform="translate(-104.54 -66.45)"/></g><path id="Symbol_540_0_Layer17_0_1_STROKES" data-name="Symbol 540 0 Layer17 0 1 STROKES" class="cls-57" d="M171.1,214.25q8.81,10.2,20.65,10.85t19.75-8.5q8-9.19,7.3-22.9a37.91,37.91,0,0,0-9.4-23.85q-8.81-10.09-20.6-10.8a23.28,23.28,0,0,0-19.75,8.5q-8,9.19-7.35,22.9A37.84,37.84,0,0,0,171.1,214.25Z" transform="translate(-104.54 -66.45)"/><path id="Symbol_540_0_Layer16_0_1_STROKES" data-name="Symbol 540 0 Layer16 0 1 STROKES" class="cls-58" d="M184,143.75q18.41,1,32.05,16.3a56.29,56.29,0,0,1,14.65,35.8q.94,20.55-11.4,34.35T188.5,243q-18.41-1-32.05-16.25a56,56,0,0,1-14.6-35.8q-.94-20.59,11.4-34.4T184,143.75Z" transform="translate(-104.54 -66.45)"/><g id="Symbol_540_0_Layer15_0_FILL" data-name="Symbol 540 0 Layer15 0 FILL"><path class="cls-59" d="M183.9,142.2q-18.94-1.09-31.7,13.15t-11.75,35.5a58,58,0,0,0,15.1,37q14.1,15.75,33,16.8t31.7-13.2q12.75-14.25,11.75-35.45A57.68,57.68,0,0,0,217,159q-14.1-15.75-33.1-16.8m-30.65,14.35q12.3-13.8,30.7-12.8T216,160.05a56.29,56.29,0,0,1,14.65,35.8q.94,20.55-11.4,34.35T188.5,243q-18.41-1-32.05-16.25a56,56,0,0,1-14.6-35.8Q140.91,170.36,153.25,156.55Z" transform="translate(-104.54 -66.45)"/></g><g id="Symbol_540_0_Layer14_0_FILL" data-name="Symbol 540 0 Layer14 0 FILL"><path class="cls-60" d="M184,143.75q-18.4-1-30.7,12.8T141.85,191a56,56,0,0,0,14.6,35.8Q170.1,242,188.5,243t30.75-12.8q12.34-13.8,11.4-34.35A56.29,56.29,0,0,0,216,160.05q-13.65-15.3-32.05-16.3m-26.15,17.9a31.53,31.53,0,0,1,26.5-11q15.8.85,27.6,14a48.1,48.1,0,0,1,12.6,30.85q.8,17.7-9.85,29.6a31.52,31.52,0,0,1-26.45,11.05q-15.85-.9-27.6-14.05A48.38,48.38,0,0,1,148,191.25Q147.2,173.55,157.8,161.65Z" transform="translate(-104.54 -66.45)"/></g><path id="Symbol_540_0_Layer13_0_1_STROKES" data-name="Symbol 540 0 Layer13 0 1 STROKES" class="cls-61" d="M169.05,167.55a23.28,23.28,0,0,1,19.75-8.5,26.94,26.94,0,0,1,11.45,3.35,32.64,32.64,0,0,1,8.4,6.65l1,1.2m-1-1.2a37.43,37.43,0,0,0-10.4-8.45,32.3,32.3,0,0,0-14.05-4.15A27.6,27.6,0,0,0,161.1,166q-9.3,10.25-8.6,25.55a41.34,41.34,0,0,0,11,26.65q10.25,11.36,24.1,12.15a27.73,27.73,0,0,0,23.15-9.55q9.25-10.31,8.55-25.6a40.94,40.94,0,0,0-2.7-12.9" transform="translate(-104.54 -66.45)"/><path id="Symbol_540_0_Layer13_0_2_STROKES" data-name="Symbol 540 0 Layer13 0 2 STROKES" class="cls-57" d="M216.6,182.3a38.49,38.49,0,0,1,2.2,11.4q.64,13.7-7.3,22.9t-19.75,8.5q-11.85-.65-20.65-10.85a37.84,37.84,0,0,1-9.4-23.8q-.6-13.69,7.35-22.9M216,180.75l.6,1.55" transform="translate(-104.54 -66.45)"/><g id="Symbol_540_0_Layer12_0_FILL" data-name="Symbol 540 0 Layer12 0 FILL"><path class="cls-62" d="M184.3,150.65a31.53,31.53,0,0,0-26.5,11q-10.61,11.9-9.8,29.6a48.38,48.38,0,0,0,12.6,30.85q11.75,13.16,27.6,14.05a31.52,31.52,0,0,0,26.45-11.05q10.65-11.9,9.85-29.6a48.1,48.1,0,0,0-12.6-30.85q-11.81-13.15-27.6-14M161.1,166a27.6,27.6,0,0,1,23.1-9.55q13.8.75,24.1,12.1a41.34,41.34,0,0,1,11,26.65q.7,15.3-8.55,25.6a27.73,27.73,0,0,1-23.15,9.55q-13.84-.79-24.1-12.15a41.34,41.34,0,0,1-11-26.65Q151.8,176.25,161.1,166Z" transform="translate(-104.54 -66.45)"/></g><path id="Symbol_540_0_Layer11_0_1_STROKES" data-name="Symbol 540 0 Layer11 0 1 STROKES" class="cls-57" d="M171.1,214.25q8.81,10.2,20.65,10.85t19.75-8.5q8-9.19,7.3-22.9a37.91,37.91,0,0,0-9.4-23.85q-8.81-10.09-20.6-10.8a23.28,23.28,0,0,0-19.75,8.5q-8,9.19-7.35,22.9A37.84,37.84,0,0,0,171.1,214.25Zm9.2-39.45a16.74,16.74,0,0,1,13.7-5.35,20.55,20.55,0,0,1,14.3,6.85,22.7,22.7,0,0,1,6.5,15,18.64,18.64,0,0,1-5.1,14.4,16.87,16.87,0,0,1-13.7,5.4,20.62,20.62,0,0,1-14.3-6.8,22.89,22.89,0,0,1-6.5-15.1A18.81,18.81,0,0,1,180.3,174.8Z" transform="translate(-104.54 -66.45)"/><g id="Symbol_540_0_Layer10_0_FILL" data-name="Symbol 540 0 Layer10 0 FILL"><path class="cls-56" d="M175.2,189.25a22.89,22.89,0,0,0,6.5,15.1,20.62,20.62,0,0,0,14.3,6.8,17,17,0,0,0,13.55-5.2,18.62,18.62,0,0,0,5.25-14,15.13,15.13,0,0,1-5,10.8,14.94,14.94,0,0,1-11.3,3.9,18.22,18.22,0,0,1-12.4-5.7,18.92,18.92,0,0,1-5.7-12.6,15.32,15.32,0,0,1,4.45-12,15,15,0,0,1,11.9-4.5,17.67,17.67,0,0,1,7.95,2.35,19.83,19.83,0,0,1,6.2,5.45,23.22,23.22,0,0,0-7.3-7.1,20,20,0,0,0-9.6-3.05,16.74,16.74,0,0,0-13.7,5.35A18.81,18.81,0,0,0,175.2,189.25Z" transform="translate(-104.54 -66.45)"/></g><g id="Symbol_540_0_Layer9_0_FILL" data-name="Symbol 540 0 Layer9 0 FILL"><path d="M184.85,176.3a15.32,15.32,0,0,0-4.45,12,18.92,18.92,0,0,0,5.7,12.6,18.22,18.22,0,0,0,12.4,5.7,14.73,14.73,0,0,0,11.9-4.5,15.15,15.15,0,0,0,4.4-12.05,18.68,18.68,0,0,0-5.65-12.6,18.08,18.08,0,0,0-12.4-5.7,15,15,0,0,0-11.9,4.5m25.1,3.3a12.38,12.38,0,0,1,3.6,8.3,10.3,10.3,0,0,1-2.8,8,9.17,9.17,0,0,1-7.55,2.95,11.16,11.16,0,0,1-7.85-3.75,12.83,12.83,0,0,1-3.6-8.35,10.49,10.49,0,0,1,2.8-7.95,9.41,9.41,0,0,1,7.55-3A11.38,11.38,0,0,1,210,179.6Z" transform="translate(-104.54 -66.45)"/></g><g id="Symbol_540_0_Layer8_0_FILL" data-name="Symbol 540 0 Layer8 0 FILL"><path class="cls-15" d="M184,143.75h-.9q18.34,1,32,16.3a56,56,0,0,1,14.6,35.8q.9,19.76-10.55,33.4t-28.85,13.8q17.74.19,29.5-13.45t10.85-33.75A56.29,56.29,0,0,0,216,160.05Q202.35,144.75,184,143.75Z" transform="translate(-104.54 -66.45)"/></g><g id="Symbol_540_0_Layer7_0_FILL" data-name="Symbol 540 0 Layer7 0 FILL"><path class="cls-56" d="M188.8,159.05a26.94,26.94,0,0,1,11.45,3.35,32.64,32.64,0,0,1,8.4,6.65,37.43,37.43,0,0,0-10.4-8.45,32.3,32.3,0,0,0-14.05-4.15A27.6,27.6,0,0,0,161.1,166q-9.3,10.25-8.6,25.55a41.34,41.34,0,0,0,11,26.65q10.25,11.36,24.1,12.15a27.73,27.73,0,0,0,23.15-9.55q9.25-10.31,8.55-25.6a40.94,40.94,0,0,0-2.7-12.9,38.49,38.49,0,0,1,2.2,11.4q.64,13.7-7.3,22.9t-19.75,8.5q-11.85-.65-20.65-10.85a37.84,37.84,0,0,1-9.4-23.8q-.6-13.69,7.35-22.9A23.28,23.28,0,0,1,188.8,159.05Z" transform="translate(-104.54 -66.45)"/></g><path id="Symbol_540_0_Layer7_0_1_STROKES" data-name="Symbol 540 0 Layer7 0 1 STROKES" class="cls-63" d="M169.05,167.55a23.28,23.28,0,0,1,19.75-8.5,26.94,26.94,0,0,1,11.45,3.35,32.64,32.64,0,0,1,8.4,6.65,37.43,37.43,0,0,0-10.4-8.45,32.3,32.3,0,0,0-14.05-4.15A27.6,27.6,0,0,0,161.1,166q-9.3,10.25-8.6,25.55a41.34,41.34,0,0,0,11,26.65q10.25,11.36,24.1,12.15a27.73,27.73,0,0,0,23.15-9.55q9.25-10.31,8.55-25.6a40.94,40.94,0,0,0-2.7-12.9" transform="translate(-104.54 -66.45)"/><path id="Symbol_540_0_Layer7_0_2_STROKES" data-name="Symbol 540 0 Layer7 0 2 STROKES" class="cls-64" d="M216.6,182.3a38.49,38.49,0,0,1,2.2,11.4q.64,13.7-7.3,22.9t-19.75,8.5q-11.85-.65-20.65-10.85a37.84,37.84,0,0,1-9.4-23.8q-.6-13.69,7.35-22.9m39.6,1.5,1,1.2m6.3,10.5.6,1.55" transform="translate(-104.54 -66.45)"/><g id="Symbol_540_0_Layer6_0_FILL" data-name="Symbol 540 0 Layer6 0 FILL"><path class="cls-65" d="M205.3,194.7a6.57,6.57,0,0,0,5.3-2.1,7.38,7.38,0,0,0,2-5.6,8.88,8.88,0,0,0-2.5-5.85,7.91,7.91,0,0,0-5.55-2.65,6.3,6.3,0,0,0-5.25,2.05,7.31,7.31,0,0,0-1.95,5.65,8.88,8.88,0,0,0,2.5,5.85A7.86,7.86,0,0,0,205.3,194.7Z" transform="translate(-104.54 -66.45)"/></g><g id="Symbol_540_0_Layer5_0_FILL" data-name="Symbol 540 0 Layer5 0 FILL"><path class="cls-65" d="M205.3,194.7a6.57,6.57,0,0,0,5.3-2.1,7.38,7.38,0,0,0,2-5.6,8.88,8.88,0,0,0-2.5-5.85,7.91,7.91,0,0,0-5.55-2.65,6.3,6.3,0,0,0-5.25,2.05,7.31,7.31,0,0,0-1.95,5.65,8.88,8.88,0,0,0,2.5,5.85A7.86,7.86,0,0,0,205.3,194.7Z" transform="translate(-104.54 -66.45)"/></g><g id="Symbol_540_0_Layer4_0_FILL" data-name="Symbol 540 0 Layer4 0 FILL"><path class="cls-66" d="M195,193.4a1.49,1.49,0,0,0,1.2-.45,1.56,1.56,0,0,0,.45-1.25,2.16,2.16,0,0,0-.55-1.35,1.9,1.9,0,0,0-1.25-.6,1.35,1.35,0,0,0-1.2.5,1.56,1.56,0,0,0-.45,1.25,2.09,2.09,0,0,0,.55,1.3A1.9,1.9,0,0,0,195,193.4Z" transform="translate(-104.54 -66.45)"/></g><g id="Symbol_540_0_Layer3_0_FILL" data-name="Symbol 540 0 Layer3 0 FILL"><path class="cls-67" d="M161.7,190.45a37.84,37.84,0,0,0,9.4,23.8q8.81,10.2,20.65,10.85t19.75-8.5q8-9.19,7.3-22.9a37.91,37.91,0,0,0-9.4-23.85q-8.81-10.09-20.6-10.8a23.28,23.28,0,0,0-19.75,8.5Q161.1,176.75,161.7,190.45Z" transform="translate(-104.54 -66.45)"/></g><path id="Symbol_540_0_Layer3_0_1_STROKES" data-name="Symbol 540 0 Layer3 0 1 STROKES" class="cls-57" d="M171.1,214.25q8.81,10.2,20.65,10.85t19.75-8.5q8-9.19,7.3-22.9a37.91,37.91,0,0,0-9.4-23.85q-8.81-10.09-20.6-10.8a23.28,23.28,0,0,0-19.75,8.5q-8,9.19-7.35,22.9A37.84,37.84,0,0,0,171.1,214.25Z" transform="translate(-104.54 -66.45)"/><path id="Symbol_540_0_Layer2_0_1_STROKES" data-name="Symbol 540 0 Layer2 0 1 STROKES" class="cls-68" d="M158.55,162.45Q148.16,174,149,191.3a47.12,47.12,0,0,0,12.25,30.1q11.51,12.85,27,13.7A30.71,30.71,0,0,0,214,224.35q10.4-11.59,9.6-28.9a47.05,47.05,0,0,0-12.25-30q-11.51-12.85-27-13.7A30.71,30.71,0,0,0,158.55,162.45Z" transform="translate(-104.54 -66.45)"/><path id="Symbol_540_0_Layer1_0_1_STROKES" data-name="Symbol 540 0 Layer1 0 1 STROKES" class="cls-68" d="M159.65,163.8q-10.05,11.1-9.3,27.7a45.13,45.13,0,0,0,11.9,28.9q11.15,12.35,26.1,13.15a29.69,29.69,0,0,0,25-10.3q10-11.15,9.3-27.75a45.13,45.13,0,0,0-11.9-28.9q-11.1-12.3-26-13.15A30,30,0,0,0,159.65,163.8Z" transform="translate(-104.54 -66.45)"/><path id="Symbol_540_0_Layer0_0_1_STROKES" data-name="Symbol 540 0 Layer0 0 1 STROKES" class="cls-68" d="M160.05,164.5q-10,10.8-9.2,26.85a42.88,42.88,0,0,0,11.8,28q11.06,11.9,25.9,12.7a30.12,30.12,0,0,0,24.85-10q9.94-10.8,9.2-26.85a42.81,42.81,0,0,0-11.8-27.95q-11.06-11.9-25.9-12.75T160.05,164.5Z" transform="translate(-104.54 -66.45)"/></svg>