<svg id="Layer_1" data-name="Layer 1" xmlns="http://www.w3.org/2000/svg" xmlns:xlink="http://www.w3.org/1999/xlink" viewBox="0 0 55.8 55.82"><defs><style>.cls-1{fill:url(#linear-gradient);}.cls-2{fill:url(#linear-gradient-2);}.cls-3{fill:url(#linear-gradient-3);}.cls-4{fill:url(#radial-gradient);}.cls-5{fill:#fff;}</style><linearGradient id="linear-gradient" x1="1103.35" y1="-1011.58" x2="1103.35" y2="-862.88" gradientTransform="matrix(0.38, 0, 0, -0.38, -386.29, -323.91)" gradientUnits="userSpaceOnUse"><stop offset="0" stop-color="#fff"/><stop offset="0.54"/></linearGradient><linearGradient id="linear-gradient-2" x1="1103.32" y1="-862.38" x2="1103.32" y2="-1009.78" gradientTransform="matrix(0.38, 0, 0, -0.38, -386.24, -323.91)" gradientUnits="userSpaceOnUse"><stop offset="0" stop-color="#fff"/><stop offset="0.69"/></linearGradient><linearGradient id="linear-gradient-3" x1="1103.37" y1="-1001.48" x2="1103.37" y2="-872.98" gradientTransform="matrix(0.38, 0, 0, -0.38, -386.29, -323.91)" gradientUnits="userSpaceOnUse"><stop offset="0" stop-color="#fff"/><stop offset="1"/></linearGradient><radialGradient id="radial-gradient" cx="970.02" cy="1402.63" r="59.75" gradientTransform="translate(-340.83 -502.96) scale(0.38)" gradientUnits="userSpaceOnUse"><stop offset="0.58" stop-color="#06f"/><stop offset="0.9" stop-color="#006"/><stop offset="1" stop-color="#030100"/><stop offset="1"/></radialGradient></defs><title>sort_btn_up</title><g id="Layer1_0_FILL" data-name="Layer1 0 FILL"><path class="cls-1" d="M2.19,17.06A27.94,27.94,0,0,0,17,53.64a27.84,27.84,0,0,0,30.6-6A27.89,27.89,0,0,0,27.91,0a27.93,27.93,0,0,0-25.72,17Z" transform="translate(0 -0.02)"/></g><g id="Layer1_1_FILL" data-name="Layer1 1 FILL"><path class="cls-2" d="M28,0A27,27,0,0,0,9.43,7.07,27.05,27.05,0,0,0,.27,24.44a136.63,136.63,0,0,0,27.18,2.72,136.32,136.32,0,0,0,28.16-2.93A27.11,27.11,0,0,0,46.41,7,27,27,0,0,0,28,0Z" transform="translate(0 -0.02)"/></g><g id="Layer1_2_FILL" data-name="Layer1 2 FILL"><path class="cls-3" d="M27.91,3.81a23.26,23.26,0,0,0-17.06,7.07,23.22,23.22,0,0,0-7.06,17A23.23,23.23,0,0,0,10.85,45a23.28,23.28,0,0,0,17.06,7.06A23.22,23.22,0,0,0,45,45,23.26,23.26,0,0,0,52,27.93a23.2,23.2,0,0,0-7.08-17A23.19,23.19,0,0,0,27.91,3.81Z" transform="translate(0 -0.02)"/></g><g id="Layer1_3_FILL" data-name="Layer1 3 FILL"><path class="cls-4" d="M27.91,5.7A21.63,21.63,0,0,0,12,12.27,21.6,21.6,0,0,0,5.46,28.13,21.62,21.62,0,0,0,12,44a21.63,21.63,0,0,0,15.88,6.57A21.62,21.62,0,0,0,43.77,44a21.62,21.62,0,0,0,6.57-15.86,21.6,21.6,0,0,0-6.57-15.86A21.62,21.62,0,0,0,27.91,5.7Z" transform="translate(0 -0.02)"/></g><g id="Layer0_0_FILL" data-name="Layer0 0 FILL"><path class="cls-5" d="M32.45,30.75v-2.9H26.8v2.9h5.65m-13-11H16.3L10.45,34.75h3.2l1.25-3.4h6l1.35,3.4h3.3l-6.05-15M20,28.8h-4.1l2-5.6L20,28.8m24.7-6.7V19.7h-11v2.55h7L32.8,32v2.75H45V32.2H36.45Z" transform="translate(0 -0.02)"/></g></svg>