<svg id="Layer_1" data-name="Layer 1" xmlns="http://www.w3.org/2000/svg" viewBox="0 0 92.88 35.82"><defs><style>.cls-1{fill:#fff;}</style></defs><title>sword</title><g id="sword_mc" data-name="sword mc"><g id="sword_mc_0_Layer0_0_FILL" data-name="sword mc 0 Layer0 0 FILL"><path class="cls-1" d="M29.51,17.29a2,2,0,0,0,1.17.44c.09.08-.08.12-.49.13l.06.09c.36,0,.51.06.43.12a2,2,0,0,0-1.1.38q14.19.12,25.48.14,14.4,0,22-.08,5.66-.09,6.79-.25-1.12-.17-6.78-.34-7.56-.23-22-.4Q46.79,17.42,29.51,17.29Z" transform="translate(0.01 0)"/></g><g id="sword_mc_0_Layer0_1_FILL" data-name="sword mc 0 Layer0 1 FILL"><path class="cls-1" d="M28,22H28l.1-.37.29-.42a1.08,1.08,0,0,1,.75-.42h0q4.15.06,9.71.09,11,0,20.27-.09,16.45-.24,25.16-1.05,6.45-.6,7.76-1.39c-.86-.55-3.44-1-7.74-1.52q-8.68-.93-25.14-1.41Q49.94,15.13,39,15q-5.56-.06-9.71,0h0a1,1,0,0,1-.74-.44,2.3,2.3,0,0,1-.28-.41l-.1-.38-.07,0c.15.77.29,1.33.39,1.67a4.28,4.28,0,0,0,.83,1.6q17.22.29,25.84.39,11.28.15,18.66.32c6.24.16,9.7.32,10.37.5l.14,0-.14,0a101.83,101.83,0,0,1-10.37.35q-6.93.08-18.67.05-16.38,0-25.79,0a4.07,4.07,0,0,0-.88,1.57A15.59,15.59,0,0,0,28,22Z" transform="translate(0.01 0)"/></g><g id="sword_mc_0_Layer0_2_FILL" data-name="sword mc 0 Layer0 2 FILL"><path d="M1.82,20.53a1,1,0,0,0,.66.28.9.9,0,0,0,.74-.36v.7a.92.92,0,0,0,.9.91.9.9,0,0,0,.64-.26A.87.87,0,0,0,5,21.16v-.95a.52.52,0,0,0,.34.12.51.51,0,0,0,.35-.12.35.35,0,0,0,.15-.28l0-4.22a.37.37,0,0,0-.14-.29.53.53,0,0,0-.35-.12.62.62,0,0,0-.35.1l0-.94a.92.92,0,0,0-.91-.91.9.9,0,0,0-.64.26.88.88,0,0,0-.26.64v.69a.92.92,0,0,0-.74-.36.93.93,0,0,0-.66.26.91.91,0,0,0-.28.67V16a1.76,1.76,0,0,0-1.12.57A1.69,1.69,0,0,0,0,17.77,1.81,1.81,0,0,0,.43,19a1.78,1.78,0,0,0,1.12.58v.31a.94.94,0,0,0,.27.67m.66-.26a.32.32,0,0,1-.28-.12.36.36,0,0,1-.12-.28l0-4.16a.38.38,0,0,1,.12-.28.4.4,0,0,1,.29-.12.38.38,0,0,1,.28.12.4.4,0,0,1,.12.29l0,4.15a.4.4,0,0,1-.12.29.42.42,0,0,1-.29.11m1.38,1.15a.4.4,0,0,1-.11-.27l0-6.7a.37.37,0,0,1,.63-.26.39.39,0,0,1,.11.27l0,6.7a.36.36,0,0,1-.11.26.35.35,0,0,1-.26.1.4.4,0,0,1-.26-.1M5.53,20a.22.22,0,0,1-.16,0,.22.22,0,0,1-.16,0s-.07-.05-.07-.08l0-4.23s0-.07.07-.1a.41.41,0,0,1,.16,0,.31.31,0,0,1,.17,0,.12.12,0,0,1,.06.1l0,4.21s0,.06-.07.09M.83,17a1.17,1.17,0,0,1,.74-.41l0,2.44a1.19,1.19,0,0,1-.73-.42,1.19,1.19,0,0,1-.3-.8A1.26,1.26,0,0,1,.83,17Z" transform="translate(0.01 0)"/></g><g id="sword_mc_0_Layer0_3_FILL" data-name="sword mc 0 Layer0 3 FILL"><path d="M6,20a1.63,1.63,0,0,0,1.45,0L6,16.29,6,20m.21-2.83L7,19.65a.41.41,0,0,1-.33.17.74.74,0,0,1-.42-.11Z" transform="translate(0.01 0)"/></g><g id="sword_mc_0_Layer0_4_FILL" data-name="sword mc 0 Layer0 4 FILL"><path d="M8,20.05a1.41,1.41,0,0,0,.64.14,1.53,1.53,0,0,0,.61-.13L7.28,15.6a1.35,1.35,0,0,0-1.17,0v.27L8,20.05m0-.5L6.77,16.6A.72.72,0,0,1,7,16.5a.4.4,0,0,1,.25.1l1.26,2.85a.33.33,0,0,1-.55.1Z" transform="translate(0.01 0)"/></g><g id="sword_mc_0_Layer0_5_FILL" data-name="sword mc 0 Layer0 5 FILL"><path d="M28.07,5.75a2.16,2.16,0,0,0-.47.93h-.09a.32.32,0,0,0,.07.13,2.77,2.77,0,0,0-.06.6,2.26,2.26,0,0,0,.1.73.77.77,0,0,0,.3.4.56.56,0,0,0,.49,0,3.92,3.92,0,0,0,.47-.25c0,.12-.13.31-.25.58l.36.17.27-.63a1.59,1.59,0,0,0,.1-.34.29.29,0,0,0-.09-.26.27.27,0,0,0-.25,0,1.36,1.36,0,0,0-.3.15c-.29.18-.47.24-.55.19s-.16-.3-.16-.7a2.45,2.45,0,0,1,.29-1.26,2.67,2.67,0,0,1,.61-.62,3,3,0,0,0,.47-.43,1.33,1.33,0,0,0,.29-.65,1.39,1.39,0,0,0,0-.27,1,1,0,0,0-.19-.62,1.28,1.28,0,0,0-.69-.42A6,6,0,0,0,27.93,3l-.26,0a.79.79,0,0,1-.47-.44,1.21,1.21,0,0,1,0-.83,4.76,4.76,0,0,1,.35-.84,3.38,3.38,0,0,0,.2-.47.36.36,0,0,0,0-.29A.3.3,0,0,0,27.56,0c-.46,0-.9.33-1.3,1a6.84,6.84,0,0,0-.61,1.3,2.8,2.8,0,0,0-1.11-.48,2.62,2.62,0,0,0-1.24,0,1.73,1.73,0,0,0-1.44,1.92,1.64,1.64,0,0,0,.67,1.43,1.38,1.38,0,0,0,1,.35,1.08,1.08,0,0,0,.62-.28h0l.1-.07,0,0a1,1,0,0,0,.21-.39c.29.59.52,1.14.71,1.63l.18-.07a19.84,19.84,0,0,0-.82-1.95,1.62,1.62,0,0,0,0-.22.88.88,0,0,0-.37-.69l.3-.1a2.2,2.2,0,0,1,.94.78,5.88,5.88,0,0,1,1,3.34l.41.94a7.8,7.8,0,0,0-1.23-4.29,2.79,2.79,0,0,0-1.16-1l-.41.3a.62.62,0,0,0-.49-.09.49.49,0,0,0-.34.25.6.6,0,0,0-.12.38.65.65,0,0,0,.08.35.3.3,0,0,0,.22.15.25.25,0,0,0,.21-.15.62.62,0,0,0,.09-.34.61.61,0,0,0-.11-.38.63.63,0,0,1,.6.59.86.86,0,0,1-.15.65.64.64,0,0,1-.5.25,1.08,1.08,0,0,1-.66-.2,1.19,1.19,0,0,1-.46-1.09A1.27,1.27,0,0,1,23,2.59a1.78,1.78,0,0,1,1.22-.17,3.18,3.18,0,0,1,1.27.49,1.43,1.43,0,0,1,.69.86l.22-.65a.84.84,0,0,0-.25-.36,2.89,2.89,0,0,1,.44-1.41c.31-.57.55-.81.71-.73l-.12.25a3.05,3.05,0,0,0-.37,2,.54.54,0,0,0,.08.21v.2H27a1.18,1.18,0,0,0,.52.21l.34,0c.32,0,.56,0,.69.07a.79.79,0,0,1,.49.25.72.72,0,0,1,.12.59,1.15,1.15,0,0,1-.18.47,1.51,1.51,0,0,1-.36.36A4.36,4.36,0,0,0,28.07,5.75Z" transform="translate(0.01 0)"/></g><g id="sword_mc_0_Layer0_6_FILL" data-name="sword mc 0 Layer0 6 FILL"><path d="M11.21,20.07a2.14,2.14,0,0,0,.68.15.92.92,0,0,0,.59-.11l-2.32-4.5a1,1,0,0,0-.59-.13,1,1,0,0,0-.52.13l2.16,4.46m.57-.47c0,.07-.07.1-.17.11a.41.41,0,0,1-.29-.15L9.94,16.8c0-.12.08-.18.19-.18a.49.49,0,0,1,.26.13Z" transform="translate(0.01 0)"/></g><g id="sword_mc_0_Layer0_7_FILL" data-name="sword mc 0 Layer0 7 FILL"><path d="M9.68,20.06a1.48,1.48,0,0,0,.57.11,1.34,1.34,0,0,0,.58-.08L8.72,15.6a1.35,1.35,0,0,0-.62-.14,1.2,1.2,0,0,0-.59.14l2.17,4.46M8.34,16.7a.33.33,0,0,1,.21-.12.32.32,0,0,1,.23.09l1.32,2.79c0,.09-.06.14-.14.15a.27.27,0,0,1-.24-.11Z" transform="translate(0.01 0)"/></g><g id="sword_mc_0_Layer0_8_FILL" data-name="sword mc 0 Layer0 8 FILL"><path d="M14.63,20.21a1.7,1.7,0,0,0,.93.21,1.21,1.21,0,0,0,.76-.14l-2.73-4.72a2,2,0,0,0-.79-.13,1.27,1.27,0,0,0-.7.16l2.53,4.62m-.91-3.61,1.6,2.83c0,.1-.14.15-.32.16a.87.87,0,0,1-.46-.1L13,16.69c0-.2.06-.3.23-.31A.58.58,0,0,1,13.72,16.6Z" transform="translate(0.01 0)"/></g><g id="sword_mc_0_Layer0_9_FILL" data-name="sword mc 0 Layer0 9 FILL"><path d="M17.44,20.51a1.38,1.38,0,0,0,.75-.13q-3-4.77-3-4.86a1.6,1.6,0,0,0-.65-.13,1.46,1.46,0,0,0-.66.17l2.82,4.74a1.29,1.29,0,0,0,.75.21m-2.69-3.92c0-.15.09-.22.22-.22a.41.41,0,0,1,.33.19l1.85,3c-.13.14-.32.14-.58,0Z" transform="translate(0.01 0)"/></g><g id="sword_mc_0_Layer0_10_FILL" data-name="sword mc 0 Layer0 10 FILL"><path d="M27.28,4.93a8.93,8.93,0,0,0,.23,1.76h.09a2.16,2.16,0,0,1,.67-1.29A2.85,2.85,0,0,0,29,4.18c0-.29-.24-.47-.81-.52a4.13,4.13,0,0,0-.86,0c-.1,0-.13.41-.07,1.26m.7.34c-.1.06-.17.08-.21.05s0-.11,0-.21A1.25,1.25,0,0,1,28,4.76a1.28,1.28,0,0,1,.3-.28c.1-.06.17-.08.21-.05s0,.1,0,.21a1.06,1.06,0,0,1-.22.35A1.54,1.54,0,0,1,28,5.27Z" transform="translate(0.01 0)"/></g><g id="sword_mc_0_Layer0_11_FILL" data-name="sword mc 0 Layer0 11 FILL"><path d="M18.48,20.4a2.27,2.27,0,0,0,.74.15,1.71,1.71,0,0,0,.84-.06l-3.19-5a1.9,1.9,0,0,0-.73-.14,1.49,1.49,0,0,0-.73.2l3.07,4.88m-2.27-3.89a.26.26,0,0,1,.27-.24.54.54,0,0,1,.4.11L19,19.85c-.17,0-.4,0-.71,0Z" transform="translate(0.01 0)"/></g><g id="sword_mc_0_Layer0_12_FILL" data-name="sword mc 0 Layer0 12 FILL"><path d="M12.92,20.19a1.91,1.91,0,0,0,.71.14,1.25,1.25,0,0,0,.7-.13l-2.47-4.6a1.61,1.61,0,0,0-.74-.14,1.17,1.17,0,0,0-.63.17l2.43,4.56m.77-.55c-.15.16-.39.15-.7,0l-1.58-2.91c0-.17.07-.26.23-.25a.43.43,0,0,1,.41.25Z" transform="translate(0.01 0)"/></g><g id="sword_mc_0_Layer0_13_FILL" data-name="sword mc 0 Layer0 13 FILL"><path d="M20.39,20.52a1.46,1.46,0,0,0,.76.23,1.48,1.48,0,0,0,.8-.14L18.54,15.4a1.52,1.52,0,0,0-.76-.19.89.89,0,0,0-.72.25l3.33,5.06m.57-.47a4.32,4.32,0,0,0-.58,0l-2.46-3.72a.28.28,0,0,1,.26-.18.55.55,0,0,1,.34.17Z" transform="translate(0.01 0)"/></g><g id="sword_mc_0_Layer0_14_FILL" data-name="sword mc 0 Layer0 14 FILL"><path d="M22.19,20.63c.18.23.53.31,1.07.24l.75-.15-3.69-5.39a1.46,1.46,0,0,0-.85-.17,1.25,1.25,0,0,0-.76.23l3.48,5.24m.63-.63h-.7l-2.5-3.81a.26.26,0,0,1,.27-.19.51.51,0,0,1,.34.17Z" transform="translate(0.01 0)"/></g><g id="sword_mc_0_Layer0_15_FILL" data-name="sword mc 0 Layer0 15 FILL"><path d="M23.4,15.8a1.08,1.08,0,0,1,.27-.1.41.41,0,0,1,.43.08l.84,1.33c.08-.19.15-.41.23-.64l-.84-1.35a1.79,1.79,0,0,0-.91-.09,1.85,1.85,0,0,0-.69.18s.26.4.77,1.15.81,1.2,1.08,1.58l.11-.25Z" transform="translate(0.01 0)"/></g><g id="sword_mc_0_Layer0_16_FILL" data-name="sword mc 0 Layer0 16 FILL"><path d="M27.63,11.54h0v0A4.76,4.76,0,0,1,28,9.62c.24-.56.35-.84.35-.84a.42.42,0,0,1-.57,0,1.42,1.42,0,0,0-.37-.22,4.77,4.77,0,0,0,0,1.33C27.52,10.62,27.58,11.18,27.63,11.54Z" transform="translate(0.01 0)"/></g><g id="sword_mc_0_Layer0_17_FILL" data-name="sword mc 0 Layer0 17 FILL"><path d="M27.65,11.65a2.45,2.45,0,0,0,.23,1.07,3.2,3.2,0,0,0,.86,1.07h.89a3.25,3.25,0,0,1-1.23-2.51A5.61,5.61,0,0,1,29,9.05l-.36-.17c-.26.51-.45.91-.58,1.21a4.1,4.1,0,0,0-.39,1.44h0Z" transform="translate(0.01 0)"/></g><g id="sword_mc_0_Layer0_18_FILL" data-name="sword mc 0 Layer0 18 FILL"><path d="M24.73,15l.51.76a3.94,3.94,0,0,0,.26-.94A2,2,0,0,0,24.73,15Z" transform="translate(0.01 0)"/></g><g id="sword_mc_0_Layer0_19_FILL" data-name="sword mc 0 Layer0 19 FILL"><path d="M25.05,16.36l.25.38.16-.75-.18-.27Z" transform="translate(0.01 0)"/></g><g id="sword_mc_0_Layer0_20_FILL" data-name="sword mc 0 Layer0 20 FILL"><path d="M24.8,16.94l-.12.25.12.18.25-.07Z" transform="translate(0.01 0)"/></g><g id="sword_mc_0_Layer0_21_FILL" data-name="sword mc 0 Layer0 21 FILL"><path d="M24.5,18.28a2.83,2.83,0,0,1,.2.37l0-.48Z" transform="translate(0.01 0)"/></g><g id="sword_mc_0_Layer0_22_FILL" data-name="sword mc 0 Layer0 22 FILL"><path d="M24.8,16.94l.25.36-.25.07-.12-.18-.17.32.7.34h.07v-.09h0a13.91,13.91,0,0,0,.65-2.05,18.12,18.12,0,0,0,.52-4.22A11.62,11.62,0,0,0,26.14,9a18.3,18.3,0,0,0-.81-2.74l-.18.07c.12.32.2.56.25.71a11,11,0,0,0-1.15-1.92l-.1.07A9.49,9.49,0,0,1,25,6.74,11.09,11.09,0,0,1,26,10a14,14,0,0,1-.68,5.77l.18.27-.16.75-.25-.38Z" transform="translate(0.01 0)"/></g><g id="sword_mc_0_Layer0_23_FILL" data-name="sword mc 0 Layer0 23 FILL"><path d="M25.31,20.61l-.66-2-.24-.35h0l-2.08-3a2.4,2.4,0,0,0-.8-.11,1.87,1.87,0,0,0-.95.2q0,.09,3.65,5.45a.81.81,0,0,0,.42.14,1,1,0,0,0,.44-.08v-.16l0-.11-.63-.05L21.37,16a.5.5,0,0,1,.35-.12.52.52,0,0,1,.38.12Z" transform="translate(0.01 0)"/></g><g id="sword_mc_0_Layer0_24_FILL" data-name="sword mc 0 Layer0 24 FILL"><path d="M25.27,17.76v.09H27v-.09a.19.19,0,0,1-.13,0l-.05-5.26q-.13,1-.36,2.16a11.06,11.06,0,0,1-.88,3A.67.67,0,0,1,25.27,17.76Z" transform="translate(0.01 0)"/></g><g id="sword_mc_0_Layer0_25_FILL" data-name="sword mc 0 Layer0 25 FILL"><path d="M27,17.86h.63L27,3.24h-.17l.33,14.44a.36.36,0,0,1-.23.08Z" transform="translate(0.01 0)"/></g><g id="sword_mc_0_Layer0_26_FILL" data-name="sword mc 0 Layer0 26 FILL"><path d="M25.25,18V18a.73.73,0,0,1,.29.07,10.53,10.53,0,0,1,.83,3c.22,1.43.33,2.17.34,2.22l.13-5.26a.15.15,0,0,1,.1,0V18h-1.7Z" transform="translate(0.01 0)"/></g><g id="sword_mc_0_Layer0_27_FILL" data-name="sword mc 0 Layer0 27 FILL"><path d="M26.66,32.57h.16L27.6,18,27,18v.09a.37.37,0,0,1,.25.08Z" transform="translate(0.01 0)"/></g><g id="sword_mc_0_Layer0_28_FILL" data-name="sword mc 0 Layer0 28 FILL"><path d="M25.15,19.79l0,.11v-.11Z" transform="translate(0.01 0)"/></g><g id="sword_mc_0_Layer0_29_FILL" data-name="sword mc 0 Layer0 29 FILL"><path d="M28.13,21.61,28,22a1.13,1.13,0,0,1,.64-.53,1.94,1.94,0,0,1,.51-.14c2.75,0,6,.06,9.69.08q11,.06,20.31-.09,13.21-.18,21.34-.76,11-.78,12.18-2l.17-.18-.16-.18q-1.14-1.27-12.15-2.21-8.1-.69-21.34-1.08Q50,14.59,39,14.48c-4.53,0-7.77-.06-9.74-.05l-.48-.14a1.17,1.17,0,0,1-.67-.56l.1.38a2.3,2.3,0,0,0,.28.41,1,1,0,0,0,.74.44h0q4.14,0,9.71,0,11,.11,20.26.38,16.46.48,25.14,1.41c4.3.47,6.88,1,7.74,1.52q-1.31.8-7.76,1.39-8.7.81-25.16,1.05-9.26.14-20.27.09-5.55,0-9.71-.09h0a1.08,1.08,0,0,0-.75.42Z" transform="translate(0.01 0)"/></g><g id="sword_mc_0_Layer0_30_FILL" data-name="sword mc 0 Layer0 30 FILL"><path d="M27.93,25.75c.28.58.46,1,.56,1.21l.2.45.37-.15-.19-.45a5.5,5.5,0,0,1-.56-2.26,3.24,3.24,0,0,1,1.26-2.49h-.9a3.48,3.48,0,0,0-.87,1.07,2.39,2.39,0,0,0-.24,1.06l0,.11h0v0h0A3.94,3.94,0,0,0,27.93,25.75Z" transform="translate(0.01 0)"/></g><g id="sword_mc_0_Layer0_31_FILL" data-name="sword mc 0 Layer0 31 FILL"><path d="M27.31,27.3s.14-.06.37-.22.42-.16.58,0l-.34-.84a4.47,4.47,0,0,1-.35-1.9h0v0h0c-.06.36-.12.92-.19,1.68A4.9,4.9,0,0,0,27.31,27.3Z" transform="translate(0.01 0)"/></g><g id="sword_mc_0_Layer0_32_FILL" data-name="sword mc 0 Layer0 32 FILL"><path d="M25.87,20.09A13.46,13.46,0,0,0,25.25,18V18h0l-.48.22,0,.48a11.25,11.25,0,0,1,.45,1.14h.05v.12a13.77,13.77,0,0,1,.65,5.95,10.75,10.75,0,0,1-1,3.2,9.38,9.38,0,0,1-.9,1.52l.1.08a11.58,11.58,0,0,0,1.18-1.91l-.14.41.18.07a14.87,14.87,0,0,0,1-4.9A18.8,18.8,0,0,0,25.87,20.09Z" transform="translate(0.01 0)"/></g><g id="sword_mc_0_Layer0_33_FILL" data-name="sword mc 0 Layer0 33 FILL"><path d="M24,31.67a.59.59,0,0,1-.23.43.73.73,0,0,1-.37.15.73.73,0,0,0,.11-.37.63.63,0,0,0-.09-.35.25.25,0,0,0-.21-.15.26.26,0,0,0-.21.14.6.6,0,0,0-.1.35.61.61,0,0,0,.12.39.53.53,0,0,0,.34.25.68.68,0,0,0,.5-.08l.4.3a1.34,1.34,0,0,0,.39-.22,3.45,3.45,0,0,0,.78-.79,7.78,7.78,0,0,0,1.29-4.27l-.43.94a5.89,5.89,0,0,1-1.07,3.32,2.67,2.67,0,0,1-.63.59,1.12,1.12,0,0,1-.32.17l-.3-.11a.89.89,0,0,0,.38-.68v-.22c.36-.74.68-1.48,1-2.23l-.18-.07a17.25,17.25,0,0,1-.85,1.91,1.22,1.22,0,0,0-.21-.39l0,0-.1-.08h0a1.16,1.16,0,0,0-.62-.29,1.34,1.34,0,0,0-1,.33,1.7,1.7,0,0,0-.7,1.43A1.74,1.74,0,0,0,23.06,34a2.88,2.88,0,0,0,1.24,0,3,3,0,0,0,1.13-.48A5.76,5.76,0,0,0,26,34.82c.41.67.84,1,1.29,1a.27.27,0,0,0,.23-.11.36.36,0,0,0,0-.29,4,4,0,0,0-.2-.47,6.38,6.38,0,0,1-.34-.84,1.33,1.33,0,0,1,0-.83.8.8,0,0,1,.48-.43l.27,0a4.37,4.37,0,0,0,.89-.13,1.22,1.22,0,0,0,.69-.4.94.94,0,0,0,.2-.62,1.47,1.47,0,0,0,0-.27,1.52,1.52,0,0,0-.29-.66,3.42,3.42,0,0,0-.46-.43,2.61,2.61,0,0,1-.6-.64,2.36,2.36,0,0,1-.27-1.26c0-.42.06-.65.17-.69s.26,0,.55.2a1.61,1.61,0,0,0,.29.15.29.29,0,0,0,.26,0,.28.28,0,0,0,.09-.26,1.94,1.94,0,0,0-.09-.34l-.07-.17-.37.15,0,.14a4.82,4.82,0,0,0-.46-.26.6.6,0,0,0-.49,0,.71.71,0,0,0-.3.4,2,2,0,0,0-.12.73,2.28,2.28,0,0,0,.05.6s0,0-.06.1l.08.05a2.15,2.15,0,0,0,.45.92,5,5,0,0,0,.59.54,1.65,1.65,0,0,1,.35.36,1.14,1.14,0,0,1,.18.49.7.7,0,0,1-.14.58.78.78,0,0,1-.49.24l-.69.06-.34,0a1.11,1.11,0,0,0-.53.2h-.16v.2a.77.77,0,0,0-.09.2,3.15,3.15,0,0,0,.34,2l.12.25c-.16.08-.4-.17-.7-.75a2.94,2.94,0,0,1-.42-1.41l.14-.17a.42.42,0,0,0,.11-.19L25.94,32a1.42,1.42,0,0,1-.7.84,3,3,0,0,1-1.27.48,1.82,1.82,0,0,1-1.22-.18A1.27,1.27,0,0,1,22.19,32,1.19,1.19,0,0,1,22.66,31a1,1,0,0,1,.66-.19.63.63,0,0,1,.5.25A.84.84,0,0,1,24,31.67Z" transform="translate(0.01 0)"/></g><g id="sword_mc_0_Layer0_34_FILL" data-name="sword mc 0 Layer0 34 FILL"><path d="M28,32.17c.57,0,.84-.21.81-.5a2.69,2.69,0,0,0-.72-1.21,2.18,2.18,0,0,1-.65-1.3l-.08-.05a8.06,8.06,0,0,0-.27,1.75c-.07.87-.06,1.3.05,1.29a4.14,4.14,0,0,0,.86,0m.31-1q.06.16,0,.21s-.1,0-.2-.05a1.57,1.57,0,0,1-.31-.28,1.74,1.74,0,0,1-.21-.36q-.06-.15,0-.21s.1,0,.2.06a1.1,1.1,0,0,1,.3.28A1.25,1.25,0,0,1,28.31,31.2Z" transform="translate(0.01 0)"/></g><g id="sword_mc_0_Layer0_35_FILL" data-name="sword mc 0 Layer0 35 FILL"><path d="M27.63,22.93c.06,0,.12-.12.18-.29s.09-.36.16-.67a15.59,15.59,0,0,1,.43-1.7,4.07,4.07,0,0,1,.88-1.57q9.42,0,25.79,0,11.74,0,18.67-.05a101.83,101.83,0,0,0,10.37-.35l.14,0-.14,0c-.67-.18-4.13-.34-10.37-.5q-7.38-.18-18.66-.32-8.62-.11-25.84-.39a4.28,4.28,0,0,1-.83-1.6c-.11-.36-.24-.91-.39-1.67-.06-.3-.11-.51-.15-.64s-.1-.26-.17-.28l.3,4.88a22,22,0,0,0,2.19.15c.41,0,.58-.05.49-.13a2,2,0,0,1-1.17-.44q17.28.12,25.56.23,14.45.18,22,.4,5.66.18,6.78.34-1.14.16-6.79.25-7.61.1-22,.08-11.3,0-25.48-.14a2,2,0,0,1,1.1-.38c.08-.06-.07-.11-.43-.12a19.08,19.08,0,0,0-2.25.11Z" transform="translate(0.01 0)"/></g></g></svg>