<svg id="Layer_1" data-name="Layer 1" xmlns="http://www.w3.org/2000/svg" viewBox="0 0 35.9 45"><defs><style>.cls-1{fill:#7f4f19;}.cls-2{fill:#a0703a;}.cls-3{fill:#fff;}.cls-4{fill:#adadad;}.cls-5{fill:#d8d8d8;}.cls-6{fill:#a0143a;}</style></defs><title>tools_btn_up</title><g id="dn_log_mc0_0_Layer17_0_FILL" data-name="dn log mc0 0 Layer17 0 FILL"><path class="cls-1" d="M34.08,6.52l-1.19-.4L12.16,3.79H12l-1,.1-.68.16-.74.31-.71.45-.61.62-.45.85L.71,37.91l0,.48.15.52.28.61.43.62.75.54,1,.46L25.68,45h.61l.71-.12.78-.33.83-.59.66-.93.6-1.33,6-31.55v-1l-.12-.69-.35-.71-.55-.68Z"/></g><g id="dn_log_mc0_0_Layer16_0_FILL" data-name="dn log mc0 0 Layer16 0 FILL"><path class="cls-2" d="M33.39,5.81l-1.18-.4L11.45,3.08l-1.16.1-.68.16-.74.31-.73.45-.57.64-.45.86L0,37.22l0,.48.15.52.26.62.49.61.71.55,1,.45,21.75,3.74.14.05.45.07h.57l.76-.14.78-.31.78-.59.66-1,.6-1.33,6-31.41.05-.14v-1l-.15-.64-.33-.73-.54-.69Z"/></g><g id="dn_log_mc0_0_Layer15_0_FILL" data-name="dn log mc0 0 Layer15 0 FILL"><path class="cls-1" d="M31.33,18l.9-9.2L9.92,6,6,24.21,2.2,37.7l23.62,4.62L28.14,34Z"/></g><g id="dn_log_mc0_0_Layer14_0_FILL" data-name="dn log mc0 0 Layer14 0 FILL"><path class="cls-3" d="M30.91,17.54l1-9.1L9.58,5.67,6.79,18.42,3.29,30.94,1,36.27,24.59,40.9l3.33-10.1Z"/></g><g id="dn_log_mc0_0_Layer13_0_FILL" data-name="dn log mc0 0 Layer13 0 FILL"><path class="cls-4" d="M26.2,5.57l.26-.43L16.28,4l-.85.76-.54.73-.24.74-.07.69.07.56.12.46.14.3.07.1L25.27,9.84,25.18,9l.07-.86.17-.78Z"/></g><g id="dn_log_mc0_0_Layer12_0_FILL" data-name="dn log mc0 0 Layer12 0 FILL"><path class="cls-4" d="M27,2.39l-.54-.19L25.56,2l-.62-.24-.3-.22-.08-.07,0,0L24.16,1,23.69.62,23.14.31,22.53.07,21.87,0l-.64.07-.69.24L19,1.3l-.41.12-.38.05h-.3l-.38-.07,0,0-.75.19-.48.31L16,2.28l-.07.45.16.85.19.38L26.46,5.14,27,4.79l.38-.43.19-.42.11-.5L27.59,3l-.21-.37Z"/></g><g id="dn_log_mc0_0_Layer11_0_FILL" data-name="dn log mc0 0 Layer11 0 FILL"><path class="cls-5" d="M25.56,2.35l-.45-.19-.92-.62L24,1.4l-.07,0L23.64,1l-.4-.29L22.79.5l-.5-.12h-.52L21.2.47l-.61.24-1.54.83-.4.1-.62,0-.38,0h0l-.76.12L16.45,2l-.24.33-.05.38.05.38.1.3.14.24,0,.07L26.15,5l.9-.62L27.29,4l.14-.33V3.27L27.29,3,27,2.8Z"/></g><g id="dn_log_mc0_0_Layer10_0_FILL" data-name="dn log mc0 0 Layer10 0 FILL"><path class="cls-5" d="M24.73,8.11l.05-.59.19-.6.3-.57L15.5,5.14l-.43.5L15,6.19l.12.45.07.16Z"/></g><g id="dn_log_mc0_0_Layer9_0_FILL" data-name="dn log mc0 0 Layer9 0 FILL"><path class="cls-5" d="M25.61,5.74l.3-.38-.78.76-.4.78-.14.76.05.69L24.8,9l.21.48.19.3.07.1L24.9,9l-.1-.78.07-.79.19-.68Z"/></g><g id="dn_log_mc0_0_Layer8_0_FILL" data-name="dn log mc0 0 Layer8 0 FILL"><path class="cls-3" d="M24.52,7.54l.12-.64-9-1.09L15.45,6l0,.17,0,.16.05.07Z"/></g><g id="dn_log_mc0_0_Layer7_0_FILL" data-name="dn log mc0 0 Layer7 0 FILL"><path class="cls-3" d="M23,1.19l.42.21.26.21.19.12-.45-.57L22.86.73,22.32.57l-.5,0-.47.07L21,.73l-.24.12-.54.45-.88.43-.4.14-.66.1L18.08,2H18l-.36-.12-.26,0-.21,0L16.92,2l-.07.07,0,.07v0L17,2.11l.19,0,.54,0,.69.24.38,0,1.56-.71.45-.31.05,0L21.46,1l.6,0,.49,0Z"/></g><g id="dn_log_mc0_0_Layer6_0_FILL" data-name="dn log mc0 0 Layer6 0 FILL"><path class="cls-6" d="M22.22,1.64l-.38-.08-.38.08-.26.21L21,2.11l-.07.36L21,2.8l.21.28.26.17.38.07.38-.07.26-.17.21-.28.08-.33-.08-.36-.21-.26Z"/></g><g id="dn_log_mc0_0_Layer5_0_FILL" data-name="dn log mc0 0 Layer5 0 FILL"><path d="M29.94,13.4v-.72L10.86,9.91v.71Z"/></g><g id="dn_log_mc0_0_Layer4_0_FILL" data-name="dn log mc0 0 Layer4 0 FILL"><path d="M29.18,17.66v-.73l-19-2.78v.72Z"/></g><g id="dn_log_mc0_0_Layer3_0_FILL" data-name="dn log mc0 0 Layer3 0 FILL"><path d="M28.47,21.91v-.76l-19-2.75v.73Z"/></g><g id="dn_log_mc0_0_Layer2_0_FILL" data-name="dn log mc0 0 Layer2 0 FILL"><path d="M8.12,22.62v.76l19.05,2.77v-.76Z"/></g><g id="dn_log_mc0_0_Layer1_0_FILL" data-name="dn log mc0 0 Layer1 0 FILL"><path d="M7.19,26.7v.76l19.08,2.77v-.76Z"/></g><g id="dn_log_mc0_0_Layer0_0_FILL" data-name="dn log mc0 0 Layer0 0 FILL"><path d="M5.21,30.73v.76l19,3.08v-.76Z"/></g></svg>