<?xml version="1.0" encoding="UTF-8"?><svg id="Layer_1" xmlns="http://www.w3.org/2000/svg" xmlns:xlink="http://www.w3.org/1999/xlink" viewBox="0 0 70.58 70.64"><defs><style>.cls-1{fill:url(#linear-gradient);}.cls-1,.cls-2,.cls-3{stroke-width:0px;}.cls-2{fill:url(#linear-gradient-2);}.cls-3{fill:#fff;}</style><linearGradient id="linear-gradient" x1="-73.23" y1="993.89" x2="-73.23" y2="885.12" gradientTransform="translate(-1021.35 -1200.1) rotate(-45) scale(1.73)" gradientUnits="userSpaceOnUse"><stop offset="0" stop-color="#000"/><stop offset=".31" stop-color="#666"/><stop offset="1" stop-color="#fff"/></linearGradient><linearGradient id="linear-gradient-2" x1="671.23" y1="818.65" x2="671.23" y2="861.17" gradientTransform="translate(-931.29 -1175.45) scale(1.44)" gradientUnits="userSpaceOnUse"><stop offset="0" stop-color="#666"/><stop offset="1" stop-color="#000"/></linearGradient></defs><g id="Layer2_0_FILL"><path class="cls-1" d="M60.48,10.43C53.89,3.62,44.78-.15,35.31,0c-9.35-.1-18.33,3.68-24.8,10.42-13.8,13.51-14.03,35.66-.52,49.46.17.17.34.35.52.52,6.51,6.67,15.48,10.37,24.8,10.23,9.46.18,18.57-3.57,25.17-10.34,6.7-6.5,10.36-15.53,10.09-24.86.31-9.38-3.35-18.46-10.09-25Z"/></g><g id="Layer1_0_FILL"><path class="cls-2" d="M64.83,35.23c.09-7.9-3.07-15.48-8.76-20.96-5.46-5.57-12.97-8.64-20.76-8.48-16.15-.17-29.38,12.78-29.55,28.93,0,.17,0,.34,0,.51-.16,7.79,2.91,15.31,8.48,20.76,5.48,5.69,13.06,8.86,20.96,8.76,7.85.13,15.4-3.05,20.79-8.76,5.74-5.37,8.95-12.91,8.84-20.76Z"/></g><path class="cls-3" d="M45.57,32.78h-20.56c-2.64,0-4.79,2.16-4.79,4.79v9.87c0,2.64,2.16,4.79,4.79,4.79h20.56c2.64,0,4.79-2.16,4.79-4.79v-9.87c0-2.64-2.16-4.79-4.79-4.79ZM37.43,42.91h0c.04.16.06.32.06.49v3.94c0,.85-.46,1.67-1.25,1.99-1.5.6-2.94-.5-2.94-1.93v-4c0-.17.02-.34.06-.5-1.07-.64-1.81-1.77-1.91-3.08-.18-2.24,1.73-4.31,3.97-4.3,2.19,0,3.97,1.78,3.97,3.98,0,1.46-.78,2.73-1.95,3.42Z"/><g id="Layer0_0_MEMBER_0_FILL"><path class="cls-3" d="M42.45,15.23c-.91-.91-1.95-1.61-3.12-2.1-1.21-.51-2.49-.77-3.81-.77-1.33,0-2.6.26-3.82.77-1.17.5-2.21,1.2-3.11,2.1-.91.9-1.61,1.94-2.1,3.11-.51,1.21-.77,2.49-.77,3.81,0,.22,0,.44,0,.65,0,2.22,0,4.01,0,5.36v.17c0,2.86,0,4.55.02,5.09h5.92c-.01-.55-.03-2.3-.04-5.26h0c0-1.35-.01-3.14-.02-5.36v-.08c0-.19,0-.38,0-.57,0-1.08.38-2,1.15-2.77.77-.77,1.69-1.15,2.77-1.15,1.08,0,2.01.38,2.77,1.15.71.71,1.09,1.55,1.14,2.54h5.89c-.03-1.24-.28-2.44-.76-3.58-.5-1.17-1.2-2.21-2.1-3.11Z"/></g></svg>