<svg id="Layer_1" data-name="Layer 1" xmlns="http://www.w3.org/2000/svg" viewBox="0 0 32 25.15"><defs><style>.cls-1{fill:#000016;}.cls-2{fill:#1e3030;}.cls-3{fill:#60605b;}.cls-4{fill:#423f47;}.cls-5{fill:#4f5966;}.cls-6{fill:#6b7f93;}.cls-7{fill:#002d2d;}.cls-8{fill:#006882;}.cls-9{fill:#003066;}.cls-10{fill:#036;}.cls-11{fill:#00386b;}.cls-12{fill:#003d6b;}.cls-13{fill:#004270;}.cls-14{fill:#004470;}.cls-15{fill:#004972;}.cls-16{fill:#004f75;}.cls-17{fill:#005477;}.cls-18{fill:#005677;}.cls-19{fill:#005b7c;}.cls-20{fill:#00607c;}.cls-21{fill:#006682;}.cls-22{fill:#00596d;}</style></defs><title>watching</title><g id="bin_mc" data-name="bin mc"><g id="Binoculars_Source_0_Layer100_0_FILL" data-name="Binoculars Source 0 Layer100 0 FILL"><path class="cls-1" d="M29.38,4.74l-.9,0L24.92,6.8l-1.4-1.65,1.05-1,0-1.35-.22-1-.29-.53L23.92,1,23.7.78,23.45.6,23.16.45l-.7-.26L21.61,0,16.45,2.47l0-.16-.09-.16-.25-.29-.54-.42-.62-.33L14.24.88l-.4-.06h-.19L3.27,5.43v.65L.79,7.4.28,8l-.29,2,.2.78.34.78.73,1.09.61.61.68.45.74.27.39.06.38,0L4.47,14l2.36-1.44,1.72.93.86.35,1,.25,2.86-1.67,1,1.33-.23,1.53v.44l.08.41.16.39.26.41.37.38-.65.91-.11.55-.11,1.12v.56l.17,1.1.31,1,.52.88.71.69.44.25.47.2.53.12.58,0,1.28.3,3.24-2.84.43,0,6.67-7L29,13.32l1.38-1v-.78l-.63-.74,2.17-1.71,0-1.33-.16-.81-.28-.71L31,5.6l-.53-.46L30.12,5Z" transform="translate(0.01)"/></g><g id="Binoculars_Source_0_Layer99_0_FILL" data-name="Binoculars Source 0 Layer99 0 FILL"><path class="cls-2" d="M26.28,9.88l-.66-.49-1.41-.54-6.23,4,.76.53.61.58,2.33,2.77.47.68.57,1.07.39,1.18.18,1.41,0,.54L28.7,16l-.46-2.19-.49-1.56-.64-1.35-.52-.74Z" transform="translate(0.01)"/></g><g id="Binoculars_Source_0_Layer98_0_FILL" data-name="Binoculars Source 0 Layer98 0 FILL"><path class="cls-2" d="M19.49,16.1l-.2-.12-1.05.74.27.15.93.74.78.82.58,1L21,20l.23,1.18,0,2,1.09-.91,0-2.16-.13-.57L22,19l-.28-.5-.78-1-.14-.13-.15-.18Z" transform="translate(0.01)"/></g><g id="Binoculars_Source_0_Layer97_0_FILL" data-name="Binoculars Source 0 Layer97 0 FILL"><path class="cls-2" d="M29.89,4.85l-.7-.12-.06,0-.36.18L25.46,7l0,0,.91.63,1,1.06L28,9.92l.38,1,.17.67L31.94,9l0-.72-.16-1.09-.25-.7-.36-.6L31,5.6l-.51-.45Z" transform="translate(0.01)"/></g><g id="Binoculars_Source_0_Layer96_0_FILL" data-name="Binoculars Source 0 Layer96 0 FILL"><path class="cls-2" d="M23.45,4.55v-1l-1.13.61.1.29.23,1.14.28.85.7.71,1-.62-.7-.71-.34-.56Z" transform="translate(0.01)"/></g><g id="Binoculars_Source_0_Layer95_0_FILL" data-name="Binoculars Source 0 Layer95 0 FILL"><path class="cls-2" d="M20.92,4.61l-.78.48.15.16,1.13,2.29.48.75.74-.53-.47-.43L21.87,7l-.19-.37-.29-1.09-.18-.42Z" transform="translate(0.01)"/></g><g id="Binoculars_Source_0_Layer94_0_FILL" data-name="Binoculars Source 0 Layer94 0 FILL"><path class="cls-2" d="M19.63,6.54,19.08,6,15.33,8.11l.72.37Z" transform="translate(0.01)"/></g><g id="Binoculars_Source_0_Layer93_0_FILL" data-name="Binoculars Source 0 Layer93 0 FILL"><path class="cls-2" d="M21.2,9.13,20,7.65l-3.59,2.4,1.2,1.37Z" transform="translate(0.01)"/></g><g id="Binoculars_Source_0_Layer92_0_FILL" data-name="Binoculars Source 0 Layer92 0 FILL"><path class="cls-2" d="M14.86,10.77l-.55-.45.1,1L14,12l-.47.27.65,1.21,2.1-1.11Z" transform="translate(0.01)"/></g><g id="Binoculars_Source_0_Layer91_0_FILL" data-name="Binoculars Source 0 Layer91 0 FILL"><path class="cls-2" d="M17.15,13.58l-.52-.15-.27,0h-.57l-.59.12-1,.46L14,15v.42l0,.4.61,1.84,3.89-2.84-.66-.74-.23-.19Z" transform="translate(0.01)"/></g><g id="Binoculars_Source_0_Layer90_0_FILL" data-name="Binoculars Source 0 Layer90 0 FILL"><path class="cls-3" d="M11.32,10l0,.28.11.37.2.42.52.54.16.11.16.09.71.26.23-.25.15-.22.07-.19,0-.22L13.62,11l-.29-.46-.22-.28-.55-.56-.45-.09-.36,0-.23.07-.15.14Z" transform="translate(0.01)"/></g><g id="Binoculars_Source_0_Layer89_0_FILL" data-name="Binoculars Source 0 Layer89 0 FILL"><path class="cls-2" d="M8.15,9.44l.12,1-.11.74L6.8,12.22l1,1,.57.42.82.35.75.11h.28l.24-.37.12-.4.06-.45-.17-1-.18-.52-.49-1-1-1.49L7.17,7l.43.8Z" transform="translate(0.01)"/></g><g id="Binoculars_Source_0_Layer88_0_FILL" data-name="Binoculars Source 0 Layer88 0 FILL"><path class="cls-2" d="M3.52,6.8l.79.42L5.25,8l.26.29.4.64.29.69.18.75,0,.81-.08.84,1.27-.91L7.54,9.57l-.21-1-.2-.45-.61-.89L5,6.26Z" transform="translate(0.01)"/></g><g id="Binoculars_Source_0_Layer87_0_FILL" data-name="Binoculars Source 0 Layer87 0 FILL"><path class="cls-2" d="M16.54,2.6l-.26-.43L16,1.83l-.55-.42L15.2,1.3,14.1.86l-1.33.57.92.17.59.23.76.48.44.4.34.48.14.26.19.56,0,.31L17,3.74Z" transform="translate(0.01)"/></g><g id="Binoculars_Source_0_Layer86_0_FILL" data-name="Binoculars Source 0 Layer86 0 FILL"><path class="cls-2" d="M28.22,10.94l-.66-1.32-.27-.42-.92-1.09-.7-.55-.75-.34-1.32.55.43.1.88.38.41.27.81.68,1,1.2.73,1.29.18.41.19.77,0,.33.5-.25-.05-.34Z" transform="translate(0.01)"/></g><g id="Binoculars_Source_0_Layer85_0_FILL" data-name="Binoculars Source 0 Layer85 0 FILL"><path class="cls-2" d="M15.53,3.65l-.08-.2-.33-.52L15,2.78l-.5-.41L13.68,2l-.21-.06-.19-.08-.4-.09L5.63,5.11l1.58.67,1,.62.6.56.41.51Z" transform="translate(0.01)"/></g><g id="Binoculars_Source_0_Layer84_0_FILL" data-name="Binoculars Source 0 Layer84 0 FILL"><path class="cls-2" d="M23.51.77,23,.38,22.7.24,22,0,17,2.68l2.91.82h1.2l1.47-1,.82.47V4.47l1.23-.69-.08-.9L24.33,2l-.13-.28-.29-.49Z" transform="translate(0.01)"/></g><g id="Binoculars_Source_0_Layer83_0_FILL" data-name="Binoculars Source 0 Layer83 0 FILL"><path class="cls-4" d="M27,10.88l-.87-1-.67-.52-6.17,4.34,2.61,3.12,5.8-4.69Z" transform="translate(0.01)"/></g><g id="Binoculars_Source_0_Layer82_0_FILL" data-name="Binoculars Source 0 Layer82 0 FILL"><path class="cls-4" d="M14.6,2.47l-.42-.33L13.92,2l-.26-.07-.27,0-7,3.54.69.26.55.3,1.1.83L15.07,3Z" transform="translate(0.01)"/></g><g id="Binoculars_Source_0_Layer81_0_FILL" data-name="Binoculars Source 0 Layer81 0 FILL"><path class="cls-4" d="M21.36,21.09l1-.78L22,18.93l-.31-.56-.21-.24-.24-.24-.84.62.5.95Z" transform="translate(0.01)"/></g><g id="Binoculars_Source_0_Layer80_0_FILL" data-name="Binoculars Source 0 Layer80 0 FILL"><path class="cls-4" d="M6.54,7.36l-1.07.81.47.92.42,1.57,1.23-.9L7.46,9.1l-.23-.59-.14-.29Z" transform="translate(0.01)"/></g><g id="Binoculars_Source_0_Layer79_0_FILL" data-name="Binoculars Source 0 Layer79 0 FILL"><path class="cls-4" d="M16.36,2.3l-.13-.23-.34-.36-.65-.42-.69.51.16.13.37.33.57.63L16,3.4l.55-.54-.06-.31Z" transform="translate(0.01)"/></g><g id="Binoculars_Source_0_Layer78_0_FILL" data-name="Binoculars Source 0 Layer78 0 FILL"><path class="cls-4" d="M27.29,10.68l.46-.48-.08-.36-.42-.74-.61-.7-.88-.77-.71.61.2.16,1.31,1.26.56.71Z" transform="translate(0.01)"/></g><g id="Binoculars_Source_0_Layer77_0_FILL" data-name="Binoculars Source 0 Layer77 0 FILL"><path class="cls-4" d="M31.44,6.26l-.25-.37-.44-.41L26.93,8.15l.76,1,.4,1,3.68-2.91Z" transform="translate(0.01)"/></g><g id="Binoculars_Source_0_Layer76_0_FILL" data-name="Binoculars Source 0 Layer76 0 FILL"><path class="cls-4" d="M23.22,3.22l1.17-1,0-.19-.1-.22L24.1,1.6,23.33.69,18.86,3.18l1,.29.53,0,.61,0,.43-.09L22.34,3Z" transform="translate(0.01)"/></g><g id="Binoculars_Source_0_Layer75_0_FILL" data-name="Binoculars Source 0 Layer75 0 FILL"><path class="cls-5" d="M26.85,10.55,26.41,10l-.18-.14-6.39,4.55,1.58,1.77,5.88-4.63Z" transform="translate(0.01)"/></g><g id="Binoculars_Source_0_Layer74_0_FILL" data-name="Binoculars Source 0 Layer74 0 FILL"><path class="cls-5" d="M14.76,2.6,13.91,2,7,5.63l1.25.63Z" transform="translate(0.01)"/></g><g id="Binoculars_Source_0_Layer73_0_FILL" data-name="Binoculars Source 0 Layer73 0 FILL"><path class="cls-5" d="M20.88,19.25l.33.83.84-.66-.34-.8Z" transform="translate(0.01)"/></g><g id="Binoculars_Source_0_Layer72_0_FILL" data-name="Binoculars Source 0 Layer72 0 FILL"><path class="cls-5" d="M6,9.15l.23.61L7.38,9,7.17,8.4Z" transform="translate(0.01)"/></g><g id="Binoculars_Source_0_Layer71_0_FILL" data-name="Binoculars Source 0 Layer71 0 FILL"><path class="cls-5" d="M15,2.26l.58.51.76-.52-.48-.5Z" transform="translate(0.01)"/></g><g id="Binoculars_Source_0_Layer70_0_FILL" data-name="Binoculars Source 0 Layer70 0 FILL"><path class="cls-5" d="M25.58,8.77l1.09,1,.65-.48-.91-1.15Z" transform="translate(0.01)"/></g><g id="Binoculars_Source_0_Layer69_0_FILL" data-name="Binoculars Source 0 Layer69 0 FILL"><path class="cls-5" d="M29,7.45l.54,1,2.13-1.75-.45-.73Z" transform="translate(0.01)"/></g><g id="Binoculars_Source_0_Layer68_0_FILL" data-name="Binoculars Source 0 Layer68 0 FILL"><path class="cls-5" d="M21.82,2.66l.15.41.53-.29.37.06,1.44-.93L24,1.44Z" transform="translate(0.01)"/></g><g id="Binoculars_Source_0_Layer67_0_FILL" data-name="Binoculars Source 0 Layer67 0 FILL"><path class="cls-4" d="M21.16,5.14l-.57.38.15,1,.18.49.13.25.44.52.56-.56-.36-.49-.22-.47L21.39,6Z" transform="translate(0.01)"/></g><g id="Binoculars_Source_0_Layer66_0_FILL" data-name="Binoculars Source 0 Layer66 0 FILL"><path class="cls-4" d="M23.53,5.09l-.16-.79-.92.54.16.59.35.9.86-.64Z" transform="translate(0.01)"/></g><g id="Binoculars_Source_0_Layer65_0_FILL" data-name="Binoculars Source 0 Layer65 0 FILL"><path class="cls-2" d="M17.1,17.27l-.58-.18L15.7,17h-.22l-.46.29-.37.37-.29.47-.2.5L14,19.2l0,.62.11,1.27.37,1.26.61,1.11.37.47.44.38.47.29.52.19,0,0,.12,0,.06,0v-.59l-.08,0H17l-.07,0H16.8l-.65-.49-.52-.5-.37-.49L15,22.17l-.16-.56-.17-2L15,18.23l.13-.23.15-.16.15-.13.2-.07h.21l.74.15.5.2Z" transform="translate(0.01)"/></g><g id="Binoculars_Source_0_Layer64_0_FILL" data-name="Binoculars Source 0 Layer64 0 FILL"><path class="cls-2" d="M20.11,21.57l-.6-1.82L19,18.86l-.62-.77-.73-.56-.55-.26V18l.59.34.48.4.39.5.33.54L19.31,21l.24,1.36-.1.71-.15.55-.22.38-.28.25-.34.15-.4,0-.45,0-.51-.14v.59L18,25h.69L19,25l.26-.1.23-.15.19-.19.28-.49.09-.3.11-.74Z" transform="translate(0.01)"/></g><g id="Binoculars_Source_0_Layer63_0_FILL" data-name="Binoculars Source 0 Layer63 0 FILL"><path class="cls-2" d="M2.43,7.85,2.7,8V7.32l-.15-.06-.89-.18H1.29L1,7.24.53,7.7.35,8l-.26.67L0,9.39l.07,1.2L.38,11.7l.45.85.26.39.65.6.37.22.4.12.06,0h.09l0,0v-.5H2.65l-.07,0H2.51l-.07,0-1-.85-.35-.44-.23-.45-.15-.49-.1-.54,0-1.23.15-.69L.8,8.4,1,8l.12-.14.15-.12.17,0h.17Z" transform="translate(0.01)"/></g><g id="Binoculars_Source_0_Layer62_0_FILL" data-name="Binoculars Source 0 Layer62 0 FILL"><path class="cls-2" d="M3.63,7.87,3.2,7.56l-.5-.24V8l.53.29.41.37L4,9.06l.28.48.23.53.29,1.14.08.59-.08.61-.14.49-.19.33-.26.21-.29.13-.36,0-.84-.16v.5l1.09.18.29,0L4.56,14l.22-.12.15-.17.14-.19L5.28,13l.11-1,0-.85L5,9.8,4.37,8.7Z" transform="translate(0.01)"/></g><g id="Binoculars_Source_0_Layer61_0_FILL" data-name="Binoculars Source 0 Layer61 0 FILL"><path class="cls-5" d="M22.6,5.28l.14.49.86-.4-.19-.57Z" transform="translate(0.01)"/></g><g id="Binoculars_Source_0_Layer60_0_FILL" data-name="Binoculars Source 0 Layer60 0 FILL"><path class="cls-5" d="M20.91,6.54l.14.53.53-.39-.16-.43Z" transform="translate(0.01)"/></g><g id="Binoculars_Source_0_Layer59_0_FILL" data-name="Binoculars Source 0 Layer59 0 FILL"><path class="cls-3" d="M8.11,10.07,8,10.83l-.13.31-.21.33-.79.89.81.66.87.56L9,13l.22-.58.07-.62v-.6L8.93,10,8.41,8.81l-1-1.41L8,8.81Z" transform="translate(0.01)"/></g><g id="Binoculars_Source_0_Layer58_0_FILL" data-name="Binoculars Source 0 Layer58 0 FILL"><path class="cls-3" d="M15.07,13.55l-.32.13-.26.16-.21.21-.18.24-.11.29-.07.32v.37l0,.41.25.89.21.49.05-.93.18-.73.27-.55.4-.38.51-.23.63-.11h.36l1.25.11-.77-.66-1.47-.15Z" transform="translate(0.01)"/></g><g id="Binoculars_Source_0_Layer57_0_FILL" data-name="Binoculars Source 0 Layer57 0 FILL"><path class="cls-4" d="M19.81,20.71l-.62-1.43-.3-.45-.7-.74-1-.69-.26-.11-.54-.16-.49,0-.5.07-.37.16-.3.33-.28.54-.22.76-.07.44.36,0,.25-1,.33-.62.48-.26.25,0h.49l.25,0,.49.21.72.49,1.07,1.14.48,1.4Z" transform="translate(0.01)"/></g><g id="Binoculars_Source_0_Layer56_0_FILL" data-name="Binoculars Source 0 Layer56 0 FILL"><path class="cls-4" d="M3.43,7.88l-.69-.43L2,7.21l-.22,0H1.59l-.45.08-.21.07L.39,8l-.23.45-.07.26V9l0,.3H.46l.15-.74L.9,7.84l.54-.17h.49l.22,0,.24.07L2.8,8,3,8.1l.56.49.65.78.41,1.11.44-.08-.32-.78L4.7,9.44,4.45,9l-.19-.26Z" transform="translate(0.01)"/></g><g id="Binoculars_Source_0_Layer55_0_FILL" data-name="Binoculars Source 0 Layer55 0 FILL"><path class="cls-4" d="M19,19.82l.51,1.44.17,1.06v.5l0,.42-.14.43-.23.37-.4.31-.52.28-.81,0L17,24.38l-.36-.22-.31.33.23.21.59.28.69.15.67,0,.3,0,.44-.24.36-.32.26-.42.19-.5.11-.54,0-1.25-.1-.7-.66-1.62Z" transform="translate(0.01)"/></g><g id="Binoculars_Source_0_Layer54_0_FILL" data-name="Binoculars Source 0 Layer54 0 FILL"><path class="cls-5" d="M15.93,17.42l.66.13,1.1.37-.92-.56-.51-.12-.44,0-.38,0-.32.14-.26.19-.19.29-.14.35-.06.43.42-.74.33-.29.16-.09.35-.09Z" transform="translate(0.01)"/></g><g id="Binoculars_Source_0_Layer53_0_FILL" data-name="Binoculars Source 0 Layer53 0 FILL"><path class="cls-5" d="M3.21,7.92,2.39,7.4l-.46-.1H1.55l-.35,0-.27.11-.22.18-.18.24-.12.3-.06.39.24-.47.13-.16L1,7.65l.16-.09.31-.08h.17l.6.1Z" transform="translate(0.01)"/></g><g id="Binoculars_Source_0_Layer52_0_FILL" data-name="Binoculars Source 0 Layer52 0 FILL"><path class="cls-5" d="M17.93,24.79h-.79l.7.2.35,0,.3,0,.33-.1.29-.19.29-.27.27-.36L19.9,23l-.52.93-.12.17-.26.28-.32.21-.15.08Z" transform="translate(0.01)"/></g><g id="Binoculars_Source_0_Layer51_0_FILL" data-name="Binoculars Source 0 Layer51 0 FILL"><path class="cls-2" d="M30.29,12.33l.06-.79-1.48,1,.19.82Z" transform="translate(0.01)"/></g><g id="Binoculars_Source_0_Layer50_0_FILL" data-name="Binoculars Source 0 Layer50 0 FILL"><path class="cls-2" d="M12.26,9.57l.45.17.47.63.33.77-.12.76.88-.73v-.62l-.44-.85-.66-.55Z" transform="translate(0.01)"/></g><g id="Binoculars_Source_0_Layer49_0_FILL" data-name="Binoculars Source 0 Layer49 0 FILL"><path class="cls-4" d="M14.27,10.77,14.09,10l-.41-.51-.75.33.25.52.28,1Z" transform="translate(0.01)"/></g><g id="Binoculars_Source_0_Layer48_0_FILL" data-name="Binoculars Source 0 Layer48 0 FILL"><path class="cls-5" d="M13.18,10.21l.15.45.8-.4-.22-.45Z" transform="translate(0.01)"/></g><g id="Binoculars_Source_0_Layer47_0_FILL" data-name="Binoculars Source 0 Layer47 0 FILL"><path class="cls-6" d="M14.24,2.18h0L7.39,5.89l.36.17,6.71-3.69Z" transform="translate(0.01)"/></g><g id="Binoculars_Source_0_Layer46_0_FILL" data-name="Binoculars Source 0 Layer46 0 FILL"><path class="cls-7" d="M9.58,8.17,16,4.52l-.4-1-.07.06L9.26,7.21l0,0Z" transform="translate(0.01)"/></g><g id="Binoculars_Source_0_Layer45_0_FILL" data-name="Binoculars Source 0 Layer45 0 FILL"><path class="cls-7" d="M12.89,1.81H12L5.29,4.75l-1.87.69,1.25-.18H5.91Z" transform="translate(0.01)"/></g><g id="Binoculars_Source_0_Layer44_0_FILL" data-name="Binoculars Source 0 Layer44 0 FILL"><path class="cls-6" d="M26.93,10.91l-.26-.44-.1-.11L20.4,14.85l.62.76Z" transform="translate(0.01)"/></g><g id="Binoculars_Source_0_Layer43_0_FILL" data-name="Binoculars Source 0 Layer43 0 FILL"><path class="cls-8" d="M19.11,4.75h.61l.76.53L21.06,5l.05,0v0l-.62-.52-.62-.16-.69.16-.61.22-.76-.08-.7.24.77.14h.55Z" transform="translate(0.01)"/></g><g id="Binoculars_Source_0_Layer42_0_FILL" data-name="Binoculars Source 0 Layer42 0 FILL"><path class="cls-8" d="M22.12.07h-1L16.51,2.45l.58.26Z" transform="translate(0.01)"/></g><g id="Binoculars_Source_0_Layer41_0_FILL" data-name="Binoculars Source 0 Layer41 0 FILL"><path class="cls-1" d="M21.71,2.25l-.5-.51-.41-.26-.74-.33L19.45,1,19,1.18l1.48.6L21,2l.37.28.17.17.42.69.4,1.05.18-.3-.37-1Z" transform="translate(0.01)"/></g><g id="Binoculars_Source_0_Layer40_0_FILL" data-name="Binoculars Source 0 Layer40 0 FILL"><path class="cls-8" d="M22.9,3.22l-.18-.07h-.17l-.18,0-1.58.41h-.57L18.1,3.29l-.77.38.94.23L19.84,4l.17,0h.2l1.19-.11h.31l.19,0,.1,0,.08.06.11.06.13.12,1-.54-.23-.22Z" transform="translate(0.01)"/></g><g id="Binoculars_Source_0_Layer39_0_FILL" data-name="Binoculars Source 0 Layer39 0 FILL"><path class="cls-8" d="M29.14,4.74h-.9L24.86,6.91l.55.17Z" transform="translate(0.01)"/></g><g id="Binoculars_Source_0_Layer38_0_FILL" data-name="Binoculars Source 0 Layer38 0 FILL"><path class="cls-1" d="M28.87,7.36,28,6.48,26.57,6l-.49.23.38,0,.36.09.62.25L28,7l.49.51.61,1,.18.37.7,1.84.21-.36-.76-2.14Z" transform="translate(0.01)"/></g><g id="Binoculars_Source_0_Layer37_0_FILL" data-name="Binoculars Source 0 Layer37 0 FILL"><path class="cls-9" d="M18.64,20.47,18.45,20l-.25-.45-.29-.39-.3-.32-.35-.24-.37-.16-.35-.05-.35.05-.3.16-.26.24-.21.32-.14.39L15.2,20v.49l.05.54.33,1,.51.84.33.33.33.23.36.17.36.05.34-.05.3-.17.26-.23.21-.33.15-.4L18.8,22l0-.49Z" transform="translate(0.01)"/></g><g id="Binoculars_Source_0_Layer36_0_FILL" data-name="Binoculars Source 0 Layer36 0 FILL"><path class="cls-10" d="M18.71,21.49l-.17-1L18.36,20l-.23-.42-.26-.36-.32-.32-.31-.23-.35-.15-.34,0-.32,0-.29.15-.24.23-.2.32-.14.36-.08.9.05.49.12.51.41.89.57.67.31.23.35.14.34.06.32-.06.3-.14.23-.23.2-.3.15-.37Z" transform="translate(0.01)"/></g><g id="Binoculars_Source_0_Layer35_0_FILL" data-name="Binoculars Source 0 Layer35 0 FILL"><path class="cls-11" d="M18.59,21.89l0-.92-.11-.48-.39-.84L17.53,19l-.31-.21-.33-.15-.31,0-.32,0L16,18.8l-.22.21-.2.29-.13.35-.06.4,0,.92.11.48.38.83.54.65.3.2.33.15.32,0,.31,0c.09-.05.19-.09.28-.15l.22-.2.18-.29.15-.36Z" transform="translate(0.01)"/></g><g id="Binoculars_Source_0_Layer34_0_FILL" data-name="Binoculars Source 0 Layer34 0 FILL"><path class="cls-12" d="M18.46,21l-.26-.86-.45-.71-.25-.28-.3-.2-.31-.13-.3-.05-.29.05L16,18.9l-.22.2-.17.28-.13.34-.07.37v.41l.05.45.11.46.36.79.23.33.29.27.29.21.29.12.3.06.29-.06.26-.12.21-.21.18-.27.13-.33.06-.38,0-.41Z" transform="translate(0.01)"/></g><g id="Binoculars_Source_0_Layer33_0_FILL" data-name="Binoculars Source 0 Layer33 0 FILL"><path class="cls-13" d="M18.34,22.11l.08-.74-.15-.83-.17-.41-.41-.67-.25-.26L17.17,19l-.28-.11-.29,0-.27,0-.25.11-.2.19-.17.26-.11.32-.07.35v.41l.05.41.1.42.15.39.43.67.24.25.28.2L17,23l.29,0,.28,0,.23-.12.22-.2Z" transform="translate(0.01)"/></g><g id="Binoculars_Source_0_Layer32_0_FILL" data-name="Binoculars Source 0 Layer32 0 FILL"><path class="cls-14" d="M18.27,20.94l-.1-.38-.33-.72-.2-.28-.25-.25-.24-.17L16.89,19l-.27,0-.26,0-.22.13-.2.17-.15.25-.11.28-.08.72.05.38.1.38.32.7.21.3.24.24.25.18.25.12.27,0,.26,0,.24-.12.19-.18.14-.24.12-.3.06-.33v-.37Z" transform="translate(0.01)"/></g><g id="Binoculars_Source_0_Layer31_0_FILL" data-name="Binoculars Source 0 Layer31 0 FILL"><path class="cls-15" d="M18.2,21.63l0-.7-.09-.37-.29-.66-.2-.28-.23-.23-.22-.15-.26-.12-.25,0-.23,0-.22.12-.18.15-.14.23-.16.59,0,.72.09.37.3.65.2.28.22.22.23.16.25.11.24,0,.25,0,.21-.11.18-.16.15-.22Z" transform="translate(0.01)"/></g><g id="Binoculars_Source_0_Layer30_0_FILL" data-name="Binoculars Source 0 Layer30 0 FILL"><path class="cls-16" d="M16.65,19.23l-.22,0-.2.1-.16.15-.13.22-.09.23-.07.29,0,.66.08.34.28.62.17.23.21.21.23.16.22.1.24,0,.22,0,.19-.1.16-.16.13-.21.11-.23.05-.62,0-.34-.21-.66-.34-.52-.2-.22-.23-.15-.22-.1Z" transform="translate(0.01)"/></g><g id="Binoculars_Source_0_Layer29_0_FILL" data-name="Binoculars Source 0 Layer29 0 FILL"><path class="cls-17" d="M16.65,19.35l-.2,0-.17.09-.16.14L16,19.8l-.07.22-.07.56,0,.31.19.61.14.26.18.24.18.19.41.23.21,0,.19,0,.2-.1.14-.13.11-.19.1-.24,0-.26,0-.61-.17-.59L17.64,20l-.17-.22-.19-.19-.19-.14-.23-.09Z" transform="translate(0.01)"/></g><g id="Binoculars_Source_0_Layer28_0_FILL" data-name="Binoculars Source 0 Layer28 0 FILL"><path class="cls-18" d="M17.41,19.87l-.16-.16-.19-.14-.2-.08-.19,0-.18,0-.16.08-.15.14-.11.16-.11.45,0,.28.1.57.11.26.28.46.17.17.18.13.2.08.19,0,.18,0,.16-.08.14-.13.11-.17.08-.21.06-.25v-.26l-.1-.57-.11-.28Z" transform="translate(0.01)"/></g><g id="Binoculars_Source_0_Layer27_0_FILL" data-name="Binoculars Source 0 Layer27 0 FILL"><path class="cls-19" d="M17.5,20.15l-.15-.2L17,19.68l-.18-.06-.17,0-.17,0-.15.06-.22.27-.08.2,0,.46,0,.26.07.26.21.47.29.33.16.13.18.07.18,0,.15,0,.15-.07.13-.13.11-.15.07-.18.05-.47,0-.26-.06-.26Z" transform="translate(0.01)"/></g><g id="Binoculars_Source_0_Layer26_0_FILL" data-name="Binoculars Source 0 Layer26 0 FILL"><path class="cls-20" d="M17.53,20.41l-.1-.2-.26-.3-.31-.18h-.31l-.23.18-.1.14-.07.16,0,.43.08.45.18.41.26.32L17,22h.3l.25-.18.09-.14.06-.18,0-.19v-.22l0-.23Z" transform="translate(0.01)"/></g><g id="Binoculars_Source_0_Layer25_0_FILL" data-name="Binoculars Source 0 Layer25 0 FILL"><path class="cls-21" d="M17.36,20.28l-.11-.15L17.13,20l-.14-.1-.13-.07h-.27l-.11.07-.11.1-.07.12-.07.15,0,.18,0,.38,0,.21.17.36.11.16.26.21.12,0,.15,0,.13,0,.12,0,.18-.21.05-.16,0-.17,0-.4,0-.19Z" transform="translate(0.01)"/></g><g id="Binoculars_Source_0_Layer24_0_FILL" data-name="Binoculars Source 0 Layer24 0 FILL"><path class="cls-8" d="M17.36,20.5l-.08-.16-.19-.24L17,20l-.11,0-.13,0-.12,0-.09,0-.08.08-.07.11-.08.29,0,.34.1.33.08.15.1.13.11.12.11.07.11.05.13,0,.11,0,.1-.05.1-.07.11-.25,0-.15V21l0-.18Z" transform="translate(0.01)"/></g><g id="Binoculars_Source_0_Layer23_0_FILL" data-name="Binoculars Source 0 Layer23 0 FILL"><path class="cls-9" d="M2.7,8.22l-.3-.05-.27.05-.26.13-.21.19-.17.27-.12.33-.07.37v.4l0,.44.26.85.44.67.26.26.28.2.3.11.29.06.29-.06.24-.11.24-.2.15-.26.13-.33.06-.34,0-.43-.06-.42L4,9.51l-.2-.37-.24-.33-.25-.27L3,8.35Z" transform="translate(0.01)"/></g><g id="Binoculars_Source_0_Layer22_0_FILL" data-name="Binoculars Source 0 Layer22 0 FILL"><path class="cls-10" d="M1.55,8.88l-.11.3-.07.36,0,.38.14.84.15.38.42.65.24.26.28.17.27.11.29.05.28-.05.22-.11.22-.17L4,11.79l.11-.31.06-.34,0-.38,0-.41-.1-.43-.34-.74-.22-.3-.26-.26L3,8.43,2.7,8.32l-.28-.05-.28.05-.22.11-.22.19Z" transform="translate(0.01)"/></g><g id="Binoculars_Source_0_Layer21_0_FILL" data-name="Binoculars Source 0 Layer21 0 FILL"><path class="cls-11" d="M1.49,9.24l-.08.7.15.76.14.37.18.33.22.29.22.23.26.18.26.12.27,0,.27,0,.2-.12.2-.18.15-.23L4,11.4l.08-.7L4,9.94l-.13-.37L3.45,9,3.21,8.7,3,8.52,2.7,8.4l-.27,0-.25,0L2,8.52l-.2.18Z" transform="translate(0.01)"/></g><g id="Binoculars_Source_0_Layer20_0_FILL" data-name="Binoculars Source 0 Layer20 0 FILL"><path class="cls-12" d="M1.66,9l-.1.28-.07.33,0,.71.22.71.36.58.22.2.25.17.25.11.25,0,.24,0L3.53,12l.18-.17.15-.2L4,11l0-.71L3.89,10,3.6,9.28,3.4,9l-.46-.38-.25-.11-.26,0-.24,0L2,8.62l-.18.18Z" transform="translate(0.01)"/></g><g id="Binoculars_Source_0_Layer19_0_FILL" data-name="Binoculars Source 0 Layer19 0 FILL"><path class="cls-13" d="M1.73,9.09l-.1.26-.07.6,0,.36.08.34.29.6.19.26.22.21.21.16.25.1.23,0,.23,0,.2-.1.15-.16.15-.21.1-.26.06-.6L3.82,10l-.13-.32-.34-.54-.21-.21-.22-.16-.23-.11-.25,0-.22,0L2,8.72l-.18.16Z" transform="translate(0.01)"/></g><g id="Binoculars_Source_0_Layer18_0_FILL" data-name="Binoculars Source 0 Layer18 0 FILL"><path class="cls-14" d="M1.78,9.15l-.09.24-.05.27V10l0,.31.19.63.33.5.19.19.22.15.21.09.23,0,.21,0,.19-.09.15-.15.13-.19.09-.22.06-.28,0-.63-.19-.63-.14-.27-.18-.24L3.11,9,2.9,8.8l-.21-.1-.22,0-.22,0-.19.1L1.92,9Z" transform="translate(0.01)"/></g><g id="Binoculars_Source_0_Layer17_0_FILL" data-name="Binoculars Source 0 Layer17 0 FILL"><path class="cls-15" d="M1.75,9.44,1.7,9.7l0,.59.18.58.3.48.18.19.19.14.2.09.2,0,.21,0,.18-.09.14-.14.11-.19.08-.22.07-.54,0-.3L3.57,9.7l-.15-.26L3.08,9l-.2-.15-.2-.08-.21,0-.19,0-.18.08L2,9l-.11.18Z" transform="translate(0.01)"/></g><g id="Binoculars_Source_0_Layer16_0_FILL" data-name="Binoculars Source 0 Layer16 0 FILL"><path class="cls-16" d="M1.82,9.48l-.05.25,0,.55.15.55.14.23.14.19.18.18.17.13.18.08.2,0,.17,0,.17-.08.14-.13.18-.37.05-.23v-.26L3.6,10l-.22-.51-.33-.35L2.87,9l-.19-.08-.2,0-.18,0L2.14,9,2,9.13l-.1.15Z" transform="translate(0.01)"/></g><g id="Binoculars_Source_0_Layer15_0_FILL" data-name="Binoculars Source 0 Layer15 0 FILL"><path class="cls-17" d="M1.88,9.54l0,.46.09.51.09.25.12.22.14.18.15.16.16.12.18.07.18,0,.16,0,.14-.07.14-.12.1-.16L3.57,11l0-.47L3.52,10l-.21-.46-.15-.19-.31-.28L2.68,9,2.5,9,2.33,9l-.14.07-.13.13L2,9.35Z" transform="translate(0.01)"/></g><g id="Binoculars_Source_0_Layer14_0_FILL" data-name="Binoculars Source 0 Layer14 0 FILL"><path class="cls-18" d="M2,9.61,1.9,10l0,.24L2,10.5l.18.42.26.3.15.11.17.09h.32l.13-.09.11-.11.1-.15.07-.15,0-.42,0-.24-.15-.45-.22-.38-.29-.25L2.68,9.1H2.36l-.14.08-.11.11L2,9.43Z" transform="translate(0.01)"/></g><g id="Binoculars_Source_0_Layer13_0_FILL" data-name="Binoculars Source 0 Layer13 0 FILL"><path class="cls-19" d="M2,10.46l.18.38.11.16.14.13.12.09.15.07.14,0,.15,0,.13-.07.09-.09L3.34,11l.06-.16,0-.18v-.41l0-.22-.09-.2-.21-.35L3,9.36l-.15-.1L2.66,9.2l-.15,0-.14,0-.12.06-.1.1-.08.12,0,.17,0,.18v.42Z" transform="translate(0.01)"/></g><g id="Binoculars_Source_0_Layer12_0_FILL" data-name="Binoculars Source 0 Layer12 0 FILL"><path class="cls-20" d="M2.06,10.25l0,.19.07.17.19.3.11.12.26.14.13,0,.11,0L3.2,11l.12-.26,0-.16v-.36l-.11-.37-.31-.44-.26-.15H2.42l-.12.07-.09.08-.14.28,0,.16Z" transform="translate(0.01)"/></g><g id="Binoculars_Source_0_Layer11_0_FILL" data-name="Binoculars Source 0 Layer11 0 FILL"><path class="cls-21" d="M2.18,10.4l0,.15.08.14.1.14.21.17.12.05H3l.1-.05.08-.08.07-.09.07-.28V10.4l0-.18-.09-.31-.08-.15L3,9.63l-.21-.17-.11-.05-.11,0-.12,0-.1.05-.08.08-.06.09-.08.28v.14Z" transform="translate(0.01)"/></g><g id="Binoculars_Source_0_Layer10_0_FILL" data-name="Binoculars Source 0 Layer10 0 FILL"><path class="cls-8" d="M2.25,9.7l-.06.22v.29l0,.15.14.25.07.12.08.08.1.06.09.05.1,0L3,10.87l.13-.14.06-.23v-.29l-.08-.29L2.94,9.7l-.18-.15-.1,0-.09,0-.18.07Z" transform="translate(0.01)"/></g><g id="Binoculars_Source_0_Layer9_0_FILL" data-name="Binoculars Source 0 Layer9 0 FILL"><path class="cls-6" d="M15.16,2.36l.29.23.73-.53L16,1.86Z" transform="translate(0.01)"/></g><g id="Binoculars_Source_0_Layer8_0_FILL" data-name="Binoculars Source 0 Layer8 0 FILL"><path class="cls-6" d="M26,9.17l.4.24.69-.52-.28-.26Z" transform="translate(0.01)"/></g><g id="Binoculars_Source_0_Layer7_0_FILL" data-name="Binoculars Source 0 Layer7 0 FILL"><path class="cls-8" d="M13.32,9.25,12.47,9l-.26.11-.8.5,1-.05.78-.26.11-.06Z" transform="translate(0.01)"/></g><g id="Binoculars_Source_0_Layer6_0_FILL" data-name="Binoculars Source 0 Layer6 0 FILL"><path class="cls-8" d="M13.92.85,13.29.77l-9.9,4.6.91,0Z" transform="translate(0.01)"/></g><g id="Binoculars_Source_0_Layer5_0_FILL" data-name="Binoculars Source 0 Layer5 0 FILL"><path class="cls-1" d="M11.06,1.85l1.21-.1.5-.34-1.06.14Z" transform="translate(0.01)"/></g><g id="Binoculars_Source_0_Layer4_0_FILL" data-name="Binoculars Source 0 Layer4 0 FILL"><path class="cls-1" d="M22.55,7.91l-.66.27,1.22-.08.49-.34Z" transform="translate(0.01)"/></g><g id="Binoculars_Source_0_Layer3_0_FILL" data-name="Binoculars Source 0 Layer3 0 FILL"><path class="cls-22" d="M15.65,6,12.4,7.65l1.36.74L15.44,8l3.65-2-1.56.32H16.48Z" transform="translate(0.01)"/></g><g id="Binoculars_Source_0_Layer2_0_FILL" data-name="Binoculars Source 0 Layer2 0 FILL"><path class="cls-22" d="M1.9,6.8l.86-.14,1.06.18L4.9,6.2,3.32,6.11Z" transform="translate(0.01)"/></g><g id="Binoculars_Source_0_Layer1_0_FILL" data-name="Binoculars Source 0 Layer1 0 FILL"><path class="cls-22" d="M19.4,16.17l-.1-.07-.48-.19-.44-.09h-.5l-.41.06-.67.22-1,.63,1-.2h.48l1.2.26,0,0,.71-.52.12-.06Z" transform="translate(0.01)"/></g><g id="Binoculars_Source_0_Layer0_0_FILL" data-name="Binoculars Source 0 Layer0 0 FILL"><path class="cls-6" d="M29.17,7.74l.26.41,2-1.59-.16-.33Z" transform="translate(0.01)"/></g></g></svg>