<svg id="Layer_1" data-name="Layer 1" xmlns="http://www.w3.org/2000/svg" xmlns:xlink="http://www.w3.org/1999/xlink" viewBox="0 0 153.4 78.47"><defs><style>.cls-1{fill:none;}.cls-2{fill:#690;}.cls-3{fill:url(#linear-gradient);}.cls-4{clip-path:url(#clip-path);}.cls-5{isolation:isolate;}.cls-6{fill:#fff;}</style><linearGradient id="linear-gradient" x1="512.34" y1="-375.14" x2="512.34" y2="-301.32" gradientTransform="matrix(1.01, 0, 0, -0.98, -440.75, -292.84)" gradientUnits="userSpaceOnUse"><stop offset="0" stop-color="#395500"/><stop offset="1" stop-color="#649500"/></linearGradient><clipPath id="clip-path" transform="translate(-0.02 -0.02)"><rect class="cls-1" x="30.55" y="6.15" width="94.1" height="65.35"/></clipPath></defs><title>yes_btn_up</title><g id="Layer1_0_FILL" data-name="Layer1 0 FILL"><path class="cls-2" d="M3,0C1,0,0,1,0,3V75.47q0,3,3,3h147.4q3,0,3-3V3c0-2-1-3-3-3Z" transform="translate(-0.02 -0.02)"/></g><g id="Layer1_1_FILL" data-name="Layer1 1 FILL"><path class="cls-3" d="M150,2.84H3.5v72H150Z" transform="translate(-0.02 -0.02)"/></g><g class="cls-4"><g class="cls-5"><g class="cls-5"><path class="cls-6" d="M45.25,54.26v-12L36,27.87a30.1,30.1,0,0,1-1.72-3A4.62,4.62,0,0,1,33.76,23a3,3,0,0,1,1-2.28,3.58,3.58,0,0,1,2.53-1,3.06,3.06,0,0,1,2.39.9,25.79,25.79,0,0,1,2.45,3.56l7.09,11.51,7.17-11.51,1.08-1.79a12.33,12.33,0,0,1,1-1.36,4.1,4.1,0,0,1,1.18-1,3.45,3.45,0,0,1,1.58-.34,3.33,3.33,0,0,1,2.42.95,3,3,0,0,1,1,2.19,4.51,4.51,0,0,1-.49,2,26.3,26.3,0,0,1-1.68,2.8l-9.5,14.57v12a5,5,0,0,1-1.09,3.52,3.88,3.88,0,0,1-5.54,0A5.08,5.08,0,0,1,45.25,54.26Z" transform="translate(-0.02 -0.02)"/><path class="cls-6" d="M85.81,46.32H72a9.27,9.27,0,0,0,1,4.24,6.49,6.49,0,0,0,6,3.7,8.41,8.41,0,0,0,2.32-.3,7.12,7.12,0,0,0,2-.93,14,14,0,0,0,1.81-1.36c.55-.48,1.27-1.13,2.15-2a2.31,2.31,0,0,1,1.55-.47,2.54,2.54,0,0,1,1.76.6,2.1,2.1,0,0,1,.67,1.68,4.62,4.62,0,0,1-.75,2.24,9,9,0,0,1-2.26,2.46,13.14,13.14,0,0,1-3.8,2,16.37,16.37,0,0,1-5.27.78q-6.81,0-10.59-3.88T64.77,44.53a17.65,17.65,0,0,1,.93-5.81,12.72,12.72,0,0,1,2.72-4.59,11.63,11.63,0,0,1,4.39-2.94,15.88,15.88,0,0,1,5.8-1,13.73,13.73,0,0,1,7.11,1.75,11.48,11.48,0,0,1,4.43,4.51,11.83,11.83,0,0,1,1.48,5.64c0,1.78-.51,2.93-1.53,3.46A9.46,9.46,0,0,1,85.81,46.32ZM72,42.31H84.8a8.65,8.65,0,0,0-2-5.43,5.88,5.88,0,0,0-4.46-1.79A5.65,5.65,0,0,0,74,36.91,9.09,9.09,0,0,0,72,42.31Z" transform="translate(-0.02 -0.02)"/><path class="cls-6" d="M120.33,49.71a8.2,8.2,0,0,1-5.63,8.16A18.77,18.77,0,0,1,107.93,59a16.44,16.44,0,0,1-6.52-1.17,9.39,9.39,0,0,1-4-2.91,5.86,5.86,0,0,1-1.29-3.51,2.72,2.72,0,0,1,.82-2,2.86,2.86,0,0,1,2.1-.83,2.43,2.43,0,0,1,1.71.55,6.32,6.32,0,0,1,1.14,1.52,6.8,6.8,0,0,0,6.73,3.76,6,6,0,0,0,3.48-.95,2.66,2.66,0,0,0,1.35-2.16A3,3,0,0,0,112,48.54a17.55,17.55,0,0,0-4.64-1.63,37.72,37.72,0,0,1-5.94-1.9,9.64,9.64,0,0,1-3.66-2.63,6,6,0,0,1-1.37-4,7.11,7.11,0,0,1,1.26-4,8.76,8.76,0,0,1,3.74-3,14.36,14.36,0,0,1,6-1.13,19.58,19.58,0,0,1,4.93.57A12.3,12.3,0,0,1,116,32.32a7.55,7.55,0,0,1,2.22,2.12,4.18,4.18,0,0,1,.77,2.28,2.65,2.65,0,0,1-.82,2,3.2,3.2,0,0,1-2.31.78,2.83,2.83,0,0,1-1.86-.63A12,12,0,0,1,112.23,37a6.43,6.43,0,0,0-1.89-1.65,5.9,5.9,0,0,0-3-.63,5.78,5.78,0,0,0-3.18.82,2.37,2.37,0,0,0-1.27,2,2.22,2.22,0,0,0,.93,1.83,7.83,7.83,0,0,0,2.51,1.17q1.58.47,4.35,1.14a23.11,23.11,0,0,1,5.37,1.92,8.8,8.8,0,0,1,3.15,2.62A5.8,5.8,0,0,1,120.33,49.71Z" transform="translate(-0.02 -0.02)"/></g></g></g></svg>